M48
; DRILL file {KiCad (5.1.2)-2} date 07/31/19 12:25:31
; FORMAT={-:-/ absolute / inch / decimal}
; #@! TF.CreationDate,2019-07-31T12:25:31+05:30
; #@! TF.GenerationSoftware,Kicad,Pcbnew,(5.1.2)-2
; #@! TF.FileFunction,Plated,1,2,PTH
FMAT,2
INCH
T1C0.0157
T2C0.0300
T3C0.0315
T4C0.0354
T5C0.0394
T6C0.0433
T7C0.0472
T8C0.0591
T9C0.0598
%
G90
G05
T1
X3.189Y-4.4882
X3.189Y-4.685
X3.189Y-5.0787
X3.189Y-5.315
T2
X3.3858Y-2.3622
X3.3858Y-3.1102
X5.0Y-2.3622
X5.0Y-3.1102
T3
X3.9685Y-3.6417
X4.4685Y-3.6417
X5.0Y-4.5787
X5.0Y-5.0787
X4.8031Y-4.8543
X4.8031Y-5.3543
X3.3189Y-4.4488
X3.8189Y-4.4488
X4.6063Y-5.1299
X4.6063Y-5.6299
X3.3189Y-4.252
X3.8189Y-4.252
X3.9685Y-3.4744
X4.4685Y-3.4744
X3.2874Y-4.9508
X3.3858Y-4.9508
X4.0945Y-4.3307
X4.0945Y-4.4307
X4.0945Y-4.5307
X4.0945Y-4.6307
X4.0945Y-4.7307
X4.0945Y-4.8307
X4.0945Y-4.9307
X4.0945Y-5.0307
X4.0945Y-5.1307
X4.0945Y-5.2307
X4.0945Y-5.3307
X4.0945Y-5.4307
X4.0945Y-5.5307
X4.0945Y-5.6307
X4.3945Y-4.3307
X4.3945Y-4.4307
X4.3945Y-4.5307
X4.3945Y-4.6307
X4.3945Y-4.7307
X4.3945Y-4.8307
X4.3945Y-4.9307
X4.3945Y-5.0307
X4.3945Y-5.1307
X4.3945Y-5.2307
X4.3945Y-5.3307
X4.3945Y-5.4307
X4.3945Y-5.5307
X4.3945Y-5.6307
X3.3189Y-5.2756
X3.8189Y-5.2756
X3.3189Y-5.4724
X3.8189Y-5.4724
X3.9685Y-3.3169
X4.4685Y-3.3169
X3.2874Y-4.7539
X3.3858Y-4.7539
X3.3189Y-4.0551
X3.8189Y-4.0551
X3.3189Y-5.6693
X3.8189Y-5.6693
X3.9665Y-3.8091
X4.4665Y-3.8091
T4
X4.6638Y-4.2913
X4.7638Y-4.2913
X4.6244Y-3.622
X4.7244Y-3.622
X4.6457Y-3.937
X4.7457Y-3.937
T5
X5.3543Y-3.878
X5.3543Y-3.978
X5.3543Y-4.078
X5.3543Y-5.2559
X5.3543Y-5.3559
X5.3543Y-5.4559
X5.315Y-2.5
X5.315Y-2.6
X5.315Y-2.7
T6
X4.1043Y-3.9961
X4.1043Y-4.1732
X4.3602Y-3.9961
X4.3602Y-4.1732
T7
X2.9528Y-5.2362
X2.9528Y-5.3362
X2.9528Y-3.4646
X2.9528Y-3.5646
X2.9528Y-5.6299
X2.9528Y-5.7299
X5.3937Y-3.1661
X5.3937Y-3.3661
X2.9528Y-4.252
X2.9528Y-4.352
X2.9528Y-3.8583
X2.9528Y-3.9583
X5.3937Y-4.5472
X5.3937Y-4.7472
X2.9528Y-4.8425
X2.9528Y-4.9425
X5.3543Y-1.7717
X5.3543Y-1.9717
T8
X3.5827Y-4.7539
X3.5827Y-4.9469
T9
X5.6693Y-1.8079
X5.6693Y-2.0079
X2.9528Y-2.5591
X2.9528Y-2.7591
X5.7087Y-3.1858
X5.7087Y-3.3858
X5.7087Y-4.5638
X5.7087Y-4.7638
T0
M30
