G04 #@! TF.GenerationSoftware,KiCad,Pcbnew,(5.1.2)-2*
G04 #@! TF.CreationDate,2019-07-31T12:25:26+05:30*
G04 #@! TF.ProjectId,DoorInterlock29_07_2019,446f6f72-496e-4746-9572-6c6f636b3239,rev?*
G04 #@! TF.SameCoordinates,Original*
G04 #@! TF.FileFunction,Copper,L2,Bot*
G04 #@! TF.FilePolarity,Positive*
%FSLAX46Y46*%
G04 Gerber Fmt 4.6, Leading zero omitted, Abs format (unit mm)*
G04 Created by KiCad (PCBNEW (5.1.2)-2) date 2019-07-31 12:25:26*
%MOMM*%
%LPD*%
G04 APERTURE LIST*
%ADD10C,0.300000*%
%ADD11C,0.375000*%
%ADD12R,2.400000X2.400000*%
%ADD13O,2.400000X2.400000*%
%ADD14R,1.800000X1.800000*%
%ADD15C,1.800000*%
%ADD16R,3.000000X3.000000*%
%ADD17C,3.000000*%
%ADD18R,2.600000X2.000000*%
%ADD19O,2.600000X2.000000*%
%ADD20O,1.800000X1.800000*%
%ADD21C,1.600000*%
%ADD22O,1.600000X1.600000*%
%ADD23C,2.000000*%
%ADD24C,2.300000*%
%ADD25R,2.400000X1.600000*%
%ADD26O,2.400000X1.600000*%
%ADD27C,1.524000*%
%ADD28C,0.800000*%
%ADD29C,0.800000*%
%ADD30C,1.200000*%
%ADD31C,0.254000*%
G04 APERTURE END LIST*
D10*
X108666666Y-38904761D02*
X108666666Y-36904761D01*
X108190476Y-36904761D01*
X107904761Y-37000000D01*
X107714285Y-37190476D01*
X107619047Y-37380952D01*
X107523809Y-37761904D01*
X107523809Y-38047619D01*
X107619047Y-38428571D01*
X107714285Y-38619047D01*
X107904761Y-38809523D01*
X108190476Y-38904761D01*
X108666666Y-38904761D01*
X106380952Y-38904761D02*
X106571428Y-38809523D01*
X106666666Y-38714285D01*
X106761904Y-38523809D01*
X106761904Y-37952380D01*
X106666666Y-37761904D01*
X106571428Y-37666666D01*
X106380952Y-37571428D01*
X106095238Y-37571428D01*
X105904761Y-37666666D01*
X105809523Y-37761904D01*
X105714285Y-37952380D01*
X105714285Y-38523809D01*
X105809523Y-38714285D01*
X105904761Y-38809523D01*
X106095238Y-38904761D01*
X106380952Y-38904761D01*
X104857142Y-38904761D02*
X104857142Y-37571428D01*
X104857142Y-37952380D02*
X104761904Y-37761904D01*
X104666666Y-37666666D01*
X104476190Y-37571428D01*
X104285714Y-37571428D01*
X102761904Y-38904761D02*
X102761904Y-37857142D01*
X102857142Y-37666666D01*
X103047619Y-37571428D01*
X103428571Y-37571428D01*
X103619047Y-37666666D01*
X102761904Y-38809523D02*
X102952380Y-38904761D01*
X103428571Y-38904761D01*
X103619047Y-38809523D01*
X103714285Y-38619047D01*
X103714285Y-38428571D01*
X103619047Y-38238095D01*
X103428571Y-38142857D01*
X102952380Y-38142857D01*
X102761904Y-38047619D01*
X101142857Y-37857142D02*
X100857142Y-37952380D01*
X100761904Y-38047619D01*
X100666666Y-38238095D01*
X100666666Y-38523809D01*
X100761904Y-38714285D01*
X100857142Y-38809523D01*
X101047619Y-38904761D01*
X101809523Y-38904761D01*
X101809523Y-36904761D01*
X101142857Y-36904761D01*
X100952380Y-37000000D01*
X100857142Y-37095238D01*
X100761904Y-37285714D01*
X100761904Y-37476190D01*
X100857142Y-37666666D01*
X100952380Y-37761904D01*
X101142857Y-37857142D01*
X101809523Y-37857142D01*
X98952380Y-38904761D02*
X98952380Y-37857142D01*
X99047619Y-37666666D01*
X99238095Y-37571428D01*
X99619047Y-37571428D01*
X99809523Y-37666666D01*
X98952380Y-38809523D02*
X99142857Y-38904761D01*
X99619047Y-38904761D01*
X99809523Y-38809523D01*
X99904761Y-38619047D01*
X99904761Y-38428571D01*
X99809523Y-38238095D01*
X99619047Y-38142857D01*
X99142857Y-38142857D01*
X98952380Y-38047619D01*
X98000000Y-38904761D02*
X98000000Y-36904761D01*
X98000000Y-37666666D02*
X97809523Y-37571428D01*
X97428571Y-37571428D01*
X97238095Y-37666666D01*
X97142857Y-37761904D01*
X97047619Y-37952380D01*
X97047619Y-38523809D01*
X97142857Y-38714285D01*
X97238095Y-38809523D01*
X97428571Y-38904761D01*
X97809523Y-38904761D01*
X98000000Y-38809523D01*
X95333333Y-37571428D02*
X95333333Y-38904761D01*
X96190476Y-37571428D02*
X96190476Y-38619047D01*
X96095238Y-38809523D01*
X95904761Y-38904761D01*
X95619047Y-38904761D01*
X95428571Y-38809523D01*
X95333333Y-38714285D01*
D11*
X108523809Y-41809523D02*
X108714285Y-41904761D01*
X109095238Y-41904761D01*
X109285714Y-41809523D01*
X109380952Y-41619047D01*
X109380952Y-40857142D01*
X109285714Y-40666666D01*
X109095238Y-40571428D01*
X108714285Y-40571428D01*
X108523809Y-40666666D01*
X108428571Y-40857142D01*
X108428571Y-41047619D01*
X109380952Y-41238095D01*
X107285714Y-41904761D02*
X107476190Y-41809523D01*
X107571428Y-41619047D01*
X107571428Y-39904761D01*
X105761904Y-41809523D02*
X105952380Y-41904761D01*
X106333333Y-41904761D01*
X106523809Y-41809523D01*
X106619047Y-41619047D01*
X106619047Y-40857142D01*
X106523809Y-40666666D01*
X106333333Y-40571428D01*
X105952380Y-40571428D01*
X105761904Y-40666666D01*
X105666666Y-40857142D01*
X105666666Y-41047619D01*
X106619047Y-41238095D01*
X103952380Y-41809523D02*
X104142857Y-41904761D01*
X104523809Y-41904761D01*
X104714285Y-41809523D01*
X104809523Y-41714285D01*
X104904761Y-41523809D01*
X104904761Y-40952380D01*
X104809523Y-40761904D01*
X104714285Y-40666666D01*
X104523809Y-40571428D01*
X104142857Y-40571428D01*
X103952380Y-40666666D01*
X103285714Y-40571428D02*
X102904761Y-41904761D01*
X102523809Y-40952380D01*
X102142857Y-41904761D01*
X101761904Y-40571428D01*
X100714285Y-41904761D02*
X100904761Y-41809523D01*
X101000000Y-41714285D01*
X101095238Y-41523809D01*
X101095238Y-40952380D01*
X101000000Y-40761904D01*
X100904761Y-40666666D01*
X100714285Y-40571428D01*
X100428571Y-40571428D01*
X100238095Y-40666666D01*
X100142857Y-40761904D01*
X100047619Y-40952380D01*
X100047619Y-41523809D01*
X100142857Y-41714285D01*
X100238095Y-41809523D01*
X100428571Y-41904761D01*
X100714285Y-41904761D01*
X99190476Y-41904761D02*
X99190476Y-40571428D01*
X99190476Y-40952380D02*
X99095238Y-40761904D01*
X99000000Y-40666666D01*
X98809523Y-40571428D01*
X98619047Y-40571428D01*
X97952380Y-41904761D02*
X97952380Y-39904761D01*
X97761904Y-41142857D02*
X97190476Y-41904761D01*
X97190476Y-40571428D02*
X97952380Y-41333333D01*
X96428571Y-41809523D02*
X96238095Y-41904761D01*
X95857142Y-41904761D01*
X95666666Y-41809523D01*
X95571428Y-41619047D01*
X95571428Y-41523809D01*
X95666666Y-41333333D01*
X95857142Y-41238095D01*
X96142857Y-41238095D01*
X96333333Y-41142857D01*
X96428571Y-40952380D01*
X96428571Y-40857142D01*
X96333333Y-40666666D01*
X96142857Y-40571428D01*
X95857142Y-40571428D01*
X95666666Y-40666666D01*
X94714285Y-41904761D02*
X94714285Y-39904761D01*
X93857142Y-41904761D02*
X93857142Y-40857142D01*
X93952380Y-40666666D01*
X94142857Y-40571428D01*
X94428571Y-40571428D01*
X94619047Y-40666666D01*
X94714285Y-40761904D01*
X92619047Y-41904761D02*
X92809523Y-41809523D01*
X92904761Y-41714285D01*
X93000000Y-41523809D01*
X93000000Y-40952380D01*
X92904761Y-40761904D01*
X92809523Y-40666666D01*
X92619047Y-40571428D01*
X92333333Y-40571428D01*
X92142857Y-40666666D01*
X92047619Y-40761904D01*
X91952380Y-40952380D01*
X91952380Y-41523809D01*
X92047619Y-41714285D01*
X92142857Y-41809523D01*
X92333333Y-41904761D01*
X92619047Y-41904761D01*
X91095238Y-40571428D02*
X91095238Y-42571428D01*
X91095238Y-40666666D02*
X90904761Y-40571428D01*
X90523809Y-40571428D01*
X90333333Y-40666666D01*
X90238095Y-40761904D01*
X90142857Y-40952380D01*
X90142857Y-41523809D01*
X90238095Y-41714285D01*
X90333333Y-41809523D01*
X90523809Y-41904761D01*
X90904761Y-41904761D01*
X91095238Y-41809523D01*
X88047619Y-40952380D02*
X88142857Y-40857142D01*
X88333333Y-40761904D01*
X88523809Y-40761904D01*
X88714285Y-40857142D01*
X88809523Y-40952380D01*
X88904761Y-41142857D01*
X88904761Y-41333333D01*
X88809523Y-41523809D01*
X88714285Y-41619047D01*
X88523809Y-41714285D01*
X88333333Y-41714285D01*
X88142857Y-41619047D01*
X88047619Y-41523809D01*
X88047619Y-40761904D02*
X88047619Y-41523809D01*
X87952380Y-41619047D01*
X87857142Y-41619047D01*
X87666666Y-41523809D01*
X87571428Y-41333333D01*
X87571428Y-40857142D01*
X87761904Y-40571428D01*
X88047619Y-40380952D01*
X88428571Y-40285714D01*
X88809523Y-40380952D01*
X89095238Y-40571428D01*
X89285714Y-40857142D01*
X89380952Y-41238095D01*
X89285714Y-41619047D01*
X89095238Y-41904761D01*
X88809523Y-42095238D01*
X88428571Y-42190476D01*
X88047619Y-42095238D01*
X87761904Y-41904761D01*
X86714285Y-40571428D02*
X86714285Y-41904761D01*
X86714285Y-40761904D02*
X86619047Y-40666666D01*
X86428571Y-40571428D01*
X86142857Y-40571428D01*
X85952380Y-40666666D01*
X85857142Y-40857142D01*
X85857142Y-41904761D01*
X84047619Y-41809523D02*
X84238095Y-41904761D01*
X84619047Y-41904761D01*
X84809523Y-41809523D01*
X84904761Y-41714285D01*
X85000000Y-41523809D01*
X85000000Y-40952380D01*
X84904761Y-40761904D01*
X84809523Y-40666666D01*
X84619047Y-40571428D01*
X84238095Y-40571428D01*
X84047619Y-40666666D01*
X83190476Y-41904761D02*
X83190476Y-39904761D01*
X83190476Y-40666666D02*
X83000000Y-40571428D01*
X82619047Y-40571428D01*
X82428571Y-40666666D01*
X82333333Y-40761904D01*
X82238095Y-40952380D01*
X82238095Y-41523809D01*
X82333333Y-41714285D01*
X82428571Y-41809523D01*
X82619047Y-41904761D01*
X83000000Y-41904761D01*
X83190476Y-41809523D01*
X81476190Y-41809523D02*
X81285714Y-41904761D01*
X80904761Y-41904761D01*
X80714285Y-41809523D01*
X80619047Y-41619047D01*
X80619047Y-41523809D01*
X80714285Y-41333333D01*
X80904761Y-41238095D01*
X81190476Y-41238095D01*
X81380952Y-41142857D01*
X81476190Y-40952380D01*
X81476190Y-40857142D01*
X81380952Y-40666666D01*
X81190476Y-40571428D01*
X80904761Y-40571428D01*
X80714285Y-40666666D01*
D12*
X136000000Y-45000000D03*
D13*
X136000000Y-50080000D03*
D12*
X137000000Y-80420000D03*
D13*
X137000000Y-85500000D03*
D12*
X137000000Y-115500000D03*
D13*
X137000000Y-120580000D03*
D14*
X120000000Y-92000000D03*
D15*
X117460000Y-92000000D03*
D14*
X120540000Y-100000000D03*
D15*
X118000000Y-100000000D03*
D14*
X121000000Y-109000000D03*
D15*
X118460000Y-109000000D03*
D16*
X75000000Y-65000000D03*
D17*
X75000000Y-70080000D03*
D16*
X145000000Y-121000000D03*
D17*
X145000000Y-115920000D03*
D18*
X75000000Y-123000000D03*
D19*
X75000000Y-125540000D03*
D18*
X75000000Y-88000000D03*
D19*
X75000000Y-90540000D03*
D16*
X145000000Y-86000000D03*
D17*
X145000000Y-80920000D03*
D18*
X75000000Y-98000000D03*
D19*
X75000000Y-100540000D03*
D18*
X75000000Y-133000000D03*
D19*
X75000000Y-135540000D03*
D18*
X75000000Y-143000000D03*
D19*
X75000000Y-145540000D03*
D18*
X75000000Y-108000000D03*
D19*
X75000000Y-110540000D03*
D14*
X136000000Y-133500000D03*
D20*
X136000000Y-136040000D03*
X136000000Y-138580000D03*
D21*
X113500000Y-92500000D03*
D22*
X100800000Y-92500000D03*
D21*
X113500000Y-88250000D03*
D22*
X100800000Y-88250000D03*
D21*
X113500000Y-84250000D03*
D22*
X100800000Y-84250000D03*
D21*
X100750000Y-96750000D03*
D22*
X113450000Y-96750000D03*
D21*
X117000000Y-143000000D03*
D22*
X117000000Y-130300000D03*
D21*
X97000000Y-134000000D03*
D22*
X84300000Y-134000000D03*
D21*
X97000000Y-103000000D03*
D22*
X84300000Y-103000000D03*
D21*
X122000000Y-136000000D03*
D22*
X122000000Y-123300000D03*
D21*
X97000000Y-108000000D03*
D22*
X84300000Y-108000000D03*
D21*
X97000000Y-139000000D03*
D22*
X84300000Y-139000000D03*
D21*
X127000000Y-129000000D03*
D22*
X127000000Y-116300000D03*
D21*
X97000000Y-144000000D03*
D22*
X84300000Y-144000000D03*
D21*
X97000000Y-113000000D03*
D22*
X84300000Y-113000000D03*
D23*
X104250000Y-106000000D03*
X104250000Y-101500000D03*
X110750000Y-106000000D03*
X110750000Y-101500000D03*
D24*
X91000000Y-125650000D03*
X91000000Y-120750000D03*
D14*
X136000000Y-98500000D03*
D20*
X136000000Y-101040000D03*
X136000000Y-103580000D03*
D14*
X135000000Y-63500000D03*
D20*
X135000000Y-66040000D03*
X135000000Y-68580000D03*
D25*
X104000000Y-110000000D03*
D26*
X111620000Y-143020000D03*
X104000000Y-112540000D03*
X111620000Y-140480000D03*
X104000000Y-115080000D03*
X111620000Y-137940000D03*
X104000000Y-117620000D03*
X111620000Y-135400000D03*
X104000000Y-120160000D03*
X111620000Y-132860000D03*
X104000000Y-122700000D03*
X111620000Y-130320000D03*
X104000000Y-125240000D03*
X111620000Y-127780000D03*
X104000000Y-127780000D03*
X111620000Y-125240000D03*
X104000000Y-130320000D03*
X111620000Y-122700000D03*
X104000000Y-132860000D03*
X111620000Y-120160000D03*
X104000000Y-135400000D03*
X111620000Y-117620000D03*
X104000000Y-137940000D03*
X111620000Y-115080000D03*
X104000000Y-140480000D03*
X111620000Y-112540000D03*
X104000000Y-143020000D03*
X111620000Y-110000000D03*
D21*
X83500000Y-120750000D03*
X86000000Y-120750000D03*
X86000000Y-125750000D03*
X83500000Y-125750000D03*
D16*
X144000000Y-51000000D03*
D17*
X144000000Y-45920000D03*
D27*
X127000000Y-60000000D03*
X127000000Y-79000000D03*
X86000000Y-79000000D03*
X86000000Y-60000000D03*
D28*
X81000000Y-119000000D03*
X81000000Y-114000000D03*
X81000000Y-135000000D03*
X81000000Y-129000000D03*
D29*
X82700001Y-119950001D02*
X81950001Y-119950001D01*
X83500000Y-120750000D02*
X82700001Y-119950001D01*
X81950001Y-119950001D02*
X81000000Y-119000000D01*
X83300000Y-114000000D02*
X84300000Y-113000000D01*
X81000000Y-114000000D02*
X83300000Y-114000000D01*
X84300000Y-139000000D02*
X81000000Y-135700000D01*
X81000000Y-135700000D02*
X81000000Y-135000000D01*
X81000000Y-128250000D02*
X83500000Y-125750000D01*
X81000000Y-129000000D02*
X81000000Y-128250000D01*
X100570000Y-130320000D02*
X104000000Y-130320000D01*
X91000000Y-120750000D02*
X100570000Y-130320000D01*
X86000000Y-120750000D02*
X91000000Y-120750000D01*
X101695774Y-132860000D02*
X104000000Y-132860000D01*
X91000000Y-125650000D02*
X94485774Y-125650000D01*
X94485774Y-125650000D02*
X101695774Y-132860000D01*
X86100000Y-125650000D02*
X86000000Y-125750000D01*
X91000000Y-125650000D02*
X86100000Y-125650000D01*
X112020000Y-110000000D02*
X111620000Y-110000000D01*
X116000000Y-106020000D02*
X112020000Y-110000000D01*
X116000000Y-93460000D02*
X116000000Y-106020000D01*
X117460000Y-92000000D02*
X116000000Y-93460000D01*
X118499999Y-90499999D02*
X120000000Y-92000000D01*
X115500001Y-90499999D02*
X118499999Y-90499999D01*
X113500000Y-92500000D02*
X115500001Y-90499999D01*
X112020000Y-112540000D02*
X111620000Y-112540000D01*
X118000000Y-106560000D02*
X112020000Y-112540000D01*
X118000000Y-100000000D02*
X118000000Y-106560000D01*
X114299999Y-89049999D02*
X120049999Y-89049999D01*
X113500000Y-88250000D02*
X114299999Y-89049999D01*
X120540000Y-98300000D02*
X120540000Y-100000000D01*
X121500001Y-97339999D02*
X120540000Y-98300000D01*
X121500001Y-90500001D02*
X121500001Y-97339999D01*
X120049999Y-89049999D02*
X121500001Y-90500001D01*
X121000000Y-107300000D02*
X121000000Y-109000000D01*
X122500011Y-105799989D02*
X121000000Y-107300000D01*
X122500011Y-87500011D02*
X122500011Y-105799989D01*
X120650001Y-85650001D02*
X122500011Y-87500011D01*
X114900001Y-85650001D02*
X120650001Y-85650001D01*
X113500000Y-84250000D02*
X114900001Y-85650001D01*
X112380000Y-115080000D02*
X111620000Y-115080000D01*
X118460000Y-109000000D02*
X112380000Y-115080000D01*
D30*
X81000000Y-65000000D02*
X86000000Y-60000000D01*
X75000000Y-65000000D02*
X81000000Y-65000000D01*
X150000000Y-49000000D02*
X150000000Y-77000000D01*
X144000000Y-45920000D02*
X146920000Y-45920000D01*
X146920000Y-45920000D02*
X150000000Y-49000000D01*
X148920000Y-77000000D02*
X145000000Y-80920000D01*
X150000000Y-77000000D02*
X148920000Y-77000000D01*
X150000000Y-110920000D02*
X145000000Y-115920000D01*
X150000000Y-77000000D02*
X150000000Y-110920000D01*
X128000000Y-45000000D02*
X136000000Y-45000000D01*
X86000000Y-60000000D02*
X113000000Y-60000000D01*
X113000000Y-60000000D02*
X128000000Y-45000000D01*
X143080000Y-45000000D02*
X144000000Y-45920000D01*
X136000000Y-45000000D02*
X143080000Y-45000000D01*
X144500000Y-80420000D02*
X145000000Y-80920000D01*
X137000000Y-80420000D02*
X144500000Y-80420000D01*
X144580000Y-115500000D02*
X145000000Y-115920000D01*
X137000000Y-115500000D02*
X144580000Y-115500000D01*
X137272792Y-136040000D02*
X136000000Y-136040000D01*
X141056002Y-136040000D02*
X137272792Y-136040000D01*
X145000000Y-132096002D02*
X141056002Y-136040000D01*
X145000000Y-121000000D02*
X145000000Y-132096002D01*
D29*
X101549999Y-95950001D02*
X100750000Y-96750000D01*
X112099999Y-85400001D02*
X101549999Y-95950001D01*
X112099999Y-74900001D02*
X112099999Y-85400001D01*
X104625010Y-82374990D02*
X73625010Y-82374990D01*
X114500000Y-72500000D02*
X104625010Y-82374990D01*
X114500000Y-72500000D02*
X112099999Y-74900001D01*
X127000000Y-60000000D02*
X114500000Y-72500000D01*
X73625010Y-82374990D02*
X71000000Y-85000000D01*
X72900000Y-145540000D02*
X75000000Y-145540000D01*
X71000000Y-132380002D02*
X71000000Y-132000000D01*
X74159998Y-135540000D02*
X71000000Y-132380002D01*
X75000000Y-135540000D02*
X74159998Y-135540000D01*
X71000000Y-132000000D02*
X71000000Y-143640000D01*
X71000000Y-122380002D02*
X71000000Y-122000000D01*
X74159998Y-125540000D02*
X71000000Y-122380002D01*
X75000000Y-125540000D02*
X74159998Y-125540000D01*
X71000000Y-122000000D02*
X71000000Y-132000000D01*
X71619998Y-98000000D02*
X71000000Y-98000000D01*
X74159998Y-100540000D02*
X71619998Y-98000000D01*
X75000000Y-100540000D02*
X74159998Y-100540000D01*
X71000000Y-98000000D02*
X71000000Y-108000000D01*
X71000000Y-87380002D02*
X71000000Y-87000000D01*
X74159998Y-90540000D02*
X71000000Y-87380002D01*
X75000000Y-90540000D02*
X74159998Y-90540000D01*
X71000000Y-85000000D02*
X71000000Y-87000000D01*
X71000000Y-87000000D02*
X71000000Y-98000000D01*
X111620000Y-127780000D02*
X111620000Y-130320000D01*
X71000000Y-113000000D02*
X71000000Y-122000000D01*
X111220000Y-130320000D02*
X109000000Y-132540000D01*
X111620000Y-130320000D02*
X111220000Y-130320000D01*
X109000000Y-132540000D02*
X109000000Y-143000000D01*
X109000000Y-143000000D02*
X104000000Y-148000000D01*
X104000000Y-148000000D02*
X73000000Y-148000000D01*
X71680000Y-146680000D02*
X71680000Y-144320000D01*
X73000000Y-148000000D02*
X71680000Y-146680000D01*
X71000000Y-143640000D02*
X71680000Y-144320000D01*
X71680000Y-144320000D02*
X72900000Y-145540000D01*
X103600000Y-125240000D02*
X100000000Y-121640000D01*
X104000000Y-125240000D02*
X103600000Y-125240000D01*
X100000000Y-120514226D02*
X96000000Y-116514226D01*
X100000000Y-121640000D02*
X100000000Y-120514226D01*
X92714217Y-116700010D02*
X77700010Y-116700010D01*
X92900001Y-116514226D02*
X92714217Y-116700010D01*
X96000000Y-116514226D02*
X92900001Y-116514226D01*
X71000000Y-108000000D02*
X71000000Y-110000000D01*
X71000000Y-110000000D02*
X71000000Y-113000000D01*
X74460000Y-110540000D02*
X73000000Y-112000000D01*
X75000000Y-110540000D02*
X74460000Y-110540000D01*
X77700010Y-116700010D02*
X73000000Y-112000000D01*
X73000000Y-112000000D02*
X71000000Y-110000000D01*
X97000000Y-134000000D02*
X101000000Y-134000000D01*
X102000000Y-135400000D02*
X104000000Y-135400000D01*
X101000000Y-134400000D02*
X102000000Y-135400000D01*
X101000000Y-134000000D02*
X101000000Y-134400000D01*
X75000000Y-123000000D02*
X75022755Y-123000000D01*
X75022755Y-123000000D02*
X78000000Y-125977245D01*
X78000000Y-125977245D02*
X78000000Y-130000000D01*
X78999990Y-130999990D02*
X91999990Y-130999990D01*
X78000000Y-130000000D02*
X78999990Y-130999990D01*
X95000000Y-134000000D02*
X97000000Y-134000000D01*
X91999990Y-130999990D02*
X95000000Y-134000000D01*
X82000000Y-88000000D02*
X97000000Y-103000000D01*
X75000000Y-88000000D02*
X82000000Y-88000000D01*
X97000000Y-103000000D02*
X101000000Y-107000000D01*
X103600000Y-117620000D02*
X104000000Y-117620000D01*
X101000000Y-115020000D02*
X103600000Y-117620000D01*
X101000000Y-107000000D02*
X101000000Y-115020000D01*
D30*
X137272792Y-101040000D02*
X136000000Y-101040000D01*
X145000000Y-93312792D02*
X137272792Y-101040000D01*
X145000000Y-86000000D02*
X145000000Y-93312792D01*
D29*
X88000000Y-99000000D02*
X97000000Y-108000000D01*
X75000000Y-98000000D02*
X88000000Y-98000000D01*
X88000000Y-98000000D02*
X88000000Y-99000000D01*
X103600000Y-120160000D02*
X104000000Y-120160000D01*
X100000000Y-116560000D02*
X103600000Y-120160000D01*
X100000000Y-111000000D02*
X100000000Y-116560000D01*
X97000000Y-108000000D02*
X100000000Y-111000000D01*
X90000000Y-132000000D02*
X97000000Y-139000000D01*
X84227998Y-132000000D02*
X90000000Y-132000000D01*
X75000000Y-133000000D02*
X83227998Y-133000000D01*
X83227998Y-133000000D02*
X84227998Y-132000000D01*
X97000000Y-139000000D02*
X100000000Y-139000000D01*
X101060000Y-137940000D02*
X104000000Y-137940000D01*
X100000000Y-139000000D02*
X101060000Y-137940000D01*
X75022755Y-143000000D02*
X78022755Y-146000000D01*
X75000000Y-143000000D02*
X75022755Y-143000000D01*
X95000000Y-146000000D02*
X97000000Y-144000000D01*
X78022755Y-146000000D02*
X95000000Y-146000000D01*
X100520000Y-140480000D02*
X104000000Y-140480000D01*
X97000000Y-144000000D02*
X100520000Y-140480000D01*
X103600000Y-122700000D02*
X104000000Y-122700000D01*
X97000000Y-116100000D02*
X103600000Y-122700000D01*
X97000000Y-113000000D02*
X97000000Y-116100000D01*
X97000000Y-113000000D02*
X95000000Y-113000000D01*
X95000000Y-113000000D02*
X92300000Y-115700000D01*
X92300000Y-115700000D02*
X78700000Y-115700000D01*
X78700000Y-115700000D02*
X77000000Y-114000000D01*
X75022755Y-108000000D02*
X75000000Y-108000000D01*
X77000000Y-109977245D02*
X75022755Y-108000000D01*
X77000000Y-114000000D02*
X77000000Y-109977245D01*
D30*
X136272792Y-66040000D02*
X135000000Y-66040000D01*
X144000000Y-58312792D02*
X136272792Y-66040000D01*
X144000000Y-51000000D02*
X144000000Y-58312792D01*
D29*
X116980000Y-143020000D02*
X117000000Y-143000000D01*
X111620000Y-143020000D02*
X116980000Y-143020000D01*
D30*
X117000000Y-143000000D02*
X121500000Y-143000000D01*
X131000000Y-133500000D02*
X136000000Y-133500000D01*
X121500000Y-143000000D02*
X131000000Y-133500000D01*
D29*
X104250000Y-106000000D02*
X110750000Y-106000000D01*
X111749999Y-105000001D02*
X110750000Y-106000000D01*
X112650001Y-104099999D02*
X111749999Y-105000001D01*
X112650001Y-97549999D02*
X112650001Y-104099999D01*
X113450000Y-96750000D02*
X112650001Y-97549999D01*
X104000000Y-106250000D02*
X104250000Y-106000000D01*
X104000000Y-110000000D02*
X104000000Y-106250000D01*
X117520000Y-140480000D02*
X122000000Y-136000000D01*
X111620000Y-140480000D02*
X117520000Y-140480000D01*
D30*
X133900000Y-98500000D02*
X136000000Y-98500000D01*
X131000000Y-101400000D02*
X133900000Y-98500000D01*
X131000000Y-127368002D02*
X131000000Y-101400000D01*
X123168001Y-135200001D02*
X131000000Y-127368002D01*
X122799999Y-135200001D02*
X123168001Y-135200001D01*
X122000000Y-136000000D02*
X122799999Y-135200001D01*
D29*
X118060000Y-137940000D02*
X127000000Y-129000000D01*
X111620000Y-137940000D02*
X118060000Y-137940000D01*
D30*
X132900000Y-63500000D02*
X135000000Y-63500000D01*
X129000000Y-67400000D02*
X132900000Y-63500000D01*
X127000000Y-129000000D02*
X129000000Y-127000000D01*
X129000000Y-127000000D02*
X129000000Y-67400000D01*
X144580000Y-120580000D02*
X145000000Y-121000000D01*
X137000000Y-120580000D02*
X144580000Y-120580000D01*
X144500000Y-85500000D02*
X145000000Y-86000000D01*
X137000000Y-85500000D02*
X144500000Y-85500000D01*
X143080000Y-50080000D02*
X144000000Y-51000000D01*
X136000000Y-50080000D02*
X143080000Y-50080000D01*
D31*
G36*
X154340001Y-159340000D02*
G01*
X60660000Y-159340000D01*
X60660000Y-154725701D01*
X62215000Y-154725701D01*
X62215000Y-155274299D01*
X62322026Y-155812354D01*
X62531965Y-156319192D01*
X62836750Y-156775334D01*
X63224666Y-157163250D01*
X63680808Y-157468035D01*
X64187646Y-157677974D01*
X64725701Y-157785000D01*
X65274299Y-157785000D01*
X65812354Y-157677974D01*
X66319192Y-157468035D01*
X66775334Y-157163250D01*
X67163250Y-156775334D01*
X67468035Y-156319192D01*
X67677974Y-155812354D01*
X67785000Y-155274299D01*
X67785000Y-154725701D01*
X147215000Y-154725701D01*
X147215000Y-155274299D01*
X147322026Y-155812354D01*
X147531965Y-156319192D01*
X147836750Y-156775334D01*
X148224666Y-157163250D01*
X148680808Y-157468035D01*
X149187646Y-157677974D01*
X149725701Y-157785000D01*
X150274299Y-157785000D01*
X150812354Y-157677974D01*
X151319192Y-157468035D01*
X151775334Y-157163250D01*
X152163250Y-156775334D01*
X152468035Y-156319192D01*
X152677974Y-155812354D01*
X152785000Y-155274299D01*
X152785000Y-154725701D01*
X152677974Y-154187646D01*
X152468035Y-153680808D01*
X152163250Y-153224666D01*
X151775334Y-152836750D01*
X151319192Y-152531965D01*
X150812354Y-152322026D01*
X150274299Y-152215000D01*
X149725701Y-152215000D01*
X149187646Y-152322026D01*
X148680808Y-152531965D01*
X148224666Y-152836750D01*
X147836750Y-153224666D01*
X147531965Y-153680808D01*
X147322026Y-154187646D01*
X147215000Y-154725701D01*
X67785000Y-154725701D01*
X67677974Y-154187646D01*
X67468035Y-153680808D01*
X67163250Y-153224666D01*
X66775334Y-152836750D01*
X66319192Y-152531965D01*
X65812354Y-152322026D01*
X65274299Y-152215000D01*
X64725701Y-152215000D01*
X64187646Y-152322026D01*
X63680808Y-152531965D01*
X63224666Y-152836750D01*
X62836750Y-153224666D01*
X62531965Y-153680808D01*
X62322026Y-154187646D01*
X62215000Y-154725701D01*
X60660000Y-154725701D01*
X60660000Y-98000000D01*
X69959993Y-98000000D01*
X69965000Y-98050838D01*
X69965001Y-107949153D01*
X69965000Y-107949163D01*
X69965001Y-109949153D01*
X69965000Y-109949163D01*
X69965000Y-109949172D01*
X69959994Y-110000000D01*
X69965000Y-110050828D01*
X69965001Y-112949153D01*
X69965000Y-112949163D01*
X69965001Y-121949153D01*
X69965000Y-121949163D01*
X69965000Y-122329174D01*
X69959994Y-122380002D01*
X69965000Y-122430830D01*
X69965001Y-131949153D01*
X69965000Y-131949163D01*
X69965000Y-132329174D01*
X69959994Y-132380002D01*
X69965000Y-132430830D01*
X69965001Y-143589162D01*
X69959994Y-143640000D01*
X69979977Y-143842895D01*
X70039160Y-144037993D01*
X70135266Y-144217797D01*
X70232197Y-144335907D01*
X70264605Y-144375396D01*
X70304093Y-144407803D01*
X70645001Y-144748711D01*
X70645000Y-146629172D01*
X70639994Y-146680000D01*
X70645000Y-146730828D01*
X70645000Y-146730837D01*
X70659976Y-146882894D01*
X70719159Y-147077992D01*
X70815266Y-147257797D01*
X70944604Y-147415396D01*
X70984097Y-147447807D01*
X72232197Y-148695908D01*
X72264604Y-148735396D01*
X72304092Y-148767803D01*
X72422202Y-148864734D01*
X72518309Y-148916104D01*
X72602007Y-148960841D01*
X72797105Y-149020024D01*
X72949162Y-149035000D01*
X72949164Y-149035000D01*
X73000000Y-149040007D01*
X73050835Y-149035000D01*
X103949172Y-149035000D01*
X104000000Y-149040006D01*
X104050828Y-149035000D01*
X104050838Y-149035000D01*
X104202895Y-149020024D01*
X104397993Y-148960841D01*
X104577797Y-148864734D01*
X104735396Y-148735396D01*
X104767807Y-148695903D01*
X109695908Y-143767803D01*
X109735396Y-143735396D01*
X109804690Y-143650961D01*
X109864734Y-143577798D01*
X109880620Y-143548078D01*
X109887818Y-143571808D01*
X110021068Y-143821101D01*
X110200392Y-144039608D01*
X110418899Y-144218932D01*
X110668192Y-144352182D01*
X110938691Y-144434236D01*
X111149508Y-144455000D01*
X112090492Y-144455000D01*
X112301309Y-144434236D01*
X112571808Y-144352182D01*
X112821101Y-144218932D01*
X113020853Y-144055000D01*
X116025604Y-144055000D01*
X116085241Y-144114637D01*
X116320273Y-144271680D01*
X116581426Y-144379853D01*
X116858665Y-144435000D01*
X117141335Y-144435000D01*
X117418574Y-144379853D01*
X117679727Y-144271680D01*
X117734623Y-144235000D01*
X121439335Y-144235000D01*
X121500000Y-144240975D01*
X121560665Y-144235000D01*
X121742102Y-144217130D01*
X121974901Y-144146511D01*
X122189449Y-144031833D01*
X122377502Y-143877502D01*
X122416179Y-143830374D01*
X127301812Y-138944741D01*
X134508959Y-138944741D01*
X134608766Y-139228620D01*
X134762038Y-139487573D01*
X134962884Y-139711649D01*
X135203586Y-139892236D01*
X135474893Y-140022394D01*
X135635260Y-140071036D01*
X135873000Y-139950378D01*
X135873000Y-138707000D01*
X136127000Y-138707000D01*
X136127000Y-139950378D01*
X136364740Y-140071036D01*
X136525107Y-140022394D01*
X136796414Y-139892236D01*
X137037116Y-139711649D01*
X137237962Y-139487573D01*
X137391234Y-139228620D01*
X137491041Y-138944741D01*
X137370992Y-138707000D01*
X136127000Y-138707000D01*
X135873000Y-138707000D01*
X134629008Y-138707000D01*
X134508959Y-138944741D01*
X127301812Y-138944741D01*
X131511554Y-134735000D01*
X134559043Y-134735000D01*
X134569463Y-134754494D01*
X134648815Y-134851185D01*
X134745506Y-134930537D01*
X134855820Y-134989502D01*
X134872280Y-134994495D01*
X134717519Y-135183073D01*
X134574983Y-135449739D01*
X134487210Y-135739087D01*
X134457573Y-136040000D01*
X134487210Y-136340913D01*
X134574983Y-136630261D01*
X134717519Y-136896927D01*
X134909339Y-137130661D01*
X135137142Y-137317614D01*
X134962884Y-137448351D01*
X134762038Y-137672427D01*
X134608766Y-137931380D01*
X134508959Y-138215259D01*
X134629008Y-138453000D01*
X135873000Y-138453000D01*
X135873000Y-138433000D01*
X136127000Y-138433000D01*
X136127000Y-138453000D01*
X137370992Y-138453000D01*
X137491041Y-138215259D01*
X137391234Y-137931380D01*
X137237962Y-137672427D01*
X137037116Y-137448351D01*
X136862858Y-137317614D01*
X136914783Y-137275000D01*
X140995337Y-137275000D01*
X141056002Y-137280975D01*
X141116667Y-137275000D01*
X141150376Y-137271680D01*
X141298104Y-137257130D01*
X141341081Y-137244093D01*
X141530903Y-137186511D01*
X141745451Y-137071833D01*
X141933504Y-136917502D01*
X141972180Y-136870375D01*
X145830380Y-133012176D01*
X145877502Y-132973504D01*
X146031833Y-132785451D01*
X146146511Y-132570903D01*
X146217130Y-132338104D01*
X146235000Y-132156667D01*
X146235000Y-132156658D01*
X146240974Y-132096003D01*
X146235000Y-132035348D01*
X146235000Y-123138072D01*
X146500000Y-123138072D01*
X146624482Y-123125812D01*
X146744180Y-123089502D01*
X146854494Y-123030537D01*
X146951185Y-122951185D01*
X147030537Y-122854494D01*
X147089502Y-122744180D01*
X147125812Y-122624482D01*
X147138072Y-122500000D01*
X147138072Y-119500000D01*
X147125812Y-119375518D01*
X147089502Y-119255820D01*
X147030537Y-119145506D01*
X146951185Y-119048815D01*
X146854494Y-118969463D01*
X146744180Y-118910498D01*
X146624482Y-118874188D01*
X146500000Y-118861928D01*
X143500000Y-118861928D01*
X143375518Y-118874188D01*
X143255820Y-118910498D01*
X143145506Y-118969463D01*
X143048815Y-119048815D01*
X142969463Y-119145506D01*
X142910498Y-119255820D01*
X142883446Y-119345000D01*
X138360297Y-119345000D01*
X138303819Y-119276181D01*
X138024404Y-119046871D01*
X137705622Y-118876479D01*
X137359723Y-118771552D01*
X137090139Y-118745000D01*
X136909861Y-118745000D01*
X136640277Y-118771552D01*
X136294378Y-118876479D01*
X135975596Y-119046871D01*
X135696181Y-119276181D01*
X135466871Y-119555596D01*
X135296479Y-119874378D01*
X135191552Y-120220277D01*
X135156122Y-120580000D01*
X135191552Y-120939723D01*
X135296479Y-121285622D01*
X135466871Y-121604404D01*
X135696181Y-121883819D01*
X135975596Y-122113129D01*
X136294378Y-122283521D01*
X136640277Y-122388448D01*
X136909861Y-122415000D01*
X137090139Y-122415000D01*
X137359723Y-122388448D01*
X137705622Y-122283521D01*
X138024404Y-122113129D01*
X138303819Y-121883819D01*
X138360297Y-121815000D01*
X142861928Y-121815000D01*
X142861928Y-122500000D01*
X142874188Y-122624482D01*
X142910498Y-122744180D01*
X142969463Y-122854494D01*
X143048815Y-122951185D01*
X143145506Y-123030537D01*
X143255820Y-123089502D01*
X143375518Y-123125812D01*
X143500000Y-123138072D01*
X143765000Y-123138072D01*
X143765001Y-131584447D01*
X140544449Y-134805000D01*
X137389088Y-134805000D01*
X137430537Y-134754494D01*
X137489502Y-134644180D01*
X137525812Y-134524482D01*
X137538072Y-134400000D01*
X137538072Y-132600000D01*
X137525812Y-132475518D01*
X137489502Y-132355820D01*
X137430537Y-132245506D01*
X137351185Y-132148815D01*
X137254494Y-132069463D01*
X137144180Y-132010498D01*
X137024482Y-131974188D01*
X136900000Y-131961928D01*
X135100000Y-131961928D01*
X134975518Y-131974188D01*
X134855820Y-132010498D01*
X134745506Y-132069463D01*
X134648815Y-132148815D01*
X134569463Y-132245506D01*
X134559043Y-132265000D01*
X131060665Y-132265000D01*
X131000000Y-132259025D01*
X130939335Y-132265000D01*
X130757898Y-132282870D01*
X130525099Y-132353489D01*
X130310551Y-132468167D01*
X130122498Y-132622498D01*
X130083826Y-132669620D01*
X120988447Y-141765000D01*
X117734623Y-141765000D01*
X117679727Y-141728320D01*
X117418574Y-141620147D01*
X117141335Y-141565000D01*
X116858665Y-141565000D01*
X116581426Y-141620147D01*
X116320273Y-141728320D01*
X116085241Y-141885363D01*
X115985604Y-141985000D01*
X113020853Y-141985000D01*
X112821101Y-141821068D01*
X112688142Y-141750000D01*
X112821101Y-141678932D01*
X113020853Y-141515000D01*
X117469172Y-141515000D01*
X117520000Y-141520006D01*
X117570828Y-141515000D01*
X117570838Y-141515000D01*
X117722895Y-141500024D01*
X117917993Y-141440841D01*
X118097797Y-141344734D01*
X118255396Y-141215396D01*
X118287807Y-141175903D01*
X122028711Y-137435000D01*
X122141335Y-137435000D01*
X122418574Y-137379853D01*
X122679727Y-137271680D01*
X122914759Y-137114637D01*
X123114637Y-136914759D01*
X123271680Y-136679727D01*
X123379190Y-136420176D01*
X123410103Y-136417131D01*
X123642902Y-136346512D01*
X123857450Y-136231834D01*
X124045503Y-136077503D01*
X124084180Y-136030375D01*
X131830381Y-128284175D01*
X131877502Y-128245504D01*
X132031833Y-128057451D01*
X132146511Y-127842903D01*
X132150310Y-127830381D01*
X132217130Y-127610105D01*
X132240975Y-127368003D01*
X132235000Y-127307338D01*
X132235000Y-103944741D01*
X134508959Y-103944741D01*
X134608766Y-104228620D01*
X134762038Y-104487573D01*
X134962884Y-104711649D01*
X135203586Y-104892236D01*
X135474893Y-105022394D01*
X135635260Y-105071036D01*
X135873000Y-104950378D01*
X135873000Y-103707000D01*
X136127000Y-103707000D01*
X136127000Y-104950378D01*
X136364740Y-105071036D01*
X136525107Y-105022394D01*
X136796414Y-104892236D01*
X137037116Y-104711649D01*
X137237962Y-104487573D01*
X137391234Y-104228620D01*
X137491041Y-103944741D01*
X137370992Y-103707000D01*
X136127000Y-103707000D01*
X135873000Y-103707000D01*
X134629008Y-103707000D01*
X134508959Y-103944741D01*
X132235000Y-103944741D01*
X132235000Y-101911553D01*
X134411554Y-99735000D01*
X134559043Y-99735000D01*
X134569463Y-99754494D01*
X134648815Y-99851185D01*
X134745506Y-99930537D01*
X134855820Y-99989502D01*
X134872280Y-99994495D01*
X134717519Y-100183073D01*
X134574983Y-100449739D01*
X134487210Y-100739087D01*
X134457573Y-101040000D01*
X134487210Y-101340913D01*
X134574983Y-101630261D01*
X134717519Y-101896927D01*
X134909339Y-102130661D01*
X135137142Y-102317614D01*
X134962884Y-102448351D01*
X134762038Y-102672427D01*
X134608766Y-102931380D01*
X134508959Y-103215259D01*
X134629008Y-103453000D01*
X135873000Y-103453000D01*
X135873000Y-103433000D01*
X136127000Y-103433000D01*
X136127000Y-103453000D01*
X137370992Y-103453000D01*
X137491041Y-103215259D01*
X137391234Y-102931380D01*
X137237962Y-102672427D01*
X137037116Y-102448351D01*
X136862858Y-102317614D01*
X136914783Y-102275000D01*
X137212127Y-102275000D01*
X137272792Y-102280975D01*
X137333457Y-102275000D01*
X137514894Y-102257130D01*
X137747693Y-102186511D01*
X137962241Y-102071833D01*
X138150294Y-101917502D01*
X138188971Y-101870374D01*
X145830380Y-94228966D01*
X145877502Y-94190294D01*
X146031833Y-94002241D01*
X146146511Y-93787693D01*
X146217130Y-93554894D01*
X146235000Y-93373457D01*
X146235000Y-93373448D01*
X146240974Y-93312793D01*
X146235000Y-93252138D01*
X146235000Y-88138072D01*
X146500000Y-88138072D01*
X146624482Y-88125812D01*
X146744180Y-88089502D01*
X146854494Y-88030537D01*
X146951185Y-87951185D01*
X147030537Y-87854494D01*
X147089502Y-87744180D01*
X147125812Y-87624482D01*
X147138072Y-87500000D01*
X147138072Y-84500000D01*
X147125812Y-84375518D01*
X147089502Y-84255820D01*
X147030537Y-84145506D01*
X146951185Y-84048815D01*
X146854494Y-83969463D01*
X146744180Y-83910498D01*
X146624482Y-83874188D01*
X146500000Y-83861928D01*
X143500000Y-83861928D01*
X143375518Y-83874188D01*
X143255820Y-83910498D01*
X143145506Y-83969463D01*
X143048815Y-84048815D01*
X142969463Y-84145506D01*
X142910498Y-84255820D01*
X142907713Y-84265000D01*
X138360297Y-84265000D01*
X138303819Y-84196181D01*
X138024404Y-83966871D01*
X137705622Y-83796479D01*
X137359723Y-83691552D01*
X137090139Y-83665000D01*
X136909861Y-83665000D01*
X136640277Y-83691552D01*
X136294378Y-83796479D01*
X135975596Y-83966871D01*
X135696181Y-84196181D01*
X135466871Y-84475596D01*
X135296479Y-84794378D01*
X135191552Y-85140277D01*
X135156122Y-85500000D01*
X135191552Y-85859723D01*
X135296479Y-86205622D01*
X135466871Y-86524404D01*
X135696181Y-86803819D01*
X135975596Y-87033129D01*
X136294378Y-87203521D01*
X136640277Y-87308448D01*
X136909861Y-87335000D01*
X137090139Y-87335000D01*
X137359723Y-87308448D01*
X137705622Y-87203521D01*
X138024404Y-87033129D01*
X138303819Y-86803819D01*
X138360297Y-86735000D01*
X142861928Y-86735000D01*
X142861928Y-87500000D01*
X142874188Y-87624482D01*
X142910498Y-87744180D01*
X142969463Y-87854494D01*
X143048815Y-87951185D01*
X143145506Y-88030537D01*
X143255820Y-88089502D01*
X143375518Y-88125812D01*
X143500000Y-88138072D01*
X143765000Y-88138072D01*
X143765001Y-92801237D01*
X137538072Y-99028167D01*
X137538072Y-97600000D01*
X137525812Y-97475518D01*
X137489502Y-97355820D01*
X137430537Y-97245506D01*
X137351185Y-97148815D01*
X137254494Y-97069463D01*
X137144180Y-97010498D01*
X137024482Y-96974188D01*
X136900000Y-96961928D01*
X135100000Y-96961928D01*
X134975518Y-96974188D01*
X134855820Y-97010498D01*
X134745506Y-97069463D01*
X134648815Y-97148815D01*
X134569463Y-97245506D01*
X134559043Y-97265000D01*
X133960654Y-97265000D01*
X133899999Y-97259026D01*
X133839344Y-97265000D01*
X133839335Y-97265000D01*
X133657898Y-97282870D01*
X133425099Y-97353489D01*
X133210551Y-97468167D01*
X133022498Y-97622498D01*
X132983826Y-97669620D01*
X130235000Y-100418447D01*
X130235000Y-68944741D01*
X133508959Y-68944741D01*
X133608766Y-69228620D01*
X133762038Y-69487573D01*
X133962884Y-69711649D01*
X134203586Y-69892236D01*
X134474893Y-70022394D01*
X134635260Y-70071036D01*
X134873000Y-69950378D01*
X134873000Y-68707000D01*
X135127000Y-68707000D01*
X135127000Y-69950378D01*
X135364740Y-70071036D01*
X135525107Y-70022394D01*
X135796414Y-69892236D01*
X136037116Y-69711649D01*
X136237962Y-69487573D01*
X136391234Y-69228620D01*
X136491041Y-68944741D01*
X136370992Y-68707000D01*
X135127000Y-68707000D01*
X134873000Y-68707000D01*
X133629008Y-68707000D01*
X133508959Y-68944741D01*
X130235000Y-68944741D01*
X130235000Y-67911553D01*
X133411554Y-64735000D01*
X133559043Y-64735000D01*
X133569463Y-64754494D01*
X133648815Y-64851185D01*
X133745506Y-64930537D01*
X133855820Y-64989502D01*
X133872280Y-64994495D01*
X133717519Y-65183073D01*
X133574983Y-65449739D01*
X133487210Y-65739087D01*
X133457573Y-66040000D01*
X133487210Y-66340913D01*
X133574983Y-66630261D01*
X133717519Y-66896927D01*
X133909339Y-67130661D01*
X134137142Y-67317614D01*
X133962884Y-67448351D01*
X133762038Y-67672427D01*
X133608766Y-67931380D01*
X133508959Y-68215259D01*
X133629008Y-68453000D01*
X134873000Y-68453000D01*
X134873000Y-68433000D01*
X135127000Y-68433000D01*
X135127000Y-68453000D01*
X136370992Y-68453000D01*
X136491041Y-68215259D01*
X136391234Y-67931380D01*
X136237962Y-67672427D01*
X136037116Y-67448351D01*
X135862858Y-67317614D01*
X135914783Y-67275000D01*
X136212127Y-67275000D01*
X136272792Y-67280975D01*
X136333457Y-67275000D01*
X136514894Y-67257130D01*
X136747693Y-67186511D01*
X136962241Y-67071833D01*
X137150294Y-66917502D01*
X137188971Y-66870374D01*
X144830380Y-59228966D01*
X144877502Y-59190294D01*
X145031833Y-59002241D01*
X145146511Y-58787693D01*
X145217130Y-58554894D01*
X145235000Y-58373457D01*
X145235000Y-58373448D01*
X145240974Y-58312793D01*
X145235000Y-58252138D01*
X145235000Y-53138072D01*
X145500000Y-53138072D01*
X145624482Y-53125812D01*
X145744180Y-53089502D01*
X145854494Y-53030537D01*
X145951185Y-52951185D01*
X146030537Y-52854494D01*
X146089502Y-52744180D01*
X146125812Y-52624482D01*
X146138072Y-52500000D01*
X146138072Y-49500000D01*
X146125812Y-49375518D01*
X146089502Y-49255820D01*
X146030537Y-49145506D01*
X145951185Y-49048815D01*
X145854494Y-48969463D01*
X145744180Y-48910498D01*
X145624482Y-48874188D01*
X145500000Y-48861928D01*
X143312538Y-48861928D01*
X143140665Y-48845000D01*
X143080000Y-48839025D01*
X143019335Y-48845000D01*
X137360297Y-48845000D01*
X137303819Y-48776181D01*
X137024404Y-48546871D01*
X136705622Y-48376479D01*
X136359723Y-48271552D01*
X136090139Y-48245000D01*
X135909861Y-48245000D01*
X135640277Y-48271552D01*
X135294378Y-48376479D01*
X134975596Y-48546871D01*
X134696181Y-48776181D01*
X134466871Y-49055596D01*
X134296479Y-49374378D01*
X134191552Y-49720277D01*
X134156122Y-50080000D01*
X134191552Y-50439723D01*
X134296479Y-50785622D01*
X134466871Y-51104404D01*
X134696181Y-51383819D01*
X134975596Y-51613129D01*
X135294378Y-51783521D01*
X135640277Y-51888448D01*
X135909861Y-51915000D01*
X136090139Y-51915000D01*
X136359723Y-51888448D01*
X136705622Y-51783521D01*
X137024404Y-51613129D01*
X137303819Y-51383819D01*
X137360297Y-51315000D01*
X141861928Y-51315000D01*
X141861928Y-52500000D01*
X141874188Y-52624482D01*
X141910498Y-52744180D01*
X141969463Y-52854494D01*
X142048815Y-52951185D01*
X142145506Y-53030537D01*
X142255820Y-53089502D01*
X142375518Y-53125812D01*
X142500000Y-53138072D01*
X142765000Y-53138072D01*
X142765001Y-57801237D01*
X136538072Y-64028167D01*
X136538072Y-62600000D01*
X136525812Y-62475518D01*
X136489502Y-62355820D01*
X136430537Y-62245506D01*
X136351185Y-62148815D01*
X136254494Y-62069463D01*
X136144180Y-62010498D01*
X136024482Y-61974188D01*
X135900000Y-61961928D01*
X134100000Y-61961928D01*
X133975518Y-61974188D01*
X133855820Y-62010498D01*
X133745506Y-62069463D01*
X133648815Y-62148815D01*
X133569463Y-62245506D01*
X133559043Y-62265000D01*
X132960665Y-62265000D01*
X132900000Y-62259025D01*
X132839335Y-62265000D01*
X132657898Y-62282870D01*
X132425099Y-62353489D01*
X132210551Y-62468167D01*
X132022498Y-62622498D01*
X131983826Y-62669620D01*
X128169621Y-66483826D01*
X128122499Y-66522498D01*
X127968168Y-66710551D01*
X127958067Y-66729449D01*
X127853489Y-66925101D01*
X127782870Y-67157898D01*
X127759025Y-67400000D01*
X127765001Y-67460675D01*
X127765001Y-77959306D01*
X127718980Y-77794344D01*
X127469952Y-77677244D01*
X127202865Y-77610977D01*
X126927983Y-77598090D01*
X126655867Y-77639078D01*
X126396977Y-77732364D01*
X126281020Y-77794344D01*
X126214040Y-78034435D01*
X127000000Y-78820395D01*
X127014143Y-78806253D01*
X127193748Y-78985858D01*
X127179605Y-79000000D01*
X127193748Y-79014143D01*
X127014143Y-79193748D01*
X127000000Y-79179605D01*
X126214040Y-79965565D01*
X126281020Y-80205656D01*
X126530048Y-80322756D01*
X126797135Y-80389023D01*
X127072017Y-80401910D01*
X127344133Y-80360922D01*
X127603023Y-80267636D01*
X127718980Y-80205656D01*
X127765001Y-80040694D01*
X127765000Y-115089407D01*
X127737420Y-115068963D01*
X127483087Y-114948754D01*
X127349039Y-114908096D01*
X127127000Y-115030085D01*
X127127000Y-116173000D01*
X127147000Y-116173000D01*
X127147000Y-116427000D01*
X127127000Y-116427000D01*
X127127000Y-117569915D01*
X127349039Y-117691904D01*
X127483087Y-117651246D01*
X127737420Y-117531037D01*
X127765000Y-117510593D01*
X127765000Y-126488446D01*
X126646180Y-127607266D01*
X126581426Y-127620147D01*
X126320273Y-127728320D01*
X126085241Y-127885363D01*
X125885363Y-128085241D01*
X125728320Y-128320273D01*
X125620147Y-128581426D01*
X125565000Y-128858665D01*
X125565000Y-128971289D01*
X117631290Y-136905000D01*
X113020853Y-136905000D01*
X112821101Y-136741068D01*
X112688142Y-136670000D01*
X112821101Y-136598932D01*
X113039608Y-136419608D01*
X113218932Y-136201101D01*
X113352182Y-135951808D01*
X113434236Y-135681309D01*
X113461943Y-135400000D01*
X113434236Y-135118691D01*
X113352182Y-134848192D01*
X113218932Y-134598899D01*
X113039608Y-134380392D01*
X112821101Y-134201068D01*
X112688142Y-134130000D01*
X112821101Y-134058932D01*
X113039608Y-133879608D01*
X113218932Y-133661101D01*
X113352182Y-133411808D01*
X113434236Y-133141309D01*
X113461943Y-132860000D01*
X113434236Y-132578691D01*
X113352182Y-132308192D01*
X113218932Y-132058899D01*
X113039608Y-131840392D01*
X112821101Y-131661068D01*
X112688142Y-131590000D01*
X112821101Y-131518932D01*
X113039608Y-131339608D01*
X113218932Y-131121101D01*
X113352182Y-130871808D01*
X113419757Y-130649040D01*
X115608091Y-130649040D01*
X115702930Y-130913881D01*
X115847615Y-131155131D01*
X116036586Y-131363519D01*
X116262580Y-131531037D01*
X116516913Y-131651246D01*
X116650961Y-131691904D01*
X116873000Y-131569915D01*
X116873000Y-130427000D01*
X117127000Y-130427000D01*
X117127000Y-131569915D01*
X117349039Y-131691904D01*
X117483087Y-131651246D01*
X117737420Y-131531037D01*
X117963414Y-131363519D01*
X118152385Y-131155131D01*
X118297070Y-130913881D01*
X118391909Y-130649040D01*
X118270624Y-130427000D01*
X117127000Y-130427000D01*
X116873000Y-130427000D01*
X115729376Y-130427000D01*
X115608091Y-130649040D01*
X113419757Y-130649040D01*
X113434236Y-130601309D01*
X113461943Y-130320000D01*
X113434236Y-130038691D01*
X113407624Y-129950960D01*
X115608091Y-129950960D01*
X115729376Y-130173000D01*
X116873000Y-130173000D01*
X116873000Y-129030085D01*
X117127000Y-129030085D01*
X117127000Y-130173000D01*
X118270624Y-130173000D01*
X118391909Y-129950960D01*
X118297070Y-129686119D01*
X118152385Y-129444869D01*
X117963414Y-129236481D01*
X117737420Y-129068963D01*
X117483087Y-128948754D01*
X117349039Y-128908096D01*
X117127000Y-129030085D01*
X116873000Y-129030085D01*
X116650961Y-128908096D01*
X116516913Y-128948754D01*
X116262580Y-129068963D01*
X116036586Y-129236481D01*
X115847615Y-129444869D01*
X115702930Y-129686119D01*
X115608091Y-129950960D01*
X113407624Y-129950960D01*
X113352182Y-129768192D01*
X113218932Y-129518899D01*
X113039608Y-129300392D01*
X112821101Y-129121068D01*
X112688142Y-129050000D01*
X112821101Y-128978932D01*
X113039608Y-128799608D01*
X113218932Y-128581101D01*
X113352182Y-128331808D01*
X113434236Y-128061309D01*
X113461943Y-127780000D01*
X113434236Y-127498691D01*
X113352182Y-127228192D01*
X113218932Y-126978899D01*
X113039608Y-126760392D01*
X112821101Y-126581068D01*
X112693259Y-126512735D01*
X112922839Y-126362601D01*
X113124500Y-126164895D01*
X113283715Y-125931646D01*
X113394367Y-125671818D01*
X113411904Y-125589039D01*
X113289915Y-125367000D01*
X111747000Y-125367000D01*
X111747000Y-125387000D01*
X111493000Y-125387000D01*
X111493000Y-125367000D01*
X109950085Y-125367000D01*
X109828096Y-125589039D01*
X109845633Y-125671818D01*
X109956285Y-125931646D01*
X110115500Y-126164895D01*
X110317161Y-126362601D01*
X110546741Y-126512735D01*
X110418899Y-126581068D01*
X110200392Y-126760392D01*
X110021068Y-126978899D01*
X109887818Y-127228192D01*
X109805764Y-127498691D01*
X109778057Y-127780000D01*
X109805764Y-128061309D01*
X109887818Y-128331808D01*
X110021068Y-128581101D01*
X110200392Y-128799608D01*
X110418899Y-128978932D01*
X110551858Y-129050000D01*
X110418899Y-129121068D01*
X110200392Y-129300392D01*
X110021068Y-129518899D01*
X109887818Y-129768192D01*
X109805764Y-130038691D01*
X109780435Y-130295854D01*
X108304097Y-131772193D01*
X108264604Y-131804604D01*
X108135266Y-131962203D01*
X108039159Y-132142008D01*
X107979976Y-132337106D01*
X107965000Y-132489163D01*
X107965000Y-132489172D01*
X107959994Y-132540000D01*
X107965000Y-132590828D01*
X107965001Y-142571288D01*
X103571290Y-146965000D01*
X95384283Y-146965000D01*
X95397993Y-146960841D01*
X95577797Y-146864734D01*
X95735396Y-146735396D01*
X95767807Y-146695903D01*
X97028711Y-145435000D01*
X97141335Y-145435000D01*
X97418574Y-145379853D01*
X97679727Y-145271680D01*
X97914759Y-145114637D01*
X98114637Y-144914759D01*
X98271680Y-144679727D01*
X98379853Y-144418574D01*
X98435000Y-144141335D01*
X98435000Y-144028710D01*
X100948711Y-141515000D01*
X102599147Y-141515000D01*
X102798899Y-141678932D01*
X102931858Y-141750000D01*
X102798899Y-141821068D01*
X102580392Y-142000392D01*
X102401068Y-142218899D01*
X102267818Y-142468192D01*
X102185764Y-142738691D01*
X102158057Y-143020000D01*
X102185764Y-143301309D01*
X102267818Y-143571808D01*
X102401068Y-143821101D01*
X102580392Y-144039608D01*
X102798899Y-144218932D01*
X103048192Y-144352182D01*
X103318691Y-144434236D01*
X103529508Y-144455000D01*
X104470492Y-144455000D01*
X104681309Y-144434236D01*
X104951808Y-144352182D01*
X105201101Y-144218932D01*
X105419608Y-144039608D01*
X105598932Y-143821101D01*
X105732182Y-143571808D01*
X105814236Y-143301309D01*
X105841943Y-143020000D01*
X105814236Y-142738691D01*
X105732182Y-142468192D01*
X105598932Y-142218899D01*
X105419608Y-142000392D01*
X105201101Y-141821068D01*
X105068142Y-141750000D01*
X105201101Y-141678932D01*
X105419608Y-141499608D01*
X105598932Y-141281101D01*
X105732182Y-141031808D01*
X105814236Y-140761309D01*
X105841943Y-140480000D01*
X105814236Y-140198691D01*
X105732182Y-139928192D01*
X105598932Y-139678899D01*
X105419608Y-139460392D01*
X105201101Y-139281068D01*
X105068142Y-139210000D01*
X105201101Y-139138932D01*
X105419608Y-138959608D01*
X105598932Y-138741101D01*
X105732182Y-138491808D01*
X105814236Y-138221309D01*
X105841943Y-137940000D01*
X105814236Y-137658691D01*
X105732182Y-137388192D01*
X105598932Y-137138899D01*
X105419608Y-136920392D01*
X105201101Y-136741068D01*
X105068142Y-136670000D01*
X105201101Y-136598932D01*
X105419608Y-136419608D01*
X105598932Y-136201101D01*
X105732182Y-135951808D01*
X105814236Y-135681309D01*
X105841943Y-135400000D01*
X105814236Y-135118691D01*
X105732182Y-134848192D01*
X105598932Y-134598899D01*
X105419608Y-134380392D01*
X105201101Y-134201068D01*
X105068142Y-134130000D01*
X105201101Y-134058932D01*
X105419608Y-133879608D01*
X105598932Y-133661101D01*
X105732182Y-133411808D01*
X105814236Y-133141309D01*
X105841943Y-132860000D01*
X105814236Y-132578691D01*
X105732182Y-132308192D01*
X105598932Y-132058899D01*
X105419608Y-131840392D01*
X105201101Y-131661068D01*
X105068142Y-131590000D01*
X105201101Y-131518932D01*
X105419608Y-131339608D01*
X105598932Y-131121101D01*
X105732182Y-130871808D01*
X105814236Y-130601309D01*
X105841943Y-130320000D01*
X105814236Y-130038691D01*
X105732182Y-129768192D01*
X105598932Y-129518899D01*
X105419608Y-129300392D01*
X105201101Y-129121068D01*
X105073259Y-129052735D01*
X105302839Y-128902601D01*
X105504500Y-128704895D01*
X105663715Y-128471646D01*
X105774367Y-128211818D01*
X105791904Y-128129039D01*
X105669915Y-127907000D01*
X104127000Y-127907000D01*
X104127000Y-127927000D01*
X103873000Y-127927000D01*
X103873000Y-127907000D01*
X102330085Y-127907000D01*
X102208096Y-128129039D01*
X102225633Y-128211818D01*
X102336285Y-128471646D01*
X102495500Y-128704895D01*
X102697161Y-128902601D01*
X102926741Y-129052735D01*
X102798899Y-129121068D01*
X102599147Y-129285000D01*
X100998711Y-129285000D01*
X92760863Y-121047153D01*
X92785000Y-120925807D01*
X92785000Y-120574193D01*
X92716404Y-120229335D01*
X92581847Y-119904485D01*
X92386500Y-119612129D01*
X92137871Y-119363500D01*
X91845515Y-119168153D01*
X91520665Y-119033596D01*
X91175807Y-118965000D01*
X90824193Y-118965000D01*
X90479335Y-119033596D01*
X90154485Y-119168153D01*
X89862129Y-119363500D01*
X89613500Y-119612129D01*
X89544763Y-119715000D01*
X86994396Y-119715000D01*
X86914759Y-119635363D01*
X86679727Y-119478320D01*
X86418574Y-119370147D01*
X86141335Y-119315000D01*
X85858665Y-119315000D01*
X85581426Y-119370147D01*
X85320273Y-119478320D01*
X85085241Y-119635363D01*
X84885363Y-119835241D01*
X84751308Y-120035869D01*
X84736671Y-120008486D01*
X84492702Y-119936903D01*
X83679605Y-120750000D01*
X84492702Y-121563097D01*
X84736671Y-121491514D01*
X84750324Y-121462659D01*
X84885363Y-121664759D01*
X85085241Y-121864637D01*
X85320273Y-122021680D01*
X85581426Y-122129853D01*
X85858665Y-122185000D01*
X86141335Y-122185000D01*
X86418574Y-122129853D01*
X86679727Y-122021680D01*
X86914759Y-121864637D01*
X86994396Y-121785000D01*
X89544763Y-121785000D01*
X89613500Y-121887871D01*
X89862129Y-122136500D01*
X90154485Y-122331847D01*
X90479335Y-122466404D01*
X90824193Y-122535000D01*
X91175807Y-122535000D01*
X91297153Y-122510863D01*
X93401290Y-124615000D01*
X92455237Y-124615000D01*
X92386500Y-124512129D01*
X92137871Y-124263500D01*
X91845515Y-124068153D01*
X91520665Y-123933596D01*
X91175807Y-123865000D01*
X90824193Y-123865000D01*
X90479335Y-123933596D01*
X90154485Y-124068153D01*
X89862129Y-124263500D01*
X89613500Y-124512129D01*
X89544763Y-124615000D01*
X86884284Y-124615000D01*
X86679727Y-124478320D01*
X86418574Y-124370147D01*
X86141335Y-124315000D01*
X85858665Y-124315000D01*
X85581426Y-124370147D01*
X85320273Y-124478320D01*
X85085241Y-124635363D01*
X84885363Y-124835241D01*
X84751308Y-125035869D01*
X84736671Y-125008486D01*
X84492702Y-124936903D01*
X83679605Y-125750000D01*
X84492702Y-126563097D01*
X84736671Y-126491514D01*
X84750324Y-126462659D01*
X84885363Y-126664759D01*
X85085241Y-126864637D01*
X85320273Y-127021680D01*
X85581426Y-127129853D01*
X85858665Y-127185000D01*
X86141335Y-127185000D01*
X86418574Y-127129853D01*
X86679727Y-127021680D01*
X86914759Y-126864637D01*
X87094396Y-126685000D01*
X89544763Y-126685000D01*
X89613500Y-126787871D01*
X89862129Y-127036500D01*
X90154485Y-127231847D01*
X90479335Y-127366404D01*
X90824193Y-127435000D01*
X91175807Y-127435000D01*
X91520665Y-127366404D01*
X91845515Y-127231847D01*
X92137871Y-127036500D01*
X92386500Y-126787871D01*
X92455237Y-126685000D01*
X94057064Y-126685000D01*
X100337063Y-132965000D01*
X97994396Y-132965000D01*
X97914759Y-132885363D01*
X97679727Y-132728320D01*
X97418574Y-132620147D01*
X97141335Y-132565000D01*
X96858665Y-132565000D01*
X96581426Y-132620147D01*
X96320273Y-132728320D01*
X96085241Y-132885363D01*
X96005604Y-132965000D01*
X95428711Y-132965000D01*
X92767797Y-130304087D01*
X92735386Y-130264594D01*
X92577787Y-130135256D01*
X92397983Y-130039149D01*
X92202885Y-129979966D01*
X92050828Y-129964990D01*
X92050818Y-129964990D01*
X91999990Y-129959984D01*
X91949162Y-129964990D01*
X79428701Y-129964990D01*
X79035000Y-129571290D01*
X79035000Y-126742702D01*
X82686903Y-126742702D01*
X82758486Y-126986671D01*
X83013996Y-127107571D01*
X83288184Y-127176300D01*
X83570512Y-127190217D01*
X83850130Y-127148787D01*
X84116292Y-127053603D01*
X84241514Y-126986671D01*
X84313097Y-126742702D01*
X83500000Y-125929605D01*
X82686903Y-126742702D01*
X79035000Y-126742702D01*
X79035000Y-126028072D01*
X79040006Y-125977244D01*
X79035000Y-125926416D01*
X79035000Y-125926407D01*
X79024571Y-125820512D01*
X82059783Y-125820512D01*
X82101213Y-126100130D01*
X82196397Y-126366292D01*
X82263329Y-126491514D01*
X82507298Y-126563097D01*
X83320395Y-125750000D01*
X82507298Y-124936903D01*
X82263329Y-125008486D01*
X82142429Y-125263996D01*
X82073700Y-125538184D01*
X82059783Y-125820512D01*
X79024571Y-125820512D01*
X79020024Y-125774350D01*
X78960841Y-125579252D01*
X78864960Y-125399870D01*
X78864734Y-125399447D01*
X78767803Y-125281337D01*
X78735396Y-125241849D01*
X78695908Y-125209442D01*
X78243764Y-124757298D01*
X82686903Y-124757298D01*
X83500000Y-125570395D01*
X84313097Y-124757298D01*
X84241514Y-124513329D01*
X83986004Y-124392429D01*
X83711816Y-124323700D01*
X83429488Y-124309783D01*
X83149870Y-124351213D01*
X82883708Y-124446397D01*
X82758486Y-124513329D01*
X82686903Y-124757298D01*
X78243764Y-124757298D01*
X76938072Y-123451607D01*
X76938072Y-122000000D01*
X76925812Y-121875518D01*
X76889502Y-121755820D01*
X76882491Y-121742702D01*
X82686903Y-121742702D01*
X82758486Y-121986671D01*
X83013996Y-122107571D01*
X83288184Y-122176300D01*
X83570512Y-122190217D01*
X83850130Y-122148787D01*
X84116292Y-122053603D01*
X84241514Y-121986671D01*
X84313097Y-121742702D01*
X83500000Y-120929605D01*
X82686903Y-121742702D01*
X76882491Y-121742702D01*
X76830537Y-121645506D01*
X76751185Y-121548815D01*
X76654494Y-121469463D01*
X76544180Y-121410498D01*
X76424482Y-121374188D01*
X76300000Y-121361928D01*
X73700000Y-121361928D01*
X73575518Y-121374188D01*
X73455820Y-121410498D01*
X73345506Y-121469463D01*
X73248815Y-121548815D01*
X73169463Y-121645506D01*
X73110498Y-121755820D01*
X73074188Y-121875518D01*
X73061928Y-122000000D01*
X73061928Y-122978220D01*
X72035000Y-121951292D01*
X72035000Y-120820512D01*
X82059783Y-120820512D01*
X82101213Y-121100130D01*
X82196397Y-121366292D01*
X82263329Y-121491514D01*
X82507298Y-121563097D01*
X83320395Y-120750000D01*
X82507298Y-119936903D01*
X82263329Y-120008486D01*
X82142429Y-120263996D01*
X82073700Y-120538184D01*
X82059783Y-120820512D01*
X72035000Y-120820512D01*
X72035000Y-119757298D01*
X82686903Y-119757298D01*
X83500000Y-120570395D01*
X84313097Y-119757298D01*
X84241514Y-119513329D01*
X83986004Y-119392429D01*
X83711816Y-119323700D01*
X83429488Y-119309783D01*
X83149870Y-119351213D01*
X82883708Y-119446397D01*
X82758486Y-119513329D01*
X82686903Y-119757298D01*
X72035000Y-119757298D01*
X72035000Y-112498711D01*
X72232196Y-112695907D01*
X72264604Y-112735396D01*
X72304092Y-112767803D01*
X76932207Y-117395918D01*
X76964614Y-117435406D01*
X77004102Y-117467813D01*
X77122212Y-117564744D01*
X77218319Y-117616114D01*
X77302017Y-117660851D01*
X77497115Y-117720034D01*
X77649172Y-117735010D01*
X77649174Y-117735010D01*
X77700010Y-117740017D01*
X77750845Y-117735010D01*
X92663389Y-117735010D01*
X92714217Y-117740016D01*
X92765045Y-117735010D01*
X92765055Y-117735010D01*
X92917112Y-117720034D01*
X93112210Y-117660851D01*
X93292014Y-117564744D01*
X93310923Y-117549226D01*
X95571290Y-117549226D01*
X98965001Y-120942938D01*
X98965000Y-121589171D01*
X98959994Y-121640000D01*
X98965000Y-121690828D01*
X98965000Y-121690837D01*
X98979976Y-121842894D01*
X99039159Y-122037992D01*
X99135266Y-122217797D01*
X99264604Y-122375396D01*
X99304097Y-122407807D01*
X102160435Y-125264146D01*
X102185764Y-125521309D01*
X102267818Y-125791808D01*
X102401068Y-126041101D01*
X102580392Y-126259608D01*
X102798899Y-126438932D01*
X102926741Y-126507265D01*
X102697161Y-126657399D01*
X102495500Y-126855105D01*
X102336285Y-127088354D01*
X102225633Y-127348182D01*
X102208096Y-127430961D01*
X102330085Y-127653000D01*
X103873000Y-127653000D01*
X103873000Y-127633000D01*
X104127000Y-127633000D01*
X104127000Y-127653000D01*
X105669915Y-127653000D01*
X105791904Y-127430961D01*
X105774367Y-127348182D01*
X105663715Y-127088354D01*
X105504500Y-126855105D01*
X105302839Y-126657399D01*
X105073259Y-126507265D01*
X105201101Y-126438932D01*
X105419608Y-126259608D01*
X105598932Y-126041101D01*
X105732182Y-125791808D01*
X105814236Y-125521309D01*
X105841943Y-125240000D01*
X105814236Y-124958691D01*
X105732182Y-124688192D01*
X105598932Y-124438899D01*
X105419608Y-124220392D01*
X105201101Y-124041068D01*
X105068142Y-123970000D01*
X105201101Y-123898932D01*
X105419608Y-123719608D01*
X105598932Y-123501101D01*
X105732182Y-123251808D01*
X105814236Y-122981309D01*
X105841943Y-122700000D01*
X105814236Y-122418691D01*
X105732182Y-122148192D01*
X105598932Y-121898899D01*
X105419608Y-121680392D01*
X105201101Y-121501068D01*
X105068142Y-121430000D01*
X105201101Y-121358932D01*
X105419608Y-121179608D01*
X105598932Y-120961101D01*
X105732182Y-120711808D01*
X105814236Y-120441309D01*
X105841943Y-120160000D01*
X105814236Y-119878691D01*
X105732182Y-119608192D01*
X105598932Y-119358899D01*
X105419608Y-119140392D01*
X105201101Y-118961068D01*
X105068142Y-118890000D01*
X105201101Y-118818932D01*
X105419608Y-118639608D01*
X105598932Y-118421101D01*
X105732182Y-118171808D01*
X105814236Y-117901309D01*
X105841943Y-117620000D01*
X105814236Y-117338691D01*
X105732182Y-117068192D01*
X105598932Y-116818899D01*
X105419608Y-116600392D01*
X105201101Y-116421068D01*
X105068142Y-116350000D01*
X105201101Y-116278932D01*
X105419608Y-116099608D01*
X105598932Y-115881101D01*
X105732182Y-115631808D01*
X105814236Y-115361309D01*
X105841943Y-115080000D01*
X105814236Y-114798691D01*
X105732182Y-114528192D01*
X105598932Y-114278899D01*
X105419608Y-114060392D01*
X105201101Y-113881068D01*
X105068142Y-113810000D01*
X105201101Y-113738932D01*
X105419608Y-113559608D01*
X105598932Y-113341101D01*
X105732182Y-113091808D01*
X105814236Y-112821309D01*
X105841943Y-112540000D01*
X105814236Y-112258691D01*
X105732182Y-111988192D01*
X105598932Y-111738899D01*
X105419608Y-111520392D01*
X105306518Y-111427581D01*
X105324482Y-111425812D01*
X105444180Y-111389502D01*
X105554494Y-111330537D01*
X105651185Y-111251185D01*
X105730537Y-111154494D01*
X105789502Y-111044180D01*
X105825812Y-110924482D01*
X105838072Y-110800000D01*
X105838072Y-109200000D01*
X105825812Y-109075518D01*
X105789502Y-108955820D01*
X105730537Y-108845506D01*
X105651185Y-108748815D01*
X105554494Y-108669463D01*
X105444180Y-108610498D01*
X105324482Y-108574188D01*
X105200000Y-108561928D01*
X105035000Y-108561928D01*
X105035000Y-107441877D01*
X105292252Y-107269987D01*
X105519987Y-107042252D01*
X105524833Y-107035000D01*
X109475167Y-107035000D01*
X109480013Y-107042252D01*
X109707748Y-107269987D01*
X109975537Y-107448918D01*
X110273088Y-107572168D01*
X110588967Y-107635000D01*
X110911033Y-107635000D01*
X111226912Y-107572168D01*
X111524463Y-107448918D01*
X111792252Y-107269987D01*
X112019987Y-107042252D01*
X112198918Y-106774463D01*
X112322168Y-106476912D01*
X112385000Y-106161033D01*
X112385000Y-105838967D01*
X112383298Y-105830412D01*
X112517802Y-105695909D01*
X112517806Y-105695904D01*
X113345909Y-104867802D01*
X113385397Y-104835395D01*
X113417804Y-104795907D01*
X113514735Y-104677797D01*
X113610841Y-104497993D01*
X113610842Y-104497992D01*
X113670025Y-104302894D01*
X113685001Y-104150837D01*
X113685001Y-104150828D01*
X113690007Y-104100000D01*
X113685001Y-104049172D01*
X113685001Y-98168797D01*
X113731309Y-98164236D01*
X114001808Y-98082182D01*
X114251101Y-97948932D01*
X114469608Y-97769608D01*
X114648932Y-97551101D01*
X114782182Y-97301808D01*
X114864236Y-97031309D01*
X114891943Y-96750000D01*
X114864236Y-96468691D01*
X114782182Y-96198192D01*
X114648932Y-95948899D01*
X114469608Y-95730392D01*
X114251101Y-95551068D01*
X114001808Y-95417818D01*
X113731309Y-95335764D01*
X113520492Y-95315000D01*
X113379508Y-95315000D01*
X113168691Y-95335764D01*
X112898192Y-95417818D01*
X112648899Y-95551068D01*
X112430392Y-95730392D01*
X112251068Y-95948899D01*
X112117818Y-96198192D01*
X112035764Y-96468691D01*
X112010435Y-96725855D01*
X111954098Y-96782192D01*
X111914605Y-96814603D01*
X111785267Y-96972202D01*
X111689160Y-97152007D01*
X111629977Y-97347105D01*
X111615001Y-97499162D01*
X111615001Y-97499171D01*
X111609995Y-97549999D01*
X111615001Y-97600827D01*
X111615001Y-100113873D01*
X111610044Y-100100186D01*
X111320429Y-99959296D01*
X111008892Y-99877616D01*
X110687405Y-99858282D01*
X110368325Y-99902039D01*
X110063912Y-100007205D01*
X109889956Y-100100186D01*
X109794192Y-100364587D01*
X110750000Y-101320395D01*
X110764143Y-101306253D01*
X110943748Y-101485858D01*
X110929605Y-101500000D01*
X110943748Y-101514143D01*
X110764143Y-101693748D01*
X110750000Y-101679605D01*
X109794192Y-102635413D01*
X109889956Y-102899814D01*
X110179571Y-103040704D01*
X110491108Y-103122384D01*
X110812595Y-103141718D01*
X111131675Y-103097961D01*
X111436088Y-102992795D01*
X111610044Y-102899814D01*
X111615002Y-102886126D01*
X111615002Y-103671287D01*
X111054096Y-104232194D01*
X111054091Y-104232198D01*
X110919588Y-104366702D01*
X110911033Y-104365000D01*
X110588967Y-104365000D01*
X110273088Y-104427832D01*
X109975537Y-104551082D01*
X109707748Y-104730013D01*
X109480013Y-104957748D01*
X109475167Y-104965000D01*
X105524833Y-104965000D01*
X105519987Y-104957748D01*
X105292252Y-104730013D01*
X105024463Y-104551082D01*
X104726912Y-104427832D01*
X104411033Y-104365000D01*
X104088967Y-104365000D01*
X103773088Y-104427832D01*
X103475537Y-104551082D01*
X103207748Y-104730013D01*
X102980013Y-104957748D01*
X102801082Y-105225537D01*
X102677832Y-105523088D01*
X102615000Y-105838967D01*
X102615000Y-106161033D01*
X102677832Y-106476912D01*
X102801082Y-106774463D01*
X102965001Y-107019785D01*
X102965000Y-108561928D01*
X102800000Y-108561928D01*
X102675518Y-108574188D01*
X102555820Y-108610498D01*
X102445506Y-108669463D01*
X102348815Y-108748815D01*
X102269463Y-108845506D01*
X102210498Y-108955820D01*
X102174188Y-109075518D01*
X102161928Y-109200000D01*
X102161928Y-110800000D01*
X102174188Y-110924482D01*
X102210498Y-111044180D01*
X102269463Y-111154494D01*
X102348815Y-111251185D01*
X102445506Y-111330537D01*
X102555820Y-111389502D01*
X102675518Y-111425812D01*
X102693482Y-111427581D01*
X102580392Y-111520392D01*
X102401068Y-111738899D01*
X102267818Y-111988192D01*
X102185764Y-112258691D01*
X102158057Y-112540000D01*
X102185764Y-112821309D01*
X102267818Y-113091808D01*
X102401068Y-113341101D01*
X102580392Y-113559608D01*
X102798899Y-113738932D01*
X102931858Y-113810000D01*
X102798899Y-113881068D01*
X102580392Y-114060392D01*
X102401068Y-114278899D01*
X102267818Y-114528192D01*
X102198946Y-114755236D01*
X102035000Y-114591290D01*
X102035000Y-107050827D01*
X102040006Y-106999999D01*
X102035000Y-106949171D01*
X102035000Y-106949162D01*
X102020024Y-106797105D01*
X101960841Y-106602007D01*
X101904124Y-106495897D01*
X101864734Y-106422202D01*
X101767803Y-106304092D01*
X101735396Y-106264604D01*
X101695908Y-106232197D01*
X98435000Y-102971290D01*
X98435000Y-102858665D01*
X98390592Y-102635413D01*
X103294192Y-102635413D01*
X103389956Y-102899814D01*
X103679571Y-103040704D01*
X103991108Y-103122384D01*
X104312595Y-103141718D01*
X104631675Y-103097961D01*
X104936088Y-102992795D01*
X105110044Y-102899814D01*
X105205808Y-102635413D01*
X104250000Y-101679605D01*
X103294192Y-102635413D01*
X98390592Y-102635413D01*
X98379853Y-102581426D01*
X98271680Y-102320273D01*
X98114637Y-102085241D01*
X97914759Y-101885363D01*
X97679727Y-101728320D01*
X97418574Y-101620147D01*
X97141335Y-101565000D01*
X97028711Y-101565000D01*
X97026306Y-101562595D01*
X102608282Y-101562595D01*
X102652039Y-101881675D01*
X102757205Y-102186088D01*
X102850186Y-102360044D01*
X103114587Y-102455808D01*
X104070395Y-101500000D01*
X104429605Y-101500000D01*
X105385413Y-102455808D01*
X105649814Y-102360044D01*
X105790704Y-102070429D01*
X105872384Y-101758892D01*
X105884189Y-101562595D01*
X109108282Y-101562595D01*
X109152039Y-101881675D01*
X109257205Y-102186088D01*
X109350186Y-102360044D01*
X109614587Y-102455808D01*
X110570395Y-101500000D01*
X109614587Y-100544192D01*
X109350186Y-100639956D01*
X109209296Y-100929571D01*
X109127616Y-101241108D01*
X109108282Y-101562595D01*
X105884189Y-101562595D01*
X105891718Y-101437405D01*
X105847961Y-101118325D01*
X105742795Y-100813912D01*
X105649814Y-100639956D01*
X105385413Y-100544192D01*
X104429605Y-101500000D01*
X104070395Y-101500000D01*
X103114587Y-100544192D01*
X102850186Y-100639956D01*
X102709296Y-100929571D01*
X102627616Y-101241108D01*
X102608282Y-101562595D01*
X97026306Y-101562595D01*
X95828298Y-100364587D01*
X103294192Y-100364587D01*
X104250000Y-101320395D01*
X105205808Y-100364587D01*
X105110044Y-100100186D01*
X104820429Y-99959296D01*
X104508892Y-99877616D01*
X104187405Y-99858282D01*
X103868325Y-99902039D01*
X103563912Y-100007205D01*
X103389956Y-100100186D01*
X103294192Y-100364587D01*
X95828298Y-100364587D01*
X88312750Y-92849039D01*
X99408096Y-92849039D01*
X99448754Y-92983087D01*
X99568963Y-93237420D01*
X99736481Y-93463414D01*
X99944869Y-93652385D01*
X100186119Y-93797070D01*
X100450960Y-93891909D01*
X100673000Y-93770624D01*
X100673000Y-92627000D01*
X100927000Y-92627000D01*
X100927000Y-93770624D01*
X101149040Y-93891909D01*
X101413881Y-93797070D01*
X101655131Y-93652385D01*
X101863519Y-93463414D01*
X102031037Y-93237420D01*
X102151246Y-92983087D01*
X102191904Y-92849039D01*
X102069915Y-92627000D01*
X100927000Y-92627000D01*
X100673000Y-92627000D01*
X99530085Y-92627000D01*
X99408096Y-92849039D01*
X88312750Y-92849039D01*
X87614672Y-92150961D01*
X99408096Y-92150961D01*
X99530085Y-92373000D01*
X100673000Y-92373000D01*
X100673000Y-91229376D01*
X100927000Y-91229376D01*
X100927000Y-92373000D01*
X102069915Y-92373000D01*
X102191904Y-92150961D01*
X102151246Y-92016913D01*
X102031037Y-91762580D01*
X101863519Y-91536586D01*
X101655131Y-91347615D01*
X101413881Y-91202930D01*
X101149040Y-91108091D01*
X100927000Y-91229376D01*
X100673000Y-91229376D01*
X100450960Y-91108091D01*
X100186119Y-91202930D01*
X99944869Y-91347615D01*
X99736481Y-91536586D01*
X99568963Y-91762580D01*
X99448754Y-92016913D01*
X99408096Y-92150961D01*
X87614672Y-92150961D01*
X84062750Y-88599039D01*
X99408096Y-88599039D01*
X99448754Y-88733087D01*
X99568963Y-88987420D01*
X99736481Y-89213414D01*
X99944869Y-89402385D01*
X100186119Y-89547070D01*
X100450960Y-89641909D01*
X100673000Y-89520624D01*
X100673000Y-88377000D01*
X100927000Y-88377000D01*
X100927000Y-89520624D01*
X101149040Y-89641909D01*
X101413881Y-89547070D01*
X101655131Y-89402385D01*
X101863519Y-89213414D01*
X102031037Y-88987420D01*
X102151246Y-88733087D01*
X102191904Y-88599039D01*
X102069915Y-88377000D01*
X100927000Y-88377000D01*
X100673000Y-88377000D01*
X99530085Y-88377000D01*
X99408096Y-88599039D01*
X84062750Y-88599039D01*
X83364672Y-87900961D01*
X99408096Y-87900961D01*
X99530085Y-88123000D01*
X100673000Y-88123000D01*
X100673000Y-86979376D01*
X100927000Y-86979376D01*
X100927000Y-88123000D01*
X102069915Y-88123000D01*
X102191904Y-87900961D01*
X102151246Y-87766913D01*
X102031037Y-87512580D01*
X101863519Y-87286586D01*
X101655131Y-87097615D01*
X101413881Y-86952930D01*
X101149040Y-86858091D01*
X100927000Y-86979376D01*
X100673000Y-86979376D01*
X100450960Y-86858091D01*
X100186119Y-86952930D01*
X99944869Y-87097615D01*
X99736481Y-87286586D01*
X99568963Y-87512580D01*
X99448754Y-87766913D01*
X99408096Y-87900961D01*
X83364672Y-87900961D01*
X82767807Y-87304097D01*
X82735396Y-87264604D01*
X82577797Y-87135266D01*
X82397993Y-87039159D01*
X82202895Y-86979976D01*
X82050838Y-86965000D01*
X82050828Y-86965000D01*
X82000000Y-86959994D01*
X81949172Y-86965000D01*
X76934625Y-86965000D01*
X76925812Y-86875518D01*
X76889502Y-86755820D01*
X76830537Y-86645506D01*
X76751185Y-86548815D01*
X76654494Y-86469463D01*
X76544180Y-86410498D01*
X76424482Y-86374188D01*
X76300000Y-86361928D01*
X73700000Y-86361928D01*
X73575518Y-86374188D01*
X73455820Y-86410498D01*
X73345506Y-86469463D01*
X73248815Y-86548815D01*
X73169463Y-86645506D01*
X73110498Y-86755820D01*
X73074188Y-86875518D01*
X73061928Y-87000000D01*
X73061928Y-87978220D01*
X72035000Y-86951292D01*
X72035000Y-85428710D01*
X72864671Y-84599039D01*
X99408096Y-84599039D01*
X99448754Y-84733087D01*
X99568963Y-84987420D01*
X99736481Y-85213414D01*
X99944869Y-85402385D01*
X100186119Y-85547070D01*
X100450960Y-85641909D01*
X100673000Y-85520624D01*
X100673000Y-84377000D01*
X100927000Y-84377000D01*
X100927000Y-85520624D01*
X101149040Y-85641909D01*
X101413881Y-85547070D01*
X101655131Y-85402385D01*
X101863519Y-85213414D01*
X102031037Y-84987420D01*
X102151246Y-84733087D01*
X102191904Y-84599039D01*
X102069915Y-84377000D01*
X100927000Y-84377000D01*
X100673000Y-84377000D01*
X99530085Y-84377000D01*
X99408096Y-84599039D01*
X72864671Y-84599039D01*
X74053721Y-83409990D01*
X99645008Y-83409990D01*
X99568963Y-83512580D01*
X99448754Y-83766913D01*
X99408096Y-83900961D01*
X99530085Y-84123000D01*
X100673000Y-84123000D01*
X100673000Y-84103000D01*
X100927000Y-84103000D01*
X100927000Y-84123000D01*
X102069915Y-84123000D01*
X102191904Y-83900961D01*
X102151246Y-83766913D01*
X102031037Y-83512580D01*
X101954992Y-83409990D01*
X104574182Y-83409990D01*
X104625010Y-83414996D01*
X104675838Y-83409990D01*
X104675848Y-83409990D01*
X104827905Y-83395014D01*
X105023003Y-83335831D01*
X105202807Y-83239724D01*
X105360406Y-83110386D01*
X105392817Y-83070893D01*
X111064999Y-77398711D01*
X111065000Y-84971289D01*
X100854097Y-95182193D01*
X100854091Y-95182198D01*
X100721289Y-95315000D01*
X100608665Y-95315000D01*
X100331426Y-95370147D01*
X100070273Y-95478320D01*
X99835241Y-95635363D01*
X99635363Y-95835241D01*
X99478320Y-96070273D01*
X99370147Y-96331426D01*
X99315000Y-96608665D01*
X99315000Y-96891335D01*
X99370147Y-97168574D01*
X99478320Y-97429727D01*
X99635363Y-97664759D01*
X99835241Y-97864637D01*
X100070273Y-98021680D01*
X100331426Y-98129853D01*
X100608665Y-98185000D01*
X100891335Y-98185000D01*
X101168574Y-98129853D01*
X101429727Y-98021680D01*
X101664759Y-97864637D01*
X101864637Y-97664759D01*
X102021680Y-97429727D01*
X102129853Y-97168574D01*
X102185000Y-96891335D01*
X102185000Y-96778711D01*
X102317802Y-96645909D01*
X102317807Y-96645903D01*
X112795907Y-86167804D01*
X112835395Y-86135397D01*
X112907125Y-86047994D01*
X112964733Y-85977799D01*
X113060839Y-85797995D01*
X113060840Y-85797994D01*
X113110115Y-85635560D01*
X113358665Y-85685000D01*
X113471289Y-85685000D01*
X114132197Y-86345908D01*
X114164605Y-86385397D01*
X114204093Y-86417804D01*
X114322203Y-86514735D01*
X114385963Y-86548815D01*
X114502008Y-86610842D01*
X114697106Y-86670025D01*
X114849163Y-86685001D01*
X114849172Y-86685001D01*
X114900000Y-86690007D01*
X114950828Y-86685001D01*
X120221291Y-86685001D01*
X121465011Y-87928722D01*
X121465011Y-89001301D01*
X120817806Y-88354096D01*
X120785395Y-88314603D01*
X120627796Y-88185265D01*
X120447992Y-88089158D01*
X120252894Y-88029975D01*
X120100837Y-88014999D01*
X120100827Y-88014999D01*
X120049999Y-88009993D01*
X119999171Y-88014999D01*
X114916368Y-88014999D01*
X114879853Y-87831426D01*
X114771680Y-87570273D01*
X114614637Y-87335241D01*
X114414759Y-87135363D01*
X114179727Y-86978320D01*
X113918574Y-86870147D01*
X113641335Y-86815000D01*
X113358665Y-86815000D01*
X113081426Y-86870147D01*
X112820273Y-86978320D01*
X112585241Y-87135363D01*
X112385363Y-87335241D01*
X112228320Y-87570273D01*
X112120147Y-87831426D01*
X112065000Y-88108665D01*
X112065000Y-88391335D01*
X112120147Y-88668574D01*
X112228320Y-88929727D01*
X112385363Y-89164759D01*
X112585241Y-89364637D01*
X112820273Y-89521680D01*
X113081426Y-89629853D01*
X113358665Y-89685000D01*
X113471289Y-89685000D01*
X113532195Y-89745906D01*
X113564603Y-89785395D01*
X113604091Y-89817802D01*
X113722201Y-89914733D01*
X113811010Y-89962202D01*
X113902006Y-90010840D01*
X114097104Y-90070023D01*
X114249161Y-90084999D01*
X114249170Y-90084999D01*
X114299998Y-90090005D01*
X114350826Y-90084999D01*
X114451290Y-90084999D01*
X113471290Y-91065000D01*
X113358665Y-91065000D01*
X113081426Y-91120147D01*
X112820273Y-91228320D01*
X112585241Y-91385363D01*
X112385363Y-91585241D01*
X112228320Y-91820273D01*
X112120147Y-92081426D01*
X112065000Y-92358665D01*
X112065000Y-92641335D01*
X112120147Y-92918574D01*
X112228320Y-93179727D01*
X112385363Y-93414759D01*
X112585241Y-93614637D01*
X112820273Y-93771680D01*
X113081426Y-93879853D01*
X113358665Y-93935000D01*
X113641335Y-93935000D01*
X113918574Y-93879853D01*
X114179727Y-93771680D01*
X114414759Y-93614637D01*
X114614637Y-93414759D01*
X114771680Y-93179727D01*
X114879853Y-92918574D01*
X114935000Y-92641335D01*
X114935000Y-92528710D01*
X115928712Y-91534999D01*
X115991138Y-91534999D01*
X115983989Y-91552257D01*
X115925000Y-91848816D01*
X115925000Y-92071290D01*
X115304097Y-92692193D01*
X115264604Y-92724604D01*
X115135266Y-92882203D01*
X115039159Y-93062008D01*
X114979976Y-93257106D01*
X114965000Y-93409163D01*
X114965000Y-93409172D01*
X114959994Y-93460000D01*
X114965000Y-93510828D01*
X114965001Y-105591288D01*
X111991290Y-108565000D01*
X111149508Y-108565000D01*
X110938691Y-108585764D01*
X110668192Y-108667818D01*
X110418899Y-108801068D01*
X110200392Y-108980392D01*
X110021068Y-109198899D01*
X109887818Y-109448192D01*
X109805764Y-109718691D01*
X109778057Y-110000000D01*
X109805764Y-110281309D01*
X109887818Y-110551808D01*
X110021068Y-110801101D01*
X110200392Y-111019608D01*
X110418899Y-111198932D01*
X110551858Y-111270000D01*
X110418899Y-111341068D01*
X110200392Y-111520392D01*
X110021068Y-111738899D01*
X109887818Y-111988192D01*
X109805764Y-112258691D01*
X109778057Y-112540000D01*
X109805764Y-112821309D01*
X109887818Y-113091808D01*
X110021068Y-113341101D01*
X110200392Y-113559608D01*
X110418899Y-113738932D01*
X110551858Y-113810000D01*
X110418899Y-113881068D01*
X110200392Y-114060392D01*
X110021068Y-114278899D01*
X109887818Y-114528192D01*
X109805764Y-114798691D01*
X109778057Y-115080000D01*
X109805764Y-115361309D01*
X109887818Y-115631808D01*
X110021068Y-115881101D01*
X110200392Y-116099608D01*
X110418899Y-116278932D01*
X110551858Y-116350000D01*
X110418899Y-116421068D01*
X110200392Y-116600392D01*
X110021068Y-116818899D01*
X109887818Y-117068192D01*
X109805764Y-117338691D01*
X109778057Y-117620000D01*
X109805764Y-117901309D01*
X109887818Y-118171808D01*
X110021068Y-118421101D01*
X110200392Y-118639608D01*
X110418899Y-118818932D01*
X110551858Y-118890000D01*
X110418899Y-118961068D01*
X110200392Y-119140392D01*
X110021068Y-119358899D01*
X109887818Y-119608192D01*
X109805764Y-119878691D01*
X109778057Y-120160000D01*
X109805764Y-120441309D01*
X109887818Y-120711808D01*
X110021068Y-120961101D01*
X110200392Y-121179608D01*
X110418899Y-121358932D01*
X110551858Y-121430000D01*
X110418899Y-121501068D01*
X110200392Y-121680392D01*
X110021068Y-121898899D01*
X109887818Y-122148192D01*
X109805764Y-122418691D01*
X109778057Y-122700000D01*
X109805764Y-122981309D01*
X109887818Y-123251808D01*
X110021068Y-123501101D01*
X110200392Y-123719608D01*
X110418899Y-123898932D01*
X110546741Y-123967265D01*
X110317161Y-124117399D01*
X110115500Y-124315105D01*
X109956285Y-124548354D01*
X109845633Y-124808182D01*
X109828096Y-124890961D01*
X109950085Y-125113000D01*
X111493000Y-125113000D01*
X111493000Y-125093000D01*
X111747000Y-125093000D01*
X111747000Y-125113000D01*
X113289915Y-125113000D01*
X113411904Y-124890961D01*
X113394367Y-124808182D01*
X113283715Y-124548354D01*
X113124500Y-124315105D01*
X112922839Y-124117399D01*
X112693259Y-123967265D01*
X112821101Y-123898932D01*
X113039608Y-123719608D01*
X113097521Y-123649040D01*
X120608091Y-123649040D01*
X120702930Y-123913881D01*
X120847615Y-124155131D01*
X121036586Y-124363519D01*
X121262580Y-124531037D01*
X121516913Y-124651246D01*
X121650961Y-124691904D01*
X121873000Y-124569915D01*
X121873000Y-123427000D01*
X122127000Y-123427000D01*
X122127000Y-124569915D01*
X122349039Y-124691904D01*
X122483087Y-124651246D01*
X122737420Y-124531037D01*
X122963414Y-124363519D01*
X123152385Y-124155131D01*
X123297070Y-123913881D01*
X123391909Y-123649040D01*
X123270624Y-123427000D01*
X122127000Y-123427000D01*
X121873000Y-123427000D01*
X120729376Y-123427000D01*
X120608091Y-123649040D01*
X113097521Y-123649040D01*
X113218932Y-123501101D01*
X113352182Y-123251808D01*
X113434236Y-122981309D01*
X113437225Y-122950960D01*
X120608091Y-122950960D01*
X120729376Y-123173000D01*
X121873000Y-123173000D01*
X121873000Y-122030085D01*
X122127000Y-122030085D01*
X122127000Y-123173000D01*
X123270624Y-123173000D01*
X123391909Y-122950960D01*
X123297070Y-122686119D01*
X123152385Y-122444869D01*
X122963414Y-122236481D01*
X122737420Y-122068963D01*
X122483087Y-121948754D01*
X122349039Y-121908096D01*
X122127000Y-122030085D01*
X121873000Y-122030085D01*
X121650961Y-121908096D01*
X121516913Y-121948754D01*
X121262580Y-122068963D01*
X121036586Y-122236481D01*
X120847615Y-122444869D01*
X120702930Y-122686119D01*
X120608091Y-122950960D01*
X113437225Y-122950960D01*
X113461943Y-122700000D01*
X113434236Y-122418691D01*
X113352182Y-122148192D01*
X113218932Y-121898899D01*
X113039608Y-121680392D01*
X112821101Y-121501068D01*
X112688142Y-121430000D01*
X112821101Y-121358932D01*
X113039608Y-121179608D01*
X113218932Y-120961101D01*
X113352182Y-120711808D01*
X113434236Y-120441309D01*
X113461943Y-120160000D01*
X113434236Y-119878691D01*
X113352182Y-119608192D01*
X113218932Y-119358899D01*
X113039608Y-119140392D01*
X112821101Y-118961068D01*
X112688142Y-118890000D01*
X112821101Y-118818932D01*
X113039608Y-118639608D01*
X113218932Y-118421101D01*
X113352182Y-118171808D01*
X113434236Y-117901309D01*
X113461943Y-117620000D01*
X113434236Y-117338691D01*
X113352182Y-117068192D01*
X113218932Y-116818899D01*
X113079533Y-116649040D01*
X125608091Y-116649040D01*
X125702930Y-116913881D01*
X125847615Y-117155131D01*
X126036586Y-117363519D01*
X126262580Y-117531037D01*
X126516913Y-117651246D01*
X126650961Y-117691904D01*
X126873000Y-117569915D01*
X126873000Y-116427000D01*
X125729376Y-116427000D01*
X125608091Y-116649040D01*
X113079533Y-116649040D01*
X113039608Y-116600392D01*
X112821101Y-116421068D01*
X112688142Y-116350000D01*
X112821101Y-116278932D01*
X113039608Y-116099608D01*
X113161600Y-115950960D01*
X125608091Y-115950960D01*
X125729376Y-116173000D01*
X126873000Y-116173000D01*
X126873000Y-115030085D01*
X126650961Y-114908096D01*
X126516913Y-114948754D01*
X126262580Y-115068963D01*
X126036586Y-115236481D01*
X125847615Y-115444869D01*
X125702930Y-115686119D01*
X125608091Y-115950960D01*
X113161600Y-115950960D01*
X113218932Y-115881101D01*
X113352182Y-115631808D01*
X113378430Y-115545281D01*
X118388711Y-110535000D01*
X118611184Y-110535000D01*
X118907743Y-110476011D01*
X119187095Y-110360299D01*
X119438505Y-110192312D01*
X119504944Y-110125873D01*
X119510498Y-110144180D01*
X119569463Y-110254494D01*
X119648815Y-110351185D01*
X119745506Y-110430537D01*
X119855820Y-110489502D01*
X119975518Y-110525812D01*
X120100000Y-110538072D01*
X121900000Y-110538072D01*
X122024482Y-110525812D01*
X122144180Y-110489502D01*
X122254494Y-110430537D01*
X122351185Y-110351185D01*
X122430537Y-110254494D01*
X122489502Y-110144180D01*
X122525812Y-110024482D01*
X122538072Y-109900000D01*
X122538072Y-108100000D01*
X122525812Y-107975518D01*
X122489502Y-107855820D01*
X122430537Y-107745506D01*
X122351185Y-107648815D01*
X122254494Y-107569463D01*
X122215233Y-107548477D01*
X123195919Y-106567792D01*
X123235407Y-106535385D01*
X123267814Y-106495897D01*
X123364745Y-106377787D01*
X123425242Y-106264604D01*
X123460852Y-106197982D01*
X123520035Y-106002884D01*
X123535011Y-105850827D01*
X123535011Y-105850825D01*
X123540018Y-105799989D01*
X123535011Y-105749154D01*
X123535011Y-87550838D01*
X123540017Y-87500010D01*
X123535011Y-87449182D01*
X123535011Y-87449173D01*
X123520035Y-87297116D01*
X123460852Y-87102018D01*
X123395620Y-86979977D01*
X123364745Y-86922213D01*
X123267814Y-86804103D01*
X123235407Y-86764615D01*
X123195919Y-86732208D01*
X121417808Y-84954098D01*
X121385397Y-84914605D01*
X121227798Y-84785267D01*
X121047994Y-84689160D01*
X120852896Y-84629977D01*
X120700839Y-84615001D01*
X120700829Y-84615001D01*
X120650001Y-84609995D01*
X120599173Y-84615001D01*
X115328712Y-84615001D01*
X114935000Y-84221289D01*
X114935000Y-84108665D01*
X114879853Y-83831426D01*
X114771680Y-83570273D01*
X114614637Y-83335241D01*
X114414759Y-83135363D01*
X114179727Y-82978320D01*
X113918574Y-82870147D01*
X113641335Y-82815000D01*
X113358665Y-82815000D01*
X113134999Y-82859491D01*
X113134999Y-79072017D01*
X125598090Y-79072017D01*
X125639078Y-79344133D01*
X125732364Y-79603023D01*
X125794344Y-79718980D01*
X126034435Y-79785960D01*
X126820395Y-79000000D01*
X126034435Y-78214040D01*
X125794344Y-78281020D01*
X125677244Y-78530048D01*
X125610977Y-78797135D01*
X125598090Y-79072017D01*
X113134999Y-79072017D01*
X113134999Y-75328712D01*
X115267803Y-73195908D01*
X115267808Y-73195902D01*
X127066711Y-61397000D01*
X127137592Y-61397000D01*
X127407490Y-61343314D01*
X127661727Y-61238005D01*
X127890535Y-61085120D01*
X128085120Y-60890535D01*
X128238005Y-60661727D01*
X128343314Y-60407490D01*
X128397000Y-60137592D01*
X128397000Y-59862408D01*
X128343314Y-59592510D01*
X128238005Y-59338273D01*
X128085120Y-59109465D01*
X127890535Y-58914880D01*
X127661727Y-58761995D01*
X127407490Y-58656686D01*
X127137592Y-58603000D01*
X126862408Y-58603000D01*
X126592510Y-58656686D01*
X126338273Y-58761995D01*
X126109465Y-58914880D01*
X125914880Y-59109465D01*
X125761995Y-59338273D01*
X125656686Y-59592510D01*
X125603000Y-59862408D01*
X125603000Y-59933289D01*
X113804098Y-71732192D01*
X113804092Y-71732197D01*
X111404092Y-74132197D01*
X111364603Y-74164605D01*
X111332195Y-74204094D01*
X104196300Y-81339990D01*
X73675845Y-81339990D01*
X73625010Y-81334983D01*
X73574175Y-81339990D01*
X73574172Y-81339990D01*
X73422115Y-81354966D01*
X73227017Y-81414149D01*
X73156515Y-81451833D01*
X73047212Y-81510256D01*
X72978666Y-81566511D01*
X72889614Y-81639594D01*
X72857207Y-81679082D01*
X70304097Y-84232193D01*
X70264604Y-84264604D01*
X70135266Y-84422203D01*
X70039159Y-84602008D01*
X69979976Y-84797106D01*
X69965000Y-84949163D01*
X69965000Y-84949172D01*
X69959994Y-85000000D01*
X69965000Y-85050828D01*
X69965001Y-86949153D01*
X69965000Y-86949163D01*
X69965000Y-87329174D01*
X69959994Y-87380002D01*
X69965000Y-87430830D01*
X69965001Y-97949152D01*
X69959993Y-98000000D01*
X60660000Y-98000000D01*
X60660000Y-79965565D01*
X85214040Y-79965565D01*
X85281020Y-80205656D01*
X85530048Y-80322756D01*
X85797135Y-80389023D01*
X86072017Y-80401910D01*
X86344133Y-80360922D01*
X86603023Y-80267636D01*
X86718980Y-80205656D01*
X86785960Y-79965565D01*
X86000000Y-79179605D01*
X85214040Y-79965565D01*
X60660000Y-79965565D01*
X60660000Y-79072017D01*
X84598090Y-79072017D01*
X84639078Y-79344133D01*
X84732364Y-79603023D01*
X84794344Y-79718980D01*
X85034435Y-79785960D01*
X85820395Y-79000000D01*
X86179605Y-79000000D01*
X86965565Y-79785960D01*
X87205656Y-79718980D01*
X87322756Y-79469952D01*
X87389023Y-79202865D01*
X87401910Y-78927983D01*
X87360922Y-78655867D01*
X87267636Y-78396977D01*
X87205656Y-78281020D01*
X86965565Y-78214040D01*
X86179605Y-79000000D01*
X85820395Y-79000000D01*
X85034435Y-78214040D01*
X84794344Y-78281020D01*
X84677244Y-78530048D01*
X84610977Y-78797135D01*
X84598090Y-79072017D01*
X60660000Y-79072017D01*
X60660000Y-78034435D01*
X85214040Y-78034435D01*
X86000000Y-78820395D01*
X86785960Y-78034435D01*
X86718980Y-77794344D01*
X86469952Y-77677244D01*
X86202865Y-77610977D01*
X85927983Y-77598090D01*
X85655867Y-77639078D01*
X85396977Y-77732364D01*
X85281020Y-77794344D01*
X85214040Y-78034435D01*
X60660000Y-78034435D01*
X60660000Y-71571653D01*
X73687952Y-71571653D01*
X73843962Y-71887214D01*
X74218745Y-72078020D01*
X74623551Y-72192044D01*
X75042824Y-72224902D01*
X75460451Y-72175334D01*
X75860383Y-72045243D01*
X76156038Y-71887214D01*
X76312048Y-71571653D01*
X75000000Y-70259605D01*
X73687952Y-71571653D01*
X60660000Y-71571653D01*
X60660000Y-70122824D01*
X72855098Y-70122824D01*
X72904666Y-70540451D01*
X73034757Y-70940383D01*
X73192786Y-71236038D01*
X73508347Y-71392048D01*
X74820395Y-70080000D01*
X75179605Y-70080000D01*
X76491653Y-71392048D01*
X76807214Y-71236038D01*
X76998020Y-70861255D01*
X77112044Y-70456449D01*
X77144902Y-70037176D01*
X77095334Y-69619549D01*
X76965243Y-69219617D01*
X76807214Y-68923962D01*
X76491653Y-68767952D01*
X75179605Y-70080000D01*
X74820395Y-70080000D01*
X73508347Y-68767952D01*
X73192786Y-68923962D01*
X73001980Y-69298745D01*
X72887956Y-69703551D01*
X72855098Y-70122824D01*
X60660000Y-70122824D01*
X60660000Y-68588347D01*
X73687952Y-68588347D01*
X75000000Y-69900395D01*
X76312048Y-68588347D01*
X76156038Y-68272786D01*
X75781255Y-68081980D01*
X75376449Y-67967956D01*
X74957176Y-67935098D01*
X74539549Y-67984666D01*
X74139617Y-68114757D01*
X73843962Y-68272786D01*
X73687952Y-68588347D01*
X60660000Y-68588347D01*
X60660000Y-63500000D01*
X72861928Y-63500000D01*
X72861928Y-66500000D01*
X72874188Y-66624482D01*
X72910498Y-66744180D01*
X72969463Y-66854494D01*
X73048815Y-66951185D01*
X73145506Y-67030537D01*
X73255820Y-67089502D01*
X73375518Y-67125812D01*
X73500000Y-67138072D01*
X76500000Y-67138072D01*
X76624482Y-67125812D01*
X76744180Y-67089502D01*
X76854494Y-67030537D01*
X76951185Y-66951185D01*
X77030537Y-66854494D01*
X77089502Y-66744180D01*
X77125812Y-66624482D01*
X77138072Y-66500000D01*
X77138072Y-66235000D01*
X80939335Y-66235000D01*
X81000000Y-66240975D01*
X81060665Y-66235000D01*
X81242102Y-66217130D01*
X81474901Y-66146511D01*
X81689449Y-66031833D01*
X81877502Y-65877502D01*
X81916178Y-65830375D01*
X86402185Y-61344369D01*
X86407490Y-61343314D01*
X86661727Y-61238005D01*
X86666224Y-61235000D01*
X112939335Y-61235000D01*
X113000000Y-61240975D01*
X113060665Y-61235000D01*
X113242102Y-61217130D01*
X113474901Y-61146511D01*
X113689449Y-61031833D01*
X113877502Y-60877502D01*
X113916179Y-60830374D01*
X128511554Y-46235000D01*
X134165375Y-46235000D01*
X134174188Y-46324482D01*
X134210498Y-46444180D01*
X134269463Y-46554494D01*
X134348815Y-46651185D01*
X134445506Y-46730537D01*
X134555820Y-46789502D01*
X134675518Y-46825812D01*
X134800000Y-46838072D01*
X137200000Y-46838072D01*
X137324482Y-46825812D01*
X137444180Y-46789502D01*
X137554494Y-46730537D01*
X137651185Y-46651185D01*
X137730537Y-46554494D01*
X137789502Y-46444180D01*
X137825812Y-46324482D01*
X137834625Y-46235000D01*
X141885830Y-46235000D01*
X141947047Y-46542756D01*
X142107988Y-46931302D01*
X142341637Y-47280983D01*
X142639017Y-47578363D01*
X142988698Y-47812012D01*
X143377244Y-47972953D01*
X143789721Y-48055000D01*
X144210279Y-48055000D01*
X144622756Y-47972953D01*
X145011302Y-47812012D01*
X145360983Y-47578363D01*
X145658363Y-47280983D01*
X145742542Y-47155000D01*
X146408447Y-47155000D01*
X148765000Y-49511554D01*
X148765001Y-75774291D01*
X148677897Y-75782870D01*
X148445099Y-75853489D01*
X148230551Y-75968167D01*
X148042498Y-76122498D01*
X148003826Y-76169620D01*
X145358887Y-78814560D01*
X145210279Y-78785000D01*
X144789721Y-78785000D01*
X144377244Y-78867047D01*
X143988698Y-79027988D01*
X143753713Y-79185000D01*
X138834625Y-79185000D01*
X138825812Y-79095518D01*
X138789502Y-78975820D01*
X138730537Y-78865506D01*
X138651185Y-78768815D01*
X138554494Y-78689463D01*
X138444180Y-78630498D01*
X138324482Y-78594188D01*
X138200000Y-78581928D01*
X135800000Y-78581928D01*
X135675518Y-78594188D01*
X135555820Y-78630498D01*
X135445506Y-78689463D01*
X135348815Y-78768815D01*
X135269463Y-78865506D01*
X135210498Y-78975820D01*
X135174188Y-79095518D01*
X135161928Y-79220000D01*
X135161928Y-81620000D01*
X135174188Y-81744482D01*
X135210498Y-81864180D01*
X135269463Y-81974494D01*
X135348815Y-82071185D01*
X135445506Y-82150537D01*
X135555820Y-82209502D01*
X135675518Y-82245812D01*
X135800000Y-82258072D01*
X138200000Y-82258072D01*
X138324482Y-82245812D01*
X138444180Y-82209502D01*
X138554494Y-82150537D01*
X138651185Y-82071185D01*
X138730537Y-81974494D01*
X138789502Y-81864180D01*
X138825812Y-81744482D01*
X138834625Y-81655000D01*
X142993540Y-81655000D01*
X143107988Y-81931302D01*
X143341637Y-82280983D01*
X143639017Y-82578363D01*
X143988698Y-82812012D01*
X144377244Y-82972953D01*
X144789721Y-83055000D01*
X145210279Y-83055000D01*
X145622756Y-82972953D01*
X146011302Y-82812012D01*
X146360983Y-82578363D01*
X146658363Y-82280983D01*
X146892012Y-81931302D01*
X147052953Y-81542756D01*
X147135000Y-81130279D01*
X147135000Y-80709721D01*
X147105440Y-80561113D01*
X148765000Y-78901554D01*
X148765001Y-110408445D01*
X145358887Y-113814560D01*
X145210279Y-113785000D01*
X144789721Y-113785000D01*
X144377244Y-113867047D01*
X143988698Y-114027988D01*
X143639017Y-114261637D01*
X143635654Y-114265000D01*
X138834625Y-114265000D01*
X138825812Y-114175518D01*
X138789502Y-114055820D01*
X138730537Y-113945506D01*
X138651185Y-113848815D01*
X138554494Y-113769463D01*
X138444180Y-113710498D01*
X138324482Y-113674188D01*
X138200000Y-113661928D01*
X135800000Y-113661928D01*
X135675518Y-113674188D01*
X135555820Y-113710498D01*
X135445506Y-113769463D01*
X135348815Y-113848815D01*
X135269463Y-113945506D01*
X135210498Y-114055820D01*
X135174188Y-114175518D01*
X135161928Y-114300000D01*
X135161928Y-116700000D01*
X135174188Y-116824482D01*
X135210498Y-116944180D01*
X135269463Y-117054494D01*
X135348815Y-117151185D01*
X135445506Y-117230537D01*
X135555820Y-117289502D01*
X135675518Y-117325812D01*
X135800000Y-117338072D01*
X138200000Y-117338072D01*
X138324482Y-117325812D01*
X138444180Y-117289502D01*
X138554494Y-117230537D01*
X138651185Y-117151185D01*
X138730537Y-117054494D01*
X138789502Y-116944180D01*
X138825812Y-116824482D01*
X138834625Y-116735000D01*
X143026677Y-116735000D01*
X143107988Y-116931302D01*
X143341637Y-117280983D01*
X143639017Y-117578363D01*
X143988698Y-117812012D01*
X144377244Y-117972953D01*
X144789721Y-118055000D01*
X145210279Y-118055000D01*
X145622756Y-117972953D01*
X146011302Y-117812012D01*
X146360983Y-117578363D01*
X146658363Y-117280983D01*
X146892012Y-116931302D01*
X147052953Y-116542756D01*
X147135000Y-116130279D01*
X147135000Y-115709721D01*
X147105440Y-115561113D01*
X150830380Y-111836174D01*
X150877502Y-111797502D01*
X151031833Y-111609449D01*
X151146511Y-111394901D01*
X151217130Y-111162102D01*
X151231164Y-111019608D01*
X151240975Y-110920000D01*
X151235000Y-110859335D01*
X151235000Y-77060665D01*
X151240975Y-77000000D01*
X151235000Y-76939335D01*
X151235000Y-49060665D01*
X151240975Y-49000000D01*
X151217130Y-48757898D01*
X151146511Y-48525100D01*
X151146511Y-48525099D01*
X151031833Y-48310551D01*
X150877502Y-48122498D01*
X150830381Y-48083827D01*
X147836178Y-45089625D01*
X147797502Y-45042498D01*
X147609449Y-44888167D01*
X147394901Y-44773489D01*
X147162102Y-44702870D01*
X146980665Y-44685000D01*
X146920000Y-44679025D01*
X146859335Y-44685000D01*
X145742542Y-44685000D01*
X145658363Y-44559017D01*
X145360983Y-44261637D01*
X145011302Y-44027988D01*
X144622756Y-43867047D01*
X144210279Y-43785000D01*
X143789721Y-43785000D01*
X143511537Y-43840334D01*
X143322102Y-43782870D01*
X143140665Y-43765000D01*
X143080000Y-43759025D01*
X143019335Y-43765000D01*
X137834625Y-43765000D01*
X137825812Y-43675518D01*
X137789502Y-43555820D01*
X137730537Y-43445506D01*
X137651185Y-43348815D01*
X137554494Y-43269463D01*
X137444180Y-43210498D01*
X137324482Y-43174188D01*
X137200000Y-43161928D01*
X134800000Y-43161928D01*
X134675518Y-43174188D01*
X134555820Y-43210498D01*
X134445506Y-43269463D01*
X134348815Y-43348815D01*
X134269463Y-43445506D01*
X134210498Y-43555820D01*
X134174188Y-43675518D01*
X134165375Y-43765000D01*
X128060654Y-43765000D01*
X127999999Y-43759026D01*
X127939344Y-43765000D01*
X127939335Y-43765000D01*
X127757898Y-43782870D01*
X127525099Y-43853489D01*
X127310551Y-43968167D01*
X127122498Y-44122498D01*
X127083826Y-44169620D01*
X112488447Y-58765000D01*
X86666224Y-58765000D01*
X86661727Y-58761995D01*
X86407490Y-58656686D01*
X86137592Y-58603000D01*
X85862408Y-58603000D01*
X85592510Y-58656686D01*
X85338273Y-58761995D01*
X85109465Y-58914880D01*
X84914880Y-59109465D01*
X84761995Y-59338273D01*
X84656686Y-59592510D01*
X84655631Y-59597815D01*
X80488447Y-63765000D01*
X77138072Y-63765000D01*
X77138072Y-63500000D01*
X77125812Y-63375518D01*
X77089502Y-63255820D01*
X77030537Y-63145506D01*
X76951185Y-63048815D01*
X76854494Y-62969463D01*
X76744180Y-62910498D01*
X76624482Y-62874188D01*
X76500000Y-62861928D01*
X73500000Y-62861928D01*
X73375518Y-62874188D01*
X73255820Y-62910498D01*
X73145506Y-62969463D01*
X73048815Y-63048815D01*
X72969463Y-63145506D01*
X72910498Y-63255820D01*
X72874188Y-63375518D01*
X72861928Y-63500000D01*
X60660000Y-63500000D01*
X60660000Y-38831250D01*
X79415595Y-38831250D01*
X79415595Y-43476250D01*
X110584405Y-43476250D01*
X110584405Y-38831250D01*
X109927857Y-38831250D01*
X109927857Y-35850000D01*
X94072143Y-35850000D01*
X94072143Y-38831250D01*
X79415595Y-38831250D01*
X60660000Y-38831250D01*
X60660000Y-34725701D01*
X62215000Y-34725701D01*
X62215000Y-35274299D01*
X62322026Y-35812354D01*
X62531965Y-36319192D01*
X62836750Y-36775334D01*
X63224666Y-37163250D01*
X63680808Y-37468035D01*
X64187646Y-37677974D01*
X64725701Y-37785000D01*
X65274299Y-37785000D01*
X65812354Y-37677974D01*
X66319192Y-37468035D01*
X66775334Y-37163250D01*
X67163250Y-36775334D01*
X67468035Y-36319192D01*
X67677974Y-35812354D01*
X67785000Y-35274299D01*
X67785000Y-34725701D01*
X147215000Y-34725701D01*
X147215000Y-35274299D01*
X147322026Y-35812354D01*
X147531965Y-36319192D01*
X147836750Y-36775334D01*
X148224666Y-37163250D01*
X148680808Y-37468035D01*
X149187646Y-37677974D01*
X149725701Y-37785000D01*
X150274299Y-37785000D01*
X150812354Y-37677974D01*
X151319192Y-37468035D01*
X151775334Y-37163250D01*
X152163250Y-36775334D01*
X152468035Y-36319192D01*
X152677974Y-35812354D01*
X152785000Y-35274299D01*
X152785000Y-34725701D01*
X152677974Y-34187646D01*
X152468035Y-33680808D01*
X152163250Y-33224666D01*
X151775334Y-32836750D01*
X151319192Y-32531965D01*
X150812354Y-32322026D01*
X150274299Y-32215000D01*
X149725701Y-32215000D01*
X149187646Y-32322026D01*
X148680808Y-32531965D01*
X148224666Y-32836750D01*
X147836750Y-33224666D01*
X147531965Y-33680808D01*
X147322026Y-34187646D01*
X147215000Y-34725701D01*
X67785000Y-34725701D01*
X67677974Y-34187646D01*
X67468035Y-33680808D01*
X67163250Y-33224666D01*
X66775334Y-32836750D01*
X66319192Y-32531965D01*
X65812354Y-32322026D01*
X65274299Y-32215000D01*
X64725701Y-32215000D01*
X64187646Y-32322026D01*
X63680808Y-32531965D01*
X63224666Y-32836750D01*
X62836750Y-33224666D01*
X62531965Y-33680808D01*
X62322026Y-34187646D01*
X62215000Y-34725701D01*
X60660000Y-34725701D01*
X60660000Y-30660000D01*
X154340000Y-30660000D01*
X154340001Y-159340000D01*
X154340001Y-159340000D01*
G37*
X154340001Y-159340000D02*
X60660000Y-159340000D01*
X60660000Y-154725701D01*
X62215000Y-154725701D01*
X62215000Y-155274299D01*
X62322026Y-155812354D01*
X62531965Y-156319192D01*
X62836750Y-156775334D01*
X63224666Y-157163250D01*
X63680808Y-157468035D01*
X64187646Y-157677974D01*
X64725701Y-157785000D01*
X65274299Y-157785000D01*
X65812354Y-157677974D01*
X66319192Y-157468035D01*
X66775334Y-157163250D01*
X67163250Y-156775334D01*
X67468035Y-156319192D01*
X67677974Y-155812354D01*
X67785000Y-155274299D01*
X67785000Y-154725701D01*
X147215000Y-154725701D01*
X147215000Y-155274299D01*
X147322026Y-155812354D01*
X147531965Y-156319192D01*
X147836750Y-156775334D01*
X148224666Y-157163250D01*
X148680808Y-157468035D01*
X149187646Y-157677974D01*
X149725701Y-157785000D01*
X150274299Y-157785000D01*
X150812354Y-157677974D01*
X151319192Y-157468035D01*
X151775334Y-157163250D01*
X152163250Y-156775334D01*
X152468035Y-156319192D01*
X152677974Y-155812354D01*
X152785000Y-155274299D01*
X152785000Y-154725701D01*
X152677974Y-154187646D01*
X152468035Y-153680808D01*
X152163250Y-153224666D01*
X151775334Y-152836750D01*
X151319192Y-152531965D01*
X150812354Y-152322026D01*
X150274299Y-152215000D01*
X149725701Y-152215000D01*
X149187646Y-152322026D01*
X148680808Y-152531965D01*
X148224666Y-152836750D01*
X147836750Y-153224666D01*
X147531965Y-153680808D01*
X147322026Y-154187646D01*
X147215000Y-154725701D01*
X67785000Y-154725701D01*
X67677974Y-154187646D01*
X67468035Y-153680808D01*
X67163250Y-153224666D01*
X66775334Y-152836750D01*
X66319192Y-152531965D01*
X65812354Y-152322026D01*
X65274299Y-152215000D01*
X64725701Y-152215000D01*
X64187646Y-152322026D01*
X63680808Y-152531965D01*
X63224666Y-152836750D01*
X62836750Y-153224666D01*
X62531965Y-153680808D01*
X62322026Y-154187646D01*
X62215000Y-154725701D01*
X60660000Y-154725701D01*
X60660000Y-98000000D01*
X69959993Y-98000000D01*
X69965000Y-98050838D01*
X69965001Y-107949153D01*
X69965000Y-107949163D01*
X69965001Y-109949153D01*
X69965000Y-109949163D01*
X69965000Y-109949172D01*
X69959994Y-110000000D01*
X69965000Y-110050828D01*
X69965001Y-112949153D01*
X69965000Y-112949163D01*
X69965001Y-121949153D01*
X69965000Y-121949163D01*
X69965000Y-122329174D01*
X69959994Y-122380002D01*
X69965000Y-122430830D01*
X69965001Y-131949153D01*
X69965000Y-131949163D01*
X69965000Y-132329174D01*
X69959994Y-132380002D01*
X69965000Y-132430830D01*
X69965001Y-143589162D01*
X69959994Y-143640000D01*
X69979977Y-143842895D01*
X70039160Y-144037993D01*
X70135266Y-144217797D01*
X70232197Y-144335907D01*
X70264605Y-144375396D01*
X70304093Y-144407803D01*
X70645001Y-144748711D01*
X70645000Y-146629172D01*
X70639994Y-146680000D01*
X70645000Y-146730828D01*
X70645000Y-146730837D01*
X70659976Y-146882894D01*
X70719159Y-147077992D01*
X70815266Y-147257797D01*
X70944604Y-147415396D01*
X70984097Y-147447807D01*
X72232197Y-148695908D01*
X72264604Y-148735396D01*
X72304092Y-148767803D01*
X72422202Y-148864734D01*
X72518309Y-148916104D01*
X72602007Y-148960841D01*
X72797105Y-149020024D01*
X72949162Y-149035000D01*
X72949164Y-149035000D01*
X73000000Y-149040007D01*
X73050835Y-149035000D01*
X103949172Y-149035000D01*
X104000000Y-149040006D01*
X104050828Y-149035000D01*
X104050838Y-149035000D01*
X104202895Y-149020024D01*
X104397993Y-148960841D01*
X104577797Y-148864734D01*
X104735396Y-148735396D01*
X104767807Y-148695903D01*
X109695908Y-143767803D01*
X109735396Y-143735396D01*
X109804690Y-143650961D01*
X109864734Y-143577798D01*
X109880620Y-143548078D01*
X109887818Y-143571808D01*
X110021068Y-143821101D01*
X110200392Y-144039608D01*
X110418899Y-144218932D01*
X110668192Y-144352182D01*
X110938691Y-144434236D01*
X111149508Y-144455000D01*
X112090492Y-144455000D01*
X112301309Y-144434236D01*
X112571808Y-144352182D01*
X112821101Y-144218932D01*
X113020853Y-144055000D01*
X116025604Y-144055000D01*
X116085241Y-144114637D01*
X116320273Y-144271680D01*
X116581426Y-144379853D01*
X116858665Y-144435000D01*
X117141335Y-144435000D01*
X117418574Y-144379853D01*
X117679727Y-144271680D01*
X117734623Y-144235000D01*
X121439335Y-144235000D01*
X121500000Y-144240975D01*
X121560665Y-144235000D01*
X121742102Y-144217130D01*
X121974901Y-144146511D01*
X122189449Y-144031833D01*
X122377502Y-143877502D01*
X122416179Y-143830374D01*
X127301812Y-138944741D01*
X134508959Y-138944741D01*
X134608766Y-139228620D01*
X134762038Y-139487573D01*
X134962884Y-139711649D01*
X135203586Y-139892236D01*
X135474893Y-140022394D01*
X135635260Y-140071036D01*
X135873000Y-139950378D01*
X135873000Y-138707000D01*
X136127000Y-138707000D01*
X136127000Y-139950378D01*
X136364740Y-140071036D01*
X136525107Y-140022394D01*
X136796414Y-139892236D01*
X137037116Y-139711649D01*
X137237962Y-139487573D01*
X137391234Y-139228620D01*
X137491041Y-138944741D01*
X137370992Y-138707000D01*
X136127000Y-138707000D01*
X135873000Y-138707000D01*
X134629008Y-138707000D01*
X134508959Y-138944741D01*
X127301812Y-138944741D01*
X131511554Y-134735000D01*
X134559043Y-134735000D01*
X134569463Y-134754494D01*
X134648815Y-134851185D01*
X134745506Y-134930537D01*
X134855820Y-134989502D01*
X134872280Y-134994495D01*
X134717519Y-135183073D01*
X134574983Y-135449739D01*
X134487210Y-135739087D01*
X134457573Y-136040000D01*
X134487210Y-136340913D01*
X134574983Y-136630261D01*
X134717519Y-136896927D01*
X134909339Y-137130661D01*
X135137142Y-137317614D01*
X134962884Y-137448351D01*
X134762038Y-137672427D01*
X134608766Y-137931380D01*
X134508959Y-138215259D01*
X134629008Y-138453000D01*
X135873000Y-138453000D01*
X135873000Y-138433000D01*
X136127000Y-138433000D01*
X136127000Y-138453000D01*
X137370992Y-138453000D01*
X137491041Y-138215259D01*
X137391234Y-137931380D01*
X137237962Y-137672427D01*
X137037116Y-137448351D01*
X136862858Y-137317614D01*
X136914783Y-137275000D01*
X140995337Y-137275000D01*
X141056002Y-137280975D01*
X141116667Y-137275000D01*
X141150376Y-137271680D01*
X141298104Y-137257130D01*
X141341081Y-137244093D01*
X141530903Y-137186511D01*
X141745451Y-137071833D01*
X141933504Y-136917502D01*
X141972180Y-136870375D01*
X145830380Y-133012176D01*
X145877502Y-132973504D01*
X146031833Y-132785451D01*
X146146511Y-132570903D01*
X146217130Y-132338104D01*
X146235000Y-132156667D01*
X146235000Y-132156658D01*
X146240974Y-132096003D01*
X146235000Y-132035348D01*
X146235000Y-123138072D01*
X146500000Y-123138072D01*
X146624482Y-123125812D01*
X146744180Y-123089502D01*
X146854494Y-123030537D01*
X146951185Y-122951185D01*
X147030537Y-122854494D01*
X147089502Y-122744180D01*
X147125812Y-122624482D01*
X147138072Y-122500000D01*
X147138072Y-119500000D01*
X147125812Y-119375518D01*
X147089502Y-119255820D01*
X147030537Y-119145506D01*
X146951185Y-119048815D01*
X146854494Y-118969463D01*
X146744180Y-118910498D01*
X146624482Y-118874188D01*
X146500000Y-118861928D01*
X143500000Y-118861928D01*
X143375518Y-118874188D01*
X143255820Y-118910498D01*
X143145506Y-118969463D01*
X143048815Y-119048815D01*
X142969463Y-119145506D01*
X142910498Y-119255820D01*
X142883446Y-119345000D01*
X138360297Y-119345000D01*
X138303819Y-119276181D01*
X138024404Y-119046871D01*
X137705622Y-118876479D01*
X137359723Y-118771552D01*
X137090139Y-118745000D01*
X136909861Y-118745000D01*
X136640277Y-118771552D01*
X136294378Y-118876479D01*
X135975596Y-119046871D01*
X135696181Y-119276181D01*
X135466871Y-119555596D01*
X135296479Y-119874378D01*
X135191552Y-120220277D01*
X135156122Y-120580000D01*
X135191552Y-120939723D01*
X135296479Y-121285622D01*
X135466871Y-121604404D01*
X135696181Y-121883819D01*
X135975596Y-122113129D01*
X136294378Y-122283521D01*
X136640277Y-122388448D01*
X136909861Y-122415000D01*
X137090139Y-122415000D01*
X137359723Y-122388448D01*
X137705622Y-122283521D01*
X138024404Y-122113129D01*
X138303819Y-121883819D01*
X138360297Y-121815000D01*
X142861928Y-121815000D01*
X142861928Y-122500000D01*
X142874188Y-122624482D01*
X142910498Y-122744180D01*
X142969463Y-122854494D01*
X143048815Y-122951185D01*
X143145506Y-123030537D01*
X143255820Y-123089502D01*
X143375518Y-123125812D01*
X143500000Y-123138072D01*
X143765000Y-123138072D01*
X143765001Y-131584447D01*
X140544449Y-134805000D01*
X137389088Y-134805000D01*
X137430537Y-134754494D01*
X137489502Y-134644180D01*
X137525812Y-134524482D01*
X137538072Y-134400000D01*
X137538072Y-132600000D01*
X137525812Y-132475518D01*
X137489502Y-132355820D01*
X137430537Y-132245506D01*
X137351185Y-132148815D01*
X137254494Y-132069463D01*
X137144180Y-132010498D01*
X137024482Y-131974188D01*
X136900000Y-131961928D01*
X135100000Y-131961928D01*
X134975518Y-131974188D01*
X134855820Y-132010498D01*
X134745506Y-132069463D01*
X134648815Y-132148815D01*
X134569463Y-132245506D01*
X134559043Y-132265000D01*
X131060665Y-132265000D01*
X131000000Y-132259025D01*
X130939335Y-132265000D01*
X130757898Y-132282870D01*
X130525099Y-132353489D01*
X130310551Y-132468167D01*
X130122498Y-132622498D01*
X130083826Y-132669620D01*
X120988447Y-141765000D01*
X117734623Y-141765000D01*
X117679727Y-141728320D01*
X117418574Y-141620147D01*
X117141335Y-141565000D01*
X116858665Y-141565000D01*
X116581426Y-141620147D01*
X116320273Y-141728320D01*
X116085241Y-141885363D01*
X115985604Y-141985000D01*
X113020853Y-141985000D01*
X112821101Y-141821068D01*
X112688142Y-141750000D01*
X112821101Y-141678932D01*
X113020853Y-141515000D01*
X117469172Y-141515000D01*
X117520000Y-141520006D01*
X117570828Y-141515000D01*
X117570838Y-141515000D01*
X117722895Y-141500024D01*
X117917993Y-141440841D01*
X118097797Y-141344734D01*
X118255396Y-141215396D01*
X118287807Y-141175903D01*
X122028711Y-137435000D01*
X122141335Y-137435000D01*
X122418574Y-137379853D01*
X122679727Y-137271680D01*
X122914759Y-137114637D01*
X123114637Y-136914759D01*
X123271680Y-136679727D01*
X123379190Y-136420176D01*
X123410103Y-136417131D01*
X123642902Y-136346512D01*
X123857450Y-136231834D01*
X124045503Y-136077503D01*
X124084180Y-136030375D01*
X131830381Y-128284175D01*
X131877502Y-128245504D01*
X132031833Y-128057451D01*
X132146511Y-127842903D01*
X132150310Y-127830381D01*
X132217130Y-127610105D01*
X132240975Y-127368003D01*
X132235000Y-127307338D01*
X132235000Y-103944741D01*
X134508959Y-103944741D01*
X134608766Y-104228620D01*
X134762038Y-104487573D01*
X134962884Y-104711649D01*
X135203586Y-104892236D01*
X135474893Y-105022394D01*
X135635260Y-105071036D01*
X135873000Y-104950378D01*
X135873000Y-103707000D01*
X136127000Y-103707000D01*
X136127000Y-104950378D01*
X136364740Y-105071036D01*
X136525107Y-105022394D01*
X136796414Y-104892236D01*
X137037116Y-104711649D01*
X137237962Y-104487573D01*
X137391234Y-104228620D01*
X137491041Y-103944741D01*
X137370992Y-103707000D01*
X136127000Y-103707000D01*
X135873000Y-103707000D01*
X134629008Y-103707000D01*
X134508959Y-103944741D01*
X132235000Y-103944741D01*
X132235000Y-101911553D01*
X134411554Y-99735000D01*
X134559043Y-99735000D01*
X134569463Y-99754494D01*
X134648815Y-99851185D01*
X134745506Y-99930537D01*
X134855820Y-99989502D01*
X134872280Y-99994495D01*
X134717519Y-100183073D01*
X134574983Y-100449739D01*
X134487210Y-100739087D01*
X134457573Y-101040000D01*
X134487210Y-101340913D01*
X134574983Y-101630261D01*
X134717519Y-101896927D01*
X134909339Y-102130661D01*
X135137142Y-102317614D01*
X134962884Y-102448351D01*
X134762038Y-102672427D01*
X134608766Y-102931380D01*
X134508959Y-103215259D01*
X134629008Y-103453000D01*
X135873000Y-103453000D01*
X135873000Y-103433000D01*
X136127000Y-103433000D01*
X136127000Y-103453000D01*
X137370992Y-103453000D01*
X137491041Y-103215259D01*
X137391234Y-102931380D01*
X137237962Y-102672427D01*
X137037116Y-102448351D01*
X136862858Y-102317614D01*
X136914783Y-102275000D01*
X137212127Y-102275000D01*
X137272792Y-102280975D01*
X137333457Y-102275000D01*
X137514894Y-102257130D01*
X137747693Y-102186511D01*
X137962241Y-102071833D01*
X138150294Y-101917502D01*
X138188971Y-101870374D01*
X145830380Y-94228966D01*
X145877502Y-94190294D01*
X146031833Y-94002241D01*
X146146511Y-93787693D01*
X146217130Y-93554894D01*
X146235000Y-93373457D01*
X146235000Y-93373448D01*
X146240974Y-93312793D01*
X146235000Y-93252138D01*
X146235000Y-88138072D01*
X146500000Y-88138072D01*
X146624482Y-88125812D01*
X146744180Y-88089502D01*
X146854494Y-88030537D01*
X146951185Y-87951185D01*
X147030537Y-87854494D01*
X147089502Y-87744180D01*
X147125812Y-87624482D01*
X147138072Y-87500000D01*
X147138072Y-84500000D01*
X147125812Y-84375518D01*
X147089502Y-84255820D01*
X147030537Y-84145506D01*
X146951185Y-84048815D01*
X146854494Y-83969463D01*
X146744180Y-83910498D01*
X146624482Y-83874188D01*
X146500000Y-83861928D01*
X143500000Y-83861928D01*
X143375518Y-83874188D01*
X143255820Y-83910498D01*
X143145506Y-83969463D01*
X143048815Y-84048815D01*
X142969463Y-84145506D01*
X142910498Y-84255820D01*
X142907713Y-84265000D01*
X138360297Y-84265000D01*
X138303819Y-84196181D01*
X138024404Y-83966871D01*
X137705622Y-83796479D01*
X137359723Y-83691552D01*
X137090139Y-83665000D01*
X136909861Y-83665000D01*
X136640277Y-83691552D01*
X136294378Y-83796479D01*
X135975596Y-83966871D01*
X135696181Y-84196181D01*
X135466871Y-84475596D01*
X135296479Y-84794378D01*
X135191552Y-85140277D01*
X135156122Y-85500000D01*
X135191552Y-85859723D01*
X135296479Y-86205622D01*
X135466871Y-86524404D01*
X135696181Y-86803819D01*
X135975596Y-87033129D01*
X136294378Y-87203521D01*
X136640277Y-87308448D01*
X136909861Y-87335000D01*
X137090139Y-87335000D01*
X137359723Y-87308448D01*
X137705622Y-87203521D01*
X138024404Y-87033129D01*
X138303819Y-86803819D01*
X138360297Y-86735000D01*
X142861928Y-86735000D01*
X142861928Y-87500000D01*
X142874188Y-87624482D01*
X142910498Y-87744180D01*
X142969463Y-87854494D01*
X143048815Y-87951185D01*
X143145506Y-88030537D01*
X143255820Y-88089502D01*
X143375518Y-88125812D01*
X143500000Y-88138072D01*
X143765000Y-88138072D01*
X143765001Y-92801237D01*
X137538072Y-99028167D01*
X137538072Y-97600000D01*
X137525812Y-97475518D01*
X137489502Y-97355820D01*
X137430537Y-97245506D01*
X137351185Y-97148815D01*
X137254494Y-97069463D01*
X137144180Y-97010498D01*
X137024482Y-96974188D01*
X136900000Y-96961928D01*
X135100000Y-96961928D01*
X134975518Y-96974188D01*
X134855820Y-97010498D01*
X134745506Y-97069463D01*
X134648815Y-97148815D01*
X134569463Y-97245506D01*
X134559043Y-97265000D01*
X133960654Y-97265000D01*
X133899999Y-97259026D01*
X133839344Y-97265000D01*
X133839335Y-97265000D01*
X133657898Y-97282870D01*
X133425099Y-97353489D01*
X133210551Y-97468167D01*
X133022498Y-97622498D01*
X132983826Y-97669620D01*
X130235000Y-100418447D01*
X130235000Y-68944741D01*
X133508959Y-68944741D01*
X133608766Y-69228620D01*
X133762038Y-69487573D01*
X133962884Y-69711649D01*
X134203586Y-69892236D01*
X134474893Y-70022394D01*
X134635260Y-70071036D01*
X134873000Y-69950378D01*
X134873000Y-68707000D01*
X135127000Y-68707000D01*
X135127000Y-69950378D01*
X135364740Y-70071036D01*
X135525107Y-70022394D01*
X135796414Y-69892236D01*
X136037116Y-69711649D01*
X136237962Y-69487573D01*
X136391234Y-69228620D01*
X136491041Y-68944741D01*
X136370992Y-68707000D01*
X135127000Y-68707000D01*
X134873000Y-68707000D01*
X133629008Y-68707000D01*
X133508959Y-68944741D01*
X130235000Y-68944741D01*
X130235000Y-67911553D01*
X133411554Y-64735000D01*
X133559043Y-64735000D01*
X133569463Y-64754494D01*
X133648815Y-64851185D01*
X133745506Y-64930537D01*
X133855820Y-64989502D01*
X133872280Y-64994495D01*
X133717519Y-65183073D01*
X133574983Y-65449739D01*
X133487210Y-65739087D01*
X133457573Y-66040000D01*
X133487210Y-66340913D01*
X133574983Y-66630261D01*
X133717519Y-66896927D01*
X133909339Y-67130661D01*
X134137142Y-67317614D01*
X133962884Y-67448351D01*
X133762038Y-67672427D01*
X133608766Y-67931380D01*
X133508959Y-68215259D01*
X133629008Y-68453000D01*
X134873000Y-68453000D01*
X134873000Y-68433000D01*
X135127000Y-68433000D01*
X135127000Y-68453000D01*
X136370992Y-68453000D01*
X136491041Y-68215259D01*
X136391234Y-67931380D01*
X136237962Y-67672427D01*
X136037116Y-67448351D01*
X135862858Y-67317614D01*
X135914783Y-67275000D01*
X136212127Y-67275000D01*
X136272792Y-67280975D01*
X136333457Y-67275000D01*
X136514894Y-67257130D01*
X136747693Y-67186511D01*
X136962241Y-67071833D01*
X137150294Y-66917502D01*
X137188971Y-66870374D01*
X144830380Y-59228966D01*
X144877502Y-59190294D01*
X145031833Y-59002241D01*
X145146511Y-58787693D01*
X145217130Y-58554894D01*
X145235000Y-58373457D01*
X145235000Y-58373448D01*
X145240974Y-58312793D01*
X145235000Y-58252138D01*
X145235000Y-53138072D01*
X145500000Y-53138072D01*
X145624482Y-53125812D01*
X145744180Y-53089502D01*
X145854494Y-53030537D01*
X145951185Y-52951185D01*
X146030537Y-52854494D01*
X146089502Y-52744180D01*
X146125812Y-52624482D01*
X146138072Y-52500000D01*
X146138072Y-49500000D01*
X146125812Y-49375518D01*
X146089502Y-49255820D01*
X146030537Y-49145506D01*
X145951185Y-49048815D01*
X145854494Y-48969463D01*
X145744180Y-48910498D01*
X145624482Y-48874188D01*
X145500000Y-48861928D01*
X143312538Y-48861928D01*
X143140665Y-48845000D01*
X143080000Y-48839025D01*
X143019335Y-48845000D01*
X137360297Y-48845000D01*
X137303819Y-48776181D01*
X137024404Y-48546871D01*
X136705622Y-48376479D01*
X136359723Y-48271552D01*
X136090139Y-48245000D01*
X135909861Y-48245000D01*
X135640277Y-48271552D01*
X135294378Y-48376479D01*
X134975596Y-48546871D01*
X134696181Y-48776181D01*
X134466871Y-49055596D01*
X134296479Y-49374378D01*
X134191552Y-49720277D01*
X134156122Y-50080000D01*
X134191552Y-50439723D01*
X134296479Y-50785622D01*
X134466871Y-51104404D01*
X134696181Y-51383819D01*
X134975596Y-51613129D01*
X135294378Y-51783521D01*
X135640277Y-51888448D01*
X135909861Y-51915000D01*
X136090139Y-51915000D01*
X136359723Y-51888448D01*
X136705622Y-51783521D01*
X137024404Y-51613129D01*
X137303819Y-51383819D01*
X137360297Y-51315000D01*
X141861928Y-51315000D01*
X141861928Y-52500000D01*
X141874188Y-52624482D01*
X141910498Y-52744180D01*
X141969463Y-52854494D01*
X142048815Y-52951185D01*
X142145506Y-53030537D01*
X142255820Y-53089502D01*
X142375518Y-53125812D01*
X142500000Y-53138072D01*
X142765000Y-53138072D01*
X142765001Y-57801237D01*
X136538072Y-64028167D01*
X136538072Y-62600000D01*
X136525812Y-62475518D01*
X136489502Y-62355820D01*
X136430537Y-62245506D01*
X136351185Y-62148815D01*
X136254494Y-62069463D01*
X136144180Y-62010498D01*
X136024482Y-61974188D01*
X135900000Y-61961928D01*
X134100000Y-61961928D01*
X133975518Y-61974188D01*
X133855820Y-62010498D01*
X133745506Y-62069463D01*
X133648815Y-62148815D01*
X133569463Y-62245506D01*
X133559043Y-62265000D01*
X132960665Y-62265000D01*
X132900000Y-62259025D01*
X132839335Y-62265000D01*
X132657898Y-62282870D01*
X132425099Y-62353489D01*
X132210551Y-62468167D01*
X132022498Y-62622498D01*
X131983826Y-62669620D01*
X128169621Y-66483826D01*
X128122499Y-66522498D01*
X127968168Y-66710551D01*
X127958067Y-66729449D01*
X127853489Y-66925101D01*
X127782870Y-67157898D01*
X127759025Y-67400000D01*
X127765001Y-67460675D01*
X127765001Y-77959306D01*
X127718980Y-77794344D01*
X127469952Y-77677244D01*
X127202865Y-77610977D01*
X126927983Y-77598090D01*
X126655867Y-77639078D01*
X126396977Y-77732364D01*
X126281020Y-77794344D01*
X126214040Y-78034435D01*
X127000000Y-78820395D01*
X127014143Y-78806253D01*
X127193748Y-78985858D01*
X127179605Y-79000000D01*
X127193748Y-79014143D01*
X127014143Y-79193748D01*
X127000000Y-79179605D01*
X126214040Y-79965565D01*
X126281020Y-80205656D01*
X126530048Y-80322756D01*
X126797135Y-80389023D01*
X127072017Y-80401910D01*
X127344133Y-80360922D01*
X127603023Y-80267636D01*
X127718980Y-80205656D01*
X127765001Y-80040694D01*
X127765000Y-115089407D01*
X127737420Y-115068963D01*
X127483087Y-114948754D01*
X127349039Y-114908096D01*
X127127000Y-115030085D01*
X127127000Y-116173000D01*
X127147000Y-116173000D01*
X127147000Y-116427000D01*
X127127000Y-116427000D01*
X127127000Y-117569915D01*
X127349039Y-117691904D01*
X127483087Y-117651246D01*
X127737420Y-117531037D01*
X127765000Y-117510593D01*
X127765000Y-126488446D01*
X126646180Y-127607266D01*
X126581426Y-127620147D01*
X126320273Y-127728320D01*
X126085241Y-127885363D01*
X125885363Y-128085241D01*
X125728320Y-128320273D01*
X125620147Y-128581426D01*
X125565000Y-128858665D01*
X125565000Y-128971289D01*
X117631290Y-136905000D01*
X113020853Y-136905000D01*
X112821101Y-136741068D01*
X112688142Y-136670000D01*
X112821101Y-136598932D01*
X113039608Y-136419608D01*
X113218932Y-136201101D01*
X113352182Y-135951808D01*
X113434236Y-135681309D01*
X113461943Y-135400000D01*
X113434236Y-135118691D01*
X113352182Y-134848192D01*
X113218932Y-134598899D01*
X113039608Y-134380392D01*
X112821101Y-134201068D01*
X112688142Y-134130000D01*
X112821101Y-134058932D01*
X113039608Y-133879608D01*
X113218932Y-133661101D01*
X113352182Y-133411808D01*
X113434236Y-133141309D01*
X113461943Y-132860000D01*
X113434236Y-132578691D01*
X113352182Y-132308192D01*
X113218932Y-132058899D01*
X113039608Y-131840392D01*
X112821101Y-131661068D01*
X112688142Y-131590000D01*
X112821101Y-131518932D01*
X113039608Y-131339608D01*
X113218932Y-131121101D01*
X113352182Y-130871808D01*
X113419757Y-130649040D01*
X115608091Y-130649040D01*
X115702930Y-130913881D01*
X115847615Y-131155131D01*
X116036586Y-131363519D01*
X116262580Y-131531037D01*
X116516913Y-131651246D01*
X116650961Y-131691904D01*
X116873000Y-131569915D01*
X116873000Y-130427000D01*
X117127000Y-130427000D01*
X117127000Y-131569915D01*
X117349039Y-131691904D01*
X117483087Y-131651246D01*
X117737420Y-131531037D01*
X117963414Y-131363519D01*
X118152385Y-131155131D01*
X118297070Y-130913881D01*
X118391909Y-130649040D01*
X118270624Y-130427000D01*
X117127000Y-130427000D01*
X116873000Y-130427000D01*
X115729376Y-130427000D01*
X115608091Y-130649040D01*
X113419757Y-130649040D01*
X113434236Y-130601309D01*
X113461943Y-130320000D01*
X113434236Y-130038691D01*
X113407624Y-129950960D01*
X115608091Y-129950960D01*
X115729376Y-130173000D01*
X116873000Y-130173000D01*
X116873000Y-129030085D01*
X117127000Y-129030085D01*
X117127000Y-130173000D01*
X118270624Y-130173000D01*
X118391909Y-129950960D01*
X118297070Y-129686119D01*
X118152385Y-129444869D01*
X117963414Y-129236481D01*
X117737420Y-129068963D01*
X117483087Y-128948754D01*
X117349039Y-128908096D01*
X117127000Y-129030085D01*
X116873000Y-129030085D01*
X116650961Y-128908096D01*
X116516913Y-128948754D01*
X116262580Y-129068963D01*
X116036586Y-129236481D01*
X115847615Y-129444869D01*
X115702930Y-129686119D01*
X115608091Y-129950960D01*
X113407624Y-129950960D01*
X113352182Y-129768192D01*
X113218932Y-129518899D01*
X113039608Y-129300392D01*
X112821101Y-129121068D01*
X112688142Y-129050000D01*
X112821101Y-128978932D01*
X113039608Y-128799608D01*
X113218932Y-128581101D01*
X113352182Y-128331808D01*
X113434236Y-128061309D01*
X113461943Y-127780000D01*
X113434236Y-127498691D01*
X113352182Y-127228192D01*
X113218932Y-126978899D01*
X113039608Y-126760392D01*
X112821101Y-126581068D01*
X112693259Y-126512735D01*
X112922839Y-126362601D01*
X113124500Y-126164895D01*
X113283715Y-125931646D01*
X113394367Y-125671818D01*
X113411904Y-125589039D01*
X113289915Y-125367000D01*
X111747000Y-125367000D01*
X111747000Y-125387000D01*
X111493000Y-125387000D01*
X111493000Y-125367000D01*
X109950085Y-125367000D01*
X109828096Y-125589039D01*
X109845633Y-125671818D01*
X109956285Y-125931646D01*
X110115500Y-126164895D01*
X110317161Y-126362601D01*
X110546741Y-126512735D01*
X110418899Y-126581068D01*
X110200392Y-126760392D01*
X110021068Y-126978899D01*
X109887818Y-127228192D01*
X109805764Y-127498691D01*
X109778057Y-127780000D01*
X109805764Y-128061309D01*
X109887818Y-128331808D01*
X110021068Y-128581101D01*
X110200392Y-128799608D01*
X110418899Y-128978932D01*
X110551858Y-129050000D01*
X110418899Y-129121068D01*
X110200392Y-129300392D01*
X110021068Y-129518899D01*
X109887818Y-129768192D01*
X109805764Y-130038691D01*
X109780435Y-130295854D01*
X108304097Y-131772193D01*
X108264604Y-131804604D01*
X108135266Y-131962203D01*
X108039159Y-132142008D01*
X107979976Y-132337106D01*
X107965000Y-132489163D01*
X107965000Y-132489172D01*
X107959994Y-132540000D01*
X107965000Y-132590828D01*
X107965001Y-142571288D01*
X103571290Y-146965000D01*
X95384283Y-146965000D01*
X95397993Y-146960841D01*
X95577797Y-146864734D01*
X95735396Y-146735396D01*
X95767807Y-146695903D01*
X97028711Y-145435000D01*
X97141335Y-145435000D01*
X97418574Y-145379853D01*
X97679727Y-145271680D01*
X97914759Y-145114637D01*
X98114637Y-144914759D01*
X98271680Y-144679727D01*
X98379853Y-144418574D01*
X98435000Y-144141335D01*
X98435000Y-144028710D01*
X100948711Y-141515000D01*
X102599147Y-141515000D01*
X102798899Y-141678932D01*
X102931858Y-141750000D01*
X102798899Y-141821068D01*
X102580392Y-142000392D01*
X102401068Y-142218899D01*
X102267818Y-142468192D01*
X102185764Y-142738691D01*
X102158057Y-143020000D01*
X102185764Y-143301309D01*
X102267818Y-143571808D01*
X102401068Y-143821101D01*
X102580392Y-144039608D01*
X102798899Y-144218932D01*
X103048192Y-144352182D01*
X103318691Y-144434236D01*
X103529508Y-144455000D01*
X104470492Y-144455000D01*
X104681309Y-144434236D01*
X104951808Y-144352182D01*
X105201101Y-144218932D01*
X105419608Y-144039608D01*
X105598932Y-143821101D01*
X105732182Y-143571808D01*
X105814236Y-143301309D01*
X105841943Y-143020000D01*
X105814236Y-142738691D01*
X105732182Y-142468192D01*
X105598932Y-142218899D01*
X105419608Y-142000392D01*
X105201101Y-141821068D01*
X105068142Y-141750000D01*
X105201101Y-141678932D01*
X105419608Y-141499608D01*
X105598932Y-141281101D01*
X105732182Y-141031808D01*
X105814236Y-140761309D01*
X105841943Y-140480000D01*
X105814236Y-140198691D01*
X105732182Y-139928192D01*
X105598932Y-139678899D01*
X105419608Y-139460392D01*
X105201101Y-139281068D01*
X105068142Y-139210000D01*
X105201101Y-139138932D01*
X105419608Y-138959608D01*
X105598932Y-138741101D01*
X105732182Y-138491808D01*
X105814236Y-138221309D01*
X105841943Y-137940000D01*
X105814236Y-137658691D01*
X105732182Y-137388192D01*
X105598932Y-137138899D01*
X105419608Y-136920392D01*
X105201101Y-136741068D01*
X105068142Y-136670000D01*
X105201101Y-136598932D01*
X105419608Y-136419608D01*
X105598932Y-136201101D01*
X105732182Y-135951808D01*
X105814236Y-135681309D01*
X105841943Y-135400000D01*
X105814236Y-135118691D01*
X105732182Y-134848192D01*
X105598932Y-134598899D01*
X105419608Y-134380392D01*
X105201101Y-134201068D01*
X105068142Y-134130000D01*
X105201101Y-134058932D01*
X105419608Y-133879608D01*
X105598932Y-133661101D01*
X105732182Y-133411808D01*
X105814236Y-133141309D01*
X105841943Y-132860000D01*
X105814236Y-132578691D01*
X105732182Y-132308192D01*
X105598932Y-132058899D01*
X105419608Y-131840392D01*
X105201101Y-131661068D01*
X105068142Y-131590000D01*
X105201101Y-131518932D01*
X105419608Y-131339608D01*
X105598932Y-131121101D01*
X105732182Y-130871808D01*
X105814236Y-130601309D01*
X105841943Y-130320000D01*
X105814236Y-130038691D01*
X105732182Y-129768192D01*
X105598932Y-129518899D01*
X105419608Y-129300392D01*
X105201101Y-129121068D01*
X105073259Y-129052735D01*
X105302839Y-128902601D01*
X105504500Y-128704895D01*
X105663715Y-128471646D01*
X105774367Y-128211818D01*
X105791904Y-128129039D01*
X105669915Y-127907000D01*
X104127000Y-127907000D01*
X104127000Y-127927000D01*
X103873000Y-127927000D01*
X103873000Y-127907000D01*
X102330085Y-127907000D01*
X102208096Y-128129039D01*
X102225633Y-128211818D01*
X102336285Y-128471646D01*
X102495500Y-128704895D01*
X102697161Y-128902601D01*
X102926741Y-129052735D01*
X102798899Y-129121068D01*
X102599147Y-129285000D01*
X100998711Y-129285000D01*
X92760863Y-121047153D01*
X92785000Y-120925807D01*
X92785000Y-120574193D01*
X92716404Y-120229335D01*
X92581847Y-119904485D01*
X92386500Y-119612129D01*
X92137871Y-119363500D01*
X91845515Y-119168153D01*
X91520665Y-119033596D01*
X91175807Y-118965000D01*
X90824193Y-118965000D01*
X90479335Y-119033596D01*
X90154485Y-119168153D01*
X89862129Y-119363500D01*
X89613500Y-119612129D01*
X89544763Y-119715000D01*
X86994396Y-119715000D01*
X86914759Y-119635363D01*
X86679727Y-119478320D01*
X86418574Y-119370147D01*
X86141335Y-119315000D01*
X85858665Y-119315000D01*
X85581426Y-119370147D01*
X85320273Y-119478320D01*
X85085241Y-119635363D01*
X84885363Y-119835241D01*
X84751308Y-120035869D01*
X84736671Y-120008486D01*
X84492702Y-119936903D01*
X83679605Y-120750000D01*
X84492702Y-121563097D01*
X84736671Y-121491514D01*
X84750324Y-121462659D01*
X84885363Y-121664759D01*
X85085241Y-121864637D01*
X85320273Y-122021680D01*
X85581426Y-122129853D01*
X85858665Y-122185000D01*
X86141335Y-122185000D01*
X86418574Y-122129853D01*
X86679727Y-122021680D01*
X86914759Y-121864637D01*
X86994396Y-121785000D01*
X89544763Y-121785000D01*
X89613500Y-121887871D01*
X89862129Y-122136500D01*
X90154485Y-122331847D01*
X90479335Y-122466404D01*
X90824193Y-122535000D01*
X91175807Y-122535000D01*
X91297153Y-122510863D01*
X93401290Y-124615000D01*
X92455237Y-124615000D01*
X92386500Y-124512129D01*
X92137871Y-124263500D01*
X91845515Y-124068153D01*
X91520665Y-123933596D01*
X91175807Y-123865000D01*
X90824193Y-123865000D01*
X90479335Y-123933596D01*
X90154485Y-124068153D01*
X89862129Y-124263500D01*
X89613500Y-124512129D01*
X89544763Y-124615000D01*
X86884284Y-124615000D01*
X86679727Y-124478320D01*
X86418574Y-124370147D01*
X86141335Y-124315000D01*
X85858665Y-124315000D01*
X85581426Y-124370147D01*
X85320273Y-124478320D01*
X85085241Y-124635363D01*
X84885363Y-124835241D01*
X84751308Y-125035869D01*
X84736671Y-125008486D01*
X84492702Y-124936903D01*
X83679605Y-125750000D01*
X84492702Y-126563097D01*
X84736671Y-126491514D01*
X84750324Y-126462659D01*
X84885363Y-126664759D01*
X85085241Y-126864637D01*
X85320273Y-127021680D01*
X85581426Y-127129853D01*
X85858665Y-127185000D01*
X86141335Y-127185000D01*
X86418574Y-127129853D01*
X86679727Y-127021680D01*
X86914759Y-126864637D01*
X87094396Y-126685000D01*
X89544763Y-126685000D01*
X89613500Y-126787871D01*
X89862129Y-127036500D01*
X90154485Y-127231847D01*
X90479335Y-127366404D01*
X90824193Y-127435000D01*
X91175807Y-127435000D01*
X91520665Y-127366404D01*
X91845515Y-127231847D01*
X92137871Y-127036500D01*
X92386500Y-126787871D01*
X92455237Y-126685000D01*
X94057064Y-126685000D01*
X100337063Y-132965000D01*
X97994396Y-132965000D01*
X97914759Y-132885363D01*
X97679727Y-132728320D01*
X97418574Y-132620147D01*
X97141335Y-132565000D01*
X96858665Y-132565000D01*
X96581426Y-132620147D01*
X96320273Y-132728320D01*
X96085241Y-132885363D01*
X96005604Y-132965000D01*
X95428711Y-132965000D01*
X92767797Y-130304087D01*
X92735386Y-130264594D01*
X92577787Y-130135256D01*
X92397983Y-130039149D01*
X92202885Y-129979966D01*
X92050828Y-129964990D01*
X92050818Y-129964990D01*
X91999990Y-129959984D01*
X91949162Y-129964990D01*
X79428701Y-129964990D01*
X79035000Y-129571290D01*
X79035000Y-126742702D01*
X82686903Y-126742702D01*
X82758486Y-126986671D01*
X83013996Y-127107571D01*
X83288184Y-127176300D01*
X83570512Y-127190217D01*
X83850130Y-127148787D01*
X84116292Y-127053603D01*
X84241514Y-126986671D01*
X84313097Y-126742702D01*
X83500000Y-125929605D01*
X82686903Y-126742702D01*
X79035000Y-126742702D01*
X79035000Y-126028072D01*
X79040006Y-125977244D01*
X79035000Y-125926416D01*
X79035000Y-125926407D01*
X79024571Y-125820512D01*
X82059783Y-125820512D01*
X82101213Y-126100130D01*
X82196397Y-126366292D01*
X82263329Y-126491514D01*
X82507298Y-126563097D01*
X83320395Y-125750000D01*
X82507298Y-124936903D01*
X82263329Y-125008486D01*
X82142429Y-125263996D01*
X82073700Y-125538184D01*
X82059783Y-125820512D01*
X79024571Y-125820512D01*
X79020024Y-125774350D01*
X78960841Y-125579252D01*
X78864960Y-125399870D01*
X78864734Y-125399447D01*
X78767803Y-125281337D01*
X78735396Y-125241849D01*
X78695908Y-125209442D01*
X78243764Y-124757298D01*
X82686903Y-124757298D01*
X83500000Y-125570395D01*
X84313097Y-124757298D01*
X84241514Y-124513329D01*
X83986004Y-124392429D01*
X83711816Y-124323700D01*
X83429488Y-124309783D01*
X83149870Y-124351213D01*
X82883708Y-124446397D01*
X82758486Y-124513329D01*
X82686903Y-124757298D01*
X78243764Y-124757298D01*
X76938072Y-123451607D01*
X76938072Y-122000000D01*
X76925812Y-121875518D01*
X76889502Y-121755820D01*
X76882491Y-121742702D01*
X82686903Y-121742702D01*
X82758486Y-121986671D01*
X83013996Y-122107571D01*
X83288184Y-122176300D01*
X83570512Y-122190217D01*
X83850130Y-122148787D01*
X84116292Y-122053603D01*
X84241514Y-121986671D01*
X84313097Y-121742702D01*
X83500000Y-120929605D01*
X82686903Y-121742702D01*
X76882491Y-121742702D01*
X76830537Y-121645506D01*
X76751185Y-121548815D01*
X76654494Y-121469463D01*
X76544180Y-121410498D01*
X76424482Y-121374188D01*
X76300000Y-121361928D01*
X73700000Y-121361928D01*
X73575518Y-121374188D01*
X73455820Y-121410498D01*
X73345506Y-121469463D01*
X73248815Y-121548815D01*
X73169463Y-121645506D01*
X73110498Y-121755820D01*
X73074188Y-121875518D01*
X73061928Y-122000000D01*
X73061928Y-122978220D01*
X72035000Y-121951292D01*
X72035000Y-120820512D01*
X82059783Y-120820512D01*
X82101213Y-121100130D01*
X82196397Y-121366292D01*
X82263329Y-121491514D01*
X82507298Y-121563097D01*
X83320395Y-120750000D01*
X82507298Y-119936903D01*
X82263329Y-120008486D01*
X82142429Y-120263996D01*
X82073700Y-120538184D01*
X82059783Y-120820512D01*
X72035000Y-120820512D01*
X72035000Y-119757298D01*
X82686903Y-119757298D01*
X83500000Y-120570395D01*
X84313097Y-119757298D01*
X84241514Y-119513329D01*
X83986004Y-119392429D01*
X83711816Y-119323700D01*
X83429488Y-119309783D01*
X83149870Y-119351213D01*
X82883708Y-119446397D01*
X82758486Y-119513329D01*
X82686903Y-119757298D01*
X72035000Y-119757298D01*
X72035000Y-112498711D01*
X72232196Y-112695907D01*
X72264604Y-112735396D01*
X72304092Y-112767803D01*
X76932207Y-117395918D01*
X76964614Y-117435406D01*
X77004102Y-117467813D01*
X77122212Y-117564744D01*
X77218319Y-117616114D01*
X77302017Y-117660851D01*
X77497115Y-117720034D01*
X77649172Y-117735010D01*
X77649174Y-117735010D01*
X77700010Y-117740017D01*
X77750845Y-117735010D01*
X92663389Y-117735010D01*
X92714217Y-117740016D01*
X92765045Y-117735010D01*
X92765055Y-117735010D01*
X92917112Y-117720034D01*
X93112210Y-117660851D01*
X93292014Y-117564744D01*
X93310923Y-117549226D01*
X95571290Y-117549226D01*
X98965001Y-120942938D01*
X98965000Y-121589171D01*
X98959994Y-121640000D01*
X98965000Y-121690828D01*
X98965000Y-121690837D01*
X98979976Y-121842894D01*
X99039159Y-122037992D01*
X99135266Y-122217797D01*
X99264604Y-122375396D01*
X99304097Y-122407807D01*
X102160435Y-125264146D01*
X102185764Y-125521309D01*
X102267818Y-125791808D01*
X102401068Y-126041101D01*
X102580392Y-126259608D01*
X102798899Y-126438932D01*
X102926741Y-126507265D01*
X102697161Y-126657399D01*
X102495500Y-126855105D01*
X102336285Y-127088354D01*
X102225633Y-127348182D01*
X102208096Y-127430961D01*
X102330085Y-127653000D01*
X103873000Y-127653000D01*
X103873000Y-127633000D01*
X104127000Y-127633000D01*
X104127000Y-127653000D01*
X105669915Y-127653000D01*
X105791904Y-127430961D01*
X105774367Y-127348182D01*
X105663715Y-127088354D01*
X105504500Y-126855105D01*
X105302839Y-126657399D01*
X105073259Y-126507265D01*
X105201101Y-126438932D01*
X105419608Y-126259608D01*
X105598932Y-126041101D01*
X105732182Y-125791808D01*
X105814236Y-125521309D01*
X105841943Y-125240000D01*
X105814236Y-124958691D01*
X105732182Y-124688192D01*
X105598932Y-124438899D01*
X105419608Y-124220392D01*
X105201101Y-124041068D01*
X105068142Y-123970000D01*
X105201101Y-123898932D01*
X105419608Y-123719608D01*
X105598932Y-123501101D01*
X105732182Y-123251808D01*
X105814236Y-122981309D01*
X105841943Y-122700000D01*
X105814236Y-122418691D01*
X105732182Y-122148192D01*
X105598932Y-121898899D01*
X105419608Y-121680392D01*
X105201101Y-121501068D01*
X105068142Y-121430000D01*
X105201101Y-121358932D01*
X105419608Y-121179608D01*
X105598932Y-120961101D01*
X105732182Y-120711808D01*
X105814236Y-120441309D01*
X105841943Y-120160000D01*
X105814236Y-119878691D01*
X105732182Y-119608192D01*
X105598932Y-119358899D01*
X105419608Y-119140392D01*
X105201101Y-118961068D01*
X105068142Y-118890000D01*
X105201101Y-118818932D01*
X105419608Y-118639608D01*
X105598932Y-118421101D01*
X105732182Y-118171808D01*
X105814236Y-117901309D01*
X105841943Y-117620000D01*
X105814236Y-117338691D01*
X105732182Y-117068192D01*
X105598932Y-116818899D01*
X105419608Y-116600392D01*
X105201101Y-116421068D01*
X105068142Y-116350000D01*
X105201101Y-116278932D01*
X105419608Y-116099608D01*
X105598932Y-115881101D01*
X105732182Y-115631808D01*
X105814236Y-115361309D01*
X105841943Y-115080000D01*
X105814236Y-114798691D01*
X105732182Y-114528192D01*
X105598932Y-114278899D01*
X105419608Y-114060392D01*
X105201101Y-113881068D01*
X105068142Y-113810000D01*
X105201101Y-113738932D01*
X105419608Y-113559608D01*
X105598932Y-113341101D01*
X105732182Y-113091808D01*
X105814236Y-112821309D01*
X105841943Y-112540000D01*
X105814236Y-112258691D01*
X105732182Y-111988192D01*
X105598932Y-111738899D01*
X105419608Y-111520392D01*
X105306518Y-111427581D01*
X105324482Y-111425812D01*
X105444180Y-111389502D01*
X105554494Y-111330537D01*
X105651185Y-111251185D01*
X105730537Y-111154494D01*
X105789502Y-111044180D01*
X105825812Y-110924482D01*
X105838072Y-110800000D01*
X105838072Y-109200000D01*
X105825812Y-109075518D01*
X105789502Y-108955820D01*
X105730537Y-108845506D01*
X105651185Y-108748815D01*
X105554494Y-108669463D01*
X105444180Y-108610498D01*
X105324482Y-108574188D01*
X105200000Y-108561928D01*
X105035000Y-108561928D01*
X105035000Y-107441877D01*
X105292252Y-107269987D01*
X105519987Y-107042252D01*
X105524833Y-107035000D01*
X109475167Y-107035000D01*
X109480013Y-107042252D01*
X109707748Y-107269987D01*
X109975537Y-107448918D01*
X110273088Y-107572168D01*
X110588967Y-107635000D01*
X110911033Y-107635000D01*
X111226912Y-107572168D01*
X111524463Y-107448918D01*
X111792252Y-107269987D01*
X112019987Y-107042252D01*
X112198918Y-106774463D01*
X112322168Y-106476912D01*
X112385000Y-106161033D01*
X112385000Y-105838967D01*
X112383298Y-105830412D01*
X112517802Y-105695909D01*
X112517806Y-105695904D01*
X113345909Y-104867802D01*
X113385397Y-104835395D01*
X113417804Y-104795907D01*
X113514735Y-104677797D01*
X113610841Y-104497993D01*
X113610842Y-104497992D01*
X113670025Y-104302894D01*
X113685001Y-104150837D01*
X113685001Y-104150828D01*
X113690007Y-104100000D01*
X113685001Y-104049172D01*
X113685001Y-98168797D01*
X113731309Y-98164236D01*
X114001808Y-98082182D01*
X114251101Y-97948932D01*
X114469608Y-97769608D01*
X114648932Y-97551101D01*
X114782182Y-97301808D01*
X114864236Y-97031309D01*
X114891943Y-96750000D01*
X114864236Y-96468691D01*
X114782182Y-96198192D01*
X114648932Y-95948899D01*
X114469608Y-95730392D01*
X114251101Y-95551068D01*
X114001808Y-95417818D01*
X113731309Y-95335764D01*
X113520492Y-95315000D01*
X113379508Y-95315000D01*
X113168691Y-95335764D01*
X112898192Y-95417818D01*
X112648899Y-95551068D01*
X112430392Y-95730392D01*
X112251068Y-95948899D01*
X112117818Y-96198192D01*
X112035764Y-96468691D01*
X112010435Y-96725855D01*
X111954098Y-96782192D01*
X111914605Y-96814603D01*
X111785267Y-96972202D01*
X111689160Y-97152007D01*
X111629977Y-97347105D01*
X111615001Y-97499162D01*
X111615001Y-97499171D01*
X111609995Y-97549999D01*
X111615001Y-97600827D01*
X111615001Y-100113873D01*
X111610044Y-100100186D01*
X111320429Y-99959296D01*
X111008892Y-99877616D01*
X110687405Y-99858282D01*
X110368325Y-99902039D01*
X110063912Y-100007205D01*
X109889956Y-100100186D01*
X109794192Y-100364587D01*
X110750000Y-101320395D01*
X110764143Y-101306253D01*
X110943748Y-101485858D01*
X110929605Y-101500000D01*
X110943748Y-101514143D01*
X110764143Y-101693748D01*
X110750000Y-101679605D01*
X109794192Y-102635413D01*
X109889956Y-102899814D01*
X110179571Y-103040704D01*
X110491108Y-103122384D01*
X110812595Y-103141718D01*
X111131675Y-103097961D01*
X111436088Y-102992795D01*
X111610044Y-102899814D01*
X111615002Y-102886126D01*
X111615002Y-103671287D01*
X111054096Y-104232194D01*
X111054091Y-104232198D01*
X110919588Y-104366702D01*
X110911033Y-104365000D01*
X110588967Y-104365000D01*
X110273088Y-104427832D01*
X109975537Y-104551082D01*
X109707748Y-104730013D01*
X109480013Y-104957748D01*
X109475167Y-104965000D01*
X105524833Y-104965000D01*
X105519987Y-104957748D01*
X105292252Y-104730013D01*
X105024463Y-104551082D01*
X104726912Y-104427832D01*
X104411033Y-104365000D01*
X104088967Y-104365000D01*
X103773088Y-104427832D01*
X103475537Y-104551082D01*
X103207748Y-104730013D01*
X102980013Y-104957748D01*
X102801082Y-105225537D01*
X102677832Y-105523088D01*
X102615000Y-105838967D01*
X102615000Y-106161033D01*
X102677832Y-106476912D01*
X102801082Y-106774463D01*
X102965001Y-107019785D01*
X102965000Y-108561928D01*
X102800000Y-108561928D01*
X102675518Y-108574188D01*
X102555820Y-108610498D01*
X102445506Y-108669463D01*
X102348815Y-108748815D01*
X102269463Y-108845506D01*
X102210498Y-108955820D01*
X102174188Y-109075518D01*
X102161928Y-109200000D01*
X102161928Y-110800000D01*
X102174188Y-110924482D01*
X102210498Y-111044180D01*
X102269463Y-111154494D01*
X102348815Y-111251185D01*
X102445506Y-111330537D01*
X102555820Y-111389502D01*
X102675518Y-111425812D01*
X102693482Y-111427581D01*
X102580392Y-111520392D01*
X102401068Y-111738899D01*
X102267818Y-111988192D01*
X102185764Y-112258691D01*
X102158057Y-112540000D01*
X102185764Y-112821309D01*
X102267818Y-113091808D01*
X102401068Y-113341101D01*
X102580392Y-113559608D01*
X102798899Y-113738932D01*
X102931858Y-113810000D01*
X102798899Y-113881068D01*
X102580392Y-114060392D01*
X102401068Y-114278899D01*
X102267818Y-114528192D01*
X102198946Y-114755236D01*
X102035000Y-114591290D01*
X102035000Y-107050827D01*
X102040006Y-106999999D01*
X102035000Y-106949171D01*
X102035000Y-106949162D01*
X102020024Y-106797105D01*
X101960841Y-106602007D01*
X101904124Y-106495897D01*
X101864734Y-106422202D01*
X101767803Y-106304092D01*
X101735396Y-106264604D01*
X101695908Y-106232197D01*
X98435000Y-102971290D01*
X98435000Y-102858665D01*
X98390592Y-102635413D01*
X103294192Y-102635413D01*
X103389956Y-102899814D01*
X103679571Y-103040704D01*
X103991108Y-103122384D01*
X104312595Y-103141718D01*
X104631675Y-103097961D01*
X104936088Y-102992795D01*
X105110044Y-102899814D01*
X105205808Y-102635413D01*
X104250000Y-101679605D01*
X103294192Y-102635413D01*
X98390592Y-102635413D01*
X98379853Y-102581426D01*
X98271680Y-102320273D01*
X98114637Y-102085241D01*
X97914759Y-101885363D01*
X97679727Y-101728320D01*
X97418574Y-101620147D01*
X97141335Y-101565000D01*
X97028711Y-101565000D01*
X97026306Y-101562595D01*
X102608282Y-101562595D01*
X102652039Y-101881675D01*
X102757205Y-102186088D01*
X102850186Y-102360044D01*
X103114587Y-102455808D01*
X104070395Y-101500000D01*
X104429605Y-101500000D01*
X105385413Y-102455808D01*
X105649814Y-102360044D01*
X105790704Y-102070429D01*
X105872384Y-101758892D01*
X105884189Y-101562595D01*
X109108282Y-101562595D01*
X109152039Y-101881675D01*
X109257205Y-102186088D01*
X109350186Y-102360044D01*
X109614587Y-102455808D01*
X110570395Y-101500000D01*
X109614587Y-100544192D01*
X109350186Y-100639956D01*
X109209296Y-100929571D01*
X109127616Y-101241108D01*
X109108282Y-101562595D01*
X105884189Y-101562595D01*
X105891718Y-101437405D01*
X105847961Y-101118325D01*
X105742795Y-100813912D01*
X105649814Y-100639956D01*
X105385413Y-100544192D01*
X104429605Y-101500000D01*
X104070395Y-101500000D01*
X103114587Y-100544192D01*
X102850186Y-100639956D01*
X102709296Y-100929571D01*
X102627616Y-101241108D01*
X102608282Y-101562595D01*
X97026306Y-101562595D01*
X95828298Y-100364587D01*
X103294192Y-100364587D01*
X104250000Y-101320395D01*
X105205808Y-100364587D01*
X105110044Y-100100186D01*
X104820429Y-99959296D01*
X104508892Y-99877616D01*
X104187405Y-99858282D01*
X103868325Y-99902039D01*
X103563912Y-100007205D01*
X103389956Y-100100186D01*
X103294192Y-100364587D01*
X95828298Y-100364587D01*
X88312750Y-92849039D01*
X99408096Y-92849039D01*
X99448754Y-92983087D01*
X99568963Y-93237420D01*
X99736481Y-93463414D01*
X99944869Y-93652385D01*
X100186119Y-93797070D01*
X100450960Y-93891909D01*
X100673000Y-93770624D01*
X100673000Y-92627000D01*
X100927000Y-92627000D01*
X100927000Y-93770624D01*
X101149040Y-93891909D01*
X101413881Y-93797070D01*
X101655131Y-93652385D01*
X101863519Y-93463414D01*
X102031037Y-93237420D01*
X102151246Y-92983087D01*
X102191904Y-92849039D01*
X102069915Y-92627000D01*
X100927000Y-92627000D01*
X100673000Y-92627000D01*
X99530085Y-92627000D01*
X99408096Y-92849039D01*
X88312750Y-92849039D01*
X87614672Y-92150961D01*
X99408096Y-92150961D01*
X99530085Y-92373000D01*
X100673000Y-92373000D01*
X100673000Y-91229376D01*
X100927000Y-91229376D01*
X100927000Y-92373000D01*
X102069915Y-92373000D01*
X102191904Y-92150961D01*
X102151246Y-92016913D01*
X102031037Y-91762580D01*
X101863519Y-91536586D01*
X101655131Y-91347615D01*
X101413881Y-91202930D01*
X101149040Y-91108091D01*
X100927000Y-91229376D01*
X100673000Y-91229376D01*
X100450960Y-91108091D01*
X100186119Y-91202930D01*
X99944869Y-91347615D01*
X99736481Y-91536586D01*
X99568963Y-91762580D01*
X99448754Y-92016913D01*
X99408096Y-92150961D01*
X87614672Y-92150961D01*
X84062750Y-88599039D01*
X99408096Y-88599039D01*
X99448754Y-88733087D01*
X99568963Y-88987420D01*
X99736481Y-89213414D01*
X99944869Y-89402385D01*
X100186119Y-89547070D01*
X100450960Y-89641909D01*
X100673000Y-89520624D01*
X100673000Y-88377000D01*
X100927000Y-88377000D01*
X100927000Y-89520624D01*
X101149040Y-89641909D01*
X101413881Y-89547070D01*
X101655131Y-89402385D01*
X101863519Y-89213414D01*
X102031037Y-88987420D01*
X102151246Y-88733087D01*
X102191904Y-88599039D01*
X102069915Y-88377000D01*
X100927000Y-88377000D01*
X100673000Y-88377000D01*
X99530085Y-88377000D01*
X99408096Y-88599039D01*
X84062750Y-88599039D01*
X83364672Y-87900961D01*
X99408096Y-87900961D01*
X99530085Y-88123000D01*
X100673000Y-88123000D01*
X100673000Y-86979376D01*
X100927000Y-86979376D01*
X100927000Y-88123000D01*
X102069915Y-88123000D01*
X102191904Y-87900961D01*
X102151246Y-87766913D01*
X102031037Y-87512580D01*
X101863519Y-87286586D01*
X101655131Y-87097615D01*
X101413881Y-86952930D01*
X101149040Y-86858091D01*
X100927000Y-86979376D01*
X100673000Y-86979376D01*
X100450960Y-86858091D01*
X100186119Y-86952930D01*
X99944869Y-87097615D01*
X99736481Y-87286586D01*
X99568963Y-87512580D01*
X99448754Y-87766913D01*
X99408096Y-87900961D01*
X83364672Y-87900961D01*
X82767807Y-87304097D01*
X82735396Y-87264604D01*
X82577797Y-87135266D01*
X82397993Y-87039159D01*
X82202895Y-86979976D01*
X82050838Y-86965000D01*
X82050828Y-86965000D01*
X82000000Y-86959994D01*
X81949172Y-86965000D01*
X76934625Y-86965000D01*
X76925812Y-86875518D01*
X76889502Y-86755820D01*
X76830537Y-86645506D01*
X76751185Y-86548815D01*
X76654494Y-86469463D01*
X76544180Y-86410498D01*
X76424482Y-86374188D01*
X76300000Y-86361928D01*
X73700000Y-86361928D01*
X73575518Y-86374188D01*
X73455820Y-86410498D01*
X73345506Y-86469463D01*
X73248815Y-86548815D01*
X73169463Y-86645506D01*
X73110498Y-86755820D01*
X73074188Y-86875518D01*
X73061928Y-87000000D01*
X73061928Y-87978220D01*
X72035000Y-86951292D01*
X72035000Y-85428710D01*
X72864671Y-84599039D01*
X99408096Y-84599039D01*
X99448754Y-84733087D01*
X99568963Y-84987420D01*
X99736481Y-85213414D01*
X99944869Y-85402385D01*
X100186119Y-85547070D01*
X100450960Y-85641909D01*
X100673000Y-85520624D01*
X100673000Y-84377000D01*
X100927000Y-84377000D01*
X100927000Y-85520624D01*
X101149040Y-85641909D01*
X101413881Y-85547070D01*
X101655131Y-85402385D01*
X101863519Y-85213414D01*
X102031037Y-84987420D01*
X102151246Y-84733087D01*
X102191904Y-84599039D01*
X102069915Y-84377000D01*
X100927000Y-84377000D01*
X100673000Y-84377000D01*
X99530085Y-84377000D01*
X99408096Y-84599039D01*
X72864671Y-84599039D01*
X74053721Y-83409990D01*
X99645008Y-83409990D01*
X99568963Y-83512580D01*
X99448754Y-83766913D01*
X99408096Y-83900961D01*
X99530085Y-84123000D01*
X100673000Y-84123000D01*
X100673000Y-84103000D01*
X100927000Y-84103000D01*
X100927000Y-84123000D01*
X102069915Y-84123000D01*
X102191904Y-83900961D01*
X102151246Y-83766913D01*
X102031037Y-83512580D01*
X101954992Y-83409990D01*
X104574182Y-83409990D01*
X104625010Y-83414996D01*
X104675838Y-83409990D01*
X104675848Y-83409990D01*
X104827905Y-83395014D01*
X105023003Y-83335831D01*
X105202807Y-83239724D01*
X105360406Y-83110386D01*
X105392817Y-83070893D01*
X111064999Y-77398711D01*
X111065000Y-84971289D01*
X100854097Y-95182193D01*
X100854091Y-95182198D01*
X100721289Y-95315000D01*
X100608665Y-95315000D01*
X100331426Y-95370147D01*
X100070273Y-95478320D01*
X99835241Y-95635363D01*
X99635363Y-95835241D01*
X99478320Y-96070273D01*
X99370147Y-96331426D01*
X99315000Y-96608665D01*
X99315000Y-96891335D01*
X99370147Y-97168574D01*
X99478320Y-97429727D01*
X99635363Y-97664759D01*
X99835241Y-97864637D01*
X100070273Y-98021680D01*
X100331426Y-98129853D01*
X100608665Y-98185000D01*
X100891335Y-98185000D01*
X101168574Y-98129853D01*
X101429727Y-98021680D01*
X101664759Y-97864637D01*
X101864637Y-97664759D01*
X102021680Y-97429727D01*
X102129853Y-97168574D01*
X102185000Y-96891335D01*
X102185000Y-96778711D01*
X102317802Y-96645909D01*
X102317807Y-96645903D01*
X112795907Y-86167804D01*
X112835395Y-86135397D01*
X112907125Y-86047994D01*
X112964733Y-85977799D01*
X113060839Y-85797995D01*
X113060840Y-85797994D01*
X113110115Y-85635560D01*
X113358665Y-85685000D01*
X113471289Y-85685000D01*
X114132197Y-86345908D01*
X114164605Y-86385397D01*
X114204093Y-86417804D01*
X114322203Y-86514735D01*
X114385963Y-86548815D01*
X114502008Y-86610842D01*
X114697106Y-86670025D01*
X114849163Y-86685001D01*
X114849172Y-86685001D01*
X114900000Y-86690007D01*
X114950828Y-86685001D01*
X120221291Y-86685001D01*
X121465011Y-87928722D01*
X121465011Y-89001301D01*
X120817806Y-88354096D01*
X120785395Y-88314603D01*
X120627796Y-88185265D01*
X120447992Y-88089158D01*
X120252894Y-88029975D01*
X120100837Y-88014999D01*
X120100827Y-88014999D01*
X120049999Y-88009993D01*
X119999171Y-88014999D01*
X114916368Y-88014999D01*
X114879853Y-87831426D01*
X114771680Y-87570273D01*
X114614637Y-87335241D01*
X114414759Y-87135363D01*
X114179727Y-86978320D01*
X113918574Y-86870147D01*
X113641335Y-86815000D01*
X113358665Y-86815000D01*
X113081426Y-86870147D01*
X112820273Y-86978320D01*
X112585241Y-87135363D01*
X112385363Y-87335241D01*
X112228320Y-87570273D01*
X112120147Y-87831426D01*
X112065000Y-88108665D01*
X112065000Y-88391335D01*
X112120147Y-88668574D01*
X112228320Y-88929727D01*
X112385363Y-89164759D01*
X112585241Y-89364637D01*
X112820273Y-89521680D01*
X113081426Y-89629853D01*
X113358665Y-89685000D01*
X113471289Y-89685000D01*
X113532195Y-89745906D01*
X113564603Y-89785395D01*
X113604091Y-89817802D01*
X113722201Y-89914733D01*
X113811010Y-89962202D01*
X113902006Y-90010840D01*
X114097104Y-90070023D01*
X114249161Y-90084999D01*
X114249170Y-90084999D01*
X114299998Y-90090005D01*
X114350826Y-90084999D01*
X114451290Y-90084999D01*
X113471290Y-91065000D01*
X113358665Y-91065000D01*
X113081426Y-91120147D01*
X112820273Y-91228320D01*
X112585241Y-91385363D01*
X112385363Y-91585241D01*
X112228320Y-91820273D01*
X112120147Y-92081426D01*
X112065000Y-92358665D01*
X112065000Y-92641335D01*
X112120147Y-92918574D01*
X112228320Y-93179727D01*
X112385363Y-93414759D01*
X112585241Y-93614637D01*
X112820273Y-93771680D01*
X113081426Y-93879853D01*
X113358665Y-93935000D01*
X113641335Y-93935000D01*
X113918574Y-93879853D01*
X114179727Y-93771680D01*
X114414759Y-93614637D01*
X114614637Y-93414759D01*
X114771680Y-93179727D01*
X114879853Y-92918574D01*
X114935000Y-92641335D01*
X114935000Y-92528710D01*
X115928712Y-91534999D01*
X115991138Y-91534999D01*
X115983989Y-91552257D01*
X115925000Y-91848816D01*
X115925000Y-92071290D01*
X115304097Y-92692193D01*
X115264604Y-92724604D01*
X115135266Y-92882203D01*
X115039159Y-93062008D01*
X114979976Y-93257106D01*
X114965000Y-93409163D01*
X114965000Y-93409172D01*
X114959994Y-93460000D01*
X114965000Y-93510828D01*
X114965001Y-105591288D01*
X111991290Y-108565000D01*
X111149508Y-108565000D01*
X110938691Y-108585764D01*
X110668192Y-108667818D01*
X110418899Y-108801068D01*
X110200392Y-108980392D01*
X110021068Y-109198899D01*
X109887818Y-109448192D01*
X109805764Y-109718691D01*
X109778057Y-110000000D01*
X109805764Y-110281309D01*
X109887818Y-110551808D01*
X110021068Y-110801101D01*
X110200392Y-111019608D01*
X110418899Y-111198932D01*
X110551858Y-111270000D01*
X110418899Y-111341068D01*
X110200392Y-111520392D01*
X110021068Y-111738899D01*
X109887818Y-111988192D01*
X109805764Y-112258691D01*
X109778057Y-112540000D01*
X109805764Y-112821309D01*
X109887818Y-113091808D01*
X110021068Y-113341101D01*
X110200392Y-113559608D01*
X110418899Y-113738932D01*
X110551858Y-113810000D01*
X110418899Y-113881068D01*
X110200392Y-114060392D01*
X110021068Y-114278899D01*
X109887818Y-114528192D01*
X109805764Y-114798691D01*
X109778057Y-115080000D01*
X109805764Y-115361309D01*
X109887818Y-115631808D01*
X110021068Y-115881101D01*
X110200392Y-116099608D01*
X110418899Y-116278932D01*
X110551858Y-116350000D01*
X110418899Y-116421068D01*
X110200392Y-116600392D01*
X110021068Y-116818899D01*
X109887818Y-117068192D01*
X109805764Y-117338691D01*
X109778057Y-117620000D01*
X109805764Y-117901309D01*
X109887818Y-118171808D01*
X110021068Y-118421101D01*
X110200392Y-118639608D01*
X110418899Y-118818932D01*
X110551858Y-118890000D01*
X110418899Y-118961068D01*
X110200392Y-119140392D01*
X110021068Y-119358899D01*
X109887818Y-119608192D01*
X109805764Y-119878691D01*
X109778057Y-120160000D01*
X109805764Y-120441309D01*
X109887818Y-120711808D01*
X110021068Y-120961101D01*
X110200392Y-121179608D01*
X110418899Y-121358932D01*
X110551858Y-121430000D01*
X110418899Y-121501068D01*
X110200392Y-121680392D01*
X110021068Y-121898899D01*
X109887818Y-122148192D01*
X109805764Y-122418691D01*
X109778057Y-122700000D01*
X109805764Y-122981309D01*
X109887818Y-123251808D01*
X110021068Y-123501101D01*
X110200392Y-123719608D01*
X110418899Y-123898932D01*
X110546741Y-123967265D01*
X110317161Y-124117399D01*
X110115500Y-124315105D01*
X109956285Y-124548354D01*
X109845633Y-124808182D01*
X109828096Y-124890961D01*
X109950085Y-125113000D01*
X111493000Y-125113000D01*
X111493000Y-125093000D01*
X111747000Y-125093000D01*
X111747000Y-125113000D01*
X113289915Y-125113000D01*
X113411904Y-124890961D01*
X113394367Y-124808182D01*
X113283715Y-124548354D01*
X113124500Y-124315105D01*
X112922839Y-124117399D01*
X112693259Y-123967265D01*
X112821101Y-123898932D01*
X113039608Y-123719608D01*
X113097521Y-123649040D01*
X120608091Y-123649040D01*
X120702930Y-123913881D01*
X120847615Y-124155131D01*
X121036586Y-124363519D01*
X121262580Y-124531037D01*
X121516913Y-124651246D01*
X121650961Y-124691904D01*
X121873000Y-124569915D01*
X121873000Y-123427000D01*
X122127000Y-123427000D01*
X122127000Y-124569915D01*
X122349039Y-124691904D01*
X122483087Y-124651246D01*
X122737420Y-124531037D01*
X122963414Y-124363519D01*
X123152385Y-124155131D01*
X123297070Y-123913881D01*
X123391909Y-123649040D01*
X123270624Y-123427000D01*
X122127000Y-123427000D01*
X121873000Y-123427000D01*
X120729376Y-123427000D01*
X120608091Y-123649040D01*
X113097521Y-123649040D01*
X113218932Y-123501101D01*
X113352182Y-123251808D01*
X113434236Y-122981309D01*
X113437225Y-122950960D01*
X120608091Y-122950960D01*
X120729376Y-123173000D01*
X121873000Y-123173000D01*
X121873000Y-122030085D01*
X122127000Y-122030085D01*
X122127000Y-123173000D01*
X123270624Y-123173000D01*
X123391909Y-122950960D01*
X123297070Y-122686119D01*
X123152385Y-122444869D01*
X122963414Y-122236481D01*
X122737420Y-122068963D01*
X122483087Y-121948754D01*
X122349039Y-121908096D01*
X122127000Y-122030085D01*
X121873000Y-122030085D01*
X121650961Y-121908096D01*
X121516913Y-121948754D01*
X121262580Y-122068963D01*
X121036586Y-122236481D01*
X120847615Y-122444869D01*
X120702930Y-122686119D01*
X120608091Y-122950960D01*
X113437225Y-122950960D01*
X113461943Y-122700000D01*
X113434236Y-122418691D01*
X113352182Y-122148192D01*
X113218932Y-121898899D01*
X113039608Y-121680392D01*
X112821101Y-121501068D01*
X112688142Y-121430000D01*
X112821101Y-121358932D01*
X113039608Y-121179608D01*
X113218932Y-120961101D01*
X113352182Y-120711808D01*
X113434236Y-120441309D01*
X113461943Y-120160000D01*
X113434236Y-119878691D01*
X113352182Y-119608192D01*
X113218932Y-119358899D01*
X113039608Y-119140392D01*
X112821101Y-118961068D01*
X112688142Y-118890000D01*
X112821101Y-118818932D01*
X113039608Y-118639608D01*
X113218932Y-118421101D01*
X113352182Y-118171808D01*
X113434236Y-117901309D01*
X113461943Y-117620000D01*
X113434236Y-117338691D01*
X113352182Y-117068192D01*
X113218932Y-116818899D01*
X113079533Y-116649040D01*
X125608091Y-116649040D01*
X125702930Y-116913881D01*
X125847615Y-117155131D01*
X126036586Y-117363519D01*
X126262580Y-117531037D01*
X126516913Y-117651246D01*
X126650961Y-117691904D01*
X126873000Y-117569915D01*
X126873000Y-116427000D01*
X125729376Y-116427000D01*
X125608091Y-116649040D01*
X113079533Y-116649040D01*
X113039608Y-116600392D01*
X112821101Y-116421068D01*
X112688142Y-116350000D01*
X112821101Y-116278932D01*
X113039608Y-116099608D01*
X113161600Y-115950960D01*
X125608091Y-115950960D01*
X125729376Y-116173000D01*
X126873000Y-116173000D01*
X126873000Y-115030085D01*
X126650961Y-114908096D01*
X126516913Y-114948754D01*
X126262580Y-115068963D01*
X126036586Y-115236481D01*
X125847615Y-115444869D01*
X125702930Y-115686119D01*
X125608091Y-115950960D01*
X113161600Y-115950960D01*
X113218932Y-115881101D01*
X113352182Y-115631808D01*
X113378430Y-115545281D01*
X118388711Y-110535000D01*
X118611184Y-110535000D01*
X118907743Y-110476011D01*
X119187095Y-110360299D01*
X119438505Y-110192312D01*
X119504944Y-110125873D01*
X119510498Y-110144180D01*
X119569463Y-110254494D01*
X119648815Y-110351185D01*
X119745506Y-110430537D01*
X119855820Y-110489502D01*
X119975518Y-110525812D01*
X120100000Y-110538072D01*
X121900000Y-110538072D01*
X122024482Y-110525812D01*
X122144180Y-110489502D01*
X122254494Y-110430537D01*
X122351185Y-110351185D01*
X122430537Y-110254494D01*
X122489502Y-110144180D01*
X122525812Y-110024482D01*
X122538072Y-109900000D01*
X122538072Y-108100000D01*
X122525812Y-107975518D01*
X122489502Y-107855820D01*
X122430537Y-107745506D01*
X122351185Y-107648815D01*
X122254494Y-107569463D01*
X122215233Y-107548477D01*
X123195919Y-106567792D01*
X123235407Y-106535385D01*
X123267814Y-106495897D01*
X123364745Y-106377787D01*
X123425242Y-106264604D01*
X123460852Y-106197982D01*
X123520035Y-106002884D01*
X123535011Y-105850827D01*
X123535011Y-105850825D01*
X123540018Y-105799989D01*
X123535011Y-105749154D01*
X123535011Y-87550838D01*
X123540017Y-87500010D01*
X123535011Y-87449182D01*
X123535011Y-87449173D01*
X123520035Y-87297116D01*
X123460852Y-87102018D01*
X123395620Y-86979977D01*
X123364745Y-86922213D01*
X123267814Y-86804103D01*
X123235407Y-86764615D01*
X123195919Y-86732208D01*
X121417808Y-84954098D01*
X121385397Y-84914605D01*
X121227798Y-84785267D01*
X121047994Y-84689160D01*
X120852896Y-84629977D01*
X120700839Y-84615001D01*
X120700829Y-84615001D01*
X120650001Y-84609995D01*
X120599173Y-84615001D01*
X115328712Y-84615001D01*
X114935000Y-84221289D01*
X114935000Y-84108665D01*
X114879853Y-83831426D01*
X114771680Y-83570273D01*
X114614637Y-83335241D01*
X114414759Y-83135363D01*
X114179727Y-82978320D01*
X113918574Y-82870147D01*
X113641335Y-82815000D01*
X113358665Y-82815000D01*
X113134999Y-82859491D01*
X113134999Y-79072017D01*
X125598090Y-79072017D01*
X125639078Y-79344133D01*
X125732364Y-79603023D01*
X125794344Y-79718980D01*
X126034435Y-79785960D01*
X126820395Y-79000000D01*
X126034435Y-78214040D01*
X125794344Y-78281020D01*
X125677244Y-78530048D01*
X125610977Y-78797135D01*
X125598090Y-79072017D01*
X113134999Y-79072017D01*
X113134999Y-75328712D01*
X115267803Y-73195908D01*
X115267808Y-73195902D01*
X127066711Y-61397000D01*
X127137592Y-61397000D01*
X127407490Y-61343314D01*
X127661727Y-61238005D01*
X127890535Y-61085120D01*
X128085120Y-60890535D01*
X128238005Y-60661727D01*
X128343314Y-60407490D01*
X128397000Y-60137592D01*
X128397000Y-59862408D01*
X128343314Y-59592510D01*
X128238005Y-59338273D01*
X128085120Y-59109465D01*
X127890535Y-58914880D01*
X127661727Y-58761995D01*
X127407490Y-58656686D01*
X127137592Y-58603000D01*
X126862408Y-58603000D01*
X126592510Y-58656686D01*
X126338273Y-58761995D01*
X126109465Y-58914880D01*
X125914880Y-59109465D01*
X125761995Y-59338273D01*
X125656686Y-59592510D01*
X125603000Y-59862408D01*
X125603000Y-59933289D01*
X113804098Y-71732192D01*
X113804092Y-71732197D01*
X111404092Y-74132197D01*
X111364603Y-74164605D01*
X111332195Y-74204094D01*
X104196300Y-81339990D01*
X73675845Y-81339990D01*
X73625010Y-81334983D01*
X73574175Y-81339990D01*
X73574172Y-81339990D01*
X73422115Y-81354966D01*
X73227017Y-81414149D01*
X73156515Y-81451833D01*
X73047212Y-81510256D01*
X72978666Y-81566511D01*
X72889614Y-81639594D01*
X72857207Y-81679082D01*
X70304097Y-84232193D01*
X70264604Y-84264604D01*
X70135266Y-84422203D01*
X70039159Y-84602008D01*
X69979976Y-84797106D01*
X69965000Y-84949163D01*
X69965000Y-84949172D01*
X69959994Y-85000000D01*
X69965000Y-85050828D01*
X69965001Y-86949153D01*
X69965000Y-86949163D01*
X69965000Y-87329174D01*
X69959994Y-87380002D01*
X69965000Y-87430830D01*
X69965001Y-97949152D01*
X69959993Y-98000000D01*
X60660000Y-98000000D01*
X60660000Y-79965565D01*
X85214040Y-79965565D01*
X85281020Y-80205656D01*
X85530048Y-80322756D01*
X85797135Y-80389023D01*
X86072017Y-80401910D01*
X86344133Y-80360922D01*
X86603023Y-80267636D01*
X86718980Y-80205656D01*
X86785960Y-79965565D01*
X86000000Y-79179605D01*
X85214040Y-79965565D01*
X60660000Y-79965565D01*
X60660000Y-79072017D01*
X84598090Y-79072017D01*
X84639078Y-79344133D01*
X84732364Y-79603023D01*
X84794344Y-79718980D01*
X85034435Y-79785960D01*
X85820395Y-79000000D01*
X86179605Y-79000000D01*
X86965565Y-79785960D01*
X87205656Y-79718980D01*
X87322756Y-79469952D01*
X87389023Y-79202865D01*
X87401910Y-78927983D01*
X87360922Y-78655867D01*
X87267636Y-78396977D01*
X87205656Y-78281020D01*
X86965565Y-78214040D01*
X86179605Y-79000000D01*
X85820395Y-79000000D01*
X85034435Y-78214040D01*
X84794344Y-78281020D01*
X84677244Y-78530048D01*
X84610977Y-78797135D01*
X84598090Y-79072017D01*
X60660000Y-79072017D01*
X60660000Y-78034435D01*
X85214040Y-78034435D01*
X86000000Y-78820395D01*
X86785960Y-78034435D01*
X86718980Y-77794344D01*
X86469952Y-77677244D01*
X86202865Y-77610977D01*
X85927983Y-77598090D01*
X85655867Y-77639078D01*
X85396977Y-77732364D01*
X85281020Y-77794344D01*
X85214040Y-78034435D01*
X60660000Y-78034435D01*
X60660000Y-71571653D01*
X73687952Y-71571653D01*
X73843962Y-71887214D01*
X74218745Y-72078020D01*
X74623551Y-72192044D01*
X75042824Y-72224902D01*
X75460451Y-72175334D01*
X75860383Y-72045243D01*
X76156038Y-71887214D01*
X76312048Y-71571653D01*
X75000000Y-70259605D01*
X73687952Y-71571653D01*
X60660000Y-71571653D01*
X60660000Y-70122824D01*
X72855098Y-70122824D01*
X72904666Y-70540451D01*
X73034757Y-70940383D01*
X73192786Y-71236038D01*
X73508347Y-71392048D01*
X74820395Y-70080000D01*
X75179605Y-70080000D01*
X76491653Y-71392048D01*
X76807214Y-71236038D01*
X76998020Y-70861255D01*
X77112044Y-70456449D01*
X77144902Y-70037176D01*
X77095334Y-69619549D01*
X76965243Y-69219617D01*
X76807214Y-68923962D01*
X76491653Y-68767952D01*
X75179605Y-70080000D01*
X74820395Y-70080000D01*
X73508347Y-68767952D01*
X73192786Y-68923962D01*
X73001980Y-69298745D01*
X72887956Y-69703551D01*
X72855098Y-70122824D01*
X60660000Y-70122824D01*
X60660000Y-68588347D01*
X73687952Y-68588347D01*
X75000000Y-69900395D01*
X76312048Y-68588347D01*
X76156038Y-68272786D01*
X75781255Y-68081980D01*
X75376449Y-67967956D01*
X74957176Y-67935098D01*
X74539549Y-67984666D01*
X74139617Y-68114757D01*
X73843962Y-68272786D01*
X73687952Y-68588347D01*
X60660000Y-68588347D01*
X60660000Y-63500000D01*
X72861928Y-63500000D01*
X72861928Y-66500000D01*
X72874188Y-66624482D01*
X72910498Y-66744180D01*
X72969463Y-66854494D01*
X73048815Y-66951185D01*
X73145506Y-67030537D01*
X73255820Y-67089502D01*
X73375518Y-67125812D01*
X73500000Y-67138072D01*
X76500000Y-67138072D01*
X76624482Y-67125812D01*
X76744180Y-67089502D01*
X76854494Y-67030537D01*
X76951185Y-66951185D01*
X77030537Y-66854494D01*
X77089502Y-66744180D01*
X77125812Y-66624482D01*
X77138072Y-66500000D01*
X77138072Y-66235000D01*
X80939335Y-66235000D01*
X81000000Y-66240975D01*
X81060665Y-66235000D01*
X81242102Y-66217130D01*
X81474901Y-66146511D01*
X81689449Y-66031833D01*
X81877502Y-65877502D01*
X81916178Y-65830375D01*
X86402185Y-61344369D01*
X86407490Y-61343314D01*
X86661727Y-61238005D01*
X86666224Y-61235000D01*
X112939335Y-61235000D01*
X113000000Y-61240975D01*
X113060665Y-61235000D01*
X113242102Y-61217130D01*
X113474901Y-61146511D01*
X113689449Y-61031833D01*
X113877502Y-60877502D01*
X113916179Y-60830374D01*
X128511554Y-46235000D01*
X134165375Y-46235000D01*
X134174188Y-46324482D01*
X134210498Y-46444180D01*
X134269463Y-46554494D01*
X134348815Y-46651185D01*
X134445506Y-46730537D01*
X134555820Y-46789502D01*
X134675518Y-46825812D01*
X134800000Y-46838072D01*
X137200000Y-46838072D01*
X137324482Y-46825812D01*
X137444180Y-46789502D01*
X137554494Y-46730537D01*
X137651185Y-46651185D01*
X137730537Y-46554494D01*
X137789502Y-46444180D01*
X137825812Y-46324482D01*
X137834625Y-46235000D01*
X141885830Y-46235000D01*
X141947047Y-46542756D01*
X142107988Y-46931302D01*
X142341637Y-47280983D01*
X142639017Y-47578363D01*
X142988698Y-47812012D01*
X143377244Y-47972953D01*
X143789721Y-48055000D01*
X144210279Y-48055000D01*
X144622756Y-47972953D01*
X145011302Y-47812012D01*
X145360983Y-47578363D01*
X145658363Y-47280983D01*
X145742542Y-47155000D01*
X146408447Y-47155000D01*
X148765000Y-49511554D01*
X148765001Y-75774291D01*
X148677897Y-75782870D01*
X148445099Y-75853489D01*
X148230551Y-75968167D01*
X148042498Y-76122498D01*
X148003826Y-76169620D01*
X145358887Y-78814560D01*
X145210279Y-78785000D01*
X144789721Y-78785000D01*
X144377244Y-78867047D01*
X143988698Y-79027988D01*
X143753713Y-79185000D01*
X138834625Y-79185000D01*
X138825812Y-79095518D01*
X138789502Y-78975820D01*
X138730537Y-78865506D01*
X138651185Y-78768815D01*
X138554494Y-78689463D01*
X138444180Y-78630498D01*
X138324482Y-78594188D01*
X138200000Y-78581928D01*
X135800000Y-78581928D01*
X135675518Y-78594188D01*
X135555820Y-78630498D01*
X135445506Y-78689463D01*
X135348815Y-78768815D01*
X135269463Y-78865506D01*
X135210498Y-78975820D01*
X135174188Y-79095518D01*
X135161928Y-79220000D01*
X135161928Y-81620000D01*
X135174188Y-81744482D01*
X135210498Y-81864180D01*
X135269463Y-81974494D01*
X135348815Y-82071185D01*
X135445506Y-82150537D01*
X135555820Y-82209502D01*
X135675518Y-82245812D01*
X135800000Y-82258072D01*
X138200000Y-82258072D01*
X138324482Y-82245812D01*
X138444180Y-82209502D01*
X138554494Y-82150537D01*
X138651185Y-82071185D01*
X138730537Y-81974494D01*
X138789502Y-81864180D01*
X138825812Y-81744482D01*
X138834625Y-81655000D01*
X142993540Y-81655000D01*
X143107988Y-81931302D01*
X143341637Y-82280983D01*
X143639017Y-82578363D01*
X143988698Y-82812012D01*
X144377244Y-82972953D01*
X144789721Y-83055000D01*
X145210279Y-83055000D01*
X145622756Y-82972953D01*
X146011302Y-82812012D01*
X146360983Y-82578363D01*
X146658363Y-82280983D01*
X146892012Y-81931302D01*
X147052953Y-81542756D01*
X147135000Y-81130279D01*
X147135000Y-80709721D01*
X147105440Y-80561113D01*
X148765000Y-78901554D01*
X148765001Y-110408445D01*
X145358887Y-113814560D01*
X145210279Y-113785000D01*
X144789721Y-113785000D01*
X144377244Y-113867047D01*
X143988698Y-114027988D01*
X143639017Y-114261637D01*
X143635654Y-114265000D01*
X138834625Y-114265000D01*
X138825812Y-114175518D01*
X138789502Y-114055820D01*
X138730537Y-113945506D01*
X138651185Y-113848815D01*
X138554494Y-113769463D01*
X138444180Y-113710498D01*
X138324482Y-113674188D01*
X138200000Y-113661928D01*
X135800000Y-113661928D01*
X135675518Y-113674188D01*
X135555820Y-113710498D01*
X135445506Y-113769463D01*
X135348815Y-113848815D01*
X135269463Y-113945506D01*
X135210498Y-114055820D01*
X135174188Y-114175518D01*
X135161928Y-114300000D01*
X135161928Y-116700000D01*
X135174188Y-116824482D01*
X135210498Y-116944180D01*
X135269463Y-117054494D01*
X135348815Y-117151185D01*
X135445506Y-117230537D01*
X135555820Y-117289502D01*
X135675518Y-117325812D01*
X135800000Y-117338072D01*
X138200000Y-117338072D01*
X138324482Y-117325812D01*
X138444180Y-117289502D01*
X138554494Y-117230537D01*
X138651185Y-117151185D01*
X138730537Y-117054494D01*
X138789502Y-116944180D01*
X138825812Y-116824482D01*
X138834625Y-116735000D01*
X143026677Y-116735000D01*
X143107988Y-116931302D01*
X143341637Y-117280983D01*
X143639017Y-117578363D01*
X143988698Y-117812012D01*
X144377244Y-117972953D01*
X144789721Y-118055000D01*
X145210279Y-118055000D01*
X145622756Y-117972953D01*
X146011302Y-117812012D01*
X146360983Y-117578363D01*
X146658363Y-117280983D01*
X146892012Y-116931302D01*
X147052953Y-116542756D01*
X147135000Y-116130279D01*
X147135000Y-115709721D01*
X147105440Y-115561113D01*
X150830380Y-111836174D01*
X150877502Y-111797502D01*
X151031833Y-111609449D01*
X151146511Y-111394901D01*
X151217130Y-111162102D01*
X151231164Y-111019608D01*
X151240975Y-110920000D01*
X151235000Y-110859335D01*
X151235000Y-77060665D01*
X151240975Y-77000000D01*
X151235000Y-76939335D01*
X151235000Y-49060665D01*
X151240975Y-49000000D01*
X151217130Y-48757898D01*
X151146511Y-48525100D01*
X151146511Y-48525099D01*
X151031833Y-48310551D01*
X150877502Y-48122498D01*
X150830381Y-48083827D01*
X147836178Y-45089625D01*
X147797502Y-45042498D01*
X147609449Y-44888167D01*
X147394901Y-44773489D01*
X147162102Y-44702870D01*
X146980665Y-44685000D01*
X146920000Y-44679025D01*
X146859335Y-44685000D01*
X145742542Y-44685000D01*
X145658363Y-44559017D01*
X145360983Y-44261637D01*
X145011302Y-44027988D01*
X144622756Y-43867047D01*
X144210279Y-43785000D01*
X143789721Y-43785000D01*
X143511537Y-43840334D01*
X143322102Y-43782870D01*
X143140665Y-43765000D01*
X143080000Y-43759025D01*
X143019335Y-43765000D01*
X137834625Y-43765000D01*
X137825812Y-43675518D01*
X137789502Y-43555820D01*
X137730537Y-43445506D01*
X137651185Y-43348815D01*
X137554494Y-43269463D01*
X137444180Y-43210498D01*
X137324482Y-43174188D01*
X137200000Y-43161928D01*
X134800000Y-43161928D01*
X134675518Y-43174188D01*
X134555820Y-43210498D01*
X134445506Y-43269463D01*
X134348815Y-43348815D01*
X134269463Y-43445506D01*
X134210498Y-43555820D01*
X134174188Y-43675518D01*
X134165375Y-43765000D01*
X128060654Y-43765000D01*
X127999999Y-43759026D01*
X127939344Y-43765000D01*
X127939335Y-43765000D01*
X127757898Y-43782870D01*
X127525099Y-43853489D01*
X127310551Y-43968167D01*
X127122498Y-44122498D01*
X127083826Y-44169620D01*
X112488447Y-58765000D01*
X86666224Y-58765000D01*
X86661727Y-58761995D01*
X86407490Y-58656686D01*
X86137592Y-58603000D01*
X85862408Y-58603000D01*
X85592510Y-58656686D01*
X85338273Y-58761995D01*
X85109465Y-58914880D01*
X84914880Y-59109465D01*
X84761995Y-59338273D01*
X84656686Y-59592510D01*
X84655631Y-59597815D01*
X80488447Y-63765000D01*
X77138072Y-63765000D01*
X77138072Y-63500000D01*
X77125812Y-63375518D01*
X77089502Y-63255820D01*
X77030537Y-63145506D01*
X76951185Y-63048815D01*
X76854494Y-62969463D01*
X76744180Y-62910498D01*
X76624482Y-62874188D01*
X76500000Y-62861928D01*
X73500000Y-62861928D01*
X73375518Y-62874188D01*
X73255820Y-62910498D01*
X73145506Y-62969463D01*
X73048815Y-63048815D01*
X72969463Y-63145506D01*
X72910498Y-63255820D01*
X72874188Y-63375518D01*
X72861928Y-63500000D01*
X60660000Y-63500000D01*
X60660000Y-38831250D01*
X79415595Y-38831250D01*
X79415595Y-43476250D01*
X110584405Y-43476250D01*
X110584405Y-38831250D01*
X109927857Y-38831250D01*
X109927857Y-35850000D01*
X94072143Y-35850000D01*
X94072143Y-38831250D01*
X79415595Y-38831250D01*
X60660000Y-38831250D01*
X60660000Y-34725701D01*
X62215000Y-34725701D01*
X62215000Y-35274299D01*
X62322026Y-35812354D01*
X62531965Y-36319192D01*
X62836750Y-36775334D01*
X63224666Y-37163250D01*
X63680808Y-37468035D01*
X64187646Y-37677974D01*
X64725701Y-37785000D01*
X65274299Y-37785000D01*
X65812354Y-37677974D01*
X66319192Y-37468035D01*
X66775334Y-37163250D01*
X67163250Y-36775334D01*
X67468035Y-36319192D01*
X67677974Y-35812354D01*
X67785000Y-35274299D01*
X67785000Y-34725701D01*
X147215000Y-34725701D01*
X147215000Y-35274299D01*
X147322026Y-35812354D01*
X147531965Y-36319192D01*
X147836750Y-36775334D01*
X148224666Y-37163250D01*
X148680808Y-37468035D01*
X149187646Y-37677974D01*
X149725701Y-37785000D01*
X150274299Y-37785000D01*
X150812354Y-37677974D01*
X151319192Y-37468035D01*
X151775334Y-37163250D01*
X152163250Y-36775334D01*
X152468035Y-36319192D01*
X152677974Y-35812354D01*
X152785000Y-35274299D01*
X152785000Y-34725701D01*
X152677974Y-34187646D01*
X152468035Y-33680808D01*
X152163250Y-33224666D01*
X151775334Y-32836750D01*
X151319192Y-32531965D01*
X150812354Y-32322026D01*
X150274299Y-32215000D01*
X149725701Y-32215000D01*
X149187646Y-32322026D01*
X148680808Y-32531965D01*
X148224666Y-32836750D01*
X147836750Y-33224666D01*
X147531965Y-33680808D01*
X147322026Y-34187646D01*
X147215000Y-34725701D01*
X67785000Y-34725701D01*
X67677974Y-34187646D01*
X67468035Y-33680808D01*
X67163250Y-33224666D01*
X66775334Y-32836750D01*
X66319192Y-32531965D01*
X65812354Y-32322026D01*
X65274299Y-32215000D01*
X64725701Y-32215000D01*
X64187646Y-32322026D01*
X63680808Y-32531965D01*
X63224666Y-32836750D01*
X62836750Y-33224666D01*
X62531965Y-33680808D01*
X62322026Y-34187646D01*
X62215000Y-34725701D01*
X60660000Y-34725701D01*
X60660000Y-30660000D01*
X154340000Y-30660000D01*
X154340001Y-159340000D01*
G36*
X95565000Y-139028711D02*
G01*
X95565000Y-139141335D01*
X95620147Y-139418574D01*
X95728320Y-139679727D01*
X95885363Y-139914759D01*
X96085241Y-140114637D01*
X96320273Y-140271680D01*
X96581426Y-140379853D01*
X96858665Y-140435000D01*
X97141335Y-140435000D01*
X97418574Y-140379853D01*
X97679727Y-140271680D01*
X97914759Y-140114637D01*
X97994396Y-140035000D01*
X99501289Y-140035000D01*
X96971290Y-142565000D01*
X96858665Y-142565000D01*
X96581426Y-142620147D01*
X96320273Y-142728320D01*
X96085241Y-142885363D01*
X95885363Y-143085241D01*
X95728320Y-143320273D01*
X95620147Y-143581426D01*
X95565000Y-143858665D01*
X95565000Y-143971289D01*
X94571290Y-144965000D01*
X85361770Y-144965000D01*
X85363519Y-144963414D01*
X85531037Y-144737420D01*
X85651246Y-144483087D01*
X85691904Y-144349039D01*
X85569915Y-144127000D01*
X84427000Y-144127000D01*
X84427000Y-144147000D01*
X84173000Y-144147000D01*
X84173000Y-144127000D01*
X83030085Y-144127000D01*
X82908096Y-144349039D01*
X82948754Y-144483087D01*
X83068963Y-144737420D01*
X83236481Y-144963414D01*
X83238230Y-144965000D01*
X78451466Y-144965000D01*
X77137427Y-143650961D01*
X82908096Y-143650961D01*
X83030085Y-143873000D01*
X84173000Y-143873000D01*
X84173000Y-142729376D01*
X84427000Y-142729376D01*
X84427000Y-143873000D01*
X85569915Y-143873000D01*
X85691904Y-143650961D01*
X85651246Y-143516913D01*
X85531037Y-143262580D01*
X85363519Y-143036586D01*
X85155131Y-142847615D01*
X84913881Y-142702930D01*
X84649040Y-142608091D01*
X84427000Y-142729376D01*
X84173000Y-142729376D01*
X83950960Y-142608091D01*
X83686119Y-142702930D01*
X83444869Y-142847615D01*
X83236481Y-143036586D01*
X83068963Y-143262580D01*
X82948754Y-143516913D01*
X82908096Y-143650961D01*
X77137427Y-143650961D01*
X76938072Y-143451607D01*
X76938072Y-142000000D01*
X76925812Y-141875518D01*
X76889502Y-141755820D01*
X76830537Y-141645506D01*
X76751185Y-141548815D01*
X76654494Y-141469463D01*
X76544180Y-141410498D01*
X76424482Y-141374188D01*
X76300000Y-141361928D01*
X73700000Y-141361928D01*
X73575518Y-141374188D01*
X73455820Y-141410498D01*
X73345506Y-141469463D01*
X73248815Y-141548815D01*
X73169463Y-141645506D01*
X73110498Y-141755820D01*
X73074188Y-141875518D01*
X73061928Y-142000000D01*
X73061928Y-144000000D01*
X73074188Y-144124482D01*
X73110498Y-144244180D01*
X73159425Y-144335714D01*
X72447807Y-143624097D01*
X72415396Y-143584604D01*
X72375903Y-143552193D01*
X72035000Y-143211290D01*
X72035000Y-139349039D01*
X82908096Y-139349039D01*
X82948754Y-139483087D01*
X83068963Y-139737420D01*
X83236481Y-139963414D01*
X83444869Y-140152385D01*
X83686119Y-140297070D01*
X83950960Y-140391909D01*
X84173000Y-140270624D01*
X84173000Y-139127000D01*
X84427000Y-139127000D01*
X84427000Y-140270624D01*
X84649040Y-140391909D01*
X84913881Y-140297070D01*
X85155131Y-140152385D01*
X85363519Y-139963414D01*
X85531037Y-139737420D01*
X85651246Y-139483087D01*
X85691904Y-139349039D01*
X85569915Y-139127000D01*
X84427000Y-139127000D01*
X84173000Y-139127000D01*
X83030085Y-139127000D01*
X82908096Y-139349039D01*
X72035000Y-139349039D01*
X72035000Y-138650961D01*
X82908096Y-138650961D01*
X83030085Y-138873000D01*
X84173000Y-138873000D01*
X84173000Y-137729376D01*
X84427000Y-137729376D01*
X84427000Y-138873000D01*
X85569915Y-138873000D01*
X85691904Y-138650961D01*
X85651246Y-138516913D01*
X85531037Y-138262580D01*
X85363519Y-138036586D01*
X85155131Y-137847615D01*
X84913881Y-137702930D01*
X84649040Y-137608091D01*
X84427000Y-137729376D01*
X84173000Y-137729376D01*
X83950960Y-137608091D01*
X83686119Y-137702930D01*
X83444869Y-137847615D01*
X83236481Y-138036586D01*
X83068963Y-138262580D01*
X82948754Y-138516913D01*
X82908096Y-138650961D01*
X72035000Y-138650961D01*
X72035000Y-134878713D01*
X73119945Y-135963657D01*
X73182148Y-136168715D01*
X73333969Y-136452752D01*
X73538286Y-136701714D01*
X73787248Y-136906031D01*
X74071285Y-137057852D01*
X74379484Y-137151343D01*
X74619678Y-137175000D01*
X75380322Y-137175000D01*
X75620516Y-137151343D01*
X75928715Y-137057852D01*
X76212752Y-136906031D01*
X76461714Y-136701714D01*
X76666031Y-136452752D01*
X76817852Y-136168715D01*
X76911343Y-135860516D01*
X76942911Y-135540000D01*
X76911343Y-135219484D01*
X76817852Y-134911285D01*
X76666031Y-134627248D01*
X76607345Y-134555739D01*
X76654494Y-134530537D01*
X76751185Y-134451185D01*
X76830537Y-134354494D01*
X76889502Y-134244180D01*
X76925812Y-134124482D01*
X76934625Y-134035000D01*
X82865000Y-134035000D01*
X82865000Y-134127002D01*
X83030084Y-134127002D01*
X82908096Y-134349039D01*
X82948754Y-134483087D01*
X83068963Y-134737420D01*
X83236481Y-134963414D01*
X83444869Y-135152385D01*
X83686119Y-135297070D01*
X83950960Y-135391909D01*
X84173000Y-135270624D01*
X84173000Y-134127000D01*
X84427000Y-134127000D01*
X84427000Y-135270624D01*
X84649040Y-135391909D01*
X84913881Y-135297070D01*
X85155131Y-135152385D01*
X85363519Y-134963414D01*
X85531037Y-134737420D01*
X85651246Y-134483087D01*
X85691904Y-134349039D01*
X85569915Y-134127000D01*
X84427000Y-134127000D01*
X84173000Y-134127000D01*
X84153000Y-134127000D01*
X84153000Y-133873000D01*
X84173000Y-133873000D01*
X84173000Y-133853000D01*
X84427000Y-133853000D01*
X84427000Y-133873000D01*
X85569915Y-133873000D01*
X85691904Y-133650961D01*
X85651246Y-133516913D01*
X85531037Y-133262580D01*
X85363519Y-133036586D01*
X85361770Y-133035000D01*
X89571290Y-133035000D01*
X95565000Y-139028711D01*
X95565000Y-139028711D01*
G37*
X95565000Y-139028711D02*
X95565000Y-139141335D01*
X95620147Y-139418574D01*
X95728320Y-139679727D01*
X95885363Y-139914759D01*
X96085241Y-140114637D01*
X96320273Y-140271680D01*
X96581426Y-140379853D01*
X96858665Y-140435000D01*
X97141335Y-140435000D01*
X97418574Y-140379853D01*
X97679727Y-140271680D01*
X97914759Y-140114637D01*
X97994396Y-140035000D01*
X99501289Y-140035000D01*
X96971290Y-142565000D01*
X96858665Y-142565000D01*
X96581426Y-142620147D01*
X96320273Y-142728320D01*
X96085241Y-142885363D01*
X95885363Y-143085241D01*
X95728320Y-143320273D01*
X95620147Y-143581426D01*
X95565000Y-143858665D01*
X95565000Y-143971289D01*
X94571290Y-144965000D01*
X85361770Y-144965000D01*
X85363519Y-144963414D01*
X85531037Y-144737420D01*
X85651246Y-144483087D01*
X85691904Y-144349039D01*
X85569915Y-144127000D01*
X84427000Y-144127000D01*
X84427000Y-144147000D01*
X84173000Y-144147000D01*
X84173000Y-144127000D01*
X83030085Y-144127000D01*
X82908096Y-144349039D01*
X82948754Y-144483087D01*
X83068963Y-144737420D01*
X83236481Y-144963414D01*
X83238230Y-144965000D01*
X78451466Y-144965000D01*
X77137427Y-143650961D01*
X82908096Y-143650961D01*
X83030085Y-143873000D01*
X84173000Y-143873000D01*
X84173000Y-142729376D01*
X84427000Y-142729376D01*
X84427000Y-143873000D01*
X85569915Y-143873000D01*
X85691904Y-143650961D01*
X85651246Y-143516913D01*
X85531037Y-143262580D01*
X85363519Y-143036586D01*
X85155131Y-142847615D01*
X84913881Y-142702930D01*
X84649040Y-142608091D01*
X84427000Y-142729376D01*
X84173000Y-142729376D01*
X83950960Y-142608091D01*
X83686119Y-142702930D01*
X83444869Y-142847615D01*
X83236481Y-143036586D01*
X83068963Y-143262580D01*
X82948754Y-143516913D01*
X82908096Y-143650961D01*
X77137427Y-143650961D01*
X76938072Y-143451607D01*
X76938072Y-142000000D01*
X76925812Y-141875518D01*
X76889502Y-141755820D01*
X76830537Y-141645506D01*
X76751185Y-141548815D01*
X76654494Y-141469463D01*
X76544180Y-141410498D01*
X76424482Y-141374188D01*
X76300000Y-141361928D01*
X73700000Y-141361928D01*
X73575518Y-141374188D01*
X73455820Y-141410498D01*
X73345506Y-141469463D01*
X73248815Y-141548815D01*
X73169463Y-141645506D01*
X73110498Y-141755820D01*
X73074188Y-141875518D01*
X73061928Y-142000000D01*
X73061928Y-144000000D01*
X73074188Y-144124482D01*
X73110498Y-144244180D01*
X73159425Y-144335714D01*
X72447807Y-143624097D01*
X72415396Y-143584604D01*
X72375903Y-143552193D01*
X72035000Y-143211290D01*
X72035000Y-139349039D01*
X82908096Y-139349039D01*
X82948754Y-139483087D01*
X83068963Y-139737420D01*
X83236481Y-139963414D01*
X83444869Y-140152385D01*
X83686119Y-140297070D01*
X83950960Y-140391909D01*
X84173000Y-140270624D01*
X84173000Y-139127000D01*
X84427000Y-139127000D01*
X84427000Y-140270624D01*
X84649040Y-140391909D01*
X84913881Y-140297070D01*
X85155131Y-140152385D01*
X85363519Y-139963414D01*
X85531037Y-139737420D01*
X85651246Y-139483087D01*
X85691904Y-139349039D01*
X85569915Y-139127000D01*
X84427000Y-139127000D01*
X84173000Y-139127000D01*
X83030085Y-139127000D01*
X82908096Y-139349039D01*
X72035000Y-139349039D01*
X72035000Y-138650961D01*
X82908096Y-138650961D01*
X83030085Y-138873000D01*
X84173000Y-138873000D01*
X84173000Y-137729376D01*
X84427000Y-137729376D01*
X84427000Y-138873000D01*
X85569915Y-138873000D01*
X85691904Y-138650961D01*
X85651246Y-138516913D01*
X85531037Y-138262580D01*
X85363519Y-138036586D01*
X85155131Y-137847615D01*
X84913881Y-137702930D01*
X84649040Y-137608091D01*
X84427000Y-137729376D01*
X84173000Y-137729376D01*
X83950960Y-137608091D01*
X83686119Y-137702930D01*
X83444869Y-137847615D01*
X83236481Y-138036586D01*
X83068963Y-138262580D01*
X82948754Y-138516913D01*
X82908096Y-138650961D01*
X72035000Y-138650961D01*
X72035000Y-134878713D01*
X73119945Y-135963657D01*
X73182148Y-136168715D01*
X73333969Y-136452752D01*
X73538286Y-136701714D01*
X73787248Y-136906031D01*
X74071285Y-137057852D01*
X74379484Y-137151343D01*
X74619678Y-137175000D01*
X75380322Y-137175000D01*
X75620516Y-137151343D01*
X75928715Y-137057852D01*
X76212752Y-136906031D01*
X76461714Y-136701714D01*
X76666031Y-136452752D01*
X76817852Y-136168715D01*
X76911343Y-135860516D01*
X76942911Y-135540000D01*
X76911343Y-135219484D01*
X76817852Y-134911285D01*
X76666031Y-134627248D01*
X76607345Y-134555739D01*
X76654494Y-134530537D01*
X76751185Y-134451185D01*
X76830537Y-134354494D01*
X76889502Y-134244180D01*
X76925812Y-134124482D01*
X76934625Y-134035000D01*
X82865000Y-134035000D01*
X82865000Y-134127002D01*
X83030084Y-134127002D01*
X82908096Y-134349039D01*
X82948754Y-134483087D01*
X83068963Y-134737420D01*
X83236481Y-134963414D01*
X83444869Y-135152385D01*
X83686119Y-135297070D01*
X83950960Y-135391909D01*
X84173000Y-135270624D01*
X84173000Y-134127000D01*
X84427000Y-134127000D01*
X84427000Y-135270624D01*
X84649040Y-135391909D01*
X84913881Y-135297070D01*
X85155131Y-135152385D01*
X85363519Y-134963414D01*
X85531037Y-134737420D01*
X85651246Y-134483087D01*
X85691904Y-134349039D01*
X85569915Y-134127000D01*
X84427000Y-134127000D01*
X84173000Y-134127000D01*
X84153000Y-134127000D01*
X84153000Y-133873000D01*
X84173000Y-133873000D01*
X84173000Y-133853000D01*
X84427000Y-133853000D01*
X84427000Y-133873000D01*
X85569915Y-133873000D01*
X85691904Y-133650961D01*
X85651246Y-133516913D01*
X85531037Y-133262580D01*
X85363519Y-133036586D01*
X85361770Y-133035000D01*
X89571290Y-133035000D01*
X95565000Y-139028711D01*
G36*
X86979977Y-99202895D02*
G01*
X87039160Y-99397993D01*
X87135266Y-99577797D01*
X87232197Y-99695907D01*
X87264605Y-99735396D01*
X87304093Y-99767803D01*
X95565000Y-108028711D01*
X95565000Y-108141335D01*
X95620147Y-108418574D01*
X95728320Y-108679727D01*
X95885363Y-108914759D01*
X96085241Y-109114637D01*
X96320273Y-109271680D01*
X96581426Y-109379853D01*
X96858665Y-109435000D01*
X96971290Y-109435000D01*
X98965000Y-111428711D01*
X98965001Y-116509162D01*
X98959994Y-116560000D01*
X98963958Y-116600248D01*
X98035000Y-115671290D01*
X98035000Y-113994396D01*
X98114637Y-113914759D01*
X98271680Y-113679727D01*
X98379853Y-113418574D01*
X98435000Y-113141335D01*
X98435000Y-112858665D01*
X98379853Y-112581426D01*
X98271680Y-112320273D01*
X98114637Y-112085241D01*
X97914759Y-111885363D01*
X97679727Y-111728320D01*
X97418574Y-111620147D01*
X97141335Y-111565000D01*
X96858665Y-111565000D01*
X96581426Y-111620147D01*
X96320273Y-111728320D01*
X96085241Y-111885363D01*
X96005604Y-111965000D01*
X95050835Y-111965000D01*
X95000000Y-111959993D01*
X94949165Y-111965000D01*
X94949162Y-111965000D01*
X94797105Y-111979976D01*
X94647415Y-112025385D01*
X94602006Y-112039159D01*
X94422202Y-112135266D01*
X94304092Y-112232197D01*
X94264604Y-112264604D01*
X94232197Y-112304092D01*
X91871290Y-114665000D01*
X79128711Y-114665000D01*
X78035000Y-113571290D01*
X78035000Y-113349039D01*
X82908096Y-113349039D01*
X82948754Y-113483087D01*
X83068963Y-113737420D01*
X83236481Y-113963414D01*
X83444869Y-114152385D01*
X83686119Y-114297070D01*
X83950960Y-114391909D01*
X84173000Y-114270624D01*
X84173000Y-113127000D01*
X84427000Y-113127000D01*
X84427000Y-114270624D01*
X84649040Y-114391909D01*
X84913881Y-114297070D01*
X85155131Y-114152385D01*
X85363519Y-113963414D01*
X85531037Y-113737420D01*
X85651246Y-113483087D01*
X85691904Y-113349039D01*
X85569915Y-113127000D01*
X84427000Y-113127000D01*
X84173000Y-113127000D01*
X83030085Y-113127000D01*
X82908096Y-113349039D01*
X78035000Y-113349039D01*
X78035000Y-112650961D01*
X82908096Y-112650961D01*
X83030085Y-112873000D01*
X84173000Y-112873000D01*
X84173000Y-111729376D01*
X84427000Y-111729376D01*
X84427000Y-112873000D01*
X85569915Y-112873000D01*
X85691904Y-112650961D01*
X85651246Y-112516913D01*
X85531037Y-112262580D01*
X85363519Y-112036586D01*
X85155131Y-111847615D01*
X84913881Y-111702930D01*
X84649040Y-111608091D01*
X84427000Y-111729376D01*
X84173000Y-111729376D01*
X83950960Y-111608091D01*
X83686119Y-111702930D01*
X83444869Y-111847615D01*
X83236481Y-112036586D01*
X83068963Y-112262580D01*
X82948754Y-112516913D01*
X82908096Y-112650961D01*
X78035000Y-112650961D01*
X78035000Y-110028080D01*
X78040007Y-109977245D01*
X78035000Y-109926407D01*
X78020024Y-109774350D01*
X77960841Y-109579252D01*
X77876897Y-109422203D01*
X77864734Y-109399447D01*
X77767803Y-109281337D01*
X77735396Y-109241849D01*
X77695908Y-109209442D01*
X76938072Y-108451606D01*
X76938072Y-108349039D01*
X82908096Y-108349039D01*
X82948754Y-108483087D01*
X83068963Y-108737420D01*
X83236481Y-108963414D01*
X83444869Y-109152385D01*
X83686119Y-109297070D01*
X83950960Y-109391909D01*
X84173000Y-109270624D01*
X84173000Y-108127000D01*
X84427000Y-108127000D01*
X84427000Y-109270624D01*
X84649040Y-109391909D01*
X84913881Y-109297070D01*
X85155131Y-109152385D01*
X85363519Y-108963414D01*
X85531037Y-108737420D01*
X85651246Y-108483087D01*
X85691904Y-108349039D01*
X85569915Y-108127000D01*
X84427000Y-108127000D01*
X84173000Y-108127000D01*
X83030085Y-108127000D01*
X82908096Y-108349039D01*
X76938072Y-108349039D01*
X76938072Y-107650961D01*
X82908096Y-107650961D01*
X83030085Y-107873000D01*
X84173000Y-107873000D01*
X84173000Y-106729376D01*
X84427000Y-106729376D01*
X84427000Y-107873000D01*
X85569915Y-107873000D01*
X85691904Y-107650961D01*
X85651246Y-107516913D01*
X85531037Y-107262580D01*
X85363519Y-107036586D01*
X85155131Y-106847615D01*
X84913881Y-106702930D01*
X84649040Y-106608091D01*
X84427000Y-106729376D01*
X84173000Y-106729376D01*
X83950960Y-106608091D01*
X83686119Y-106702930D01*
X83444869Y-106847615D01*
X83236481Y-107036586D01*
X83068963Y-107262580D01*
X82948754Y-107516913D01*
X82908096Y-107650961D01*
X76938072Y-107650961D01*
X76938072Y-107000000D01*
X76925812Y-106875518D01*
X76889502Y-106755820D01*
X76830537Y-106645506D01*
X76751185Y-106548815D01*
X76654494Y-106469463D01*
X76544180Y-106410498D01*
X76424482Y-106374188D01*
X76300000Y-106361928D01*
X73700000Y-106361928D01*
X73575518Y-106374188D01*
X73455820Y-106410498D01*
X73345506Y-106469463D01*
X73248815Y-106548815D01*
X73169463Y-106645506D01*
X73110498Y-106755820D01*
X73074188Y-106875518D01*
X73061928Y-107000000D01*
X73061928Y-109000000D01*
X73074188Y-109124482D01*
X73110498Y-109244180D01*
X73169463Y-109354494D01*
X73248815Y-109451185D01*
X73345506Y-109530537D01*
X73392655Y-109555739D01*
X73333969Y-109627248D01*
X73182148Y-109911285D01*
X73088657Y-110219484D01*
X73063731Y-110472558D01*
X73000000Y-110536289D01*
X72035000Y-109571290D01*
X72035000Y-103349039D01*
X82908096Y-103349039D01*
X82948754Y-103483087D01*
X83068963Y-103737420D01*
X83236481Y-103963414D01*
X83444869Y-104152385D01*
X83686119Y-104297070D01*
X83950960Y-104391909D01*
X84173000Y-104270624D01*
X84173000Y-103127000D01*
X84427000Y-103127000D01*
X84427000Y-104270624D01*
X84649040Y-104391909D01*
X84913881Y-104297070D01*
X85155131Y-104152385D01*
X85363519Y-103963414D01*
X85531037Y-103737420D01*
X85651246Y-103483087D01*
X85691904Y-103349039D01*
X85569915Y-103127000D01*
X84427000Y-103127000D01*
X84173000Y-103127000D01*
X83030085Y-103127000D01*
X82908096Y-103349039D01*
X72035000Y-103349039D01*
X72035000Y-102650961D01*
X82908096Y-102650961D01*
X83030085Y-102873000D01*
X84173000Y-102873000D01*
X84173000Y-101729376D01*
X84427000Y-101729376D01*
X84427000Y-102873000D01*
X85569915Y-102873000D01*
X85691904Y-102650961D01*
X85651246Y-102516913D01*
X85531037Y-102262580D01*
X85363519Y-102036586D01*
X85155131Y-101847615D01*
X84913881Y-101702930D01*
X84649040Y-101608091D01*
X84427000Y-101729376D01*
X84173000Y-101729376D01*
X83950960Y-101608091D01*
X83686119Y-101702930D01*
X83444869Y-101847615D01*
X83236481Y-102036586D01*
X83068963Y-102262580D01*
X82948754Y-102516913D01*
X82908096Y-102650961D01*
X72035000Y-102650961D01*
X72035000Y-99878712D01*
X73119945Y-100963657D01*
X73182148Y-101168715D01*
X73333969Y-101452752D01*
X73538286Y-101701714D01*
X73787248Y-101906031D01*
X74071285Y-102057852D01*
X74379484Y-102151343D01*
X74619678Y-102175000D01*
X75380322Y-102175000D01*
X75620516Y-102151343D01*
X75928715Y-102057852D01*
X76212752Y-101906031D01*
X76461714Y-101701714D01*
X76666031Y-101452752D01*
X76817852Y-101168715D01*
X76911343Y-100860516D01*
X76942911Y-100540000D01*
X76911343Y-100219484D01*
X76817852Y-99911285D01*
X76666031Y-99627248D01*
X76607345Y-99555739D01*
X76654494Y-99530537D01*
X76751185Y-99451185D01*
X76830537Y-99354494D01*
X76889502Y-99244180D01*
X76925812Y-99124482D01*
X76934625Y-99035000D01*
X86963441Y-99035000D01*
X86979977Y-99202895D01*
X86979977Y-99202895D01*
G37*
X86979977Y-99202895D02*
X87039160Y-99397993D01*
X87135266Y-99577797D01*
X87232197Y-99695907D01*
X87264605Y-99735396D01*
X87304093Y-99767803D01*
X95565000Y-108028711D01*
X95565000Y-108141335D01*
X95620147Y-108418574D01*
X95728320Y-108679727D01*
X95885363Y-108914759D01*
X96085241Y-109114637D01*
X96320273Y-109271680D01*
X96581426Y-109379853D01*
X96858665Y-109435000D01*
X96971290Y-109435000D01*
X98965000Y-111428711D01*
X98965001Y-116509162D01*
X98959994Y-116560000D01*
X98963958Y-116600248D01*
X98035000Y-115671290D01*
X98035000Y-113994396D01*
X98114637Y-113914759D01*
X98271680Y-113679727D01*
X98379853Y-113418574D01*
X98435000Y-113141335D01*
X98435000Y-112858665D01*
X98379853Y-112581426D01*
X98271680Y-112320273D01*
X98114637Y-112085241D01*
X97914759Y-111885363D01*
X97679727Y-111728320D01*
X97418574Y-111620147D01*
X97141335Y-111565000D01*
X96858665Y-111565000D01*
X96581426Y-111620147D01*
X96320273Y-111728320D01*
X96085241Y-111885363D01*
X96005604Y-111965000D01*
X95050835Y-111965000D01*
X95000000Y-111959993D01*
X94949165Y-111965000D01*
X94949162Y-111965000D01*
X94797105Y-111979976D01*
X94647415Y-112025385D01*
X94602006Y-112039159D01*
X94422202Y-112135266D01*
X94304092Y-112232197D01*
X94264604Y-112264604D01*
X94232197Y-112304092D01*
X91871290Y-114665000D01*
X79128711Y-114665000D01*
X78035000Y-113571290D01*
X78035000Y-113349039D01*
X82908096Y-113349039D01*
X82948754Y-113483087D01*
X83068963Y-113737420D01*
X83236481Y-113963414D01*
X83444869Y-114152385D01*
X83686119Y-114297070D01*
X83950960Y-114391909D01*
X84173000Y-114270624D01*
X84173000Y-113127000D01*
X84427000Y-113127000D01*
X84427000Y-114270624D01*
X84649040Y-114391909D01*
X84913881Y-114297070D01*
X85155131Y-114152385D01*
X85363519Y-113963414D01*
X85531037Y-113737420D01*
X85651246Y-113483087D01*
X85691904Y-113349039D01*
X85569915Y-113127000D01*
X84427000Y-113127000D01*
X84173000Y-113127000D01*
X83030085Y-113127000D01*
X82908096Y-113349039D01*
X78035000Y-113349039D01*
X78035000Y-112650961D01*
X82908096Y-112650961D01*
X83030085Y-112873000D01*
X84173000Y-112873000D01*
X84173000Y-111729376D01*
X84427000Y-111729376D01*
X84427000Y-112873000D01*
X85569915Y-112873000D01*
X85691904Y-112650961D01*
X85651246Y-112516913D01*
X85531037Y-112262580D01*
X85363519Y-112036586D01*
X85155131Y-111847615D01*
X84913881Y-111702930D01*
X84649040Y-111608091D01*
X84427000Y-111729376D01*
X84173000Y-111729376D01*
X83950960Y-111608091D01*
X83686119Y-111702930D01*
X83444869Y-111847615D01*
X83236481Y-112036586D01*
X83068963Y-112262580D01*
X82948754Y-112516913D01*
X82908096Y-112650961D01*
X78035000Y-112650961D01*
X78035000Y-110028080D01*
X78040007Y-109977245D01*
X78035000Y-109926407D01*
X78020024Y-109774350D01*
X77960841Y-109579252D01*
X77876897Y-109422203D01*
X77864734Y-109399447D01*
X77767803Y-109281337D01*
X77735396Y-109241849D01*
X77695908Y-109209442D01*
X76938072Y-108451606D01*
X76938072Y-108349039D01*
X82908096Y-108349039D01*
X82948754Y-108483087D01*
X83068963Y-108737420D01*
X83236481Y-108963414D01*
X83444869Y-109152385D01*
X83686119Y-109297070D01*
X83950960Y-109391909D01*
X84173000Y-109270624D01*
X84173000Y-108127000D01*
X84427000Y-108127000D01*
X84427000Y-109270624D01*
X84649040Y-109391909D01*
X84913881Y-109297070D01*
X85155131Y-109152385D01*
X85363519Y-108963414D01*
X85531037Y-108737420D01*
X85651246Y-108483087D01*
X85691904Y-108349039D01*
X85569915Y-108127000D01*
X84427000Y-108127000D01*
X84173000Y-108127000D01*
X83030085Y-108127000D01*
X82908096Y-108349039D01*
X76938072Y-108349039D01*
X76938072Y-107650961D01*
X82908096Y-107650961D01*
X83030085Y-107873000D01*
X84173000Y-107873000D01*
X84173000Y-106729376D01*
X84427000Y-106729376D01*
X84427000Y-107873000D01*
X85569915Y-107873000D01*
X85691904Y-107650961D01*
X85651246Y-107516913D01*
X85531037Y-107262580D01*
X85363519Y-107036586D01*
X85155131Y-106847615D01*
X84913881Y-106702930D01*
X84649040Y-106608091D01*
X84427000Y-106729376D01*
X84173000Y-106729376D01*
X83950960Y-106608091D01*
X83686119Y-106702930D01*
X83444869Y-106847615D01*
X83236481Y-107036586D01*
X83068963Y-107262580D01*
X82948754Y-107516913D01*
X82908096Y-107650961D01*
X76938072Y-107650961D01*
X76938072Y-107000000D01*
X76925812Y-106875518D01*
X76889502Y-106755820D01*
X76830537Y-106645506D01*
X76751185Y-106548815D01*
X76654494Y-106469463D01*
X76544180Y-106410498D01*
X76424482Y-106374188D01*
X76300000Y-106361928D01*
X73700000Y-106361928D01*
X73575518Y-106374188D01*
X73455820Y-106410498D01*
X73345506Y-106469463D01*
X73248815Y-106548815D01*
X73169463Y-106645506D01*
X73110498Y-106755820D01*
X73074188Y-106875518D01*
X73061928Y-107000000D01*
X73061928Y-109000000D01*
X73074188Y-109124482D01*
X73110498Y-109244180D01*
X73169463Y-109354494D01*
X73248815Y-109451185D01*
X73345506Y-109530537D01*
X73392655Y-109555739D01*
X73333969Y-109627248D01*
X73182148Y-109911285D01*
X73088657Y-110219484D01*
X73063731Y-110472558D01*
X73000000Y-110536289D01*
X72035000Y-109571290D01*
X72035000Y-103349039D01*
X82908096Y-103349039D01*
X82948754Y-103483087D01*
X83068963Y-103737420D01*
X83236481Y-103963414D01*
X83444869Y-104152385D01*
X83686119Y-104297070D01*
X83950960Y-104391909D01*
X84173000Y-104270624D01*
X84173000Y-103127000D01*
X84427000Y-103127000D01*
X84427000Y-104270624D01*
X84649040Y-104391909D01*
X84913881Y-104297070D01*
X85155131Y-104152385D01*
X85363519Y-103963414D01*
X85531037Y-103737420D01*
X85651246Y-103483087D01*
X85691904Y-103349039D01*
X85569915Y-103127000D01*
X84427000Y-103127000D01*
X84173000Y-103127000D01*
X83030085Y-103127000D01*
X82908096Y-103349039D01*
X72035000Y-103349039D01*
X72035000Y-102650961D01*
X82908096Y-102650961D01*
X83030085Y-102873000D01*
X84173000Y-102873000D01*
X84173000Y-101729376D01*
X84427000Y-101729376D01*
X84427000Y-102873000D01*
X85569915Y-102873000D01*
X85691904Y-102650961D01*
X85651246Y-102516913D01*
X85531037Y-102262580D01*
X85363519Y-102036586D01*
X85155131Y-101847615D01*
X84913881Y-101702930D01*
X84649040Y-101608091D01*
X84427000Y-101729376D01*
X84173000Y-101729376D01*
X83950960Y-101608091D01*
X83686119Y-101702930D01*
X83444869Y-101847615D01*
X83236481Y-102036586D01*
X83068963Y-102262580D01*
X82948754Y-102516913D01*
X82908096Y-102650961D01*
X72035000Y-102650961D01*
X72035000Y-99878712D01*
X73119945Y-100963657D01*
X73182148Y-101168715D01*
X73333969Y-101452752D01*
X73538286Y-101701714D01*
X73787248Y-101906031D01*
X74071285Y-102057852D01*
X74379484Y-102151343D01*
X74619678Y-102175000D01*
X75380322Y-102175000D01*
X75620516Y-102151343D01*
X75928715Y-102057852D01*
X76212752Y-101906031D01*
X76461714Y-101701714D01*
X76666031Y-101452752D01*
X76817852Y-101168715D01*
X76911343Y-100860516D01*
X76942911Y-100540000D01*
X76911343Y-100219484D01*
X76817852Y-99911285D01*
X76666031Y-99627248D01*
X76607345Y-99555739D01*
X76654494Y-99530537D01*
X76751185Y-99451185D01*
X76830537Y-99354494D01*
X76889502Y-99244180D01*
X76925812Y-99124482D01*
X76934625Y-99035000D01*
X86963441Y-99035000D01*
X86979977Y-99202895D01*
M02*
