G04 #@! TF.GenerationSoftware,KiCad,Pcbnew,(5.1.2)-2*
G04 #@! TF.CreationDate,2019-07-31T12:25:26+05:30*
G04 #@! TF.ProjectId,DoorInterlock29_07_2019,446f6f72-496e-4746-9572-6c6f636b3239,rev?*
G04 #@! TF.SameCoordinates,Original*
G04 #@! TF.FileFunction,Legend,Top*
G04 #@! TF.FilePolarity,Positive*
%FSLAX46Y46*%
G04 Gerber Fmt 4.6, Leading zero omitted, Abs format (unit mm)*
G04 Created by KiCad (PCBNEW (5.1.2)-2) date 2019-07-31 12:25:26*
%MOMM*%
%LPD*%
G04 APERTURE LIST*
%ADD10C,0.120000*%
%ADD11C,0.150000*%
G04 APERTURE END LIST*
D10*
X136000000Y-47725000D02*
X136000000Y-48580000D01*
X136889000Y-46947333D02*
X135111000Y-46947333D01*
X136000000Y-46947333D02*
X136889000Y-48132667D01*
X136889000Y-48132667D02*
X135111000Y-48132667D01*
X135111000Y-48132667D02*
X136000000Y-46947333D01*
X138725000Y-50080000D02*
G75*
G03X138725000Y-50080000I-2725000J0D01*
G01*
X137000000Y-83145000D02*
X137000000Y-84000000D01*
X137889000Y-82367333D02*
X136111000Y-82367333D01*
X137000000Y-82367333D02*
X137889000Y-83552667D01*
X137889000Y-83552667D02*
X136111000Y-83552667D01*
X136111000Y-83552667D02*
X137000000Y-82367333D01*
X139725000Y-85500000D02*
G75*
G03X139725000Y-85500000I-2725000J0D01*
G01*
X137000000Y-118225000D02*
X137000000Y-119080000D01*
X137889000Y-117447333D02*
X136111000Y-117447333D01*
X137000000Y-117447333D02*
X137889000Y-118632667D01*
X137889000Y-118632667D02*
X136111000Y-118632667D01*
X136111000Y-118632667D02*
X137000000Y-117447333D01*
X139725000Y-120580000D02*
G75*
G03X139725000Y-120580000I-2725000J0D01*
G01*
X115740000Y-91999538D02*
G75*
G03X121290000Y-93544830I2990000J-462D01*
G01*
X115740000Y-92000462D02*
G75*
G02X121290000Y-90455170I2990000J462D01*
G01*
X121230000Y-92000000D02*
G75*
G03X121230000Y-92000000I-2500000J0D01*
G01*
X121290000Y-93545000D02*
X121290000Y-90455000D01*
X116280000Y-99999538D02*
G75*
G03X121830000Y-101544830I2990000J-462D01*
G01*
X116280000Y-100000462D02*
G75*
G02X121830000Y-98455170I2990000J462D01*
G01*
X121770000Y-100000000D02*
G75*
G03X121770000Y-100000000I-2500000J0D01*
G01*
X121830000Y-101545000D02*
X121830000Y-98455000D01*
X116740000Y-108999538D02*
G75*
G03X122290000Y-110544830I2990000J-462D01*
G01*
X116740000Y-109000462D02*
G75*
G02X122290000Y-107455170I2990000J462D01*
G01*
X122230000Y-109000000D02*
G75*
G03X122230000Y-109000000I-2500000J0D01*
G01*
X122290000Y-110545000D02*
X122290000Y-107455000D01*
X72460000Y-72620000D02*
X72460000Y-62460000D01*
X71190000Y-72620000D02*
X78810000Y-72620000D01*
X78810000Y-72620000D02*
X78810000Y-62460000D01*
X78810000Y-62460000D02*
X71190000Y-62460000D01*
X71190000Y-62460000D02*
X71190000Y-72620000D01*
X147540000Y-113380000D02*
X147540000Y-123540000D01*
X148810000Y-113380000D02*
X141190000Y-113380000D01*
X141190000Y-113380000D02*
X141190000Y-123540000D01*
X141190000Y-123540000D02*
X148810000Y-123540000D01*
X148810000Y-123540000D02*
X148810000Y-113380000D01*
X78020000Y-121630000D02*
X72020000Y-121630000D01*
X72020000Y-121630000D02*
X72020000Y-126910000D01*
X72020000Y-126910000D02*
X78020000Y-126910000D01*
X78020000Y-126910000D02*
X78020000Y-121630000D01*
X72020000Y-123000000D02*
X73020000Y-123000000D01*
X73020000Y-123000000D02*
X73020000Y-125540000D01*
X73020000Y-125540000D02*
X72020000Y-125540000D01*
X73020000Y-123000000D02*
X73450000Y-123250000D01*
X73450000Y-123250000D02*
X73450000Y-125290000D01*
X73450000Y-125290000D02*
X73020000Y-125540000D01*
X72020000Y-123250000D02*
X73020000Y-123250000D01*
X72020000Y-125290000D02*
X73020000Y-125290000D01*
X78020000Y-122200000D02*
X77400000Y-122200000D01*
X77400000Y-122200000D02*
X77400000Y-123800000D01*
X77400000Y-123800000D02*
X78020000Y-123800000D01*
X78020000Y-124740000D02*
X77400000Y-124740000D01*
X77400000Y-124740000D02*
X77400000Y-126340000D01*
X77400000Y-126340000D02*
X78020000Y-126340000D01*
X78020000Y-86630000D02*
X72020000Y-86630000D01*
X72020000Y-86630000D02*
X72020000Y-91910000D01*
X72020000Y-91910000D02*
X78020000Y-91910000D01*
X78020000Y-91910000D02*
X78020000Y-86630000D01*
X72020000Y-88000000D02*
X73020000Y-88000000D01*
X73020000Y-88000000D02*
X73020000Y-90540000D01*
X73020000Y-90540000D02*
X72020000Y-90540000D01*
X73020000Y-88000000D02*
X73450000Y-88250000D01*
X73450000Y-88250000D02*
X73450000Y-90290000D01*
X73450000Y-90290000D02*
X73020000Y-90540000D01*
X72020000Y-88250000D02*
X73020000Y-88250000D01*
X72020000Y-90290000D02*
X73020000Y-90290000D01*
X78020000Y-87200000D02*
X77400000Y-87200000D01*
X77400000Y-87200000D02*
X77400000Y-88800000D01*
X77400000Y-88800000D02*
X78020000Y-88800000D01*
X78020000Y-89740000D02*
X77400000Y-89740000D01*
X77400000Y-89740000D02*
X77400000Y-91340000D01*
X77400000Y-91340000D02*
X78020000Y-91340000D01*
X147540000Y-78380000D02*
X147540000Y-88540000D01*
X148810000Y-78380000D02*
X141190000Y-78380000D01*
X141190000Y-78380000D02*
X141190000Y-88540000D01*
X141190000Y-88540000D02*
X148810000Y-88540000D01*
X148810000Y-88540000D02*
X148810000Y-78380000D01*
X78020000Y-96630000D02*
X72020000Y-96630000D01*
X72020000Y-96630000D02*
X72020000Y-101910000D01*
X72020000Y-101910000D02*
X78020000Y-101910000D01*
X78020000Y-101910000D02*
X78020000Y-96630000D01*
X72020000Y-98000000D02*
X73020000Y-98000000D01*
X73020000Y-98000000D02*
X73020000Y-100540000D01*
X73020000Y-100540000D02*
X72020000Y-100540000D01*
X73020000Y-98000000D02*
X73450000Y-98250000D01*
X73450000Y-98250000D02*
X73450000Y-100290000D01*
X73450000Y-100290000D02*
X73020000Y-100540000D01*
X72020000Y-98250000D02*
X73020000Y-98250000D01*
X72020000Y-100290000D02*
X73020000Y-100290000D01*
X78020000Y-97200000D02*
X77400000Y-97200000D01*
X77400000Y-97200000D02*
X77400000Y-98800000D01*
X77400000Y-98800000D02*
X78020000Y-98800000D01*
X78020000Y-99740000D02*
X77400000Y-99740000D01*
X77400000Y-99740000D02*
X77400000Y-101340000D01*
X77400000Y-101340000D02*
X78020000Y-101340000D01*
X78020000Y-131630000D02*
X72020000Y-131630000D01*
X72020000Y-131630000D02*
X72020000Y-136910000D01*
X72020000Y-136910000D02*
X78020000Y-136910000D01*
X78020000Y-136910000D02*
X78020000Y-131630000D01*
X72020000Y-133000000D02*
X73020000Y-133000000D01*
X73020000Y-133000000D02*
X73020000Y-135540000D01*
X73020000Y-135540000D02*
X72020000Y-135540000D01*
X73020000Y-133000000D02*
X73450000Y-133250000D01*
X73450000Y-133250000D02*
X73450000Y-135290000D01*
X73450000Y-135290000D02*
X73020000Y-135540000D01*
X72020000Y-133250000D02*
X73020000Y-133250000D01*
X72020000Y-135290000D02*
X73020000Y-135290000D01*
X78020000Y-132200000D02*
X77400000Y-132200000D01*
X77400000Y-132200000D02*
X77400000Y-133800000D01*
X77400000Y-133800000D02*
X78020000Y-133800000D01*
X78020000Y-134740000D02*
X77400000Y-134740000D01*
X77400000Y-134740000D02*
X77400000Y-136340000D01*
X77400000Y-136340000D02*
X78020000Y-136340000D01*
X78020000Y-141630000D02*
X72020000Y-141630000D01*
X72020000Y-141630000D02*
X72020000Y-146910000D01*
X72020000Y-146910000D02*
X78020000Y-146910000D01*
X78020000Y-146910000D02*
X78020000Y-141630000D01*
X72020000Y-143000000D02*
X73020000Y-143000000D01*
X73020000Y-143000000D02*
X73020000Y-145540000D01*
X73020000Y-145540000D02*
X72020000Y-145540000D01*
X73020000Y-143000000D02*
X73450000Y-143250000D01*
X73450000Y-143250000D02*
X73450000Y-145290000D01*
X73450000Y-145290000D02*
X73020000Y-145540000D01*
X72020000Y-143250000D02*
X73020000Y-143250000D01*
X72020000Y-145290000D02*
X73020000Y-145290000D01*
X78020000Y-142200000D02*
X77400000Y-142200000D01*
X77400000Y-142200000D02*
X77400000Y-143800000D01*
X77400000Y-143800000D02*
X78020000Y-143800000D01*
X78020000Y-144740000D02*
X77400000Y-144740000D01*
X77400000Y-144740000D02*
X77400000Y-146340000D01*
X77400000Y-146340000D02*
X78020000Y-146340000D01*
X78020000Y-106630000D02*
X72020000Y-106630000D01*
X72020000Y-106630000D02*
X72020000Y-111910000D01*
X72020000Y-111910000D02*
X78020000Y-111910000D01*
X78020000Y-111910000D02*
X78020000Y-106630000D01*
X72020000Y-108000000D02*
X73020000Y-108000000D01*
X73020000Y-108000000D02*
X73020000Y-110540000D01*
X73020000Y-110540000D02*
X72020000Y-110540000D01*
X73020000Y-108000000D02*
X73450000Y-108250000D01*
X73450000Y-108250000D02*
X73450000Y-110290000D01*
X73450000Y-110290000D02*
X73020000Y-110540000D01*
X72020000Y-108250000D02*
X73020000Y-108250000D01*
X72020000Y-110290000D02*
X73020000Y-110290000D01*
X78020000Y-107200000D02*
X77400000Y-107200000D01*
X77400000Y-107200000D02*
X77400000Y-108800000D01*
X77400000Y-108800000D02*
X78020000Y-108800000D01*
X78020000Y-109740000D02*
X77400000Y-109740000D01*
X77400000Y-109740000D02*
X77400000Y-111340000D01*
X77400000Y-111340000D02*
X78020000Y-111340000D01*
X138620000Y-130920000D02*
X138620000Y-141160000D01*
X133979000Y-130920000D02*
X133979000Y-141160000D01*
X138620000Y-130920000D02*
X133979000Y-130920000D01*
X138620000Y-141160000D02*
X133979000Y-141160000D01*
X137110000Y-130920000D02*
X137110000Y-141160000D01*
X138620000Y-134190000D02*
X137110000Y-134190000D01*
X138620000Y-137891000D02*
X137110000Y-137891000D01*
X111710000Y-94160000D02*
X111710000Y-90840000D01*
X111710000Y-90840000D02*
X102590000Y-90840000D01*
X102590000Y-90840000D02*
X102590000Y-94160000D01*
X102590000Y-94160000D02*
X111710000Y-94160000D01*
X112520000Y-92500000D02*
X111710000Y-92500000D01*
X101780000Y-92500000D02*
X102590000Y-92500000D01*
X111710000Y-89910000D02*
X111710000Y-86590000D01*
X111710000Y-86590000D02*
X102590000Y-86590000D01*
X102590000Y-86590000D02*
X102590000Y-89910000D01*
X102590000Y-89910000D02*
X111710000Y-89910000D01*
X112520000Y-88250000D02*
X111710000Y-88250000D01*
X101780000Y-88250000D02*
X102590000Y-88250000D01*
X111710000Y-85910000D02*
X111710000Y-82590000D01*
X111710000Y-82590000D02*
X102590000Y-82590000D01*
X102590000Y-82590000D02*
X102590000Y-85910000D01*
X102590000Y-85910000D02*
X111710000Y-85910000D01*
X112520000Y-84250000D02*
X111710000Y-84250000D01*
X101780000Y-84250000D02*
X102590000Y-84250000D01*
X102540000Y-95090000D02*
X102540000Y-98410000D01*
X102540000Y-98410000D02*
X111660000Y-98410000D01*
X111660000Y-98410000D02*
X111660000Y-95090000D01*
X111660000Y-95090000D02*
X102540000Y-95090000D01*
X101730000Y-96750000D02*
X102540000Y-96750000D01*
X112470000Y-96750000D02*
X111660000Y-96750000D01*
X115340000Y-141210000D02*
X118660000Y-141210000D01*
X118660000Y-141210000D02*
X118660000Y-132090000D01*
X118660000Y-132090000D02*
X115340000Y-132090000D01*
X115340000Y-132090000D02*
X115340000Y-141210000D01*
X117000000Y-142020000D02*
X117000000Y-141210000D01*
X117000000Y-131280000D02*
X117000000Y-132090000D01*
X95210000Y-135660000D02*
X95210000Y-132340000D01*
X95210000Y-132340000D02*
X86090000Y-132340000D01*
X86090000Y-132340000D02*
X86090000Y-135660000D01*
X86090000Y-135660000D02*
X95210000Y-135660000D01*
X96020000Y-134000000D02*
X95210000Y-134000000D01*
X85280000Y-134000000D02*
X86090000Y-134000000D01*
X95210000Y-104660000D02*
X95210000Y-101340000D01*
X95210000Y-101340000D02*
X86090000Y-101340000D01*
X86090000Y-101340000D02*
X86090000Y-104660000D01*
X86090000Y-104660000D02*
X95210000Y-104660000D01*
X96020000Y-103000000D02*
X95210000Y-103000000D01*
X85280000Y-103000000D02*
X86090000Y-103000000D01*
X120340000Y-134210000D02*
X123660000Y-134210000D01*
X123660000Y-134210000D02*
X123660000Y-125090000D01*
X123660000Y-125090000D02*
X120340000Y-125090000D01*
X120340000Y-125090000D02*
X120340000Y-134210000D01*
X122000000Y-135020000D02*
X122000000Y-134210000D01*
X122000000Y-124280000D02*
X122000000Y-125090000D01*
X95210000Y-109660000D02*
X95210000Y-106340000D01*
X95210000Y-106340000D02*
X86090000Y-106340000D01*
X86090000Y-106340000D02*
X86090000Y-109660000D01*
X86090000Y-109660000D02*
X95210000Y-109660000D01*
X96020000Y-108000000D02*
X95210000Y-108000000D01*
X85280000Y-108000000D02*
X86090000Y-108000000D01*
X95210000Y-140660000D02*
X95210000Y-137340000D01*
X95210000Y-137340000D02*
X86090000Y-137340000D01*
X86090000Y-137340000D02*
X86090000Y-140660000D01*
X86090000Y-140660000D02*
X95210000Y-140660000D01*
X96020000Y-139000000D02*
X95210000Y-139000000D01*
X85280000Y-139000000D02*
X86090000Y-139000000D01*
X125340000Y-127210000D02*
X128660000Y-127210000D01*
X128660000Y-127210000D02*
X128660000Y-118090000D01*
X128660000Y-118090000D02*
X125340000Y-118090000D01*
X125340000Y-118090000D02*
X125340000Y-127210000D01*
X127000000Y-128020000D02*
X127000000Y-127210000D01*
X127000000Y-117280000D02*
X127000000Y-118090000D01*
X95210000Y-145660000D02*
X95210000Y-142340000D01*
X95210000Y-142340000D02*
X86090000Y-142340000D01*
X86090000Y-142340000D02*
X86090000Y-145660000D01*
X86090000Y-145660000D02*
X95210000Y-145660000D01*
X96020000Y-144000000D02*
X95210000Y-144000000D01*
X85280000Y-144000000D02*
X86090000Y-144000000D01*
X95210000Y-114660000D02*
X95210000Y-111340000D01*
X95210000Y-111340000D02*
X86090000Y-111340000D01*
X86090000Y-111340000D02*
X86090000Y-114660000D01*
X86090000Y-114660000D02*
X95210000Y-114660000D01*
X96020000Y-113000000D02*
X95210000Y-113000000D01*
X85280000Y-113000000D02*
X86090000Y-113000000D01*
X105250000Y-107000000D02*
X109750000Y-107000000D01*
X104000000Y-103000000D02*
X104000000Y-104500000D01*
X109750000Y-100500000D02*
X105250000Y-100500000D01*
X111000000Y-104500000D02*
X111000000Y-103000000D01*
X88475000Y-126400000D02*
X88475000Y-120000000D01*
X93525000Y-126400000D02*
X93525000Y-120000000D01*
X93525000Y-126400000D02*
G75*
G02X88475000Y-126400000I-2525000J0D01*
G01*
X93525000Y-120000000D02*
G75*
G03X88475000Y-120000000I-2525000J0D01*
G01*
X138620000Y-95920000D02*
X138620000Y-106160000D01*
X133979000Y-95920000D02*
X133979000Y-106160000D01*
X138620000Y-95920000D02*
X133979000Y-95920000D01*
X138620000Y-106160000D02*
X133979000Y-106160000D01*
X137110000Y-95920000D02*
X137110000Y-106160000D01*
X138620000Y-99190000D02*
X137110000Y-99190000D01*
X138620000Y-102891000D02*
X137110000Y-102891000D01*
X137620000Y-60920000D02*
X137620000Y-71160000D01*
X132979000Y-60920000D02*
X132979000Y-71160000D01*
X137620000Y-60920000D02*
X132979000Y-60920000D01*
X137620000Y-71160000D02*
X132979000Y-71160000D01*
X136110000Y-60920000D02*
X136110000Y-71160000D01*
X137620000Y-64190000D02*
X136110000Y-64190000D01*
X137620000Y-67891000D02*
X136110000Y-67891000D01*
X108810000Y-108670000D02*
G75*
G02X106810000Y-108670000I-1000000J0D01*
G01*
X106810000Y-108670000D02*
X105560000Y-108670000D01*
X105560000Y-108670000D02*
X105560000Y-144350000D01*
X105560000Y-144350000D02*
X110060000Y-144350000D01*
X110060000Y-144350000D02*
X110060000Y-108670000D01*
X110060000Y-108670000D02*
X108810000Y-108670000D01*
X102560000Y-108610000D02*
X102560000Y-144410000D01*
X102560000Y-144410000D02*
X113060000Y-144410000D01*
X113060000Y-144410000D02*
X113060000Y-108610000D01*
X113060000Y-108610000D02*
X102560000Y-108610000D01*
X82790000Y-119390000D02*
X86710000Y-119390000D01*
X82790000Y-122110000D02*
X86710000Y-122110000D01*
X82790000Y-119390000D02*
X82790000Y-120000000D01*
X82790000Y-121500000D02*
X82790000Y-122110000D01*
X86710000Y-119390000D02*
X86710000Y-120000000D01*
X86710000Y-121500000D02*
X86710000Y-122110000D01*
X86710000Y-127110000D02*
X82790000Y-127110000D01*
X86710000Y-124390000D02*
X82790000Y-124390000D01*
X86710000Y-127110000D02*
X86710000Y-126500000D01*
X86710000Y-125000000D02*
X86710000Y-124390000D01*
X82790000Y-127110000D02*
X82790000Y-126500000D01*
X82790000Y-125000000D02*
X82790000Y-124390000D01*
X142202272Y-100910000D02*
G75*
G03X142202272Y-100910000I-2202272J0D01*
G01*
X133550000Y-110690000D02*
X133550000Y-91310000D01*
X133550000Y-91290000D02*
X135100000Y-91290000D01*
X135100000Y-91310000D02*
X137500000Y-89560000D01*
X137500000Y-89560000D02*
X138450000Y-90810000D01*
X138450000Y-90810000D02*
X137750000Y-91310000D01*
X137750000Y-91310000D02*
X139850000Y-91310000D01*
X139850000Y-91310000D02*
X142350000Y-89510000D01*
X142400000Y-89460000D02*
X143350000Y-90760000D01*
X143350000Y-90760000D02*
X142600000Y-91310000D01*
X142600000Y-91310000D02*
X144550000Y-91310000D01*
X144550000Y-91310000D02*
X147000000Y-89510000D01*
X147000000Y-89510000D02*
X148000000Y-90760000D01*
X148000000Y-90760000D02*
X147300000Y-91310000D01*
X147300000Y-91310000D02*
X149300000Y-91310000D01*
X149300000Y-91310000D02*
X151750000Y-89510000D01*
X151750000Y-89510000D02*
X152750000Y-90810000D01*
X152750000Y-90810000D02*
X152100000Y-91290000D01*
X152100000Y-91290000D02*
X152700000Y-91290000D01*
X152700000Y-91290000D02*
X152700000Y-110710000D01*
X152700000Y-110710000D02*
X151900000Y-110710000D01*
X151900000Y-110710000D02*
X152550000Y-111260000D01*
X152550000Y-111260000D02*
X151400000Y-112510000D01*
X151400000Y-112510000D02*
X149320000Y-110710000D01*
X149320000Y-110710000D02*
X147150000Y-110710000D01*
X147140000Y-110710000D02*
X147800000Y-111260000D01*
X147800000Y-111260000D02*
X146700000Y-112510000D01*
X146700000Y-112510000D02*
X144550000Y-110710000D01*
X144540000Y-110710000D02*
X142390000Y-110710000D01*
X142390000Y-110710000D02*
X143150000Y-111360000D01*
X143150000Y-111360000D02*
X142000000Y-112510000D01*
X142000000Y-112510000D02*
X139820000Y-110710000D01*
X139810000Y-110710000D02*
X137650000Y-110710000D01*
X137640000Y-110710000D02*
X138300000Y-111260000D01*
X138300000Y-111260000D02*
X137200000Y-112510000D01*
X137200000Y-112510000D02*
X135090000Y-110700000D01*
X135060000Y-110710000D02*
X133550000Y-110710000D01*
X142202272Y-135910000D02*
G75*
G03X142202272Y-135910000I-2202272J0D01*
G01*
X133550000Y-145690000D02*
X133550000Y-126310000D01*
X133550000Y-126290000D02*
X135100000Y-126290000D01*
X135100000Y-126310000D02*
X137500000Y-124560000D01*
X137500000Y-124560000D02*
X138450000Y-125810000D01*
X138450000Y-125810000D02*
X137750000Y-126310000D01*
X137750000Y-126310000D02*
X139850000Y-126310000D01*
X139850000Y-126310000D02*
X142350000Y-124510000D01*
X142400000Y-124460000D02*
X143350000Y-125760000D01*
X143350000Y-125760000D02*
X142600000Y-126310000D01*
X142600000Y-126310000D02*
X144550000Y-126310000D01*
X144550000Y-126310000D02*
X147000000Y-124510000D01*
X147000000Y-124510000D02*
X148000000Y-125760000D01*
X148000000Y-125760000D02*
X147300000Y-126310000D01*
X147300000Y-126310000D02*
X149300000Y-126310000D01*
X149300000Y-126310000D02*
X151750000Y-124510000D01*
X151750000Y-124510000D02*
X152750000Y-125810000D01*
X152750000Y-125810000D02*
X152100000Y-126290000D01*
X152100000Y-126290000D02*
X152700000Y-126290000D01*
X152700000Y-126290000D02*
X152700000Y-145710000D01*
X152700000Y-145710000D02*
X151900000Y-145710000D01*
X151900000Y-145710000D02*
X152550000Y-146260000D01*
X152550000Y-146260000D02*
X151400000Y-147510000D01*
X151400000Y-147510000D02*
X149320000Y-145710000D01*
X149320000Y-145710000D02*
X147150000Y-145710000D01*
X147140000Y-145710000D02*
X147800000Y-146260000D01*
X147800000Y-146260000D02*
X146700000Y-147510000D01*
X146700000Y-147510000D02*
X144550000Y-145710000D01*
X144540000Y-145710000D02*
X142390000Y-145710000D01*
X142390000Y-145710000D02*
X143150000Y-146360000D01*
X143150000Y-146360000D02*
X142000000Y-147510000D01*
X142000000Y-147510000D02*
X139820000Y-145710000D01*
X139810000Y-145710000D02*
X137650000Y-145710000D01*
X137640000Y-145710000D02*
X138300000Y-146260000D01*
X138300000Y-146260000D02*
X137200000Y-147510000D01*
X137200000Y-147510000D02*
X135090000Y-145700000D01*
X135060000Y-145710000D02*
X133550000Y-145710000D01*
X141202272Y-65910000D02*
G75*
G03X141202272Y-65910000I-2202272J0D01*
G01*
X132550000Y-75690000D02*
X132550000Y-56310000D01*
X132550000Y-56290000D02*
X134100000Y-56290000D01*
X134100000Y-56310000D02*
X136500000Y-54560000D01*
X136500000Y-54560000D02*
X137450000Y-55810000D01*
X137450000Y-55810000D02*
X136750000Y-56310000D01*
X136750000Y-56310000D02*
X138850000Y-56310000D01*
X138850000Y-56310000D02*
X141350000Y-54510000D01*
X141400000Y-54460000D02*
X142350000Y-55760000D01*
X142350000Y-55760000D02*
X141600000Y-56310000D01*
X141600000Y-56310000D02*
X143550000Y-56310000D01*
X143550000Y-56310000D02*
X146000000Y-54510000D01*
X146000000Y-54510000D02*
X147000000Y-55760000D01*
X147000000Y-55760000D02*
X146300000Y-56310000D01*
X146300000Y-56310000D02*
X148300000Y-56310000D01*
X148300000Y-56310000D02*
X150750000Y-54510000D01*
X150750000Y-54510000D02*
X151750000Y-55810000D01*
X151750000Y-55810000D02*
X151100000Y-56290000D01*
X151100000Y-56290000D02*
X151700000Y-56290000D01*
X151700000Y-56290000D02*
X151700000Y-75710000D01*
X151700000Y-75710000D02*
X150900000Y-75710000D01*
X150900000Y-75710000D02*
X151550000Y-76260000D01*
X151550000Y-76260000D02*
X150400000Y-77510000D01*
X150400000Y-77510000D02*
X148320000Y-75710000D01*
X148320000Y-75710000D02*
X146150000Y-75710000D01*
X146140000Y-75710000D02*
X146800000Y-76260000D01*
X146800000Y-76260000D02*
X145700000Y-77510000D01*
X145700000Y-77510000D02*
X143550000Y-75710000D01*
X143540000Y-75710000D02*
X141390000Y-75710000D01*
X141390000Y-75710000D02*
X142150000Y-76360000D01*
X142150000Y-76360000D02*
X141000000Y-77510000D01*
X141000000Y-77510000D02*
X138820000Y-75710000D01*
X138810000Y-75710000D02*
X136650000Y-75710000D01*
X136640000Y-75710000D02*
X137300000Y-76260000D01*
X137300000Y-76260000D02*
X136200000Y-77510000D01*
X136200000Y-77510000D02*
X134090000Y-75700000D01*
X134060000Y-75710000D02*
X132550000Y-75710000D01*
X146540000Y-43380000D02*
X146540000Y-53540000D01*
X147810000Y-43380000D02*
X140190000Y-43380000D01*
X140190000Y-43380000D02*
X140190000Y-53540000D01*
X140190000Y-53540000D02*
X147810000Y-53540000D01*
X147810000Y-53540000D02*
X147810000Y-43380000D01*
D11*
X84000000Y-81000000D02*
X84000000Y-58000000D01*
X129000000Y-81000000D02*
X84000000Y-81000000D01*
X129000000Y-58000000D02*
X129000000Y-81000000D01*
X84000000Y-58000000D02*
X129000000Y-58000000D01*
X140177380Y-48278095D02*
X139177380Y-48278095D01*
X139177380Y-48040000D01*
X139225000Y-47897142D01*
X139320238Y-47801904D01*
X139415476Y-47754285D01*
X139605952Y-47706666D01*
X139748809Y-47706666D01*
X139939285Y-47754285D01*
X140034523Y-47801904D01*
X140129761Y-47897142D01*
X140177380Y-48040000D01*
X140177380Y-48278095D01*
X139177380Y-46849523D02*
X139177380Y-47040000D01*
X139225000Y-47135238D01*
X139272619Y-47182857D01*
X139415476Y-47278095D01*
X139605952Y-47325714D01*
X139986904Y-47325714D01*
X140082142Y-47278095D01*
X140129761Y-47230476D01*
X140177380Y-47135238D01*
X140177380Y-46944761D01*
X140129761Y-46849523D01*
X140082142Y-46801904D01*
X139986904Y-46754285D01*
X139748809Y-46754285D01*
X139653571Y-46801904D01*
X139605952Y-46849523D01*
X139558333Y-46944761D01*
X139558333Y-47135238D01*
X139605952Y-47230476D01*
X139653571Y-47278095D01*
X139748809Y-47325714D01*
X141177380Y-83698095D02*
X140177380Y-83698095D01*
X140177380Y-83460000D01*
X140225000Y-83317142D01*
X140320238Y-83221904D01*
X140415476Y-83174285D01*
X140605952Y-83126666D01*
X140748809Y-83126666D01*
X140939285Y-83174285D01*
X141034523Y-83221904D01*
X141129761Y-83317142D01*
X141177380Y-83460000D01*
X141177380Y-83698095D01*
X140177380Y-82221904D02*
X140177380Y-82698095D01*
X140653571Y-82745714D01*
X140605952Y-82698095D01*
X140558333Y-82602857D01*
X140558333Y-82364761D01*
X140605952Y-82269523D01*
X140653571Y-82221904D01*
X140748809Y-82174285D01*
X140986904Y-82174285D01*
X141082142Y-82221904D01*
X141129761Y-82269523D01*
X141177380Y-82364761D01*
X141177380Y-82602857D01*
X141129761Y-82698095D01*
X141082142Y-82745714D01*
X141177380Y-118778095D02*
X140177380Y-118778095D01*
X140177380Y-118540000D01*
X140225000Y-118397142D01*
X140320238Y-118301904D01*
X140415476Y-118254285D01*
X140605952Y-118206666D01*
X140748809Y-118206666D01*
X140939285Y-118254285D01*
X141034523Y-118301904D01*
X141129761Y-118397142D01*
X141177380Y-118540000D01*
X141177380Y-118778095D01*
X140510714Y-117349523D02*
X141177380Y-117349523D01*
X140129761Y-117587619D02*
X140844047Y-117825714D01*
X140844047Y-117206666D01*
X64238095Y-30152380D02*
X64238095Y-29152380D01*
X64238095Y-29628571D02*
X64809523Y-29628571D01*
X64809523Y-30152380D02*
X64809523Y-29152380D01*
X65809523Y-30152380D02*
X65238095Y-30152380D01*
X65523809Y-30152380D02*
X65523809Y-29152380D01*
X65428571Y-29295238D01*
X65333333Y-29390476D01*
X65238095Y-29438095D01*
X117991904Y-96412380D02*
X117991904Y-95412380D01*
X118230000Y-95412380D01*
X118372857Y-95460000D01*
X118468095Y-95555238D01*
X118515714Y-95650476D01*
X118563333Y-95840952D01*
X118563333Y-95983809D01*
X118515714Y-96174285D01*
X118468095Y-96269523D01*
X118372857Y-96364761D01*
X118230000Y-96412380D01*
X117991904Y-96412380D01*
X119515714Y-96412380D02*
X118944285Y-96412380D01*
X119230000Y-96412380D02*
X119230000Y-95412380D01*
X119134761Y-95555238D01*
X119039523Y-95650476D01*
X118944285Y-95698095D01*
X118531904Y-104412380D02*
X118531904Y-103412380D01*
X118770000Y-103412380D01*
X118912857Y-103460000D01*
X119008095Y-103555238D01*
X119055714Y-103650476D01*
X119103333Y-103840952D01*
X119103333Y-103983809D01*
X119055714Y-104174285D01*
X119008095Y-104269523D01*
X118912857Y-104364761D01*
X118770000Y-104412380D01*
X118531904Y-104412380D01*
X119484285Y-103507619D02*
X119531904Y-103460000D01*
X119627142Y-103412380D01*
X119865238Y-103412380D01*
X119960476Y-103460000D01*
X120008095Y-103507619D01*
X120055714Y-103602857D01*
X120055714Y-103698095D01*
X120008095Y-103840952D01*
X119436666Y-104412380D01*
X120055714Y-104412380D01*
X118991904Y-113412380D02*
X118991904Y-112412380D01*
X119230000Y-112412380D01*
X119372857Y-112460000D01*
X119468095Y-112555238D01*
X119515714Y-112650476D01*
X119563333Y-112840952D01*
X119563333Y-112983809D01*
X119515714Y-113174285D01*
X119468095Y-113269523D01*
X119372857Y-113364761D01*
X119230000Y-113412380D01*
X118991904Y-113412380D01*
X119896666Y-112412380D02*
X120515714Y-112412380D01*
X120182380Y-112793333D01*
X120325238Y-112793333D01*
X120420476Y-112840952D01*
X120468095Y-112888571D01*
X120515714Y-112983809D01*
X120515714Y-113221904D01*
X120468095Y-113317142D01*
X120420476Y-113364761D01*
X120325238Y-113412380D01*
X120039523Y-113412380D01*
X119944285Y-113364761D01*
X119896666Y-113317142D01*
X79532380Y-67873333D02*
X80246666Y-67873333D01*
X80389523Y-67920952D01*
X80484761Y-68016190D01*
X80532380Y-68159047D01*
X80532380Y-68254285D01*
X80532380Y-66873333D02*
X80532380Y-67444761D01*
X80532380Y-67159047D02*
X79532380Y-67159047D01*
X79675238Y-67254285D01*
X79770476Y-67349523D01*
X79818095Y-67444761D01*
X139372380Y-118793333D02*
X140086666Y-118793333D01*
X140229523Y-118840952D01*
X140324761Y-118936190D01*
X140372380Y-119079047D01*
X140372380Y-119174285D01*
X139467619Y-118364761D02*
X139420000Y-118317142D01*
X139372380Y-118221904D01*
X139372380Y-117983809D01*
X139420000Y-117888571D01*
X139467619Y-117840952D01*
X139562857Y-117793333D01*
X139658095Y-117793333D01*
X139800952Y-117840952D01*
X140372380Y-118412380D01*
X140372380Y-117793333D01*
X78952380Y-124333333D02*
X79666666Y-124333333D01*
X79809523Y-124380952D01*
X79904761Y-124476190D01*
X79952380Y-124619047D01*
X79952380Y-124714285D01*
X78952380Y-123952380D02*
X78952380Y-123333333D01*
X79333333Y-123666666D01*
X79333333Y-123523809D01*
X79380952Y-123428571D01*
X79428571Y-123380952D01*
X79523809Y-123333333D01*
X79761904Y-123333333D01*
X79857142Y-123380952D01*
X79904761Y-123428571D01*
X79952380Y-123523809D01*
X79952380Y-123809523D01*
X79904761Y-123904761D01*
X79857142Y-123952380D01*
X78952380Y-89333333D02*
X79666666Y-89333333D01*
X79809523Y-89380952D01*
X79904761Y-89476190D01*
X79952380Y-89619047D01*
X79952380Y-89714285D01*
X79285714Y-88428571D02*
X79952380Y-88428571D01*
X78904761Y-88666666D02*
X79619047Y-88904761D01*
X79619047Y-88285714D01*
X139372380Y-83793333D02*
X140086666Y-83793333D01*
X140229523Y-83840952D01*
X140324761Y-83936190D01*
X140372380Y-84079047D01*
X140372380Y-84174285D01*
X139372380Y-82840952D02*
X139372380Y-83317142D01*
X139848571Y-83364761D01*
X139800952Y-83317142D01*
X139753333Y-83221904D01*
X139753333Y-82983809D01*
X139800952Y-82888571D01*
X139848571Y-82840952D01*
X139943809Y-82793333D01*
X140181904Y-82793333D01*
X140277142Y-82840952D01*
X140324761Y-82888571D01*
X140372380Y-82983809D01*
X140372380Y-83221904D01*
X140324761Y-83317142D01*
X140277142Y-83364761D01*
X78952380Y-99333333D02*
X79666666Y-99333333D01*
X79809523Y-99380952D01*
X79904761Y-99476190D01*
X79952380Y-99619047D01*
X79952380Y-99714285D01*
X78952380Y-98428571D02*
X78952380Y-98619047D01*
X79000000Y-98714285D01*
X79047619Y-98761904D01*
X79190476Y-98857142D01*
X79380952Y-98904761D01*
X79761904Y-98904761D01*
X79857142Y-98857142D01*
X79904761Y-98809523D01*
X79952380Y-98714285D01*
X79952380Y-98523809D01*
X79904761Y-98428571D01*
X79857142Y-98380952D01*
X79761904Y-98333333D01*
X79523809Y-98333333D01*
X79428571Y-98380952D01*
X79380952Y-98428571D01*
X79333333Y-98523809D01*
X79333333Y-98714285D01*
X79380952Y-98809523D01*
X79428571Y-98857142D01*
X79523809Y-98904761D01*
X78952380Y-134333333D02*
X79666666Y-134333333D01*
X79809523Y-134380952D01*
X79904761Y-134476190D01*
X79952380Y-134619047D01*
X79952380Y-134714285D01*
X78952380Y-133952380D02*
X78952380Y-133285714D01*
X79952380Y-133714285D01*
X78952380Y-144333333D02*
X79666666Y-144333333D01*
X79809523Y-144380952D01*
X79904761Y-144476190D01*
X79952380Y-144619047D01*
X79952380Y-144714285D01*
X79380952Y-143714285D02*
X79333333Y-143809523D01*
X79285714Y-143857142D01*
X79190476Y-143904761D01*
X79142857Y-143904761D01*
X79047619Y-143857142D01*
X79000000Y-143809523D01*
X78952380Y-143714285D01*
X78952380Y-143523809D01*
X79000000Y-143428571D01*
X79047619Y-143380952D01*
X79142857Y-143333333D01*
X79190476Y-143333333D01*
X79285714Y-143380952D01*
X79333333Y-143428571D01*
X79380952Y-143523809D01*
X79380952Y-143714285D01*
X79428571Y-143809523D01*
X79476190Y-143857142D01*
X79571428Y-143904761D01*
X79761904Y-143904761D01*
X79857142Y-143857142D01*
X79904761Y-143809523D01*
X79952380Y-143714285D01*
X79952380Y-143523809D01*
X79904761Y-143428571D01*
X79857142Y-143380952D01*
X79761904Y-143333333D01*
X79571428Y-143333333D01*
X79476190Y-143380952D01*
X79428571Y-143428571D01*
X79380952Y-143523809D01*
X78952380Y-109333333D02*
X79666666Y-109333333D01*
X79809523Y-109380952D01*
X79904761Y-109476190D01*
X79952380Y-109619047D01*
X79952380Y-109714285D01*
X79952380Y-108809523D02*
X79952380Y-108619047D01*
X79904761Y-108523809D01*
X79857142Y-108476190D01*
X79714285Y-108380952D01*
X79523809Y-108333333D01*
X79142857Y-108333333D01*
X79047619Y-108380952D01*
X79000000Y-108428571D01*
X78952380Y-108523809D01*
X78952380Y-108714285D01*
X79000000Y-108809523D01*
X79047619Y-108857142D01*
X79142857Y-108904761D01*
X79380952Y-108904761D01*
X79476190Y-108857142D01*
X79523809Y-108809523D01*
X79571428Y-108714285D01*
X79571428Y-108523809D01*
X79523809Y-108428571D01*
X79476190Y-108380952D01*
X79380952Y-108333333D01*
X140167619Y-136135238D02*
X140120000Y-136230476D01*
X140024761Y-136325714D01*
X139881904Y-136468571D01*
X139834285Y-136563809D01*
X139834285Y-136659047D01*
X140072380Y-136611428D02*
X140024761Y-136706666D01*
X139929523Y-136801904D01*
X139739047Y-136849523D01*
X139405714Y-136849523D01*
X139215238Y-136801904D01*
X139120000Y-136706666D01*
X139072380Y-136611428D01*
X139072380Y-136420952D01*
X139120000Y-136325714D01*
X139215238Y-136230476D01*
X139405714Y-136182857D01*
X139739047Y-136182857D01*
X139929523Y-136230476D01*
X140024761Y-136325714D01*
X140072380Y-136420952D01*
X140072380Y-136611428D01*
X140072380Y-135230476D02*
X140072380Y-135801904D01*
X140072380Y-135516190D02*
X139072380Y-135516190D01*
X139215238Y-135611428D01*
X139310476Y-135706666D01*
X139358095Y-135801904D01*
X106983333Y-95612380D02*
X106650000Y-95136190D01*
X106411904Y-95612380D02*
X106411904Y-94612380D01*
X106792857Y-94612380D01*
X106888095Y-94660000D01*
X106935714Y-94707619D01*
X106983333Y-94802857D01*
X106983333Y-94945714D01*
X106935714Y-95040952D01*
X106888095Y-95088571D01*
X106792857Y-95136190D01*
X106411904Y-95136190D01*
X107935714Y-95612380D02*
X107364285Y-95612380D01*
X107650000Y-95612380D02*
X107650000Y-94612380D01*
X107554761Y-94755238D01*
X107459523Y-94850476D01*
X107364285Y-94898095D01*
X106983333Y-91362380D02*
X106650000Y-90886190D01*
X106411904Y-91362380D02*
X106411904Y-90362380D01*
X106792857Y-90362380D01*
X106888095Y-90410000D01*
X106935714Y-90457619D01*
X106983333Y-90552857D01*
X106983333Y-90695714D01*
X106935714Y-90790952D01*
X106888095Y-90838571D01*
X106792857Y-90886190D01*
X106411904Y-90886190D01*
X107364285Y-90457619D02*
X107411904Y-90410000D01*
X107507142Y-90362380D01*
X107745238Y-90362380D01*
X107840476Y-90410000D01*
X107888095Y-90457619D01*
X107935714Y-90552857D01*
X107935714Y-90648095D01*
X107888095Y-90790952D01*
X107316666Y-91362380D01*
X107935714Y-91362380D01*
X106983333Y-87362380D02*
X106650000Y-86886190D01*
X106411904Y-87362380D02*
X106411904Y-86362380D01*
X106792857Y-86362380D01*
X106888095Y-86410000D01*
X106935714Y-86457619D01*
X106983333Y-86552857D01*
X106983333Y-86695714D01*
X106935714Y-86790952D01*
X106888095Y-86838571D01*
X106792857Y-86886190D01*
X106411904Y-86886190D01*
X107316666Y-86362380D02*
X107935714Y-86362380D01*
X107602380Y-86743333D01*
X107745238Y-86743333D01*
X107840476Y-86790952D01*
X107888095Y-86838571D01*
X107935714Y-86933809D01*
X107935714Y-87171904D01*
X107888095Y-87267142D01*
X107840476Y-87314761D01*
X107745238Y-87362380D01*
X107459523Y-87362380D01*
X107364285Y-87314761D01*
X107316666Y-87267142D01*
X106933333Y-94542380D02*
X106600000Y-94066190D01*
X106361904Y-94542380D02*
X106361904Y-93542380D01*
X106742857Y-93542380D01*
X106838095Y-93590000D01*
X106885714Y-93637619D01*
X106933333Y-93732857D01*
X106933333Y-93875714D01*
X106885714Y-93970952D01*
X106838095Y-94018571D01*
X106742857Y-94066190D01*
X106361904Y-94066190D01*
X107790476Y-93875714D02*
X107790476Y-94542380D01*
X107552380Y-93494761D02*
X107314285Y-94209047D01*
X107933333Y-94209047D01*
X114792380Y-136816666D02*
X114316190Y-137150000D01*
X114792380Y-137388095D02*
X113792380Y-137388095D01*
X113792380Y-137007142D01*
X113840000Y-136911904D01*
X113887619Y-136864285D01*
X113982857Y-136816666D01*
X114125714Y-136816666D01*
X114220952Y-136864285D01*
X114268571Y-136911904D01*
X114316190Y-137007142D01*
X114316190Y-137388095D01*
X113792380Y-135911904D02*
X113792380Y-136388095D01*
X114268571Y-136435714D01*
X114220952Y-136388095D01*
X114173333Y-136292857D01*
X114173333Y-136054761D01*
X114220952Y-135959523D01*
X114268571Y-135911904D01*
X114363809Y-135864285D01*
X114601904Y-135864285D01*
X114697142Y-135911904D01*
X114744761Y-135959523D01*
X114792380Y-136054761D01*
X114792380Y-136292857D01*
X114744761Y-136388095D01*
X114697142Y-136435714D01*
X90483333Y-137112380D02*
X90150000Y-136636190D01*
X89911904Y-137112380D02*
X89911904Y-136112380D01*
X90292857Y-136112380D01*
X90388095Y-136160000D01*
X90435714Y-136207619D01*
X90483333Y-136302857D01*
X90483333Y-136445714D01*
X90435714Y-136540952D01*
X90388095Y-136588571D01*
X90292857Y-136636190D01*
X89911904Y-136636190D01*
X91340476Y-136112380D02*
X91150000Y-136112380D01*
X91054761Y-136160000D01*
X91007142Y-136207619D01*
X90911904Y-136350476D01*
X90864285Y-136540952D01*
X90864285Y-136921904D01*
X90911904Y-137017142D01*
X90959523Y-137064761D01*
X91054761Y-137112380D01*
X91245238Y-137112380D01*
X91340476Y-137064761D01*
X91388095Y-137017142D01*
X91435714Y-136921904D01*
X91435714Y-136683809D01*
X91388095Y-136588571D01*
X91340476Y-136540952D01*
X91245238Y-136493333D01*
X91054761Y-136493333D01*
X90959523Y-136540952D01*
X90911904Y-136588571D01*
X90864285Y-136683809D01*
X90483333Y-106112380D02*
X90150000Y-105636190D01*
X89911904Y-106112380D02*
X89911904Y-105112380D01*
X90292857Y-105112380D01*
X90388095Y-105160000D01*
X90435714Y-105207619D01*
X90483333Y-105302857D01*
X90483333Y-105445714D01*
X90435714Y-105540952D01*
X90388095Y-105588571D01*
X90292857Y-105636190D01*
X89911904Y-105636190D01*
X90816666Y-105112380D02*
X91483333Y-105112380D01*
X91054761Y-106112380D01*
X119792380Y-129816666D02*
X119316190Y-130150000D01*
X119792380Y-130388095D02*
X118792380Y-130388095D01*
X118792380Y-130007142D01*
X118840000Y-129911904D01*
X118887619Y-129864285D01*
X118982857Y-129816666D01*
X119125714Y-129816666D01*
X119220952Y-129864285D01*
X119268571Y-129911904D01*
X119316190Y-130007142D01*
X119316190Y-130388095D01*
X119220952Y-129245238D02*
X119173333Y-129340476D01*
X119125714Y-129388095D01*
X119030476Y-129435714D01*
X118982857Y-129435714D01*
X118887619Y-129388095D01*
X118840000Y-129340476D01*
X118792380Y-129245238D01*
X118792380Y-129054761D01*
X118840000Y-128959523D01*
X118887619Y-128911904D01*
X118982857Y-128864285D01*
X119030476Y-128864285D01*
X119125714Y-128911904D01*
X119173333Y-128959523D01*
X119220952Y-129054761D01*
X119220952Y-129245238D01*
X119268571Y-129340476D01*
X119316190Y-129388095D01*
X119411428Y-129435714D01*
X119601904Y-129435714D01*
X119697142Y-129388095D01*
X119744761Y-129340476D01*
X119792380Y-129245238D01*
X119792380Y-129054761D01*
X119744761Y-128959523D01*
X119697142Y-128911904D01*
X119601904Y-128864285D01*
X119411428Y-128864285D01*
X119316190Y-128911904D01*
X119268571Y-128959523D01*
X119220952Y-129054761D01*
X90483333Y-111112380D02*
X90150000Y-110636190D01*
X89911904Y-111112380D02*
X89911904Y-110112380D01*
X90292857Y-110112380D01*
X90388095Y-110160000D01*
X90435714Y-110207619D01*
X90483333Y-110302857D01*
X90483333Y-110445714D01*
X90435714Y-110540952D01*
X90388095Y-110588571D01*
X90292857Y-110636190D01*
X89911904Y-110636190D01*
X90959523Y-111112380D02*
X91150000Y-111112380D01*
X91245238Y-111064761D01*
X91292857Y-111017142D01*
X91388095Y-110874285D01*
X91435714Y-110683809D01*
X91435714Y-110302857D01*
X91388095Y-110207619D01*
X91340476Y-110160000D01*
X91245238Y-110112380D01*
X91054761Y-110112380D01*
X90959523Y-110160000D01*
X90911904Y-110207619D01*
X90864285Y-110302857D01*
X90864285Y-110540952D01*
X90911904Y-110636190D01*
X90959523Y-110683809D01*
X91054761Y-110731428D01*
X91245238Y-110731428D01*
X91340476Y-110683809D01*
X91388095Y-110636190D01*
X91435714Y-110540952D01*
X90007142Y-142112380D02*
X89673809Y-141636190D01*
X89435714Y-142112380D02*
X89435714Y-141112380D01*
X89816666Y-141112380D01*
X89911904Y-141160000D01*
X89959523Y-141207619D01*
X90007142Y-141302857D01*
X90007142Y-141445714D01*
X89959523Y-141540952D01*
X89911904Y-141588571D01*
X89816666Y-141636190D01*
X89435714Y-141636190D01*
X90959523Y-142112380D02*
X90388095Y-142112380D01*
X90673809Y-142112380D02*
X90673809Y-141112380D01*
X90578571Y-141255238D01*
X90483333Y-141350476D01*
X90388095Y-141398095D01*
X91578571Y-141112380D02*
X91673809Y-141112380D01*
X91769047Y-141160000D01*
X91816666Y-141207619D01*
X91864285Y-141302857D01*
X91911904Y-141493333D01*
X91911904Y-141731428D01*
X91864285Y-141921904D01*
X91816666Y-142017142D01*
X91769047Y-142064761D01*
X91673809Y-142112380D01*
X91578571Y-142112380D01*
X91483333Y-142064761D01*
X91435714Y-142017142D01*
X91388095Y-141921904D01*
X91340476Y-141731428D01*
X91340476Y-141493333D01*
X91388095Y-141302857D01*
X91435714Y-141207619D01*
X91483333Y-141160000D01*
X91578571Y-141112380D01*
X124792380Y-123292857D02*
X124316190Y-123626190D01*
X124792380Y-123864285D02*
X123792380Y-123864285D01*
X123792380Y-123483333D01*
X123840000Y-123388095D01*
X123887619Y-123340476D01*
X123982857Y-123292857D01*
X124125714Y-123292857D01*
X124220952Y-123340476D01*
X124268571Y-123388095D01*
X124316190Y-123483333D01*
X124316190Y-123864285D01*
X124792380Y-122340476D02*
X124792380Y-122911904D01*
X124792380Y-122626190D02*
X123792380Y-122626190D01*
X123935238Y-122721428D01*
X124030476Y-122816666D01*
X124078095Y-122911904D01*
X124792380Y-121388095D02*
X124792380Y-121959523D01*
X124792380Y-121673809D02*
X123792380Y-121673809D01*
X123935238Y-121769047D01*
X124030476Y-121864285D01*
X124078095Y-121959523D01*
X90007142Y-147112380D02*
X89673809Y-146636190D01*
X89435714Y-147112380D02*
X89435714Y-146112380D01*
X89816666Y-146112380D01*
X89911904Y-146160000D01*
X89959523Y-146207619D01*
X90007142Y-146302857D01*
X90007142Y-146445714D01*
X89959523Y-146540952D01*
X89911904Y-146588571D01*
X89816666Y-146636190D01*
X89435714Y-146636190D01*
X90959523Y-147112380D02*
X90388095Y-147112380D01*
X90673809Y-147112380D02*
X90673809Y-146112380D01*
X90578571Y-146255238D01*
X90483333Y-146350476D01*
X90388095Y-146398095D01*
X91340476Y-146207619D02*
X91388095Y-146160000D01*
X91483333Y-146112380D01*
X91721428Y-146112380D01*
X91816666Y-146160000D01*
X91864285Y-146207619D01*
X91911904Y-146302857D01*
X91911904Y-146398095D01*
X91864285Y-146540952D01*
X91292857Y-147112380D01*
X91911904Y-147112380D01*
X90007142Y-116112380D02*
X89673809Y-115636190D01*
X89435714Y-116112380D02*
X89435714Y-115112380D01*
X89816666Y-115112380D01*
X89911904Y-115160000D01*
X89959523Y-115207619D01*
X90007142Y-115302857D01*
X90007142Y-115445714D01*
X89959523Y-115540952D01*
X89911904Y-115588571D01*
X89816666Y-115636190D01*
X89435714Y-115636190D01*
X90959523Y-116112380D02*
X90388095Y-116112380D01*
X90673809Y-116112380D02*
X90673809Y-115112380D01*
X90578571Y-115255238D01*
X90483333Y-115350476D01*
X90388095Y-115398095D01*
X91292857Y-115112380D02*
X91911904Y-115112380D01*
X91578571Y-115493333D01*
X91721428Y-115493333D01*
X91816666Y-115540952D01*
X91864285Y-115588571D01*
X91911904Y-115683809D01*
X91911904Y-115921904D01*
X91864285Y-116017142D01*
X91816666Y-116064761D01*
X91721428Y-116112380D01*
X91435714Y-116112380D01*
X91340476Y-116064761D01*
X91292857Y-116017142D01*
X106166666Y-99904761D02*
X106309523Y-99952380D01*
X106547619Y-99952380D01*
X106642857Y-99904761D01*
X106690476Y-99857142D01*
X106738095Y-99761904D01*
X106738095Y-99666666D01*
X106690476Y-99571428D01*
X106642857Y-99523809D01*
X106547619Y-99476190D01*
X106357142Y-99428571D01*
X106261904Y-99380952D01*
X106214285Y-99333333D01*
X106166666Y-99238095D01*
X106166666Y-99142857D01*
X106214285Y-99047619D01*
X106261904Y-99000000D01*
X106357142Y-98952380D01*
X106595238Y-98952380D01*
X106738095Y-99000000D01*
X107071428Y-98952380D02*
X107309523Y-99952380D01*
X107500000Y-99238095D01*
X107690476Y-99952380D01*
X107928571Y-98952380D01*
X108833333Y-99952380D02*
X108261904Y-99952380D01*
X108547619Y-99952380D02*
X108547619Y-98952380D01*
X108452380Y-99095238D01*
X108357142Y-99190476D01*
X108261904Y-99238095D01*
X87451190Y-123676190D02*
X87927380Y-123676190D01*
X86927380Y-124009523D02*
X87451190Y-123676190D01*
X86927380Y-123342857D01*
X87927380Y-122485714D02*
X87927380Y-123057142D01*
X87927380Y-122771428D02*
X86927380Y-122771428D01*
X87070238Y-122866666D01*
X87165476Y-122961904D01*
X87213095Y-123057142D01*
X140167619Y-101135238D02*
X140120000Y-101230476D01*
X140024761Y-101325714D01*
X139881904Y-101468571D01*
X139834285Y-101563809D01*
X139834285Y-101659047D01*
X140072380Y-101611428D02*
X140024761Y-101706666D01*
X139929523Y-101801904D01*
X139739047Y-101849523D01*
X139405714Y-101849523D01*
X139215238Y-101801904D01*
X139120000Y-101706666D01*
X139072380Y-101611428D01*
X139072380Y-101420952D01*
X139120000Y-101325714D01*
X139215238Y-101230476D01*
X139405714Y-101182857D01*
X139739047Y-101182857D01*
X139929523Y-101230476D01*
X140024761Y-101325714D01*
X140072380Y-101420952D01*
X140072380Y-101611428D01*
X139167619Y-100801904D02*
X139120000Y-100754285D01*
X139072380Y-100659047D01*
X139072380Y-100420952D01*
X139120000Y-100325714D01*
X139167619Y-100278095D01*
X139262857Y-100230476D01*
X139358095Y-100230476D01*
X139500952Y-100278095D01*
X140072380Y-100849523D01*
X140072380Y-100230476D01*
X139167619Y-66135238D02*
X139120000Y-66230476D01*
X139024761Y-66325714D01*
X138881904Y-66468571D01*
X138834285Y-66563809D01*
X138834285Y-66659047D01*
X139072380Y-66611428D02*
X139024761Y-66706666D01*
X138929523Y-66801904D01*
X138739047Y-66849523D01*
X138405714Y-66849523D01*
X138215238Y-66801904D01*
X138120000Y-66706666D01*
X138072380Y-66611428D01*
X138072380Y-66420952D01*
X138120000Y-66325714D01*
X138215238Y-66230476D01*
X138405714Y-66182857D01*
X138739047Y-66182857D01*
X138929523Y-66230476D01*
X139024761Y-66325714D01*
X139072380Y-66420952D01*
X139072380Y-66611428D01*
X138072380Y-65849523D02*
X138072380Y-65230476D01*
X138453333Y-65563809D01*
X138453333Y-65420952D01*
X138500952Y-65325714D01*
X138548571Y-65278095D01*
X138643809Y-65230476D01*
X138881904Y-65230476D01*
X138977142Y-65278095D01*
X139024761Y-65325714D01*
X139072380Y-65420952D01*
X139072380Y-65706666D01*
X139024761Y-65801904D01*
X138977142Y-65849523D01*
X107048095Y-107122380D02*
X107048095Y-107931904D01*
X107095714Y-108027142D01*
X107143333Y-108074761D01*
X107238571Y-108122380D01*
X107429047Y-108122380D01*
X107524285Y-108074761D01*
X107571904Y-108027142D01*
X107619523Y-107931904D01*
X107619523Y-107122380D01*
X108048095Y-107217619D02*
X108095714Y-107170000D01*
X108190952Y-107122380D01*
X108429047Y-107122380D01*
X108524285Y-107170000D01*
X108571904Y-107217619D01*
X108619523Y-107312857D01*
X108619523Y-107408095D01*
X108571904Y-107550952D01*
X108000476Y-108122380D01*
X108619523Y-108122380D01*
X84583333Y-118497142D02*
X84535714Y-118544761D01*
X84392857Y-118592380D01*
X84297619Y-118592380D01*
X84154761Y-118544761D01*
X84059523Y-118449523D01*
X84011904Y-118354285D01*
X83964285Y-118163809D01*
X83964285Y-118020952D01*
X84011904Y-117830476D01*
X84059523Y-117735238D01*
X84154761Y-117640000D01*
X84297619Y-117592380D01*
X84392857Y-117592380D01*
X84535714Y-117640000D01*
X84583333Y-117687619D01*
X85535714Y-118592380D02*
X84964285Y-118592380D01*
X85250000Y-118592380D02*
X85250000Y-117592380D01*
X85154761Y-117735238D01*
X85059523Y-117830476D01*
X84964285Y-117878095D01*
X84583333Y-128717142D02*
X84535714Y-128764761D01*
X84392857Y-128812380D01*
X84297619Y-128812380D01*
X84154761Y-128764761D01*
X84059523Y-128669523D01*
X84011904Y-128574285D01*
X83964285Y-128383809D01*
X83964285Y-128240952D01*
X84011904Y-128050476D01*
X84059523Y-127955238D01*
X84154761Y-127860000D01*
X84297619Y-127812380D01*
X84392857Y-127812380D01*
X84535714Y-127860000D01*
X84583333Y-127907619D01*
X84964285Y-127907619D02*
X85011904Y-127860000D01*
X85107142Y-127812380D01*
X85345238Y-127812380D01*
X85440476Y-127860000D01*
X85488095Y-127907619D01*
X85535714Y-128002857D01*
X85535714Y-128098095D01*
X85488095Y-128240952D01*
X84916666Y-128812380D01*
X85535714Y-128812380D01*
X136852380Y-101623095D02*
X135852380Y-101623095D01*
X136328571Y-101623095D02*
X136328571Y-101051666D01*
X136852380Y-101051666D02*
X135852380Y-101051666D01*
X136804761Y-100623095D02*
X136852380Y-100480238D01*
X136852380Y-100242142D01*
X136804761Y-100146904D01*
X136757142Y-100099285D01*
X136661904Y-100051666D01*
X136566666Y-100051666D01*
X136471428Y-100099285D01*
X136423809Y-100146904D01*
X136376190Y-100242142D01*
X136328571Y-100432619D01*
X136280952Y-100527857D01*
X136233333Y-100575476D01*
X136138095Y-100623095D01*
X136042857Y-100623095D01*
X135947619Y-100575476D01*
X135900000Y-100527857D01*
X135852380Y-100432619D01*
X135852380Y-100194523D01*
X135900000Y-100051666D01*
X136852380Y-99099285D02*
X136852380Y-99670714D01*
X136852380Y-99385000D02*
X135852380Y-99385000D01*
X135995238Y-99480238D01*
X136090476Y-99575476D01*
X136138095Y-99670714D01*
X136852380Y-136623095D02*
X135852380Y-136623095D01*
X136328571Y-136623095D02*
X136328571Y-136051666D01*
X136852380Y-136051666D02*
X135852380Y-136051666D01*
X136804761Y-135623095D02*
X136852380Y-135480238D01*
X136852380Y-135242142D01*
X136804761Y-135146904D01*
X136757142Y-135099285D01*
X136661904Y-135051666D01*
X136566666Y-135051666D01*
X136471428Y-135099285D01*
X136423809Y-135146904D01*
X136376190Y-135242142D01*
X136328571Y-135432619D01*
X136280952Y-135527857D01*
X136233333Y-135575476D01*
X136138095Y-135623095D01*
X136042857Y-135623095D01*
X135947619Y-135575476D01*
X135900000Y-135527857D01*
X135852380Y-135432619D01*
X135852380Y-135194523D01*
X135900000Y-135051666D01*
X135947619Y-134670714D02*
X135900000Y-134623095D01*
X135852380Y-134527857D01*
X135852380Y-134289761D01*
X135900000Y-134194523D01*
X135947619Y-134146904D01*
X136042857Y-134099285D01*
X136138095Y-134099285D01*
X136280952Y-134146904D01*
X136852380Y-134718333D01*
X136852380Y-134099285D01*
X135852380Y-66623095D02*
X134852380Y-66623095D01*
X135328571Y-66623095D02*
X135328571Y-66051666D01*
X135852380Y-66051666D02*
X134852380Y-66051666D01*
X135804761Y-65623095D02*
X135852380Y-65480238D01*
X135852380Y-65242142D01*
X135804761Y-65146904D01*
X135757142Y-65099285D01*
X135661904Y-65051666D01*
X135566666Y-65051666D01*
X135471428Y-65099285D01*
X135423809Y-65146904D01*
X135376190Y-65242142D01*
X135328571Y-65432619D01*
X135280952Y-65527857D01*
X135233333Y-65575476D01*
X135138095Y-65623095D01*
X135042857Y-65623095D01*
X134947619Y-65575476D01*
X134900000Y-65527857D01*
X134852380Y-65432619D01*
X134852380Y-65194523D01*
X134900000Y-65051666D01*
X134852380Y-64718333D02*
X134852380Y-64099285D01*
X135233333Y-64432619D01*
X135233333Y-64289761D01*
X135280952Y-64194523D01*
X135328571Y-64146904D01*
X135423809Y-64099285D01*
X135661904Y-64099285D01*
X135757142Y-64146904D01*
X135804761Y-64194523D01*
X135852380Y-64289761D01*
X135852380Y-64575476D01*
X135804761Y-64670714D01*
X135757142Y-64718333D01*
X138372380Y-49269523D02*
X139086666Y-49269523D01*
X139229523Y-49317142D01*
X139324761Y-49412380D01*
X139372380Y-49555238D01*
X139372380Y-49650476D01*
X139372380Y-48269523D02*
X139372380Y-48840952D01*
X139372380Y-48555238D02*
X138372380Y-48555238D01*
X138515238Y-48650476D01*
X138610476Y-48745714D01*
X138658095Y-48840952D01*
X138372380Y-47650476D02*
X138372380Y-47555238D01*
X138420000Y-47460000D01*
X138467619Y-47412380D01*
X138562857Y-47364761D01*
X138753333Y-47317142D01*
X138991428Y-47317142D01*
X139181904Y-47364761D01*
X139277142Y-47412380D01*
X139324761Y-47460000D01*
X139372380Y-47555238D01*
X139372380Y-47650476D01*
X139324761Y-47745714D01*
X139277142Y-47793333D01*
X139181904Y-47840952D01*
X138991428Y-47888571D01*
X138753333Y-47888571D01*
X138562857Y-47840952D01*
X138467619Y-47793333D01*
X138420000Y-47745714D01*
X138372380Y-47650476D01*
X81968095Y-55912380D02*
X81968095Y-56721904D01*
X82015714Y-56817142D01*
X82063333Y-56864761D01*
X82158571Y-56912380D01*
X82349047Y-56912380D01*
X82444285Y-56864761D01*
X82491904Y-56817142D01*
X82539523Y-56721904D01*
X82539523Y-55912380D01*
X83539523Y-56912380D02*
X82968095Y-56912380D01*
X83253809Y-56912380D02*
X83253809Y-55912380D01*
X83158571Y-56055238D01*
X83063333Y-56150476D01*
X82968095Y-56198095D01*
X149238095Y-150152380D02*
X149238095Y-149152380D01*
X149238095Y-149628571D02*
X149809523Y-149628571D01*
X149809523Y-150152380D02*
X149809523Y-149152380D01*
X150238095Y-149247619D02*
X150285714Y-149200000D01*
X150380952Y-149152380D01*
X150619047Y-149152380D01*
X150714285Y-149200000D01*
X150761904Y-149247619D01*
X150809523Y-149342857D01*
X150809523Y-149438095D01*
X150761904Y-149580952D01*
X150190476Y-150152380D01*
X150809523Y-150152380D01*
X149238095Y-30152380D02*
X149238095Y-29152380D01*
X149238095Y-29628571D02*
X149809523Y-29628571D01*
X149809523Y-30152380D02*
X149809523Y-29152380D01*
X150190476Y-29152380D02*
X150809523Y-29152380D01*
X150476190Y-29533333D01*
X150619047Y-29533333D01*
X150714285Y-29580952D01*
X150761904Y-29628571D01*
X150809523Y-29723809D01*
X150809523Y-29961904D01*
X150761904Y-30057142D01*
X150714285Y-30104761D01*
X150619047Y-30152380D01*
X150333333Y-30152380D01*
X150238095Y-30104761D01*
X150190476Y-30057142D01*
X64238095Y-150152380D02*
X64238095Y-149152380D01*
X64238095Y-149628571D02*
X64809523Y-149628571D01*
X64809523Y-150152380D02*
X64809523Y-149152380D01*
X65714285Y-149485714D02*
X65714285Y-150152380D01*
X65476190Y-149104761D02*
X65238095Y-149819047D01*
X65857142Y-149819047D01*
M02*
