G04 #@! TF.GenerationSoftware,KiCad,Pcbnew,(5.1.2)-2*
G04 #@! TF.CreationDate,2019-07-31T12:25:26+05:30*
G04 #@! TF.ProjectId,DoorInterlock29_07_2019,446f6f72-496e-4746-9572-6c6f636b3239,rev?*
G04 #@! TF.SameCoordinates,Original*
G04 #@! TF.FileFunction,Soldermask,Top*
G04 #@! TF.FilePolarity,Negative*
%FSLAX46Y46*%
G04 Gerber Fmt 4.6, Leading zero omitted, Abs format (unit mm)*
G04 Created by KiCad (PCBNEW (5.1.2)-2) date 2019-07-31 12:25:26*
%MOMM*%
%LPD*%
G04 APERTURE LIST*
%ADD10C,0.100000*%
G04 APERTURE END LIST*
D10*
G36*
X150642007Y-152883582D02*
G01*
X151042563Y-153049498D01*
X151042565Y-153049499D01*
X151403056Y-153290371D01*
X151709629Y-153596944D01*
X151950501Y-153957435D01*
X151950502Y-153957437D01*
X152116418Y-154357993D01*
X152201000Y-154783219D01*
X152201000Y-155216781D01*
X152116418Y-155642007D01*
X151950502Y-156042563D01*
X151950501Y-156042565D01*
X151709629Y-156403056D01*
X151403056Y-156709629D01*
X151042565Y-156950501D01*
X151042564Y-156950502D01*
X151042563Y-156950502D01*
X150642007Y-157116418D01*
X150216781Y-157201000D01*
X149783219Y-157201000D01*
X149357993Y-157116418D01*
X148957437Y-156950502D01*
X148957436Y-156950502D01*
X148957435Y-156950501D01*
X148596944Y-156709629D01*
X148290371Y-156403056D01*
X148049499Y-156042565D01*
X148049498Y-156042563D01*
X147883582Y-155642007D01*
X147799000Y-155216781D01*
X147799000Y-154783219D01*
X147883582Y-154357993D01*
X148049498Y-153957437D01*
X148049499Y-153957435D01*
X148290371Y-153596944D01*
X148596944Y-153290371D01*
X148957435Y-153049499D01*
X148957437Y-153049498D01*
X149357993Y-152883582D01*
X149783219Y-152799000D01*
X150216781Y-152799000D01*
X150642007Y-152883582D01*
X150642007Y-152883582D01*
G37*
G36*
X65642007Y-152883582D02*
G01*
X66042563Y-153049498D01*
X66042565Y-153049499D01*
X66403056Y-153290371D01*
X66709629Y-153596944D01*
X66950501Y-153957435D01*
X66950502Y-153957437D01*
X67116418Y-154357993D01*
X67201000Y-154783219D01*
X67201000Y-155216781D01*
X67116418Y-155642007D01*
X66950502Y-156042563D01*
X66950501Y-156042565D01*
X66709629Y-156403056D01*
X66403056Y-156709629D01*
X66042565Y-156950501D01*
X66042564Y-156950502D01*
X66042563Y-156950502D01*
X65642007Y-157116418D01*
X65216781Y-157201000D01*
X64783219Y-157201000D01*
X64357993Y-157116418D01*
X63957437Y-156950502D01*
X63957436Y-156950502D01*
X63957435Y-156950501D01*
X63596944Y-156709629D01*
X63290371Y-156403056D01*
X63049499Y-156042565D01*
X63049498Y-156042563D01*
X62883582Y-155642007D01*
X62799000Y-155216781D01*
X62799000Y-154783219D01*
X62883582Y-154357993D01*
X63049498Y-153957437D01*
X63049499Y-153957435D01*
X63290371Y-153596944D01*
X63596944Y-153290371D01*
X63957435Y-153049499D01*
X63957437Y-153049498D01*
X64357993Y-152883582D01*
X64783219Y-152799000D01*
X65216781Y-152799000D01*
X65642007Y-152883582D01*
X65642007Y-152883582D01*
G37*
G36*
X75403097Y-144494069D02*
G01*
X75506032Y-144504207D01*
X75704146Y-144564305D01*
X75704149Y-144564306D01*
X75779644Y-144604659D01*
X75886729Y-144661897D01*
X76046765Y-144793235D01*
X76178103Y-144953271D01*
X76223939Y-145039025D01*
X76275694Y-145135851D01*
X76275695Y-145135854D01*
X76335793Y-145333968D01*
X76356085Y-145540000D01*
X76335793Y-145746032D01*
X76275695Y-145944146D01*
X76275694Y-145944149D01*
X76223939Y-146040975D01*
X76178103Y-146126729D01*
X76046765Y-146286765D01*
X75886729Y-146418103D01*
X75800975Y-146463939D01*
X75704149Y-146515694D01*
X75704146Y-146515695D01*
X75506032Y-146575793D01*
X75403097Y-146585931D01*
X75351631Y-146591000D01*
X74648369Y-146591000D01*
X74596903Y-146585931D01*
X74493968Y-146575793D01*
X74295854Y-146515695D01*
X74295851Y-146515694D01*
X74199025Y-146463939D01*
X74113271Y-146418103D01*
X73953235Y-146286765D01*
X73821897Y-146126729D01*
X73776061Y-146040975D01*
X73724306Y-145944149D01*
X73724305Y-145944146D01*
X73664207Y-145746032D01*
X73643915Y-145540000D01*
X73664207Y-145333968D01*
X73724305Y-145135854D01*
X73724306Y-145135851D01*
X73776061Y-145039025D01*
X73821897Y-144953271D01*
X73953235Y-144793235D01*
X74113271Y-144661897D01*
X74220356Y-144604659D01*
X74295851Y-144564306D01*
X74295854Y-144564305D01*
X74493968Y-144504207D01*
X74596903Y-144494069D01*
X74648369Y-144489000D01*
X75351631Y-144489000D01*
X75403097Y-144494069D01*
X75403097Y-144494069D01*
G37*
G36*
X84466823Y-143161313D02*
G01*
X84627242Y-143209976D01*
X84694361Y-143245852D01*
X84775078Y-143288996D01*
X84904659Y-143395341D01*
X85011004Y-143524922D01*
X85011005Y-143524924D01*
X85090024Y-143672758D01*
X85138687Y-143833177D01*
X85155117Y-144000000D01*
X85138687Y-144166823D01*
X85090024Y-144327242D01*
X85049477Y-144403100D01*
X85011004Y-144475078D01*
X84904659Y-144604659D01*
X84775078Y-144711004D01*
X84775076Y-144711005D01*
X84627242Y-144790024D01*
X84466823Y-144838687D01*
X84341804Y-144851000D01*
X84258196Y-144851000D01*
X84133177Y-144838687D01*
X83972758Y-144790024D01*
X83824924Y-144711005D01*
X83824922Y-144711004D01*
X83695341Y-144604659D01*
X83588996Y-144475078D01*
X83550523Y-144403100D01*
X83509976Y-144327242D01*
X83461313Y-144166823D01*
X83444883Y-144000000D01*
X83461313Y-143833177D01*
X83509976Y-143672758D01*
X83588995Y-143524924D01*
X83588996Y-143524922D01*
X83695341Y-143395341D01*
X83824922Y-143288996D01*
X83905639Y-143245852D01*
X83972758Y-143209976D01*
X84133177Y-143161313D01*
X84258196Y-143149000D01*
X84341804Y-143149000D01*
X84466823Y-143161313D01*
X84466823Y-143161313D01*
G37*
G36*
X97248228Y-143181703D02*
G01*
X97403100Y-143245853D01*
X97542481Y-143338985D01*
X97661015Y-143457519D01*
X97754147Y-143596900D01*
X97818297Y-143751772D01*
X97851000Y-143916184D01*
X97851000Y-144083816D01*
X97818297Y-144248228D01*
X97754147Y-144403100D01*
X97661015Y-144542481D01*
X97542481Y-144661015D01*
X97403100Y-144754147D01*
X97248228Y-144818297D01*
X97083816Y-144851000D01*
X96916184Y-144851000D01*
X96751772Y-144818297D01*
X96596900Y-144754147D01*
X96457519Y-144661015D01*
X96338985Y-144542481D01*
X96245853Y-144403100D01*
X96181703Y-144248228D01*
X96149000Y-144083816D01*
X96149000Y-143916184D01*
X96181703Y-143751772D01*
X96245853Y-143596900D01*
X96338985Y-143457519D01*
X96457519Y-143338985D01*
X96596900Y-143245853D01*
X96751772Y-143181703D01*
X96916184Y-143149000D01*
X97083816Y-143149000D01*
X97248228Y-143181703D01*
X97248228Y-143181703D01*
G37*
G36*
X76351000Y-144051000D02*
G01*
X73649000Y-144051000D01*
X73649000Y-141949000D01*
X76351000Y-141949000D01*
X76351000Y-144051000D01*
X76351000Y-144051000D01*
G37*
G36*
X104566823Y-142181313D02*
G01*
X104727242Y-142229976D01*
X104859906Y-142300886D01*
X104875078Y-142308996D01*
X105004659Y-142415341D01*
X105111004Y-142544922D01*
X105111005Y-142544924D01*
X105190024Y-142692758D01*
X105238687Y-142853177D01*
X105255117Y-143020000D01*
X105238687Y-143186823D01*
X105190024Y-143347242D01*
X105160169Y-143403097D01*
X105111004Y-143495078D01*
X105004659Y-143624659D01*
X104875078Y-143731004D01*
X104875076Y-143731005D01*
X104727242Y-143810024D01*
X104566823Y-143858687D01*
X104441804Y-143871000D01*
X103558196Y-143871000D01*
X103433177Y-143858687D01*
X103272758Y-143810024D01*
X103124924Y-143731005D01*
X103124922Y-143731004D01*
X102995341Y-143624659D01*
X102888996Y-143495078D01*
X102839831Y-143403097D01*
X102809976Y-143347242D01*
X102761313Y-143186823D01*
X102744883Y-143020000D01*
X102761313Y-142853177D01*
X102809976Y-142692758D01*
X102888995Y-142544924D01*
X102888996Y-142544922D01*
X102995341Y-142415341D01*
X103124922Y-142308996D01*
X103140094Y-142300886D01*
X103272758Y-142229976D01*
X103433177Y-142181313D01*
X103558196Y-142169000D01*
X104441804Y-142169000D01*
X104566823Y-142181313D01*
X104566823Y-142181313D01*
G37*
G36*
X112186823Y-142181313D02*
G01*
X112347242Y-142229976D01*
X112479906Y-142300886D01*
X112495078Y-142308996D01*
X112624659Y-142415341D01*
X112731004Y-142544922D01*
X112731005Y-142544924D01*
X112810024Y-142692758D01*
X112858687Y-142853177D01*
X112875117Y-143020000D01*
X112858687Y-143186823D01*
X112810024Y-143347242D01*
X112780169Y-143403097D01*
X112731004Y-143495078D01*
X112624659Y-143624659D01*
X112495078Y-143731004D01*
X112495076Y-143731005D01*
X112347242Y-143810024D01*
X112186823Y-143858687D01*
X112061804Y-143871000D01*
X111178196Y-143871000D01*
X111053177Y-143858687D01*
X110892758Y-143810024D01*
X110744924Y-143731005D01*
X110744922Y-143731004D01*
X110615341Y-143624659D01*
X110508996Y-143495078D01*
X110459831Y-143403097D01*
X110429976Y-143347242D01*
X110381313Y-143186823D01*
X110364883Y-143020000D01*
X110381313Y-142853177D01*
X110429976Y-142692758D01*
X110508995Y-142544924D01*
X110508996Y-142544922D01*
X110615341Y-142415341D01*
X110744922Y-142308996D01*
X110760094Y-142300886D01*
X110892758Y-142229976D01*
X111053177Y-142181313D01*
X111178196Y-142169000D01*
X112061804Y-142169000D01*
X112186823Y-142181313D01*
X112186823Y-142181313D01*
G37*
G36*
X117248228Y-142181703D02*
G01*
X117403100Y-142245853D01*
X117542481Y-142338985D01*
X117661015Y-142457519D01*
X117754147Y-142596900D01*
X117818297Y-142751772D01*
X117851000Y-142916184D01*
X117851000Y-143083816D01*
X117818297Y-143248228D01*
X117754147Y-143403100D01*
X117661015Y-143542481D01*
X117542481Y-143661015D01*
X117403100Y-143754147D01*
X117248228Y-143818297D01*
X117083816Y-143851000D01*
X116916184Y-143851000D01*
X116751772Y-143818297D01*
X116596900Y-143754147D01*
X116457519Y-143661015D01*
X116338985Y-143542481D01*
X116245853Y-143403100D01*
X116181703Y-143248228D01*
X116149000Y-143083816D01*
X116149000Y-142916184D01*
X116181703Y-142751772D01*
X116245853Y-142596900D01*
X116338985Y-142457519D01*
X116457519Y-142338985D01*
X116596900Y-142245853D01*
X116751772Y-142181703D01*
X116916184Y-142149000D01*
X117083816Y-142149000D01*
X117248228Y-142181703D01*
X117248228Y-142181703D01*
G37*
G36*
X104566823Y-139641313D02*
G01*
X104727242Y-139689976D01*
X104766584Y-139711005D01*
X104875078Y-139768996D01*
X105004659Y-139875341D01*
X105111004Y-140004922D01*
X105111005Y-140004924D01*
X105190024Y-140152758D01*
X105238687Y-140313177D01*
X105255117Y-140480000D01*
X105238687Y-140646823D01*
X105190024Y-140807242D01*
X105119114Y-140939906D01*
X105111004Y-140955078D01*
X105004659Y-141084659D01*
X104875078Y-141191004D01*
X104875076Y-141191005D01*
X104727242Y-141270024D01*
X104566823Y-141318687D01*
X104441804Y-141331000D01*
X103558196Y-141331000D01*
X103433177Y-141318687D01*
X103272758Y-141270024D01*
X103124924Y-141191005D01*
X103124922Y-141191004D01*
X102995341Y-141084659D01*
X102888996Y-140955078D01*
X102880886Y-140939906D01*
X102809976Y-140807242D01*
X102761313Y-140646823D01*
X102744883Y-140480000D01*
X102761313Y-140313177D01*
X102809976Y-140152758D01*
X102888995Y-140004924D01*
X102888996Y-140004922D01*
X102995341Y-139875341D01*
X103124922Y-139768996D01*
X103233416Y-139711005D01*
X103272758Y-139689976D01*
X103433177Y-139641313D01*
X103558196Y-139629000D01*
X104441804Y-139629000D01*
X104566823Y-139641313D01*
X104566823Y-139641313D01*
G37*
G36*
X112186823Y-139641313D02*
G01*
X112347242Y-139689976D01*
X112386584Y-139711005D01*
X112495078Y-139768996D01*
X112624659Y-139875341D01*
X112731004Y-140004922D01*
X112731005Y-140004924D01*
X112810024Y-140152758D01*
X112858687Y-140313177D01*
X112875117Y-140480000D01*
X112858687Y-140646823D01*
X112810024Y-140807242D01*
X112739114Y-140939906D01*
X112731004Y-140955078D01*
X112624659Y-141084659D01*
X112495078Y-141191004D01*
X112495076Y-141191005D01*
X112347242Y-141270024D01*
X112186823Y-141318687D01*
X112061804Y-141331000D01*
X111178196Y-141331000D01*
X111053177Y-141318687D01*
X110892758Y-141270024D01*
X110744924Y-141191005D01*
X110744922Y-141191004D01*
X110615341Y-141084659D01*
X110508996Y-140955078D01*
X110500886Y-140939906D01*
X110429976Y-140807242D01*
X110381313Y-140646823D01*
X110364883Y-140480000D01*
X110381313Y-140313177D01*
X110429976Y-140152758D01*
X110508995Y-140004924D01*
X110508996Y-140004922D01*
X110615341Y-139875341D01*
X110744922Y-139768996D01*
X110853416Y-139711005D01*
X110892758Y-139689976D01*
X111053177Y-139641313D01*
X111178196Y-139629000D01*
X112061804Y-139629000D01*
X112186823Y-139641313D01*
X112186823Y-139641313D01*
G37*
G36*
X97248228Y-138181703D02*
G01*
X97403100Y-138245853D01*
X97542481Y-138338985D01*
X97661015Y-138457519D01*
X97754147Y-138596900D01*
X97818297Y-138751772D01*
X97851000Y-138916184D01*
X97851000Y-139083816D01*
X97818297Y-139248228D01*
X97754147Y-139403100D01*
X97661015Y-139542481D01*
X97542481Y-139661015D01*
X97403100Y-139754147D01*
X97248228Y-139818297D01*
X97083816Y-139851000D01*
X96916184Y-139851000D01*
X96751772Y-139818297D01*
X96596900Y-139754147D01*
X96457519Y-139661015D01*
X96338985Y-139542481D01*
X96245853Y-139403100D01*
X96181703Y-139248228D01*
X96149000Y-139083816D01*
X96149000Y-138916184D01*
X96181703Y-138751772D01*
X96245853Y-138596900D01*
X96338985Y-138457519D01*
X96457519Y-138338985D01*
X96596900Y-138245853D01*
X96751772Y-138181703D01*
X96916184Y-138149000D01*
X97083816Y-138149000D01*
X97248228Y-138181703D01*
X97248228Y-138181703D01*
G37*
G36*
X84466823Y-138161313D02*
G01*
X84627242Y-138209976D01*
X84694361Y-138245852D01*
X84775078Y-138288996D01*
X84904659Y-138395341D01*
X85011004Y-138524922D01*
X85011005Y-138524924D01*
X85090024Y-138672758D01*
X85138687Y-138833177D01*
X85155117Y-139000000D01*
X85138687Y-139166823D01*
X85090024Y-139327242D01*
X85049477Y-139403100D01*
X85011004Y-139475078D01*
X84904659Y-139604659D01*
X84775078Y-139711004D01*
X84775076Y-139711005D01*
X84627242Y-139790024D01*
X84466823Y-139838687D01*
X84341804Y-139851000D01*
X84258196Y-139851000D01*
X84133177Y-139838687D01*
X83972758Y-139790024D01*
X83824924Y-139711005D01*
X83824922Y-139711004D01*
X83695341Y-139604659D01*
X83588996Y-139475078D01*
X83550523Y-139403100D01*
X83509976Y-139327242D01*
X83461313Y-139166823D01*
X83444883Y-139000000D01*
X83461313Y-138833177D01*
X83509976Y-138672758D01*
X83588995Y-138524924D01*
X83588996Y-138524922D01*
X83695341Y-138395341D01*
X83824922Y-138288996D01*
X83905639Y-138245852D01*
X83972758Y-138209976D01*
X84133177Y-138161313D01*
X84258196Y-138149000D01*
X84341804Y-138149000D01*
X84466823Y-138161313D01*
X84466823Y-138161313D01*
G37*
G36*
X136186425Y-137642760D02*
G01*
X136186428Y-137642761D01*
X136186429Y-137642761D01*
X136365693Y-137697140D01*
X136365696Y-137697142D01*
X136365697Y-137697142D01*
X136530903Y-137785446D01*
X136675712Y-137904288D01*
X136794554Y-138049097D01*
X136880545Y-138209976D01*
X136882860Y-138214307D01*
X136937239Y-138393571D01*
X136937240Y-138393575D01*
X136955601Y-138580000D01*
X136937240Y-138766425D01*
X136937239Y-138766428D01*
X136937239Y-138766429D01*
X136882860Y-138945693D01*
X136882858Y-138945696D01*
X136882858Y-138945697D01*
X136794554Y-139110903D01*
X136675712Y-139255712D01*
X136530903Y-139374554D01*
X136365697Y-139462858D01*
X136365693Y-139462860D01*
X136186429Y-139517239D01*
X136186428Y-139517239D01*
X136186425Y-139517240D01*
X136046718Y-139531000D01*
X135953282Y-139531000D01*
X135813575Y-139517240D01*
X135813572Y-139517239D01*
X135813571Y-139517239D01*
X135634307Y-139462860D01*
X135634303Y-139462858D01*
X135469097Y-139374554D01*
X135324288Y-139255712D01*
X135205446Y-139110903D01*
X135117142Y-138945697D01*
X135117142Y-138945696D01*
X135117140Y-138945693D01*
X135062761Y-138766429D01*
X135062761Y-138766428D01*
X135062760Y-138766425D01*
X135044399Y-138580000D01*
X135062760Y-138393575D01*
X135062761Y-138393571D01*
X135117140Y-138214307D01*
X135119455Y-138209976D01*
X135205446Y-138049097D01*
X135324288Y-137904288D01*
X135469097Y-137785446D01*
X135634303Y-137697142D01*
X135634304Y-137697142D01*
X135634307Y-137697140D01*
X135813571Y-137642761D01*
X135813572Y-137642761D01*
X135813575Y-137642760D01*
X135953282Y-137629000D01*
X136046718Y-137629000D01*
X136186425Y-137642760D01*
X136186425Y-137642760D01*
G37*
G36*
X104566823Y-137101313D02*
G01*
X104727242Y-137149976D01*
X104859906Y-137220886D01*
X104875078Y-137228996D01*
X105004659Y-137335341D01*
X105111004Y-137464922D01*
X105111005Y-137464924D01*
X105190024Y-137612758D01*
X105238687Y-137773177D01*
X105255117Y-137940000D01*
X105238687Y-138106823D01*
X105190024Y-138267242D01*
X105122500Y-138393571D01*
X105111004Y-138415078D01*
X105004659Y-138544659D01*
X104875078Y-138651004D01*
X104875076Y-138651005D01*
X104727242Y-138730024D01*
X104566823Y-138778687D01*
X104441804Y-138791000D01*
X103558196Y-138791000D01*
X103433177Y-138778687D01*
X103272758Y-138730024D01*
X103124924Y-138651005D01*
X103124922Y-138651004D01*
X102995341Y-138544659D01*
X102888996Y-138415078D01*
X102877500Y-138393571D01*
X102809976Y-138267242D01*
X102761313Y-138106823D01*
X102744883Y-137940000D01*
X102761313Y-137773177D01*
X102809976Y-137612758D01*
X102888995Y-137464924D01*
X102888996Y-137464922D01*
X102995341Y-137335341D01*
X103124922Y-137228996D01*
X103140094Y-137220886D01*
X103272758Y-137149976D01*
X103433177Y-137101313D01*
X103558196Y-137089000D01*
X104441804Y-137089000D01*
X104566823Y-137101313D01*
X104566823Y-137101313D01*
G37*
G36*
X112186823Y-137101313D02*
G01*
X112347242Y-137149976D01*
X112479906Y-137220886D01*
X112495078Y-137228996D01*
X112624659Y-137335341D01*
X112731004Y-137464922D01*
X112731005Y-137464924D01*
X112810024Y-137612758D01*
X112858687Y-137773177D01*
X112875117Y-137940000D01*
X112858687Y-138106823D01*
X112810024Y-138267242D01*
X112742500Y-138393571D01*
X112731004Y-138415078D01*
X112624659Y-138544659D01*
X112495078Y-138651004D01*
X112495076Y-138651005D01*
X112347242Y-138730024D01*
X112186823Y-138778687D01*
X112061804Y-138791000D01*
X111178196Y-138791000D01*
X111053177Y-138778687D01*
X110892758Y-138730024D01*
X110744924Y-138651005D01*
X110744922Y-138651004D01*
X110615341Y-138544659D01*
X110508996Y-138415078D01*
X110497500Y-138393571D01*
X110429976Y-138267242D01*
X110381313Y-138106823D01*
X110364883Y-137940000D01*
X110381313Y-137773177D01*
X110429976Y-137612758D01*
X110508995Y-137464924D01*
X110508996Y-137464922D01*
X110615341Y-137335341D01*
X110744922Y-137228996D01*
X110760094Y-137220886D01*
X110892758Y-137149976D01*
X111053177Y-137101313D01*
X111178196Y-137089000D01*
X112061804Y-137089000D01*
X112186823Y-137101313D01*
X112186823Y-137101313D01*
G37*
G36*
X136186425Y-135102760D02*
G01*
X136186428Y-135102761D01*
X136186429Y-135102761D01*
X136365693Y-135157140D01*
X136365696Y-135157142D01*
X136365697Y-135157142D01*
X136530903Y-135245446D01*
X136675712Y-135364288D01*
X136794554Y-135509097D01*
X136841485Y-135596900D01*
X136882860Y-135674307D01*
X136937239Y-135853571D01*
X136937240Y-135853575D01*
X136955601Y-136040000D01*
X136937240Y-136226425D01*
X136937239Y-136226428D01*
X136937239Y-136226429D01*
X136882860Y-136405693D01*
X136882858Y-136405696D01*
X136882858Y-136405697D01*
X136794554Y-136570903D01*
X136675712Y-136715712D01*
X136530903Y-136834554D01*
X136365697Y-136922858D01*
X136365693Y-136922860D01*
X136186429Y-136977239D01*
X136186428Y-136977239D01*
X136186425Y-136977240D01*
X136046718Y-136991000D01*
X135953282Y-136991000D01*
X135813575Y-136977240D01*
X135813572Y-136977239D01*
X135813571Y-136977239D01*
X135634307Y-136922860D01*
X135634303Y-136922858D01*
X135469097Y-136834554D01*
X135324288Y-136715712D01*
X135205446Y-136570903D01*
X135117142Y-136405697D01*
X135117142Y-136405696D01*
X135117140Y-136405693D01*
X135062761Y-136226429D01*
X135062761Y-136226428D01*
X135062760Y-136226425D01*
X135044399Y-136040000D01*
X135062760Y-135853575D01*
X135062761Y-135853571D01*
X135117140Y-135674307D01*
X135158515Y-135596900D01*
X135205446Y-135509097D01*
X135324288Y-135364288D01*
X135469097Y-135245446D01*
X135634303Y-135157142D01*
X135634304Y-135157142D01*
X135634307Y-135157140D01*
X135813571Y-135102761D01*
X135813572Y-135102761D01*
X135813575Y-135102760D01*
X135953282Y-135089000D01*
X136046718Y-135089000D01*
X136186425Y-135102760D01*
X136186425Y-135102760D01*
G37*
G36*
X122248228Y-135181703D02*
G01*
X122403100Y-135245853D01*
X122542481Y-135338985D01*
X122661015Y-135457519D01*
X122754147Y-135596900D01*
X122818297Y-135751772D01*
X122851000Y-135916184D01*
X122851000Y-136083816D01*
X122818297Y-136248228D01*
X122754147Y-136403100D01*
X122661015Y-136542481D01*
X122542481Y-136661015D01*
X122403100Y-136754147D01*
X122248228Y-136818297D01*
X122083816Y-136851000D01*
X121916184Y-136851000D01*
X121751772Y-136818297D01*
X121596900Y-136754147D01*
X121457519Y-136661015D01*
X121338985Y-136542481D01*
X121245853Y-136403100D01*
X121181703Y-136248228D01*
X121149000Y-136083816D01*
X121149000Y-135916184D01*
X121181703Y-135751772D01*
X121245853Y-135596900D01*
X121338985Y-135457519D01*
X121457519Y-135338985D01*
X121596900Y-135245853D01*
X121751772Y-135181703D01*
X121916184Y-135149000D01*
X122083816Y-135149000D01*
X122248228Y-135181703D01*
X122248228Y-135181703D01*
G37*
G36*
X75403097Y-134494069D02*
G01*
X75506032Y-134504207D01*
X75694286Y-134561314D01*
X75704149Y-134564306D01*
X75779644Y-134604659D01*
X75886729Y-134661897D01*
X76046765Y-134793235D01*
X76178103Y-134953271D01*
X76223939Y-135039025D01*
X76275694Y-135135851D01*
X76275695Y-135135854D01*
X76335793Y-135333968D01*
X76356085Y-135540000D01*
X76335793Y-135746032D01*
X76296647Y-135875076D01*
X76275694Y-135944149D01*
X76224460Y-136040000D01*
X76178103Y-136126729D01*
X76046765Y-136286765D01*
X75886729Y-136418103D01*
X75800975Y-136463939D01*
X75704149Y-136515694D01*
X75704146Y-136515695D01*
X75506032Y-136575793D01*
X75403097Y-136585931D01*
X75351631Y-136591000D01*
X74648369Y-136591000D01*
X74596903Y-136585931D01*
X74493968Y-136575793D01*
X74295854Y-136515695D01*
X74295851Y-136515694D01*
X74199025Y-136463939D01*
X74113271Y-136418103D01*
X73953235Y-136286765D01*
X73821897Y-136126729D01*
X73775540Y-136040000D01*
X73724306Y-135944149D01*
X73703353Y-135875076D01*
X73664207Y-135746032D01*
X73643915Y-135540000D01*
X73664207Y-135333968D01*
X73724305Y-135135854D01*
X73724306Y-135135851D01*
X73776061Y-135039025D01*
X73821897Y-134953271D01*
X73953235Y-134793235D01*
X74113271Y-134661897D01*
X74220356Y-134604659D01*
X74295851Y-134564306D01*
X74305714Y-134561314D01*
X74493968Y-134504207D01*
X74596903Y-134494069D01*
X74648369Y-134489000D01*
X75351631Y-134489000D01*
X75403097Y-134494069D01*
X75403097Y-134494069D01*
G37*
G36*
X112186823Y-134561313D02*
G01*
X112347242Y-134609976D01*
X112442729Y-134661015D01*
X112495078Y-134688996D01*
X112624659Y-134795341D01*
X112731004Y-134924922D01*
X112731005Y-134924924D01*
X112810024Y-135072758D01*
X112858687Y-135233177D01*
X112875117Y-135400000D01*
X112858687Y-135566823D01*
X112810024Y-135727242D01*
X112796912Y-135751772D01*
X112731004Y-135875078D01*
X112624659Y-136004659D01*
X112495078Y-136111004D01*
X112495076Y-136111005D01*
X112347242Y-136190024D01*
X112186823Y-136238687D01*
X112061804Y-136251000D01*
X111178196Y-136251000D01*
X111053177Y-136238687D01*
X110892758Y-136190024D01*
X110744924Y-136111005D01*
X110744922Y-136111004D01*
X110615341Y-136004659D01*
X110508996Y-135875078D01*
X110443088Y-135751772D01*
X110429976Y-135727242D01*
X110381313Y-135566823D01*
X110364883Y-135400000D01*
X110381313Y-135233177D01*
X110429976Y-135072758D01*
X110508995Y-134924924D01*
X110508996Y-134924922D01*
X110615341Y-134795341D01*
X110744922Y-134688996D01*
X110797271Y-134661015D01*
X110892758Y-134609976D01*
X111053177Y-134561313D01*
X111178196Y-134549000D01*
X112061804Y-134549000D01*
X112186823Y-134561313D01*
X112186823Y-134561313D01*
G37*
G36*
X104566823Y-134561313D02*
G01*
X104727242Y-134609976D01*
X104822729Y-134661015D01*
X104875078Y-134688996D01*
X105004659Y-134795341D01*
X105111004Y-134924922D01*
X105111005Y-134924924D01*
X105190024Y-135072758D01*
X105238687Y-135233177D01*
X105255117Y-135400000D01*
X105238687Y-135566823D01*
X105190024Y-135727242D01*
X105176912Y-135751772D01*
X105111004Y-135875078D01*
X105004659Y-136004659D01*
X104875078Y-136111004D01*
X104875076Y-136111005D01*
X104727242Y-136190024D01*
X104566823Y-136238687D01*
X104441804Y-136251000D01*
X103558196Y-136251000D01*
X103433177Y-136238687D01*
X103272758Y-136190024D01*
X103124924Y-136111005D01*
X103124922Y-136111004D01*
X102995341Y-136004659D01*
X102888996Y-135875078D01*
X102823088Y-135751772D01*
X102809976Y-135727242D01*
X102761313Y-135566823D01*
X102744883Y-135400000D01*
X102761313Y-135233177D01*
X102809976Y-135072758D01*
X102888995Y-134924924D01*
X102888996Y-134924922D01*
X102995341Y-134795341D01*
X103124922Y-134688996D01*
X103177271Y-134661015D01*
X103272758Y-134609976D01*
X103433177Y-134561313D01*
X103558196Y-134549000D01*
X104441804Y-134549000D01*
X104566823Y-134561313D01*
X104566823Y-134561313D01*
G37*
G36*
X84466823Y-133161313D02*
G01*
X84627242Y-133209976D01*
X84694361Y-133245852D01*
X84775078Y-133288996D01*
X84904659Y-133395341D01*
X85011004Y-133524922D01*
X85011005Y-133524924D01*
X85090024Y-133672758D01*
X85138687Y-133833177D01*
X85155117Y-134000000D01*
X85138687Y-134166823D01*
X85090024Y-134327242D01*
X85049477Y-134403100D01*
X85011004Y-134475078D01*
X84904659Y-134604659D01*
X84775078Y-134711004D01*
X84775076Y-134711005D01*
X84627242Y-134790024D01*
X84466823Y-134838687D01*
X84341804Y-134851000D01*
X84258196Y-134851000D01*
X84133177Y-134838687D01*
X83972758Y-134790024D01*
X83824924Y-134711005D01*
X83824922Y-134711004D01*
X83695341Y-134604659D01*
X83588996Y-134475078D01*
X83550523Y-134403100D01*
X83509976Y-134327242D01*
X83461313Y-134166823D01*
X83444883Y-134000000D01*
X83461313Y-133833177D01*
X83509976Y-133672758D01*
X83588995Y-133524924D01*
X83588996Y-133524922D01*
X83695341Y-133395341D01*
X83824922Y-133288996D01*
X83905639Y-133245852D01*
X83972758Y-133209976D01*
X84133177Y-133161313D01*
X84258196Y-133149000D01*
X84341804Y-133149000D01*
X84466823Y-133161313D01*
X84466823Y-133161313D01*
G37*
G36*
X97248228Y-133181703D02*
G01*
X97403100Y-133245853D01*
X97542481Y-133338985D01*
X97661015Y-133457519D01*
X97754147Y-133596900D01*
X97818297Y-133751772D01*
X97851000Y-133916184D01*
X97851000Y-134083816D01*
X97818297Y-134248228D01*
X97754147Y-134403100D01*
X97661015Y-134542481D01*
X97542481Y-134661015D01*
X97403100Y-134754147D01*
X97248228Y-134818297D01*
X97083816Y-134851000D01*
X96916184Y-134851000D01*
X96751772Y-134818297D01*
X96596900Y-134754147D01*
X96457519Y-134661015D01*
X96338985Y-134542481D01*
X96245853Y-134403100D01*
X96181703Y-134248228D01*
X96149000Y-134083816D01*
X96149000Y-133916184D01*
X96181703Y-133751772D01*
X96245853Y-133596900D01*
X96338985Y-133457519D01*
X96457519Y-133338985D01*
X96596900Y-133245853D01*
X96751772Y-133181703D01*
X96916184Y-133149000D01*
X97083816Y-133149000D01*
X97248228Y-133181703D01*
X97248228Y-133181703D01*
G37*
G36*
X136951000Y-134451000D02*
G01*
X135049000Y-134451000D01*
X135049000Y-132549000D01*
X136951000Y-132549000D01*
X136951000Y-134451000D01*
X136951000Y-134451000D01*
G37*
G36*
X76351000Y-134051000D02*
G01*
X73649000Y-134051000D01*
X73649000Y-131949000D01*
X76351000Y-131949000D01*
X76351000Y-134051000D01*
X76351000Y-134051000D01*
G37*
G36*
X112186823Y-132021313D02*
G01*
X112347242Y-132069976D01*
X112479906Y-132140886D01*
X112495078Y-132148996D01*
X112624659Y-132255341D01*
X112731004Y-132384922D01*
X112731005Y-132384924D01*
X112810024Y-132532758D01*
X112858687Y-132693177D01*
X112875117Y-132860000D01*
X112858687Y-133026823D01*
X112810024Y-133187242D01*
X112755636Y-133288995D01*
X112731004Y-133335078D01*
X112624659Y-133464659D01*
X112495078Y-133571004D01*
X112495076Y-133571005D01*
X112347242Y-133650024D01*
X112186823Y-133698687D01*
X112061804Y-133711000D01*
X111178196Y-133711000D01*
X111053177Y-133698687D01*
X110892758Y-133650024D01*
X110744924Y-133571005D01*
X110744922Y-133571004D01*
X110615341Y-133464659D01*
X110508996Y-133335078D01*
X110484364Y-133288995D01*
X110429976Y-133187242D01*
X110381313Y-133026823D01*
X110364883Y-132860000D01*
X110381313Y-132693177D01*
X110429976Y-132532758D01*
X110508995Y-132384924D01*
X110508996Y-132384922D01*
X110615341Y-132255341D01*
X110744922Y-132148996D01*
X110760094Y-132140886D01*
X110892758Y-132069976D01*
X111053177Y-132021313D01*
X111178196Y-132009000D01*
X112061804Y-132009000D01*
X112186823Y-132021313D01*
X112186823Y-132021313D01*
G37*
G36*
X104566823Y-132021313D02*
G01*
X104727242Y-132069976D01*
X104859906Y-132140886D01*
X104875078Y-132148996D01*
X105004659Y-132255341D01*
X105111004Y-132384922D01*
X105111005Y-132384924D01*
X105190024Y-132532758D01*
X105238687Y-132693177D01*
X105255117Y-132860000D01*
X105238687Y-133026823D01*
X105190024Y-133187242D01*
X105135636Y-133288995D01*
X105111004Y-133335078D01*
X105004659Y-133464659D01*
X104875078Y-133571004D01*
X104875076Y-133571005D01*
X104727242Y-133650024D01*
X104566823Y-133698687D01*
X104441804Y-133711000D01*
X103558196Y-133711000D01*
X103433177Y-133698687D01*
X103272758Y-133650024D01*
X103124924Y-133571005D01*
X103124922Y-133571004D01*
X102995341Y-133464659D01*
X102888996Y-133335078D01*
X102864364Y-133288995D01*
X102809976Y-133187242D01*
X102761313Y-133026823D01*
X102744883Y-132860000D01*
X102761313Y-132693177D01*
X102809976Y-132532758D01*
X102888995Y-132384924D01*
X102888996Y-132384922D01*
X102995341Y-132255341D01*
X103124922Y-132148996D01*
X103140094Y-132140886D01*
X103272758Y-132069976D01*
X103433177Y-132021313D01*
X103558196Y-132009000D01*
X104441804Y-132009000D01*
X104566823Y-132021313D01*
X104566823Y-132021313D01*
G37*
G36*
X104566823Y-129481313D02*
G01*
X104727242Y-129529976D01*
X104859906Y-129600886D01*
X104875078Y-129608996D01*
X105004659Y-129715341D01*
X105111004Y-129844922D01*
X105111005Y-129844924D01*
X105190024Y-129992758D01*
X105238687Y-130153177D01*
X105255117Y-130320000D01*
X105238687Y-130486823D01*
X105190024Y-130647242D01*
X105121695Y-130775076D01*
X105111004Y-130795078D01*
X105004659Y-130924659D01*
X104875078Y-131031004D01*
X104875076Y-131031005D01*
X104727242Y-131110024D01*
X104566823Y-131158687D01*
X104441804Y-131171000D01*
X103558196Y-131171000D01*
X103433177Y-131158687D01*
X103272758Y-131110024D01*
X103124924Y-131031005D01*
X103124922Y-131031004D01*
X102995341Y-130924659D01*
X102888996Y-130795078D01*
X102878305Y-130775076D01*
X102809976Y-130647242D01*
X102761313Y-130486823D01*
X102744883Y-130320000D01*
X102761313Y-130153177D01*
X102809976Y-129992758D01*
X102888995Y-129844924D01*
X102888996Y-129844922D01*
X102995341Y-129715341D01*
X103124922Y-129608996D01*
X103140094Y-129600886D01*
X103272758Y-129529976D01*
X103433177Y-129481313D01*
X103558196Y-129469000D01*
X104441804Y-129469000D01*
X104566823Y-129481313D01*
X104566823Y-129481313D01*
G37*
G36*
X112186823Y-129481313D02*
G01*
X112347242Y-129529976D01*
X112479906Y-129600886D01*
X112495078Y-129608996D01*
X112624659Y-129715341D01*
X112731004Y-129844922D01*
X112731005Y-129844924D01*
X112810024Y-129992758D01*
X112858687Y-130153177D01*
X112875117Y-130320000D01*
X112858687Y-130486823D01*
X112810024Y-130647242D01*
X112741695Y-130775076D01*
X112731004Y-130795078D01*
X112624659Y-130924659D01*
X112495078Y-131031004D01*
X112495076Y-131031005D01*
X112347242Y-131110024D01*
X112186823Y-131158687D01*
X112061804Y-131171000D01*
X111178196Y-131171000D01*
X111053177Y-131158687D01*
X110892758Y-131110024D01*
X110744924Y-131031005D01*
X110744922Y-131031004D01*
X110615341Y-130924659D01*
X110508996Y-130795078D01*
X110498305Y-130775076D01*
X110429976Y-130647242D01*
X110381313Y-130486823D01*
X110364883Y-130320000D01*
X110381313Y-130153177D01*
X110429976Y-129992758D01*
X110508995Y-129844924D01*
X110508996Y-129844922D01*
X110615341Y-129715341D01*
X110744922Y-129608996D01*
X110760094Y-129600886D01*
X110892758Y-129529976D01*
X111053177Y-129481313D01*
X111178196Y-129469000D01*
X112061804Y-129469000D01*
X112186823Y-129481313D01*
X112186823Y-129481313D01*
G37*
G36*
X117166823Y-129461313D02*
G01*
X117327242Y-129509976D01*
X117459906Y-129580886D01*
X117475078Y-129588996D01*
X117604659Y-129695341D01*
X117711004Y-129824922D01*
X117711005Y-129824924D01*
X117790024Y-129972758D01*
X117838687Y-130133177D01*
X117855117Y-130300000D01*
X117838687Y-130466823D01*
X117790024Y-130627242D01*
X117719114Y-130759906D01*
X117711004Y-130775078D01*
X117604659Y-130904659D01*
X117475078Y-131011004D01*
X117475076Y-131011005D01*
X117327242Y-131090024D01*
X117166823Y-131138687D01*
X117041804Y-131151000D01*
X116958196Y-131151000D01*
X116833177Y-131138687D01*
X116672758Y-131090024D01*
X116524924Y-131011005D01*
X116524922Y-131011004D01*
X116395341Y-130904659D01*
X116288996Y-130775078D01*
X116280886Y-130759906D01*
X116209976Y-130627242D01*
X116161313Y-130466823D01*
X116144883Y-130300000D01*
X116161313Y-130133177D01*
X116209976Y-129972758D01*
X116288995Y-129824924D01*
X116288996Y-129824922D01*
X116395341Y-129695341D01*
X116524922Y-129588996D01*
X116540094Y-129580886D01*
X116672758Y-129509976D01*
X116833177Y-129461313D01*
X116958196Y-129449000D01*
X117041804Y-129449000D01*
X117166823Y-129461313D01*
X117166823Y-129461313D01*
G37*
G36*
X127248228Y-128181703D02*
G01*
X127403100Y-128245853D01*
X127542481Y-128338985D01*
X127661015Y-128457519D01*
X127754147Y-128596900D01*
X127818297Y-128751772D01*
X127851000Y-128916184D01*
X127851000Y-129083816D01*
X127818297Y-129248228D01*
X127754147Y-129403100D01*
X127661015Y-129542481D01*
X127542481Y-129661015D01*
X127403100Y-129754147D01*
X127248228Y-129818297D01*
X127083816Y-129851000D01*
X126916184Y-129851000D01*
X126751772Y-129818297D01*
X126596900Y-129754147D01*
X126457519Y-129661015D01*
X126338985Y-129542481D01*
X126245853Y-129403100D01*
X126181703Y-129248228D01*
X126149000Y-129083816D01*
X126149000Y-128916184D01*
X126181703Y-128751772D01*
X126245853Y-128596900D01*
X126338985Y-128457519D01*
X126457519Y-128338985D01*
X126596900Y-128245853D01*
X126751772Y-128181703D01*
X126916184Y-128149000D01*
X127083816Y-128149000D01*
X127248228Y-128181703D01*
X127248228Y-128181703D01*
G37*
G36*
X104566823Y-126941313D02*
G01*
X104727242Y-126989976D01*
X104859906Y-127060886D01*
X104875078Y-127068996D01*
X105004659Y-127175341D01*
X105111004Y-127304922D01*
X105111005Y-127304924D01*
X105190024Y-127452758D01*
X105238687Y-127613177D01*
X105255117Y-127780000D01*
X105238687Y-127946823D01*
X105190024Y-128107242D01*
X105119114Y-128239906D01*
X105111004Y-128255078D01*
X105004659Y-128384659D01*
X104875078Y-128491004D01*
X104875076Y-128491005D01*
X104727242Y-128570024D01*
X104566823Y-128618687D01*
X104441804Y-128631000D01*
X103558196Y-128631000D01*
X103433177Y-128618687D01*
X103272758Y-128570024D01*
X103124924Y-128491005D01*
X103124922Y-128491004D01*
X102995341Y-128384659D01*
X102888996Y-128255078D01*
X102880886Y-128239906D01*
X102809976Y-128107242D01*
X102761313Y-127946823D01*
X102744883Y-127780000D01*
X102761313Y-127613177D01*
X102809976Y-127452758D01*
X102888995Y-127304924D01*
X102888996Y-127304922D01*
X102995341Y-127175341D01*
X103124922Y-127068996D01*
X103140094Y-127060886D01*
X103272758Y-126989976D01*
X103433177Y-126941313D01*
X103558196Y-126929000D01*
X104441804Y-126929000D01*
X104566823Y-126941313D01*
X104566823Y-126941313D01*
G37*
G36*
X112186823Y-126941313D02*
G01*
X112347242Y-126989976D01*
X112479906Y-127060886D01*
X112495078Y-127068996D01*
X112624659Y-127175341D01*
X112731004Y-127304922D01*
X112731005Y-127304924D01*
X112810024Y-127452758D01*
X112858687Y-127613177D01*
X112875117Y-127780000D01*
X112858687Y-127946823D01*
X112810024Y-128107242D01*
X112739114Y-128239906D01*
X112731004Y-128255078D01*
X112624659Y-128384659D01*
X112495078Y-128491004D01*
X112495076Y-128491005D01*
X112347242Y-128570024D01*
X112186823Y-128618687D01*
X112061804Y-128631000D01*
X111178196Y-128631000D01*
X111053177Y-128618687D01*
X110892758Y-128570024D01*
X110744924Y-128491005D01*
X110744922Y-128491004D01*
X110615341Y-128384659D01*
X110508996Y-128255078D01*
X110500886Y-128239906D01*
X110429976Y-128107242D01*
X110381313Y-127946823D01*
X110364883Y-127780000D01*
X110381313Y-127613177D01*
X110429976Y-127452758D01*
X110508995Y-127304924D01*
X110508996Y-127304922D01*
X110615341Y-127175341D01*
X110744922Y-127068996D01*
X110760094Y-127060886D01*
X110892758Y-126989976D01*
X111053177Y-126941313D01*
X111178196Y-126929000D01*
X112061804Y-126929000D01*
X112186823Y-126941313D01*
X112186823Y-126941313D01*
G37*
G36*
X91350318Y-124495153D02*
G01*
X91568885Y-124585687D01*
X91568887Y-124585688D01*
X91765593Y-124717122D01*
X91932878Y-124884407D01*
X92007343Y-124995853D01*
X92064313Y-125081115D01*
X92154847Y-125299682D01*
X92201000Y-125531710D01*
X92201000Y-125768290D01*
X92154847Y-126000318D01*
X92091563Y-126153097D01*
X92064312Y-126218887D01*
X91932878Y-126415593D01*
X91765593Y-126582878D01*
X91568887Y-126714312D01*
X91568886Y-126714313D01*
X91568885Y-126714313D01*
X91350318Y-126804847D01*
X91118290Y-126851000D01*
X90881710Y-126851000D01*
X90649682Y-126804847D01*
X90431115Y-126714313D01*
X90431114Y-126714313D01*
X90431113Y-126714312D01*
X90234407Y-126582878D01*
X90067122Y-126415593D01*
X89935688Y-126218887D01*
X89908437Y-126153097D01*
X89845153Y-126000318D01*
X89799000Y-125768290D01*
X89799000Y-125531710D01*
X89845153Y-125299682D01*
X89935687Y-125081115D01*
X89992657Y-124995853D01*
X90067122Y-124884407D01*
X90234407Y-124717122D01*
X90431113Y-124585688D01*
X90431115Y-124585687D01*
X90649682Y-124495153D01*
X90881710Y-124449000D01*
X91118290Y-124449000D01*
X91350318Y-124495153D01*
X91350318Y-124495153D01*
G37*
G36*
X83748228Y-124931703D02*
G01*
X83903100Y-124995853D01*
X84042481Y-125088985D01*
X84161015Y-125207519D01*
X84254147Y-125346900D01*
X84318297Y-125501772D01*
X84351000Y-125666184D01*
X84351000Y-125833816D01*
X84318297Y-125998228D01*
X84254147Y-126153100D01*
X84161015Y-126292481D01*
X84042481Y-126411015D01*
X83903100Y-126504147D01*
X83748228Y-126568297D01*
X83583816Y-126601000D01*
X83416184Y-126601000D01*
X83251772Y-126568297D01*
X83096900Y-126504147D01*
X82957519Y-126411015D01*
X82838985Y-126292481D01*
X82745853Y-126153100D01*
X82681703Y-125998228D01*
X82649000Y-125833816D01*
X82649000Y-125666184D01*
X82681703Y-125501772D01*
X82745853Y-125346900D01*
X82838985Y-125207519D01*
X82957519Y-125088985D01*
X83096900Y-124995853D01*
X83251772Y-124931703D01*
X83416184Y-124899000D01*
X83583816Y-124899000D01*
X83748228Y-124931703D01*
X83748228Y-124931703D01*
G37*
G36*
X86248228Y-124931703D02*
G01*
X86403100Y-124995853D01*
X86542481Y-125088985D01*
X86661015Y-125207519D01*
X86754147Y-125346900D01*
X86818297Y-125501772D01*
X86851000Y-125666184D01*
X86851000Y-125833816D01*
X86818297Y-125998228D01*
X86754147Y-126153100D01*
X86661015Y-126292481D01*
X86542481Y-126411015D01*
X86403100Y-126504147D01*
X86248228Y-126568297D01*
X86083816Y-126601000D01*
X85916184Y-126601000D01*
X85751772Y-126568297D01*
X85596900Y-126504147D01*
X85457519Y-126411015D01*
X85338985Y-126292481D01*
X85245853Y-126153100D01*
X85181703Y-125998228D01*
X85149000Y-125833816D01*
X85149000Y-125666184D01*
X85181703Y-125501772D01*
X85245853Y-125346900D01*
X85338985Y-125207519D01*
X85457519Y-125088985D01*
X85596900Y-124995853D01*
X85751772Y-124931703D01*
X85916184Y-124899000D01*
X86083816Y-124899000D01*
X86248228Y-124931703D01*
X86248228Y-124931703D01*
G37*
G36*
X75403097Y-124494069D02*
G01*
X75506032Y-124504207D01*
X75704146Y-124564305D01*
X75704149Y-124564306D01*
X75800975Y-124616061D01*
X75886729Y-124661897D01*
X76046765Y-124793235D01*
X76178103Y-124953271D01*
X76200863Y-124995852D01*
X76275694Y-125135851D01*
X76275695Y-125135854D01*
X76335793Y-125333968D01*
X76356085Y-125540000D01*
X76335793Y-125746032D01*
X76305874Y-125844659D01*
X76275694Y-125944149D01*
X76272029Y-125951005D01*
X76178103Y-126126729D01*
X76046765Y-126286765D01*
X75886729Y-126418103D01*
X75800975Y-126463939D01*
X75704149Y-126515694D01*
X75704146Y-126515695D01*
X75506032Y-126575793D01*
X75403097Y-126585931D01*
X75351631Y-126591000D01*
X74648369Y-126591000D01*
X74596903Y-126585931D01*
X74493968Y-126575793D01*
X74295854Y-126515695D01*
X74295851Y-126515694D01*
X74199025Y-126463939D01*
X74113271Y-126418103D01*
X73953235Y-126286765D01*
X73821897Y-126126729D01*
X73727971Y-125951005D01*
X73724306Y-125944149D01*
X73694126Y-125844659D01*
X73664207Y-125746032D01*
X73643915Y-125540000D01*
X73664207Y-125333968D01*
X73724305Y-125135854D01*
X73724306Y-125135851D01*
X73799137Y-124995852D01*
X73821897Y-124953271D01*
X73953235Y-124793235D01*
X74113271Y-124661897D01*
X74199025Y-124616061D01*
X74295851Y-124564306D01*
X74295854Y-124564305D01*
X74493968Y-124504207D01*
X74596903Y-124494069D01*
X74648369Y-124489000D01*
X75351631Y-124489000D01*
X75403097Y-124494069D01*
X75403097Y-124494069D01*
G37*
G36*
X104566823Y-124401313D02*
G01*
X104727242Y-124449976D01*
X104811762Y-124495153D01*
X104875078Y-124528996D01*
X105004659Y-124635341D01*
X105111004Y-124764922D01*
X105111005Y-124764924D01*
X105190024Y-124912758D01*
X105238687Y-125073177D01*
X105255117Y-125240000D01*
X105238687Y-125406823D01*
X105190024Y-125567242D01*
X105137138Y-125666184D01*
X105111004Y-125715078D01*
X105004659Y-125844659D01*
X104875078Y-125951004D01*
X104875076Y-125951005D01*
X104727242Y-126030024D01*
X104566823Y-126078687D01*
X104441804Y-126091000D01*
X103558196Y-126091000D01*
X103433177Y-126078687D01*
X103272758Y-126030024D01*
X103124924Y-125951005D01*
X103124922Y-125951004D01*
X102995341Y-125844659D01*
X102888996Y-125715078D01*
X102862862Y-125666184D01*
X102809976Y-125567242D01*
X102761313Y-125406823D01*
X102744883Y-125240000D01*
X102761313Y-125073177D01*
X102809976Y-124912758D01*
X102888995Y-124764924D01*
X102888996Y-124764922D01*
X102995341Y-124635341D01*
X103124922Y-124528996D01*
X103188238Y-124495153D01*
X103272758Y-124449976D01*
X103433177Y-124401313D01*
X103558196Y-124389000D01*
X104441804Y-124389000D01*
X104566823Y-124401313D01*
X104566823Y-124401313D01*
G37*
G36*
X112186823Y-124401313D02*
G01*
X112347242Y-124449976D01*
X112431762Y-124495153D01*
X112495078Y-124528996D01*
X112624659Y-124635341D01*
X112731004Y-124764922D01*
X112731005Y-124764924D01*
X112810024Y-124912758D01*
X112858687Y-125073177D01*
X112875117Y-125240000D01*
X112858687Y-125406823D01*
X112810024Y-125567242D01*
X112757138Y-125666184D01*
X112731004Y-125715078D01*
X112624659Y-125844659D01*
X112495078Y-125951004D01*
X112495076Y-125951005D01*
X112347242Y-126030024D01*
X112186823Y-126078687D01*
X112061804Y-126091000D01*
X111178196Y-126091000D01*
X111053177Y-126078687D01*
X110892758Y-126030024D01*
X110744924Y-125951005D01*
X110744922Y-125951004D01*
X110615341Y-125844659D01*
X110508996Y-125715078D01*
X110482862Y-125666184D01*
X110429976Y-125567242D01*
X110381313Y-125406823D01*
X110364883Y-125240000D01*
X110381313Y-125073177D01*
X110429976Y-124912758D01*
X110508995Y-124764924D01*
X110508996Y-124764922D01*
X110615341Y-124635341D01*
X110744922Y-124528996D01*
X110808238Y-124495153D01*
X110892758Y-124449976D01*
X111053177Y-124401313D01*
X111178196Y-124389000D01*
X112061804Y-124389000D01*
X112186823Y-124401313D01*
X112186823Y-124401313D01*
G37*
G36*
X122166823Y-122461313D02*
G01*
X122327242Y-122509976D01*
X122403992Y-122551000D01*
X122475078Y-122588996D01*
X122604659Y-122695341D01*
X122711004Y-122824922D01*
X122711005Y-122824924D01*
X122790024Y-122972758D01*
X122838687Y-123133177D01*
X122855117Y-123300000D01*
X122838687Y-123466823D01*
X122790024Y-123627242D01*
X122719114Y-123759906D01*
X122711004Y-123775078D01*
X122604659Y-123904659D01*
X122475078Y-124011004D01*
X122475076Y-124011005D01*
X122327242Y-124090024D01*
X122166823Y-124138687D01*
X122041804Y-124151000D01*
X121958196Y-124151000D01*
X121833177Y-124138687D01*
X121672758Y-124090024D01*
X121524924Y-124011005D01*
X121524922Y-124011004D01*
X121395341Y-123904659D01*
X121288996Y-123775078D01*
X121280886Y-123759906D01*
X121209976Y-123627242D01*
X121161313Y-123466823D01*
X121144883Y-123300000D01*
X121161313Y-123133177D01*
X121209976Y-122972758D01*
X121288995Y-122824924D01*
X121288996Y-122824922D01*
X121395341Y-122695341D01*
X121524922Y-122588996D01*
X121596008Y-122551000D01*
X121672758Y-122509976D01*
X121833177Y-122461313D01*
X121958196Y-122449000D01*
X122041804Y-122449000D01*
X122166823Y-122461313D01*
X122166823Y-122461313D01*
G37*
G36*
X76351000Y-124051000D02*
G01*
X73649000Y-124051000D01*
X73649000Y-121949000D01*
X76351000Y-121949000D01*
X76351000Y-124051000D01*
X76351000Y-124051000D01*
G37*
G36*
X104566823Y-121861313D02*
G01*
X104727242Y-121909976D01*
X104803992Y-121951000D01*
X104875078Y-121988996D01*
X105004659Y-122095341D01*
X105111004Y-122224922D01*
X105111005Y-122224924D01*
X105190024Y-122372758D01*
X105238687Y-122533177D01*
X105255117Y-122700000D01*
X105238687Y-122866823D01*
X105190024Y-123027242D01*
X105119114Y-123159906D01*
X105111004Y-123175078D01*
X105004659Y-123304659D01*
X104875078Y-123411004D01*
X104875076Y-123411005D01*
X104727242Y-123490024D01*
X104566823Y-123538687D01*
X104441804Y-123551000D01*
X103558196Y-123551000D01*
X103433177Y-123538687D01*
X103272758Y-123490024D01*
X103124924Y-123411005D01*
X103124922Y-123411004D01*
X102995341Y-123304659D01*
X102888996Y-123175078D01*
X102880886Y-123159906D01*
X102809976Y-123027242D01*
X102761313Y-122866823D01*
X102744883Y-122700000D01*
X102761313Y-122533177D01*
X102809976Y-122372758D01*
X102888995Y-122224924D01*
X102888996Y-122224922D01*
X102995341Y-122095341D01*
X103124922Y-121988996D01*
X103196008Y-121951000D01*
X103272758Y-121909976D01*
X103433177Y-121861313D01*
X103558196Y-121849000D01*
X104441804Y-121849000D01*
X104566823Y-121861313D01*
X104566823Y-121861313D01*
G37*
G36*
X112186823Y-121861313D02*
G01*
X112347242Y-121909976D01*
X112423992Y-121951000D01*
X112495078Y-121988996D01*
X112624659Y-122095341D01*
X112731004Y-122224922D01*
X112731005Y-122224924D01*
X112810024Y-122372758D01*
X112858687Y-122533177D01*
X112875117Y-122700000D01*
X112858687Y-122866823D01*
X112810024Y-123027242D01*
X112739114Y-123159906D01*
X112731004Y-123175078D01*
X112624659Y-123304659D01*
X112495078Y-123411004D01*
X112495076Y-123411005D01*
X112347242Y-123490024D01*
X112186823Y-123538687D01*
X112061804Y-123551000D01*
X111178196Y-123551000D01*
X111053177Y-123538687D01*
X110892758Y-123490024D01*
X110744924Y-123411005D01*
X110744922Y-123411004D01*
X110615341Y-123304659D01*
X110508996Y-123175078D01*
X110500886Y-123159906D01*
X110429976Y-123027242D01*
X110381313Y-122866823D01*
X110364883Y-122700000D01*
X110381313Y-122533177D01*
X110429976Y-122372758D01*
X110508995Y-122224924D01*
X110508996Y-122224922D01*
X110615341Y-122095341D01*
X110744922Y-121988996D01*
X110816008Y-121951000D01*
X110892758Y-121909976D01*
X111053177Y-121861313D01*
X111178196Y-121849000D01*
X112061804Y-121849000D01*
X112186823Y-121861313D01*
X112186823Y-121861313D01*
G37*
G36*
X146551000Y-122551000D02*
G01*
X143449000Y-122551000D01*
X143449000Y-119449000D01*
X146551000Y-119449000D01*
X146551000Y-122551000D01*
X146551000Y-122551000D01*
G37*
G36*
X91350318Y-119595153D02*
G01*
X91567038Y-119684922D01*
X91568887Y-119685688D01*
X91765593Y-119817122D01*
X91932878Y-119984407D01*
X92064312Y-120181113D01*
X92064313Y-120181115D01*
X92154847Y-120399682D01*
X92201000Y-120631710D01*
X92201000Y-120868290D01*
X92154847Y-121100318D01*
X92081091Y-121278380D01*
X92064312Y-121318887D01*
X91932878Y-121515593D01*
X91765593Y-121682878D01*
X91568887Y-121814312D01*
X91568886Y-121814313D01*
X91568885Y-121814313D01*
X91350318Y-121904847D01*
X91118290Y-121951000D01*
X90881710Y-121951000D01*
X90649682Y-121904847D01*
X90431115Y-121814313D01*
X90431114Y-121814313D01*
X90431113Y-121814312D01*
X90234407Y-121682878D01*
X90067122Y-121515593D01*
X89935688Y-121318887D01*
X89918909Y-121278380D01*
X89845153Y-121100318D01*
X89799000Y-120868290D01*
X89799000Y-120631710D01*
X89845153Y-120399682D01*
X89935687Y-120181115D01*
X89935688Y-120181113D01*
X90067122Y-119984407D01*
X90234407Y-119817122D01*
X90431113Y-119685688D01*
X90432962Y-119684922D01*
X90649682Y-119595153D01*
X90881710Y-119549000D01*
X91118290Y-119549000D01*
X91350318Y-119595153D01*
X91350318Y-119595153D01*
G37*
G36*
X137245239Y-119347101D02*
G01*
X137481053Y-119418634D01*
X137698381Y-119534799D01*
X137888871Y-119691129D01*
X138045201Y-119881619D01*
X138161366Y-120098947D01*
X138232899Y-120334761D01*
X138257053Y-120580000D01*
X138232899Y-120825239D01*
X138161366Y-121061053D01*
X138045201Y-121278381D01*
X137888871Y-121468871D01*
X137698381Y-121625201D01*
X137481053Y-121741366D01*
X137245239Y-121812899D01*
X137061457Y-121831000D01*
X136938543Y-121831000D01*
X136754761Y-121812899D01*
X136518947Y-121741366D01*
X136301619Y-121625201D01*
X136111129Y-121468871D01*
X135954799Y-121278381D01*
X135838634Y-121061053D01*
X135767101Y-120825239D01*
X135742947Y-120580000D01*
X135767101Y-120334761D01*
X135838634Y-120098947D01*
X135954799Y-119881619D01*
X136111129Y-119691129D01*
X136301619Y-119534799D01*
X136518947Y-119418634D01*
X136754761Y-119347101D01*
X136938543Y-119329000D01*
X137061457Y-119329000D01*
X137245239Y-119347101D01*
X137245239Y-119347101D01*
G37*
G36*
X83748228Y-119931703D02*
G01*
X83903100Y-119995853D01*
X84042481Y-120088985D01*
X84161015Y-120207519D01*
X84254147Y-120346900D01*
X84318297Y-120501772D01*
X84351000Y-120666184D01*
X84351000Y-120833816D01*
X84318297Y-120998228D01*
X84254147Y-121153100D01*
X84161015Y-121292481D01*
X84042481Y-121411015D01*
X83903100Y-121504147D01*
X83748228Y-121568297D01*
X83583816Y-121601000D01*
X83416184Y-121601000D01*
X83251772Y-121568297D01*
X83096900Y-121504147D01*
X82957519Y-121411015D01*
X82838985Y-121292481D01*
X82745853Y-121153100D01*
X82681703Y-120998228D01*
X82649000Y-120833816D01*
X82649000Y-120666184D01*
X82681703Y-120501772D01*
X82745853Y-120346900D01*
X82838985Y-120207519D01*
X82957519Y-120088985D01*
X83096900Y-119995853D01*
X83251772Y-119931703D01*
X83416184Y-119899000D01*
X83583816Y-119899000D01*
X83748228Y-119931703D01*
X83748228Y-119931703D01*
G37*
G36*
X86248228Y-119931703D02*
G01*
X86403100Y-119995853D01*
X86542481Y-120088985D01*
X86661015Y-120207519D01*
X86754147Y-120346900D01*
X86818297Y-120501772D01*
X86851000Y-120666184D01*
X86851000Y-120833816D01*
X86818297Y-120998228D01*
X86754147Y-121153100D01*
X86661015Y-121292481D01*
X86542481Y-121411015D01*
X86403100Y-121504147D01*
X86248228Y-121568297D01*
X86083816Y-121601000D01*
X85916184Y-121601000D01*
X85751772Y-121568297D01*
X85596900Y-121504147D01*
X85457519Y-121411015D01*
X85338985Y-121292481D01*
X85245853Y-121153100D01*
X85181703Y-120998228D01*
X85149000Y-120833816D01*
X85149000Y-120666184D01*
X85181703Y-120501772D01*
X85245853Y-120346900D01*
X85338985Y-120207519D01*
X85457519Y-120088985D01*
X85596900Y-119995853D01*
X85751772Y-119931703D01*
X85916184Y-119899000D01*
X86083816Y-119899000D01*
X86248228Y-119931703D01*
X86248228Y-119931703D01*
G37*
G36*
X112186823Y-119321313D02*
G01*
X112347242Y-119369976D01*
X112438278Y-119418636D01*
X112495078Y-119448996D01*
X112624659Y-119555341D01*
X112731004Y-119684922D01*
X112731005Y-119684924D01*
X112810024Y-119832758D01*
X112858687Y-119993177D01*
X112875117Y-120160000D01*
X112858687Y-120326823D01*
X112810024Y-120487242D01*
X112760444Y-120580000D01*
X112731004Y-120635078D01*
X112624659Y-120764659D01*
X112495078Y-120871004D01*
X112495076Y-120871005D01*
X112347242Y-120950024D01*
X112186823Y-120998687D01*
X112061804Y-121011000D01*
X111178196Y-121011000D01*
X111053177Y-120998687D01*
X110892758Y-120950024D01*
X110744924Y-120871005D01*
X110744922Y-120871004D01*
X110615341Y-120764659D01*
X110508996Y-120635078D01*
X110479556Y-120580000D01*
X110429976Y-120487242D01*
X110381313Y-120326823D01*
X110364883Y-120160000D01*
X110381313Y-119993177D01*
X110429976Y-119832758D01*
X110508995Y-119684924D01*
X110508996Y-119684922D01*
X110615341Y-119555341D01*
X110744922Y-119448996D01*
X110801722Y-119418636D01*
X110892758Y-119369976D01*
X111053177Y-119321313D01*
X111178196Y-119309000D01*
X112061804Y-119309000D01*
X112186823Y-119321313D01*
X112186823Y-119321313D01*
G37*
G36*
X104566823Y-119321313D02*
G01*
X104727242Y-119369976D01*
X104818278Y-119418636D01*
X104875078Y-119448996D01*
X105004659Y-119555341D01*
X105111004Y-119684922D01*
X105111005Y-119684924D01*
X105190024Y-119832758D01*
X105238687Y-119993177D01*
X105255117Y-120160000D01*
X105238687Y-120326823D01*
X105190024Y-120487242D01*
X105140444Y-120580000D01*
X105111004Y-120635078D01*
X105004659Y-120764659D01*
X104875078Y-120871004D01*
X104875076Y-120871005D01*
X104727242Y-120950024D01*
X104566823Y-120998687D01*
X104441804Y-121011000D01*
X103558196Y-121011000D01*
X103433177Y-120998687D01*
X103272758Y-120950024D01*
X103124924Y-120871005D01*
X103124922Y-120871004D01*
X102995341Y-120764659D01*
X102888996Y-120635078D01*
X102859556Y-120580000D01*
X102809976Y-120487242D01*
X102761313Y-120326823D01*
X102744883Y-120160000D01*
X102761313Y-119993177D01*
X102809976Y-119832758D01*
X102888995Y-119684924D01*
X102888996Y-119684922D01*
X102995341Y-119555341D01*
X103124922Y-119448996D01*
X103181722Y-119418636D01*
X103272758Y-119369976D01*
X103433177Y-119321313D01*
X103558196Y-119309000D01*
X104441804Y-119309000D01*
X104566823Y-119321313D01*
X104566823Y-119321313D01*
G37*
G36*
X112186823Y-116781313D02*
G01*
X112347242Y-116829976D01*
X112479906Y-116900886D01*
X112495078Y-116908996D01*
X112624659Y-117015341D01*
X112731004Y-117144922D01*
X112731005Y-117144924D01*
X112810024Y-117292758D01*
X112858687Y-117453177D01*
X112875117Y-117620000D01*
X112858687Y-117786823D01*
X112810024Y-117947242D01*
X112739114Y-118079906D01*
X112731004Y-118095078D01*
X112624659Y-118224659D01*
X112495078Y-118331004D01*
X112495076Y-118331005D01*
X112347242Y-118410024D01*
X112186823Y-118458687D01*
X112061804Y-118471000D01*
X111178196Y-118471000D01*
X111053177Y-118458687D01*
X110892758Y-118410024D01*
X110744924Y-118331005D01*
X110744922Y-118331004D01*
X110615341Y-118224659D01*
X110508996Y-118095078D01*
X110500886Y-118079906D01*
X110429976Y-117947242D01*
X110381313Y-117786823D01*
X110364883Y-117620000D01*
X110381313Y-117453177D01*
X110429976Y-117292758D01*
X110508995Y-117144924D01*
X110508996Y-117144922D01*
X110615341Y-117015341D01*
X110744922Y-116908996D01*
X110760094Y-116900886D01*
X110892758Y-116829976D01*
X111053177Y-116781313D01*
X111178196Y-116769000D01*
X112061804Y-116769000D01*
X112186823Y-116781313D01*
X112186823Y-116781313D01*
G37*
G36*
X104566823Y-116781313D02*
G01*
X104727242Y-116829976D01*
X104859906Y-116900886D01*
X104875078Y-116908996D01*
X105004659Y-117015341D01*
X105111004Y-117144922D01*
X105111005Y-117144924D01*
X105190024Y-117292758D01*
X105238687Y-117453177D01*
X105255117Y-117620000D01*
X105238687Y-117786823D01*
X105190024Y-117947242D01*
X105119114Y-118079906D01*
X105111004Y-118095078D01*
X105004659Y-118224659D01*
X104875078Y-118331004D01*
X104875076Y-118331005D01*
X104727242Y-118410024D01*
X104566823Y-118458687D01*
X104441804Y-118471000D01*
X103558196Y-118471000D01*
X103433177Y-118458687D01*
X103272758Y-118410024D01*
X103124924Y-118331005D01*
X103124922Y-118331004D01*
X102995341Y-118224659D01*
X102888996Y-118095078D01*
X102880886Y-118079906D01*
X102809976Y-117947242D01*
X102761313Y-117786823D01*
X102744883Y-117620000D01*
X102761313Y-117453177D01*
X102809976Y-117292758D01*
X102888995Y-117144924D01*
X102888996Y-117144922D01*
X102995341Y-117015341D01*
X103124922Y-116908996D01*
X103140094Y-116900886D01*
X103272758Y-116829976D01*
X103433177Y-116781313D01*
X103558196Y-116769000D01*
X104441804Y-116769000D01*
X104566823Y-116781313D01*
X104566823Y-116781313D01*
G37*
G36*
X145302585Y-114398802D02*
G01*
X145452410Y-114428604D01*
X145734674Y-114545521D01*
X145988705Y-114715259D01*
X146204741Y-114931295D01*
X146374479Y-115185326D01*
X146488796Y-115461313D01*
X146491396Y-115467591D01*
X146536699Y-115695341D01*
X146551000Y-115767240D01*
X146551000Y-116072760D01*
X146491396Y-116372410D01*
X146374479Y-116654674D01*
X146204741Y-116908705D01*
X145988705Y-117124741D01*
X145734674Y-117294479D01*
X145452410Y-117411396D01*
X145302585Y-117441198D01*
X145152761Y-117471000D01*
X144847239Y-117471000D01*
X144697415Y-117441198D01*
X144547590Y-117411396D01*
X144265326Y-117294479D01*
X144011295Y-117124741D01*
X143795259Y-116908705D01*
X143625521Y-116654674D01*
X143508604Y-116372410D01*
X143449000Y-116072760D01*
X143449000Y-115767240D01*
X143463302Y-115695341D01*
X143508604Y-115467591D01*
X143511204Y-115461313D01*
X143625521Y-115185326D01*
X143795259Y-114931295D01*
X144011295Y-114715259D01*
X144265326Y-114545521D01*
X144547590Y-114428604D01*
X144697415Y-114398802D01*
X144847239Y-114369000D01*
X145152761Y-114369000D01*
X145302585Y-114398802D01*
X145302585Y-114398802D01*
G37*
G36*
X127166823Y-115461313D02*
G01*
X127327242Y-115509976D01*
X127459906Y-115580886D01*
X127475078Y-115588996D01*
X127604659Y-115695341D01*
X127711004Y-115824922D01*
X127711005Y-115824924D01*
X127790024Y-115972758D01*
X127838687Y-116133177D01*
X127855117Y-116300000D01*
X127838687Y-116466823D01*
X127790024Y-116627242D01*
X127775362Y-116654672D01*
X127711004Y-116775078D01*
X127604659Y-116904659D01*
X127475078Y-117011004D01*
X127475076Y-117011005D01*
X127327242Y-117090024D01*
X127166823Y-117138687D01*
X127041804Y-117151000D01*
X126958196Y-117151000D01*
X126833177Y-117138687D01*
X126672758Y-117090024D01*
X126524924Y-117011005D01*
X126524922Y-117011004D01*
X126395341Y-116904659D01*
X126288996Y-116775078D01*
X126224638Y-116654672D01*
X126209976Y-116627242D01*
X126161313Y-116466823D01*
X126144883Y-116300000D01*
X126161313Y-116133177D01*
X126209976Y-115972758D01*
X126288995Y-115824924D01*
X126288996Y-115824922D01*
X126395341Y-115695341D01*
X126524922Y-115588996D01*
X126540094Y-115580886D01*
X126672758Y-115509976D01*
X126833177Y-115461313D01*
X126958196Y-115449000D01*
X127041804Y-115449000D01*
X127166823Y-115461313D01*
X127166823Y-115461313D01*
G37*
G36*
X138251000Y-116751000D02*
G01*
X135749000Y-116751000D01*
X135749000Y-114249000D01*
X138251000Y-114249000D01*
X138251000Y-116751000D01*
X138251000Y-116751000D01*
G37*
G36*
X104566823Y-114241313D02*
G01*
X104727242Y-114289976D01*
X104859906Y-114360886D01*
X104875078Y-114368996D01*
X105004659Y-114475341D01*
X105111004Y-114604922D01*
X105111005Y-114604924D01*
X105190024Y-114752758D01*
X105238687Y-114913177D01*
X105255117Y-115080000D01*
X105238687Y-115246823D01*
X105190024Y-115407242D01*
X105135112Y-115509975D01*
X105111004Y-115555078D01*
X105004659Y-115684659D01*
X104875078Y-115791004D01*
X104875076Y-115791005D01*
X104727242Y-115870024D01*
X104566823Y-115918687D01*
X104441804Y-115931000D01*
X103558196Y-115931000D01*
X103433177Y-115918687D01*
X103272758Y-115870024D01*
X103124924Y-115791005D01*
X103124922Y-115791004D01*
X102995341Y-115684659D01*
X102888996Y-115555078D01*
X102864888Y-115509975D01*
X102809976Y-115407242D01*
X102761313Y-115246823D01*
X102744883Y-115080000D01*
X102761313Y-114913177D01*
X102809976Y-114752758D01*
X102888995Y-114604924D01*
X102888996Y-114604922D01*
X102995341Y-114475341D01*
X103124922Y-114368996D01*
X103140094Y-114360886D01*
X103272758Y-114289976D01*
X103433177Y-114241313D01*
X103558196Y-114229000D01*
X104441804Y-114229000D01*
X104566823Y-114241313D01*
X104566823Y-114241313D01*
G37*
G36*
X112186823Y-114241313D02*
G01*
X112347242Y-114289976D01*
X112479906Y-114360886D01*
X112495078Y-114368996D01*
X112624659Y-114475341D01*
X112731004Y-114604922D01*
X112731005Y-114604924D01*
X112810024Y-114752758D01*
X112858687Y-114913177D01*
X112875117Y-115080000D01*
X112858687Y-115246823D01*
X112810024Y-115407242D01*
X112755112Y-115509975D01*
X112731004Y-115555078D01*
X112624659Y-115684659D01*
X112495078Y-115791004D01*
X112495076Y-115791005D01*
X112347242Y-115870024D01*
X112186823Y-115918687D01*
X112061804Y-115931000D01*
X111178196Y-115931000D01*
X111053177Y-115918687D01*
X110892758Y-115870024D01*
X110744924Y-115791005D01*
X110744922Y-115791004D01*
X110615341Y-115684659D01*
X110508996Y-115555078D01*
X110484888Y-115509975D01*
X110429976Y-115407242D01*
X110381313Y-115246823D01*
X110364883Y-115080000D01*
X110381313Y-114913177D01*
X110429976Y-114752758D01*
X110508995Y-114604924D01*
X110508996Y-114604922D01*
X110615341Y-114475341D01*
X110744922Y-114368996D01*
X110760094Y-114360886D01*
X110892758Y-114289976D01*
X111053177Y-114241313D01*
X111178196Y-114229000D01*
X112061804Y-114229000D01*
X112186823Y-114241313D01*
X112186823Y-114241313D01*
G37*
G36*
X97248228Y-112181703D02*
G01*
X97403100Y-112245853D01*
X97542481Y-112338985D01*
X97661015Y-112457519D01*
X97754147Y-112596900D01*
X97818297Y-112751772D01*
X97851000Y-112916184D01*
X97851000Y-113083816D01*
X97818297Y-113248228D01*
X97754147Y-113403100D01*
X97661015Y-113542481D01*
X97542481Y-113661015D01*
X97403100Y-113754147D01*
X97248228Y-113818297D01*
X97083816Y-113851000D01*
X96916184Y-113851000D01*
X96751772Y-113818297D01*
X96596900Y-113754147D01*
X96457519Y-113661015D01*
X96338985Y-113542481D01*
X96245853Y-113403100D01*
X96181703Y-113248228D01*
X96149000Y-113083816D01*
X96149000Y-112916184D01*
X96181703Y-112751772D01*
X96245853Y-112596900D01*
X96338985Y-112457519D01*
X96457519Y-112338985D01*
X96596900Y-112245853D01*
X96751772Y-112181703D01*
X96916184Y-112149000D01*
X97083816Y-112149000D01*
X97248228Y-112181703D01*
X97248228Y-112181703D01*
G37*
G36*
X84466823Y-112161313D02*
G01*
X84627242Y-112209976D01*
X84694361Y-112245852D01*
X84775078Y-112288996D01*
X84904659Y-112395341D01*
X85011004Y-112524922D01*
X85011005Y-112524924D01*
X85090024Y-112672758D01*
X85138687Y-112833177D01*
X85155117Y-113000000D01*
X85138687Y-113166823D01*
X85090024Y-113327242D01*
X85049477Y-113403100D01*
X85011004Y-113475078D01*
X84904659Y-113604659D01*
X84775078Y-113711004D01*
X84775076Y-113711005D01*
X84627242Y-113790024D01*
X84466823Y-113838687D01*
X84341804Y-113851000D01*
X84258196Y-113851000D01*
X84133177Y-113838687D01*
X83972758Y-113790024D01*
X83824924Y-113711005D01*
X83824922Y-113711004D01*
X83695341Y-113604659D01*
X83588996Y-113475078D01*
X83550523Y-113403100D01*
X83509976Y-113327242D01*
X83461313Y-113166823D01*
X83444883Y-113000000D01*
X83461313Y-112833177D01*
X83509976Y-112672758D01*
X83588995Y-112524924D01*
X83588996Y-112524922D01*
X83695341Y-112395341D01*
X83824922Y-112288996D01*
X83905639Y-112245852D01*
X83972758Y-112209976D01*
X84133177Y-112161313D01*
X84258196Y-112149000D01*
X84341804Y-112149000D01*
X84466823Y-112161313D01*
X84466823Y-112161313D01*
G37*
G36*
X104566823Y-111701313D02*
G01*
X104727242Y-111749976D01*
X104859906Y-111820886D01*
X104875078Y-111828996D01*
X105004659Y-111935341D01*
X105111004Y-112064922D01*
X105111005Y-112064924D01*
X105190024Y-112212758D01*
X105238687Y-112373177D01*
X105255117Y-112540000D01*
X105238687Y-112706823D01*
X105190024Y-112867242D01*
X105163864Y-112916184D01*
X105111004Y-113015078D01*
X105004659Y-113144659D01*
X104875078Y-113251004D01*
X104875076Y-113251005D01*
X104727242Y-113330024D01*
X104566823Y-113378687D01*
X104441804Y-113391000D01*
X103558196Y-113391000D01*
X103433177Y-113378687D01*
X103272758Y-113330024D01*
X103124924Y-113251005D01*
X103124922Y-113251004D01*
X102995341Y-113144659D01*
X102888996Y-113015078D01*
X102836136Y-112916184D01*
X102809976Y-112867242D01*
X102761313Y-112706823D01*
X102744883Y-112540000D01*
X102761313Y-112373177D01*
X102809976Y-112212758D01*
X102888995Y-112064924D01*
X102888996Y-112064922D01*
X102995341Y-111935341D01*
X103124922Y-111828996D01*
X103140094Y-111820886D01*
X103272758Y-111749976D01*
X103433177Y-111701313D01*
X103558196Y-111689000D01*
X104441804Y-111689000D01*
X104566823Y-111701313D01*
X104566823Y-111701313D01*
G37*
G36*
X112186823Y-111701313D02*
G01*
X112347242Y-111749976D01*
X112479906Y-111820886D01*
X112495078Y-111828996D01*
X112624659Y-111935341D01*
X112731004Y-112064922D01*
X112731005Y-112064924D01*
X112810024Y-112212758D01*
X112858687Y-112373177D01*
X112875117Y-112540000D01*
X112858687Y-112706823D01*
X112810024Y-112867242D01*
X112783864Y-112916184D01*
X112731004Y-113015078D01*
X112624659Y-113144659D01*
X112495078Y-113251004D01*
X112495076Y-113251005D01*
X112347242Y-113330024D01*
X112186823Y-113378687D01*
X112061804Y-113391000D01*
X111178196Y-113391000D01*
X111053177Y-113378687D01*
X110892758Y-113330024D01*
X110744924Y-113251005D01*
X110744922Y-113251004D01*
X110615341Y-113144659D01*
X110508996Y-113015078D01*
X110456136Y-112916184D01*
X110429976Y-112867242D01*
X110381313Y-112706823D01*
X110364883Y-112540000D01*
X110381313Y-112373177D01*
X110429976Y-112212758D01*
X110508995Y-112064924D01*
X110508996Y-112064922D01*
X110615341Y-111935341D01*
X110744922Y-111828996D01*
X110760094Y-111820886D01*
X110892758Y-111749976D01*
X111053177Y-111701313D01*
X111178196Y-111689000D01*
X112061804Y-111689000D01*
X112186823Y-111701313D01*
X112186823Y-111701313D01*
G37*
G36*
X75403097Y-109494069D02*
G01*
X75506032Y-109504207D01*
X75704146Y-109564305D01*
X75704149Y-109564306D01*
X75782577Y-109606227D01*
X75886729Y-109661897D01*
X76046765Y-109793235D01*
X76178103Y-109953271D01*
X76203080Y-110000000D01*
X76275694Y-110135851D01*
X76275695Y-110135854D01*
X76335793Y-110333968D01*
X76356085Y-110540000D01*
X76335793Y-110746032D01*
X76307686Y-110838686D01*
X76275694Y-110944149D01*
X76223939Y-111040975D01*
X76178103Y-111126729D01*
X76046765Y-111286765D01*
X75886729Y-111418103D01*
X75800975Y-111463939D01*
X75704149Y-111515694D01*
X75704146Y-111515695D01*
X75506032Y-111575793D01*
X75403097Y-111585931D01*
X75351631Y-111591000D01*
X74648369Y-111591000D01*
X74596903Y-111585931D01*
X74493968Y-111575793D01*
X74295854Y-111515695D01*
X74295851Y-111515694D01*
X74199025Y-111463939D01*
X74113271Y-111418103D01*
X73953235Y-111286765D01*
X73821897Y-111126729D01*
X73776061Y-111040975D01*
X73724306Y-110944149D01*
X73692314Y-110838686D01*
X73664207Y-110746032D01*
X73643915Y-110540000D01*
X73664207Y-110333968D01*
X73724305Y-110135854D01*
X73724306Y-110135851D01*
X73796920Y-110000000D01*
X73821897Y-109953271D01*
X73953235Y-109793235D01*
X74113271Y-109661897D01*
X74217423Y-109606227D01*
X74295851Y-109564306D01*
X74295854Y-109564305D01*
X74493968Y-109504207D01*
X74596903Y-109494069D01*
X74648369Y-109489000D01*
X75351631Y-109489000D01*
X75403097Y-109494069D01*
X75403097Y-109494069D01*
G37*
G36*
X105251000Y-110851000D02*
G01*
X102749000Y-110851000D01*
X102749000Y-109149000D01*
X105251000Y-109149000D01*
X105251000Y-110851000D01*
X105251000Y-110851000D01*
G37*
G36*
X112186823Y-109161313D02*
G01*
X112347242Y-109209976D01*
X112473374Y-109277395D01*
X112495078Y-109288996D01*
X112624659Y-109395341D01*
X112731004Y-109524922D01*
X112731005Y-109524924D01*
X112810024Y-109672758D01*
X112858687Y-109833177D01*
X112875117Y-110000000D01*
X112858687Y-110166823D01*
X112810024Y-110327242D01*
X112739114Y-110459906D01*
X112731004Y-110475078D01*
X112624659Y-110604659D01*
X112495078Y-110711004D01*
X112495076Y-110711005D01*
X112347242Y-110790024D01*
X112186823Y-110838687D01*
X112061804Y-110851000D01*
X111178196Y-110851000D01*
X111053177Y-110838687D01*
X110892758Y-110790024D01*
X110744924Y-110711005D01*
X110744922Y-110711004D01*
X110615341Y-110604659D01*
X110508996Y-110475078D01*
X110500886Y-110459906D01*
X110429976Y-110327242D01*
X110381313Y-110166823D01*
X110364883Y-110000000D01*
X110381313Y-109833177D01*
X110429976Y-109672758D01*
X110508995Y-109524924D01*
X110508996Y-109524922D01*
X110615341Y-109395341D01*
X110744922Y-109288996D01*
X110766626Y-109277395D01*
X110892758Y-109209976D01*
X111053177Y-109161313D01*
X111178196Y-109149000D01*
X112061804Y-109149000D01*
X112186823Y-109161313D01*
X112186823Y-109161313D01*
G37*
G36*
X118737395Y-108085546D02*
G01*
X118910466Y-108157234D01*
X118910467Y-108157235D01*
X119066227Y-108261310D01*
X119198690Y-108393773D01*
X119198691Y-108393775D01*
X119302766Y-108549534D01*
X119374454Y-108722605D01*
X119411000Y-108906333D01*
X119411000Y-109093667D01*
X119374454Y-109277395D01*
X119302766Y-109450466D01*
X119302765Y-109450467D01*
X119198690Y-109606227D01*
X119066227Y-109738690D01*
X118987818Y-109791081D01*
X118910466Y-109842766D01*
X118737395Y-109914454D01*
X118553667Y-109951000D01*
X118366333Y-109951000D01*
X118182605Y-109914454D01*
X118009534Y-109842766D01*
X117932182Y-109791081D01*
X117853773Y-109738690D01*
X117721310Y-109606227D01*
X117617235Y-109450467D01*
X117617234Y-109450466D01*
X117545546Y-109277395D01*
X117509000Y-109093667D01*
X117509000Y-108906333D01*
X117545546Y-108722605D01*
X117617234Y-108549534D01*
X117721309Y-108393775D01*
X117721310Y-108393773D01*
X117853773Y-108261310D01*
X118009533Y-108157235D01*
X118009534Y-108157234D01*
X118182605Y-108085546D01*
X118366333Y-108049000D01*
X118553667Y-108049000D01*
X118737395Y-108085546D01*
X118737395Y-108085546D01*
G37*
G36*
X121951000Y-109951000D02*
G01*
X120049000Y-109951000D01*
X120049000Y-108049000D01*
X121951000Y-108049000D01*
X121951000Y-109951000D01*
X121951000Y-109951000D01*
G37*
G36*
X76351000Y-109051000D02*
G01*
X73649000Y-109051000D01*
X73649000Y-106949000D01*
X76351000Y-106949000D01*
X76351000Y-109051000D01*
X76351000Y-109051000D01*
G37*
G36*
X84466823Y-107161313D02*
G01*
X84627242Y-107209976D01*
X84694361Y-107245852D01*
X84775078Y-107288996D01*
X84904659Y-107395341D01*
X85011004Y-107524922D01*
X85011005Y-107524924D01*
X85090024Y-107672758D01*
X85138687Y-107833177D01*
X85155117Y-108000000D01*
X85138687Y-108166823D01*
X85090024Y-108327242D01*
X85049477Y-108403100D01*
X85011004Y-108475078D01*
X84904659Y-108604659D01*
X84775078Y-108711004D01*
X84775076Y-108711005D01*
X84627242Y-108790024D01*
X84466823Y-108838687D01*
X84341804Y-108851000D01*
X84258196Y-108851000D01*
X84133177Y-108838687D01*
X83972758Y-108790024D01*
X83824924Y-108711005D01*
X83824922Y-108711004D01*
X83695341Y-108604659D01*
X83588996Y-108475078D01*
X83550523Y-108403100D01*
X83509976Y-108327242D01*
X83461313Y-108166823D01*
X83444883Y-108000000D01*
X83461313Y-107833177D01*
X83509976Y-107672758D01*
X83588995Y-107524924D01*
X83588996Y-107524922D01*
X83695341Y-107395341D01*
X83824922Y-107288996D01*
X83905639Y-107245852D01*
X83972758Y-107209976D01*
X84133177Y-107161313D01*
X84258196Y-107149000D01*
X84341804Y-107149000D01*
X84466823Y-107161313D01*
X84466823Y-107161313D01*
G37*
G36*
X97248228Y-107181703D02*
G01*
X97403100Y-107245853D01*
X97542481Y-107338985D01*
X97661015Y-107457519D01*
X97754147Y-107596900D01*
X97818297Y-107751772D01*
X97851000Y-107916184D01*
X97851000Y-108083816D01*
X97818297Y-108248228D01*
X97754147Y-108403100D01*
X97661015Y-108542481D01*
X97542481Y-108661015D01*
X97403100Y-108754147D01*
X97248228Y-108818297D01*
X97083816Y-108851000D01*
X96916184Y-108851000D01*
X96751772Y-108818297D01*
X96596900Y-108754147D01*
X96457519Y-108661015D01*
X96338985Y-108542481D01*
X96245853Y-108403100D01*
X96181703Y-108248228D01*
X96149000Y-108083816D01*
X96149000Y-107916184D01*
X96181703Y-107751772D01*
X96245853Y-107596900D01*
X96338985Y-107457519D01*
X96457519Y-107338985D01*
X96596900Y-107245853D01*
X96751772Y-107181703D01*
X96916184Y-107149000D01*
X97083816Y-107149000D01*
X97248228Y-107181703D01*
X97248228Y-107181703D01*
G37*
G36*
X111056564Y-104989389D02*
G01*
X111247833Y-105068615D01*
X111247835Y-105068616D01*
X111419973Y-105183635D01*
X111566365Y-105330027D01*
X111681385Y-105502167D01*
X111760611Y-105693436D01*
X111801000Y-105896484D01*
X111801000Y-106103516D01*
X111760611Y-106306564D01*
X111681385Y-106497833D01*
X111681384Y-106497835D01*
X111566365Y-106669973D01*
X111419973Y-106816365D01*
X111247835Y-106931384D01*
X111247834Y-106931385D01*
X111247833Y-106931385D01*
X111056564Y-107010611D01*
X110853516Y-107051000D01*
X110646484Y-107051000D01*
X110443436Y-107010611D01*
X110252167Y-106931385D01*
X110252166Y-106931385D01*
X110252165Y-106931384D01*
X110080027Y-106816365D01*
X109933635Y-106669973D01*
X109818616Y-106497835D01*
X109818615Y-106497833D01*
X109739389Y-106306564D01*
X109699000Y-106103516D01*
X109699000Y-105896484D01*
X109739389Y-105693436D01*
X109818615Y-105502167D01*
X109933635Y-105330027D01*
X110080027Y-105183635D01*
X110252165Y-105068616D01*
X110252167Y-105068615D01*
X110443436Y-104989389D01*
X110646484Y-104949000D01*
X110853516Y-104949000D01*
X111056564Y-104989389D01*
X111056564Y-104989389D01*
G37*
G36*
X104556564Y-104989389D02*
G01*
X104747833Y-105068615D01*
X104747835Y-105068616D01*
X104919973Y-105183635D01*
X105066365Y-105330027D01*
X105181385Y-105502167D01*
X105260611Y-105693436D01*
X105301000Y-105896484D01*
X105301000Y-106103516D01*
X105260611Y-106306564D01*
X105181385Y-106497833D01*
X105181384Y-106497835D01*
X105066365Y-106669973D01*
X104919973Y-106816365D01*
X104747835Y-106931384D01*
X104747834Y-106931385D01*
X104747833Y-106931385D01*
X104556564Y-107010611D01*
X104353516Y-107051000D01*
X104146484Y-107051000D01*
X103943436Y-107010611D01*
X103752167Y-106931385D01*
X103752166Y-106931385D01*
X103752165Y-106931384D01*
X103580027Y-106816365D01*
X103433635Y-106669973D01*
X103318616Y-106497835D01*
X103318615Y-106497833D01*
X103239389Y-106306564D01*
X103199000Y-106103516D01*
X103199000Y-105896484D01*
X103239389Y-105693436D01*
X103318615Y-105502167D01*
X103433635Y-105330027D01*
X103580027Y-105183635D01*
X103752165Y-105068616D01*
X103752167Y-105068615D01*
X103943436Y-104989389D01*
X104146484Y-104949000D01*
X104353516Y-104949000D01*
X104556564Y-104989389D01*
X104556564Y-104989389D01*
G37*
G36*
X136186425Y-102642760D02*
G01*
X136186428Y-102642761D01*
X136186429Y-102642761D01*
X136365693Y-102697140D01*
X136365696Y-102697142D01*
X136365697Y-102697142D01*
X136530903Y-102785446D01*
X136675712Y-102904288D01*
X136794554Y-103049097D01*
X136882858Y-103214303D01*
X136882860Y-103214307D01*
X136917117Y-103327239D01*
X136937240Y-103393575D01*
X136955601Y-103580000D01*
X136937240Y-103766425D01*
X136937239Y-103766428D01*
X136937239Y-103766429D01*
X136882860Y-103945693D01*
X136882858Y-103945696D01*
X136882858Y-103945697D01*
X136794554Y-104110903D01*
X136675712Y-104255712D01*
X136530903Y-104374554D01*
X136365697Y-104462858D01*
X136365693Y-104462860D01*
X136186429Y-104517239D01*
X136186428Y-104517239D01*
X136186425Y-104517240D01*
X136046718Y-104531000D01*
X135953282Y-104531000D01*
X135813575Y-104517240D01*
X135813572Y-104517239D01*
X135813571Y-104517239D01*
X135634307Y-104462860D01*
X135634303Y-104462858D01*
X135469097Y-104374554D01*
X135324288Y-104255712D01*
X135205446Y-104110903D01*
X135117142Y-103945697D01*
X135117142Y-103945696D01*
X135117140Y-103945693D01*
X135062761Y-103766429D01*
X135062761Y-103766428D01*
X135062760Y-103766425D01*
X135044399Y-103580000D01*
X135062760Y-103393575D01*
X135082883Y-103327239D01*
X135117140Y-103214307D01*
X135117142Y-103214303D01*
X135205446Y-103049097D01*
X135324288Y-102904288D01*
X135469097Y-102785446D01*
X135634303Y-102697142D01*
X135634304Y-102697142D01*
X135634307Y-102697140D01*
X135813571Y-102642761D01*
X135813572Y-102642761D01*
X135813575Y-102642760D01*
X135953282Y-102629000D01*
X136046718Y-102629000D01*
X136186425Y-102642760D01*
X136186425Y-102642760D01*
G37*
G36*
X97248228Y-102181703D02*
G01*
X97403100Y-102245853D01*
X97542481Y-102338985D01*
X97661015Y-102457519D01*
X97754147Y-102596900D01*
X97818297Y-102751772D01*
X97851000Y-102916184D01*
X97851000Y-103083816D01*
X97818297Y-103248228D01*
X97754147Y-103403100D01*
X97661015Y-103542481D01*
X97542481Y-103661015D01*
X97403100Y-103754147D01*
X97248228Y-103818297D01*
X97083816Y-103851000D01*
X96916184Y-103851000D01*
X96751772Y-103818297D01*
X96596900Y-103754147D01*
X96457519Y-103661015D01*
X96338985Y-103542481D01*
X96245853Y-103403100D01*
X96181703Y-103248228D01*
X96149000Y-103083816D01*
X96149000Y-102916184D01*
X96181703Y-102751772D01*
X96245853Y-102596900D01*
X96338985Y-102457519D01*
X96457519Y-102338985D01*
X96596900Y-102245853D01*
X96751772Y-102181703D01*
X96916184Y-102149000D01*
X97083816Y-102149000D01*
X97248228Y-102181703D01*
X97248228Y-102181703D01*
G37*
G36*
X84466823Y-102161313D02*
G01*
X84627242Y-102209976D01*
X84694361Y-102245852D01*
X84775078Y-102288996D01*
X84904659Y-102395341D01*
X85011004Y-102524922D01*
X85011005Y-102524924D01*
X85090024Y-102672758D01*
X85138687Y-102833177D01*
X85155117Y-103000000D01*
X85138687Y-103166823D01*
X85090024Y-103327242D01*
X85049477Y-103403100D01*
X85011004Y-103475078D01*
X84904659Y-103604659D01*
X84775078Y-103711004D01*
X84775076Y-103711005D01*
X84627242Y-103790024D01*
X84466823Y-103838687D01*
X84341804Y-103851000D01*
X84258196Y-103851000D01*
X84133177Y-103838687D01*
X83972758Y-103790024D01*
X83824924Y-103711005D01*
X83824922Y-103711004D01*
X83695341Y-103604659D01*
X83588996Y-103475078D01*
X83550523Y-103403100D01*
X83509976Y-103327242D01*
X83461313Y-103166823D01*
X83444883Y-103000000D01*
X83461313Y-102833177D01*
X83509976Y-102672758D01*
X83588995Y-102524924D01*
X83588996Y-102524922D01*
X83695341Y-102395341D01*
X83824922Y-102288996D01*
X83905639Y-102245852D01*
X83972758Y-102209976D01*
X84133177Y-102161313D01*
X84258196Y-102149000D01*
X84341804Y-102149000D01*
X84466823Y-102161313D01*
X84466823Y-102161313D01*
G37*
G36*
X111056564Y-100489389D02*
G01*
X111247833Y-100568615D01*
X111247835Y-100568616D01*
X111419973Y-100683635D01*
X111566365Y-100830027D01*
X111647197Y-100951000D01*
X111681385Y-101002167D01*
X111760611Y-101193436D01*
X111801000Y-101396484D01*
X111801000Y-101603516D01*
X111760611Y-101806564D01*
X111689915Y-101977239D01*
X111681384Y-101997835D01*
X111566365Y-102169973D01*
X111419973Y-102316365D01*
X111247835Y-102431384D01*
X111247834Y-102431385D01*
X111247833Y-102431385D01*
X111056564Y-102510611D01*
X110853516Y-102551000D01*
X110646484Y-102551000D01*
X110443436Y-102510611D01*
X110252167Y-102431385D01*
X110252166Y-102431385D01*
X110252165Y-102431384D01*
X110080027Y-102316365D01*
X109933635Y-102169973D01*
X109818616Y-101997835D01*
X109810085Y-101977239D01*
X109739389Y-101806564D01*
X109699000Y-101603516D01*
X109699000Y-101396484D01*
X109739389Y-101193436D01*
X109818615Y-101002167D01*
X109852804Y-100951000D01*
X109933635Y-100830027D01*
X110080027Y-100683635D01*
X110252165Y-100568616D01*
X110252167Y-100568615D01*
X110443436Y-100489389D01*
X110646484Y-100449000D01*
X110853516Y-100449000D01*
X111056564Y-100489389D01*
X111056564Y-100489389D01*
G37*
G36*
X104556564Y-100489389D02*
G01*
X104747833Y-100568615D01*
X104747835Y-100568616D01*
X104919973Y-100683635D01*
X105066365Y-100830027D01*
X105147197Y-100951000D01*
X105181385Y-101002167D01*
X105260611Y-101193436D01*
X105301000Y-101396484D01*
X105301000Y-101603516D01*
X105260611Y-101806564D01*
X105189915Y-101977239D01*
X105181384Y-101997835D01*
X105066365Y-102169973D01*
X104919973Y-102316365D01*
X104747835Y-102431384D01*
X104747834Y-102431385D01*
X104747833Y-102431385D01*
X104556564Y-102510611D01*
X104353516Y-102551000D01*
X104146484Y-102551000D01*
X103943436Y-102510611D01*
X103752167Y-102431385D01*
X103752166Y-102431385D01*
X103752165Y-102431384D01*
X103580027Y-102316365D01*
X103433635Y-102169973D01*
X103318616Y-101997835D01*
X103310085Y-101977239D01*
X103239389Y-101806564D01*
X103199000Y-101603516D01*
X103199000Y-101396484D01*
X103239389Y-101193436D01*
X103318615Y-101002167D01*
X103352804Y-100951000D01*
X103433635Y-100830027D01*
X103580027Y-100683635D01*
X103752165Y-100568616D01*
X103752167Y-100568615D01*
X103943436Y-100489389D01*
X104146484Y-100449000D01*
X104353516Y-100449000D01*
X104556564Y-100489389D01*
X104556564Y-100489389D01*
G37*
G36*
X136186425Y-100102760D02*
G01*
X136186428Y-100102761D01*
X136186429Y-100102761D01*
X136365693Y-100157140D01*
X136365696Y-100157142D01*
X136365697Y-100157142D01*
X136530903Y-100245446D01*
X136675712Y-100364288D01*
X136794554Y-100509097D01*
X136882858Y-100674303D01*
X136882860Y-100674307D01*
X136904617Y-100746032D01*
X136937240Y-100853575D01*
X136955601Y-101040000D01*
X136937240Y-101226425D01*
X136937239Y-101226428D01*
X136937239Y-101226429D01*
X136882860Y-101405693D01*
X136882858Y-101405696D01*
X136882858Y-101405697D01*
X136794554Y-101570903D01*
X136675712Y-101715712D01*
X136530903Y-101834554D01*
X136365697Y-101922858D01*
X136365693Y-101922860D01*
X136186429Y-101977239D01*
X136186428Y-101977239D01*
X136186425Y-101977240D01*
X136046718Y-101991000D01*
X135953282Y-101991000D01*
X135813575Y-101977240D01*
X135813572Y-101977239D01*
X135813571Y-101977239D01*
X135634307Y-101922860D01*
X135634303Y-101922858D01*
X135469097Y-101834554D01*
X135324288Y-101715712D01*
X135205446Y-101570903D01*
X135117142Y-101405697D01*
X135117142Y-101405696D01*
X135117140Y-101405693D01*
X135062761Y-101226429D01*
X135062761Y-101226428D01*
X135062760Y-101226425D01*
X135044399Y-101040000D01*
X135062760Y-100853575D01*
X135095383Y-100746032D01*
X135117140Y-100674307D01*
X135117142Y-100674303D01*
X135205446Y-100509097D01*
X135324288Y-100364288D01*
X135469097Y-100245446D01*
X135634303Y-100157142D01*
X135634304Y-100157142D01*
X135634307Y-100157140D01*
X135813571Y-100102761D01*
X135813572Y-100102761D01*
X135813575Y-100102760D01*
X135953282Y-100089000D01*
X136046718Y-100089000D01*
X136186425Y-100102760D01*
X136186425Y-100102760D01*
G37*
G36*
X75403097Y-99494069D02*
G01*
X75506032Y-99504207D01*
X75704146Y-99564305D01*
X75704149Y-99564306D01*
X75800975Y-99616061D01*
X75886729Y-99661897D01*
X76046765Y-99793235D01*
X76178103Y-99953271D01*
X76223939Y-100039025D01*
X76275694Y-100135851D01*
X76275695Y-100135854D01*
X76335793Y-100333968D01*
X76356085Y-100540000D01*
X76335793Y-100746032D01*
X76284702Y-100914453D01*
X76275694Y-100944149D01*
X76224460Y-101040000D01*
X76178103Y-101126729D01*
X76046765Y-101286765D01*
X75886729Y-101418103D01*
X75800975Y-101463939D01*
X75704149Y-101515694D01*
X75704146Y-101515695D01*
X75506032Y-101575793D01*
X75403097Y-101585931D01*
X75351631Y-101591000D01*
X74648369Y-101591000D01*
X74596903Y-101585931D01*
X74493968Y-101575793D01*
X74295854Y-101515695D01*
X74295851Y-101515694D01*
X74199025Y-101463939D01*
X74113271Y-101418103D01*
X73953235Y-101286765D01*
X73821897Y-101126729D01*
X73775540Y-101040000D01*
X73724306Y-100944149D01*
X73715298Y-100914453D01*
X73664207Y-100746032D01*
X73643915Y-100540000D01*
X73664207Y-100333968D01*
X73724305Y-100135854D01*
X73724306Y-100135851D01*
X73776061Y-100039025D01*
X73821897Y-99953271D01*
X73953235Y-99793235D01*
X74113271Y-99661897D01*
X74199025Y-99616061D01*
X74295851Y-99564306D01*
X74295854Y-99564305D01*
X74493968Y-99504207D01*
X74596903Y-99494069D01*
X74648369Y-99489000D01*
X75351631Y-99489000D01*
X75403097Y-99494069D01*
X75403097Y-99494069D01*
G37*
G36*
X121491000Y-100951000D02*
G01*
X119589000Y-100951000D01*
X119589000Y-99049000D01*
X121491000Y-99049000D01*
X121491000Y-100951000D01*
X121491000Y-100951000D01*
G37*
G36*
X118277395Y-99085546D02*
G01*
X118450466Y-99157234D01*
X118450467Y-99157235D01*
X118606227Y-99261310D01*
X118738690Y-99393773D01*
X118738691Y-99393775D01*
X118842766Y-99549534D01*
X118914454Y-99722605D01*
X118951000Y-99906333D01*
X118951000Y-100093667D01*
X118914454Y-100277395D01*
X118842766Y-100450466D01*
X118842765Y-100450467D01*
X118738690Y-100606227D01*
X118606227Y-100738690D01*
X118527818Y-100791081D01*
X118450466Y-100842766D01*
X118277395Y-100914454D01*
X118093667Y-100951000D01*
X117906333Y-100951000D01*
X117722605Y-100914454D01*
X117549534Y-100842766D01*
X117472182Y-100791081D01*
X117393773Y-100738690D01*
X117261310Y-100606227D01*
X117157235Y-100450467D01*
X117157234Y-100450466D01*
X117085546Y-100277395D01*
X117049000Y-100093667D01*
X117049000Y-99906333D01*
X117085546Y-99722605D01*
X117157234Y-99549534D01*
X117261309Y-99393775D01*
X117261310Y-99393773D01*
X117393773Y-99261310D01*
X117549533Y-99157235D01*
X117549534Y-99157234D01*
X117722605Y-99085546D01*
X117906333Y-99049000D01*
X118093667Y-99049000D01*
X118277395Y-99085546D01*
X118277395Y-99085546D01*
G37*
G36*
X136951000Y-99451000D02*
G01*
X135049000Y-99451000D01*
X135049000Y-97549000D01*
X136951000Y-97549000D01*
X136951000Y-99451000D01*
X136951000Y-99451000D01*
G37*
G36*
X76351000Y-99051000D02*
G01*
X73649000Y-99051000D01*
X73649000Y-96949000D01*
X76351000Y-96949000D01*
X76351000Y-99051000D01*
X76351000Y-99051000D01*
G37*
G36*
X100998228Y-95931703D02*
G01*
X101153100Y-95995853D01*
X101292481Y-96088985D01*
X101411015Y-96207519D01*
X101504147Y-96346900D01*
X101568297Y-96501772D01*
X101601000Y-96666184D01*
X101601000Y-96833816D01*
X101568297Y-96998228D01*
X101504147Y-97153100D01*
X101411015Y-97292481D01*
X101292481Y-97411015D01*
X101153100Y-97504147D01*
X100998228Y-97568297D01*
X100833816Y-97601000D01*
X100666184Y-97601000D01*
X100501772Y-97568297D01*
X100346900Y-97504147D01*
X100207519Y-97411015D01*
X100088985Y-97292481D01*
X99995853Y-97153100D01*
X99931703Y-96998228D01*
X99899000Y-96833816D01*
X99899000Y-96666184D01*
X99931703Y-96501772D01*
X99995853Y-96346900D01*
X100088985Y-96207519D01*
X100207519Y-96088985D01*
X100346900Y-95995853D01*
X100501772Y-95931703D01*
X100666184Y-95899000D01*
X100833816Y-95899000D01*
X100998228Y-95931703D01*
X100998228Y-95931703D01*
G37*
G36*
X113616823Y-95911313D02*
G01*
X113777242Y-95959976D01*
X113844361Y-95995852D01*
X113925078Y-96038996D01*
X114054659Y-96145341D01*
X114161004Y-96274922D01*
X114161005Y-96274924D01*
X114240024Y-96422758D01*
X114288687Y-96583177D01*
X114305117Y-96750000D01*
X114288687Y-96916823D01*
X114240024Y-97077242D01*
X114199477Y-97153100D01*
X114161004Y-97225078D01*
X114054659Y-97354659D01*
X113925078Y-97461004D01*
X113925076Y-97461005D01*
X113777242Y-97540024D01*
X113616823Y-97588687D01*
X113491804Y-97601000D01*
X113408196Y-97601000D01*
X113283177Y-97588687D01*
X113122758Y-97540024D01*
X112974924Y-97461005D01*
X112974922Y-97461004D01*
X112845341Y-97354659D01*
X112738996Y-97225078D01*
X112700523Y-97153100D01*
X112659976Y-97077242D01*
X112611313Y-96916823D01*
X112594883Y-96750000D01*
X112611313Y-96583177D01*
X112659976Y-96422758D01*
X112738995Y-96274924D01*
X112738996Y-96274922D01*
X112845341Y-96145341D01*
X112974922Y-96038996D01*
X113055639Y-95995852D01*
X113122758Y-95959976D01*
X113283177Y-95911313D01*
X113408196Y-95899000D01*
X113491804Y-95899000D01*
X113616823Y-95911313D01*
X113616823Y-95911313D01*
G37*
G36*
X100966823Y-91661313D02*
G01*
X101127242Y-91709976D01*
X101194361Y-91745852D01*
X101275078Y-91788996D01*
X101404659Y-91895341D01*
X101511004Y-92024922D01*
X101511005Y-92024924D01*
X101590024Y-92172758D01*
X101638687Y-92333177D01*
X101655117Y-92500000D01*
X101638687Y-92666823D01*
X101590024Y-92827242D01*
X101543408Y-92914454D01*
X101511004Y-92975078D01*
X101404659Y-93104659D01*
X101275078Y-93211004D01*
X101275076Y-93211005D01*
X101127242Y-93290024D01*
X100966823Y-93338687D01*
X100841804Y-93351000D01*
X100758196Y-93351000D01*
X100633177Y-93338687D01*
X100472758Y-93290024D01*
X100324924Y-93211005D01*
X100324922Y-93211004D01*
X100195341Y-93104659D01*
X100088996Y-92975078D01*
X100056592Y-92914454D01*
X100009976Y-92827242D01*
X99961313Y-92666823D01*
X99944883Y-92500000D01*
X99961313Y-92333177D01*
X100009976Y-92172758D01*
X100088995Y-92024924D01*
X100088996Y-92024922D01*
X100195341Y-91895341D01*
X100324922Y-91788996D01*
X100405639Y-91745852D01*
X100472758Y-91709976D01*
X100633177Y-91661313D01*
X100758196Y-91649000D01*
X100841804Y-91649000D01*
X100966823Y-91661313D01*
X100966823Y-91661313D01*
G37*
G36*
X113748228Y-91681703D02*
G01*
X113903100Y-91745853D01*
X114042481Y-91838985D01*
X114161015Y-91957519D01*
X114254147Y-92096900D01*
X114318297Y-92251772D01*
X114351000Y-92416184D01*
X114351000Y-92583816D01*
X114318297Y-92748228D01*
X114254147Y-92903100D01*
X114161015Y-93042481D01*
X114042481Y-93161015D01*
X113903100Y-93254147D01*
X113748228Y-93318297D01*
X113583816Y-93351000D01*
X113416184Y-93351000D01*
X113251772Y-93318297D01*
X113096900Y-93254147D01*
X112957519Y-93161015D01*
X112838985Y-93042481D01*
X112745853Y-92903100D01*
X112681703Y-92748228D01*
X112649000Y-92583816D01*
X112649000Y-92416184D01*
X112681703Y-92251772D01*
X112745853Y-92096900D01*
X112838985Y-91957519D01*
X112957519Y-91838985D01*
X113096900Y-91745853D01*
X113251772Y-91681703D01*
X113416184Y-91649000D01*
X113583816Y-91649000D01*
X113748228Y-91681703D01*
X113748228Y-91681703D01*
G37*
G36*
X117737395Y-91085546D02*
G01*
X117910466Y-91157234D01*
X117910467Y-91157235D01*
X118066227Y-91261310D01*
X118198690Y-91393773D01*
X118251081Y-91472182D01*
X118302766Y-91549534D01*
X118374454Y-91722605D01*
X118411000Y-91906333D01*
X118411000Y-92093667D01*
X118374454Y-92277395D01*
X118302766Y-92450466D01*
X118302765Y-92450467D01*
X118198690Y-92606227D01*
X118066227Y-92738690D01*
X117987818Y-92791081D01*
X117910466Y-92842766D01*
X117737395Y-92914454D01*
X117553667Y-92951000D01*
X117366333Y-92951000D01*
X117182605Y-92914454D01*
X117009534Y-92842766D01*
X116932182Y-92791081D01*
X116853773Y-92738690D01*
X116721310Y-92606227D01*
X116617235Y-92450467D01*
X116617234Y-92450466D01*
X116545546Y-92277395D01*
X116509000Y-92093667D01*
X116509000Y-91906333D01*
X116545546Y-91722605D01*
X116617234Y-91549534D01*
X116668919Y-91472182D01*
X116721310Y-91393773D01*
X116853773Y-91261310D01*
X117009533Y-91157235D01*
X117009534Y-91157234D01*
X117182605Y-91085546D01*
X117366333Y-91049000D01*
X117553667Y-91049000D01*
X117737395Y-91085546D01*
X117737395Y-91085546D01*
G37*
G36*
X120951000Y-92951000D02*
G01*
X119049000Y-92951000D01*
X119049000Y-91049000D01*
X120951000Y-91049000D01*
X120951000Y-92951000D01*
X120951000Y-92951000D01*
G37*
G36*
X75403097Y-89494069D02*
G01*
X75506032Y-89504207D01*
X75704146Y-89564305D01*
X75704149Y-89564306D01*
X75800975Y-89616061D01*
X75886729Y-89661897D01*
X76046765Y-89793235D01*
X76178103Y-89953271D01*
X76223939Y-90039025D01*
X76275694Y-90135851D01*
X76275695Y-90135854D01*
X76335793Y-90333968D01*
X76356085Y-90540000D01*
X76335793Y-90746032D01*
X76275695Y-90944146D01*
X76275694Y-90944149D01*
X76223939Y-91040975D01*
X76178103Y-91126729D01*
X76046765Y-91286765D01*
X75886729Y-91418103D01*
X75800975Y-91463939D01*
X75704149Y-91515694D01*
X75704146Y-91515695D01*
X75506032Y-91575793D01*
X75403097Y-91585931D01*
X75351631Y-91591000D01*
X74648369Y-91591000D01*
X74596903Y-91585931D01*
X74493968Y-91575793D01*
X74295854Y-91515695D01*
X74295851Y-91515694D01*
X74199025Y-91463939D01*
X74113271Y-91418103D01*
X73953235Y-91286765D01*
X73821897Y-91126729D01*
X73776061Y-91040975D01*
X73724306Y-90944149D01*
X73724305Y-90944146D01*
X73664207Y-90746032D01*
X73643915Y-90540000D01*
X73664207Y-90333968D01*
X73724305Y-90135854D01*
X73724306Y-90135851D01*
X73776061Y-90039025D01*
X73821897Y-89953271D01*
X73953235Y-89793235D01*
X74113271Y-89661897D01*
X74199025Y-89616061D01*
X74295851Y-89564306D01*
X74295854Y-89564305D01*
X74493968Y-89504207D01*
X74596903Y-89494069D01*
X74648369Y-89489000D01*
X75351631Y-89489000D01*
X75403097Y-89494069D01*
X75403097Y-89494069D01*
G37*
G36*
X100966823Y-87411313D02*
G01*
X101127242Y-87459976D01*
X101194361Y-87495852D01*
X101275078Y-87538996D01*
X101404659Y-87645341D01*
X101511004Y-87774922D01*
X101511005Y-87774924D01*
X101590024Y-87922758D01*
X101638687Y-88083177D01*
X101655117Y-88250000D01*
X101638687Y-88416823D01*
X101590024Y-88577242D01*
X101549477Y-88653100D01*
X101511004Y-88725078D01*
X101404659Y-88854659D01*
X101275078Y-88961004D01*
X101275076Y-88961005D01*
X101127242Y-89040024D01*
X100966823Y-89088687D01*
X100841804Y-89101000D01*
X100758196Y-89101000D01*
X100633177Y-89088687D01*
X100472758Y-89040024D01*
X100324924Y-88961005D01*
X100324922Y-88961004D01*
X100195341Y-88854659D01*
X100088996Y-88725078D01*
X100050523Y-88653100D01*
X100009976Y-88577242D01*
X99961313Y-88416823D01*
X99944883Y-88250000D01*
X99961313Y-88083177D01*
X100009976Y-87922758D01*
X100088995Y-87774924D01*
X100088996Y-87774922D01*
X100195341Y-87645341D01*
X100324922Y-87538996D01*
X100405639Y-87495852D01*
X100472758Y-87459976D01*
X100633177Y-87411313D01*
X100758196Y-87399000D01*
X100841804Y-87399000D01*
X100966823Y-87411313D01*
X100966823Y-87411313D01*
G37*
G36*
X113748228Y-87431703D02*
G01*
X113903100Y-87495853D01*
X114042481Y-87588985D01*
X114161015Y-87707519D01*
X114254147Y-87846900D01*
X114318297Y-88001772D01*
X114351000Y-88166184D01*
X114351000Y-88333816D01*
X114318297Y-88498228D01*
X114254147Y-88653100D01*
X114161015Y-88792481D01*
X114042481Y-88911015D01*
X113903100Y-89004147D01*
X113748228Y-89068297D01*
X113583816Y-89101000D01*
X113416184Y-89101000D01*
X113251772Y-89068297D01*
X113096900Y-89004147D01*
X112957519Y-88911015D01*
X112838985Y-88792481D01*
X112745853Y-88653100D01*
X112681703Y-88498228D01*
X112649000Y-88333816D01*
X112649000Y-88166184D01*
X112681703Y-88001772D01*
X112745853Y-87846900D01*
X112838985Y-87707519D01*
X112957519Y-87588985D01*
X113096900Y-87495853D01*
X113251772Y-87431703D01*
X113416184Y-87399000D01*
X113583816Y-87399000D01*
X113748228Y-87431703D01*
X113748228Y-87431703D01*
G37*
G36*
X76351000Y-89051000D02*
G01*
X73649000Y-89051000D01*
X73649000Y-86949000D01*
X76351000Y-86949000D01*
X76351000Y-89051000D01*
X76351000Y-89051000D01*
G37*
G36*
X146551000Y-87551000D02*
G01*
X143449000Y-87551000D01*
X143449000Y-84449000D01*
X146551000Y-84449000D01*
X146551000Y-87551000D01*
X146551000Y-87551000D01*
G37*
G36*
X137245239Y-84267101D02*
G01*
X137481053Y-84338634D01*
X137698381Y-84454799D01*
X137888871Y-84611129D01*
X138045201Y-84801619D01*
X138161366Y-85018947D01*
X138232899Y-85254761D01*
X138257053Y-85500000D01*
X138232899Y-85745239D01*
X138161366Y-85981053D01*
X138045201Y-86198381D01*
X137888871Y-86388871D01*
X137698381Y-86545201D01*
X137481053Y-86661366D01*
X137245239Y-86732899D01*
X137061457Y-86751000D01*
X136938543Y-86751000D01*
X136754761Y-86732899D01*
X136518947Y-86661366D01*
X136301619Y-86545201D01*
X136111129Y-86388871D01*
X135954799Y-86198381D01*
X135838634Y-85981053D01*
X135767101Y-85745239D01*
X135742947Y-85500000D01*
X135767101Y-85254761D01*
X135838634Y-85018947D01*
X135954799Y-84801619D01*
X136111129Y-84611129D01*
X136301619Y-84454799D01*
X136518947Y-84338634D01*
X136754761Y-84267101D01*
X136938543Y-84249000D01*
X137061457Y-84249000D01*
X137245239Y-84267101D01*
X137245239Y-84267101D01*
G37*
G36*
X100966823Y-83411313D02*
G01*
X101127242Y-83459976D01*
X101194361Y-83495852D01*
X101275078Y-83538996D01*
X101404659Y-83645341D01*
X101511004Y-83774922D01*
X101511005Y-83774924D01*
X101590024Y-83922758D01*
X101638687Y-84083177D01*
X101655117Y-84250000D01*
X101638687Y-84416823D01*
X101590024Y-84577242D01*
X101549477Y-84653100D01*
X101511004Y-84725078D01*
X101404659Y-84854659D01*
X101275078Y-84961004D01*
X101275076Y-84961005D01*
X101127242Y-85040024D01*
X100966823Y-85088687D01*
X100841804Y-85101000D01*
X100758196Y-85101000D01*
X100633177Y-85088687D01*
X100472758Y-85040024D01*
X100324924Y-84961005D01*
X100324922Y-84961004D01*
X100195341Y-84854659D01*
X100088996Y-84725078D01*
X100050523Y-84653100D01*
X100009976Y-84577242D01*
X99961313Y-84416823D01*
X99944883Y-84250000D01*
X99961313Y-84083177D01*
X100009976Y-83922758D01*
X100088995Y-83774924D01*
X100088996Y-83774922D01*
X100195341Y-83645341D01*
X100324922Y-83538996D01*
X100405639Y-83495852D01*
X100472758Y-83459976D01*
X100633177Y-83411313D01*
X100758196Y-83399000D01*
X100841804Y-83399000D01*
X100966823Y-83411313D01*
X100966823Y-83411313D01*
G37*
G36*
X113748228Y-83431703D02*
G01*
X113903100Y-83495853D01*
X114042481Y-83588985D01*
X114161015Y-83707519D01*
X114254147Y-83846900D01*
X114318297Y-84001772D01*
X114351000Y-84166184D01*
X114351000Y-84333816D01*
X114318297Y-84498228D01*
X114254147Y-84653100D01*
X114161015Y-84792481D01*
X114042481Y-84911015D01*
X113903100Y-85004147D01*
X113748228Y-85068297D01*
X113583816Y-85101000D01*
X113416184Y-85101000D01*
X113251772Y-85068297D01*
X113096900Y-85004147D01*
X112957519Y-84911015D01*
X112838985Y-84792481D01*
X112745853Y-84653100D01*
X112681703Y-84498228D01*
X112649000Y-84333816D01*
X112649000Y-84166184D01*
X112681703Y-84001772D01*
X112745853Y-83846900D01*
X112838985Y-83707519D01*
X112957519Y-83588985D01*
X113096900Y-83495853D01*
X113251772Y-83431703D01*
X113416184Y-83399000D01*
X113583816Y-83399000D01*
X113748228Y-83431703D01*
X113748228Y-83431703D01*
G37*
G36*
X145302585Y-79398802D02*
G01*
X145452410Y-79428604D01*
X145734674Y-79545521D01*
X145988705Y-79715259D01*
X146204741Y-79931295D01*
X146374479Y-80185326D01*
X146491396Y-80467590D01*
X146551000Y-80767240D01*
X146551000Y-81072760D01*
X146491396Y-81372410D01*
X146374479Y-81654674D01*
X146204741Y-81908705D01*
X145988705Y-82124741D01*
X145734674Y-82294479D01*
X145452410Y-82411396D01*
X145302585Y-82441198D01*
X145152761Y-82471000D01*
X144847239Y-82471000D01*
X144697415Y-82441198D01*
X144547590Y-82411396D01*
X144265326Y-82294479D01*
X144011295Y-82124741D01*
X143795259Y-81908705D01*
X143625521Y-81654674D01*
X143508604Y-81372410D01*
X143449000Y-81072760D01*
X143449000Y-80767240D01*
X143508604Y-80467590D01*
X143625521Y-80185326D01*
X143795259Y-79931295D01*
X144011295Y-79715259D01*
X144265326Y-79545521D01*
X144547590Y-79428604D01*
X144697415Y-79398802D01*
X144847239Y-79369000D01*
X145152761Y-79369000D01*
X145302585Y-79398802D01*
X145302585Y-79398802D01*
G37*
G36*
X138251000Y-81671000D02*
G01*
X135749000Y-81671000D01*
X135749000Y-79169000D01*
X138251000Y-79169000D01*
X138251000Y-81671000D01*
X138251000Y-81671000D01*
G37*
G36*
X86237142Y-78218242D02*
G01*
X86385101Y-78279529D01*
X86518255Y-78368499D01*
X86631501Y-78481745D01*
X86720471Y-78614899D01*
X86781758Y-78762858D01*
X86813000Y-78919925D01*
X86813000Y-79080075D01*
X86781758Y-79237142D01*
X86720471Y-79385101D01*
X86631501Y-79518255D01*
X86518255Y-79631501D01*
X86385101Y-79720471D01*
X86237142Y-79781758D01*
X86080075Y-79813000D01*
X85919925Y-79813000D01*
X85762858Y-79781758D01*
X85614899Y-79720471D01*
X85481745Y-79631501D01*
X85368499Y-79518255D01*
X85279529Y-79385101D01*
X85218242Y-79237142D01*
X85187000Y-79080075D01*
X85187000Y-78919925D01*
X85218242Y-78762858D01*
X85279529Y-78614899D01*
X85368499Y-78481745D01*
X85481745Y-78368499D01*
X85614899Y-78279529D01*
X85762858Y-78218242D01*
X85919925Y-78187000D01*
X86080075Y-78187000D01*
X86237142Y-78218242D01*
X86237142Y-78218242D01*
G37*
G36*
X127237142Y-78218242D02*
G01*
X127385101Y-78279529D01*
X127518255Y-78368499D01*
X127631501Y-78481745D01*
X127720471Y-78614899D01*
X127781758Y-78762858D01*
X127813000Y-78919925D01*
X127813000Y-79080075D01*
X127781758Y-79237142D01*
X127720471Y-79385101D01*
X127631501Y-79518255D01*
X127518255Y-79631501D01*
X127385101Y-79720471D01*
X127237142Y-79781758D01*
X127080075Y-79813000D01*
X126919925Y-79813000D01*
X126762858Y-79781758D01*
X126614899Y-79720471D01*
X126481745Y-79631501D01*
X126368499Y-79518255D01*
X126279529Y-79385101D01*
X126218242Y-79237142D01*
X126187000Y-79080075D01*
X126187000Y-78919925D01*
X126218242Y-78762858D01*
X126279529Y-78614899D01*
X126368499Y-78481745D01*
X126481745Y-78368499D01*
X126614899Y-78279529D01*
X126762858Y-78218242D01*
X126919925Y-78187000D01*
X127080075Y-78187000D01*
X127237142Y-78218242D01*
X127237142Y-78218242D01*
G37*
G36*
X75302585Y-68558802D02*
G01*
X75452410Y-68588604D01*
X75734674Y-68705521D01*
X75988705Y-68875259D01*
X76204741Y-69091295D01*
X76374479Y-69345326D01*
X76491396Y-69627590D01*
X76551000Y-69927240D01*
X76551000Y-70232760D01*
X76491396Y-70532410D01*
X76374479Y-70814674D01*
X76204741Y-71068705D01*
X75988705Y-71284741D01*
X75734674Y-71454479D01*
X75452410Y-71571396D01*
X75302585Y-71601198D01*
X75152761Y-71631000D01*
X74847239Y-71631000D01*
X74697415Y-71601198D01*
X74547590Y-71571396D01*
X74265326Y-71454479D01*
X74011295Y-71284741D01*
X73795259Y-71068705D01*
X73625521Y-70814674D01*
X73508604Y-70532410D01*
X73449000Y-70232760D01*
X73449000Y-69927240D01*
X73508604Y-69627590D01*
X73625521Y-69345326D01*
X73795259Y-69091295D01*
X74011295Y-68875259D01*
X74265326Y-68705521D01*
X74547590Y-68588604D01*
X74697415Y-68558802D01*
X74847239Y-68529000D01*
X75152761Y-68529000D01*
X75302585Y-68558802D01*
X75302585Y-68558802D01*
G37*
G36*
X135186425Y-67642760D02*
G01*
X135186428Y-67642761D01*
X135186429Y-67642761D01*
X135365693Y-67697140D01*
X135365696Y-67697142D01*
X135365697Y-67697142D01*
X135530903Y-67785446D01*
X135675712Y-67904288D01*
X135794554Y-68049097D01*
X135882858Y-68214303D01*
X135882860Y-68214307D01*
X135937239Y-68393571D01*
X135937240Y-68393575D01*
X135955601Y-68580000D01*
X135937240Y-68766425D01*
X135937239Y-68766428D01*
X135937239Y-68766429D01*
X135882860Y-68945693D01*
X135882858Y-68945696D01*
X135882858Y-68945697D01*
X135794554Y-69110903D01*
X135675712Y-69255712D01*
X135530903Y-69374554D01*
X135365697Y-69462858D01*
X135365693Y-69462860D01*
X135186429Y-69517239D01*
X135186428Y-69517239D01*
X135186425Y-69517240D01*
X135046718Y-69531000D01*
X134953282Y-69531000D01*
X134813575Y-69517240D01*
X134813572Y-69517239D01*
X134813571Y-69517239D01*
X134634307Y-69462860D01*
X134634303Y-69462858D01*
X134469097Y-69374554D01*
X134324288Y-69255712D01*
X134205446Y-69110903D01*
X134117142Y-68945697D01*
X134117142Y-68945696D01*
X134117140Y-68945693D01*
X134062761Y-68766429D01*
X134062761Y-68766428D01*
X134062760Y-68766425D01*
X134044399Y-68580000D01*
X134062760Y-68393575D01*
X134062761Y-68393571D01*
X134117140Y-68214307D01*
X134117142Y-68214303D01*
X134205446Y-68049097D01*
X134324288Y-67904288D01*
X134469097Y-67785446D01*
X134634303Y-67697142D01*
X134634304Y-67697142D01*
X134634307Y-67697140D01*
X134813571Y-67642761D01*
X134813572Y-67642761D01*
X134813575Y-67642760D01*
X134953282Y-67629000D01*
X135046718Y-67629000D01*
X135186425Y-67642760D01*
X135186425Y-67642760D01*
G37*
G36*
X135186425Y-65102760D02*
G01*
X135186428Y-65102761D01*
X135186429Y-65102761D01*
X135365693Y-65157140D01*
X135365696Y-65157142D01*
X135365697Y-65157142D01*
X135530903Y-65245446D01*
X135675712Y-65364288D01*
X135794554Y-65509097D01*
X135882858Y-65674303D01*
X135882860Y-65674307D01*
X135937239Y-65853571D01*
X135937240Y-65853575D01*
X135955601Y-66040000D01*
X135937240Y-66226425D01*
X135937239Y-66226428D01*
X135937239Y-66226429D01*
X135882860Y-66405693D01*
X135882858Y-66405696D01*
X135882858Y-66405697D01*
X135794554Y-66570903D01*
X135675712Y-66715712D01*
X135530903Y-66834554D01*
X135365697Y-66922858D01*
X135365693Y-66922860D01*
X135186429Y-66977239D01*
X135186428Y-66977239D01*
X135186425Y-66977240D01*
X135046718Y-66991000D01*
X134953282Y-66991000D01*
X134813575Y-66977240D01*
X134813572Y-66977239D01*
X134813571Y-66977239D01*
X134634307Y-66922860D01*
X134634303Y-66922858D01*
X134469097Y-66834554D01*
X134324288Y-66715712D01*
X134205446Y-66570903D01*
X134117142Y-66405697D01*
X134117142Y-66405696D01*
X134117140Y-66405693D01*
X134062761Y-66226429D01*
X134062761Y-66226428D01*
X134062760Y-66226425D01*
X134044399Y-66040000D01*
X134062760Y-65853575D01*
X134062761Y-65853571D01*
X134117140Y-65674307D01*
X134117142Y-65674303D01*
X134205446Y-65509097D01*
X134324288Y-65364288D01*
X134469097Y-65245446D01*
X134634303Y-65157142D01*
X134634304Y-65157142D01*
X134634307Y-65157140D01*
X134813571Y-65102761D01*
X134813572Y-65102761D01*
X134813575Y-65102760D01*
X134953282Y-65089000D01*
X135046718Y-65089000D01*
X135186425Y-65102760D01*
X135186425Y-65102760D01*
G37*
G36*
X76551000Y-66551000D02*
G01*
X73449000Y-66551000D01*
X73449000Y-63449000D01*
X76551000Y-63449000D01*
X76551000Y-66551000D01*
X76551000Y-66551000D01*
G37*
G36*
X135951000Y-64451000D02*
G01*
X134049000Y-64451000D01*
X134049000Y-62549000D01*
X135951000Y-62549000D01*
X135951000Y-64451000D01*
X135951000Y-64451000D01*
G37*
G36*
X86237142Y-59218242D02*
G01*
X86385101Y-59279529D01*
X86518255Y-59368499D01*
X86631501Y-59481745D01*
X86720471Y-59614899D01*
X86781758Y-59762858D01*
X86813000Y-59919925D01*
X86813000Y-60080075D01*
X86781758Y-60237142D01*
X86720471Y-60385101D01*
X86631501Y-60518255D01*
X86518255Y-60631501D01*
X86385101Y-60720471D01*
X86237142Y-60781758D01*
X86080075Y-60813000D01*
X85919925Y-60813000D01*
X85762858Y-60781758D01*
X85614899Y-60720471D01*
X85481745Y-60631501D01*
X85368499Y-60518255D01*
X85279529Y-60385101D01*
X85218242Y-60237142D01*
X85187000Y-60080075D01*
X85187000Y-59919925D01*
X85218242Y-59762858D01*
X85279529Y-59614899D01*
X85368499Y-59481745D01*
X85481745Y-59368499D01*
X85614899Y-59279529D01*
X85762858Y-59218242D01*
X85919925Y-59187000D01*
X86080075Y-59187000D01*
X86237142Y-59218242D01*
X86237142Y-59218242D01*
G37*
G36*
X127237142Y-59218242D02*
G01*
X127385101Y-59279529D01*
X127518255Y-59368499D01*
X127631501Y-59481745D01*
X127720471Y-59614899D01*
X127781758Y-59762858D01*
X127813000Y-59919925D01*
X127813000Y-60080075D01*
X127781758Y-60237142D01*
X127720471Y-60385101D01*
X127631501Y-60518255D01*
X127518255Y-60631501D01*
X127385101Y-60720471D01*
X127237142Y-60781758D01*
X127080075Y-60813000D01*
X126919925Y-60813000D01*
X126762858Y-60781758D01*
X126614899Y-60720471D01*
X126481745Y-60631501D01*
X126368499Y-60518255D01*
X126279529Y-60385101D01*
X126218242Y-60237142D01*
X126187000Y-60080075D01*
X126187000Y-59919925D01*
X126218242Y-59762858D01*
X126279529Y-59614899D01*
X126368499Y-59481745D01*
X126481745Y-59368499D01*
X126614899Y-59279529D01*
X126762858Y-59218242D01*
X126919925Y-59187000D01*
X127080075Y-59187000D01*
X127237142Y-59218242D01*
X127237142Y-59218242D01*
G37*
G36*
X145551000Y-52551000D02*
G01*
X142449000Y-52551000D01*
X142449000Y-49449000D01*
X145551000Y-49449000D01*
X145551000Y-52551000D01*
X145551000Y-52551000D01*
G37*
G36*
X136245239Y-48847101D02*
G01*
X136481053Y-48918634D01*
X136698381Y-49034799D01*
X136888871Y-49191129D01*
X137045201Y-49381619D01*
X137161366Y-49598947D01*
X137232899Y-49834761D01*
X137257053Y-50080000D01*
X137232899Y-50325239D01*
X137161366Y-50561053D01*
X137045201Y-50778381D01*
X136888871Y-50968871D01*
X136698381Y-51125201D01*
X136481053Y-51241366D01*
X136245239Y-51312899D01*
X136061457Y-51331000D01*
X135938543Y-51331000D01*
X135754761Y-51312899D01*
X135518947Y-51241366D01*
X135301619Y-51125201D01*
X135111129Y-50968871D01*
X134954799Y-50778381D01*
X134838634Y-50561053D01*
X134767101Y-50325239D01*
X134742947Y-50080000D01*
X134767101Y-49834761D01*
X134838634Y-49598947D01*
X134954799Y-49381619D01*
X135111129Y-49191129D01*
X135301619Y-49034799D01*
X135518947Y-48918634D01*
X135754761Y-48847101D01*
X135938543Y-48829000D01*
X136061457Y-48829000D01*
X136245239Y-48847101D01*
X136245239Y-48847101D01*
G37*
G36*
X144302585Y-44398802D02*
G01*
X144452410Y-44428604D01*
X144734674Y-44545521D01*
X144988705Y-44715259D01*
X145204741Y-44931295D01*
X145374479Y-45185326D01*
X145491396Y-45467590D01*
X145551000Y-45767240D01*
X145551000Y-46072760D01*
X145491396Y-46372410D01*
X145374479Y-46654674D01*
X145204741Y-46908705D01*
X144988705Y-47124741D01*
X144734674Y-47294479D01*
X144452410Y-47411396D01*
X144302585Y-47441198D01*
X144152761Y-47471000D01*
X143847239Y-47471000D01*
X143697415Y-47441198D01*
X143547590Y-47411396D01*
X143265326Y-47294479D01*
X143011295Y-47124741D01*
X142795259Y-46908705D01*
X142625521Y-46654674D01*
X142508604Y-46372410D01*
X142449000Y-46072760D01*
X142449000Y-45767240D01*
X142508604Y-45467590D01*
X142625521Y-45185326D01*
X142795259Y-44931295D01*
X143011295Y-44715259D01*
X143265326Y-44545521D01*
X143547590Y-44428604D01*
X143697415Y-44398802D01*
X143847239Y-44369000D01*
X144152761Y-44369000D01*
X144302585Y-44398802D01*
X144302585Y-44398802D01*
G37*
G36*
X137251000Y-46251000D02*
G01*
X134749000Y-46251000D01*
X134749000Y-43749000D01*
X137251000Y-43749000D01*
X137251000Y-46251000D01*
X137251000Y-46251000D01*
G37*
G36*
X65642007Y-32883582D02*
G01*
X66042563Y-33049498D01*
X66042565Y-33049499D01*
X66403056Y-33290371D01*
X66709629Y-33596944D01*
X66950501Y-33957435D01*
X66950502Y-33957437D01*
X67116418Y-34357993D01*
X67201000Y-34783219D01*
X67201000Y-35216781D01*
X67116418Y-35642007D01*
X66950502Y-36042563D01*
X66950501Y-36042565D01*
X66709629Y-36403056D01*
X66403056Y-36709629D01*
X66042565Y-36950501D01*
X66042564Y-36950502D01*
X66042563Y-36950502D01*
X65642007Y-37116418D01*
X65216781Y-37201000D01*
X64783219Y-37201000D01*
X64357993Y-37116418D01*
X63957437Y-36950502D01*
X63957436Y-36950502D01*
X63957435Y-36950501D01*
X63596944Y-36709629D01*
X63290371Y-36403056D01*
X63049499Y-36042565D01*
X63049498Y-36042563D01*
X62883582Y-35642007D01*
X62799000Y-35216781D01*
X62799000Y-34783219D01*
X62883582Y-34357993D01*
X63049498Y-33957437D01*
X63049499Y-33957435D01*
X63290371Y-33596944D01*
X63596944Y-33290371D01*
X63957435Y-33049499D01*
X63957437Y-33049498D01*
X64357993Y-32883582D01*
X64783219Y-32799000D01*
X65216781Y-32799000D01*
X65642007Y-32883582D01*
X65642007Y-32883582D01*
G37*
G36*
X150642007Y-32883582D02*
G01*
X151042563Y-33049498D01*
X151042565Y-33049499D01*
X151403056Y-33290371D01*
X151709629Y-33596944D01*
X151950501Y-33957435D01*
X151950502Y-33957437D01*
X152116418Y-34357993D01*
X152201000Y-34783219D01*
X152201000Y-35216781D01*
X152116418Y-35642007D01*
X151950502Y-36042563D01*
X151950501Y-36042565D01*
X151709629Y-36403056D01*
X151403056Y-36709629D01*
X151042565Y-36950501D01*
X151042564Y-36950502D01*
X151042563Y-36950502D01*
X150642007Y-37116418D01*
X150216781Y-37201000D01*
X149783219Y-37201000D01*
X149357993Y-37116418D01*
X148957437Y-36950502D01*
X148957436Y-36950502D01*
X148957435Y-36950501D01*
X148596944Y-36709629D01*
X148290371Y-36403056D01*
X148049499Y-36042565D01*
X148049498Y-36042563D01*
X147883582Y-35642007D01*
X147799000Y-35216781D01*
X147799000Y-34783219D01*
X147883582Y-34357993D01*
X148049498Y-33957437D01*
X148049499Y-33957435D01*
X148290371Y-33596944D01*
X148596944Y-33290371D01*
X148957435Y-33049499D01*
X148957437Y-33049498D01*
X149357993Y-32883582D01*
X149783219Y-32799000D01*
X150216781Y-32799000D01*
X150642007Y-32883582D01*
X150642007Y-32883582D01*
G37*
M02*
