G04 #@! TF.GenerationSoftware,KiCad,Pcbnew,(5.1.2)-2*
G04 #@! TF.CreationDate,2019-07-31T12:25:26+05:30*
G04 #@! TF.ProjectId,DoorInterlock29_07_2019,446f6f72-496e-4746-9572-6c6f636b3239,rev?*
G04 #@! TF.SameCoordinates,Original*
G04 #@! TF.FileFunction,Copper,L1,Top*
G04 #@! TF.FilePolarity,Positive*
%FSLAX46Y46*%
G04 Gerber Fmt 4.6, Leading zero omitted, Abs format (unit mm)*
G04 Created by KiCad (PCBNEW (5.1.2)-2) date 2019-07-31 12:25:26*
%MOMM*%
%LPD*%
G04 APERTURE LIST*
%ADD10R,2.400000X2.400000*%
%ADD11O,2.400000X2.400000*%
%ADD12R,1.800000X1.800000*%
%ADD13C,1.800000*%
%ADD14R,3.000000X3.000000*%
%ADD15C,3.000000*%
%ADD16R,2.600000X2.000000*%
%ADD17O,2.600000X2.000000*%
%ADD18O,1.800000X1.800000*%
%ADD19C,1.600000*%
%ADD20O,1.600000X1.600000*%
%ADD21C,2.000000*%
%ADD22C,2.300000*%
%ADD23R,2.400000X1.600000*%
%ADD24O,2.400000X1.600000*%
%ADD25C,1.524000*%
%ADD26C,0.800000*%
%ADD27C,0.800000*%
G04 APERTURE END LIST*
D10*
X136000000Y-45000000D03*
D11*
X136000000Y-50080000D03*
D10*
X137000000Y-80420000D03*
D11*
X137000000Y-85500000D03*
D10*
X137000000Y-115500000D03*
D11*
X137000000Y-120580000D03*
D12*
X120000000Y-92000000D03*
D13*
X117460000Y-92000000D03*
D12*
X120540000Y-100000000D03*
D13*
X118000000Y-100000000D03*
D12*
X121000000Y-109000000D03*
D13*
X118460000Y-109000000D03*
D14*
X75000000Y-65000000D03*
D15*
X75000000Y-70080000D03*
D14*
X145000000Y-121000000D03*
D15*
X145000000Y-115920000D03*
D16*
X75000000Y-123000000D03*
D17*
X75000000Y-125540000D03*
D16*
X75000000Y-88000000D03*
D17*
X75000000Y-90540000D03*
D14*
X145000000Y-86000000D03*
D15*
X145000000Y-80920000D03*
D16*
X75000000Y-98000000D03*
D17*
X75000000Y-100540000D03*
D16*
X75000000Y-133000000D03*
D17*
X75000000Y-135540000D03*
D16*
X75000000Y-143000000D03*
D17*
X75000000Y-145540000D03*
D16*
X75000000Y-108000000D03*
D17*
X75000000Y-110540000D03*
D12*
X136000000Y-133500000D03*
D18*
X136000000Y-136040000D03*
X136000000Y-138580000D03*
D19*
X113500000Y-92500000D03*
D20*
X100800000Y-92500000D03*
D19*
X113500000Y-88250000D03*
D20*
X100800000Y-88250000D03*
D19*
X113500000Y-84250000D03*
D20*
X100800000Y-84250000D03*
D19*
X100750000Y-96750000D03*
D20*
X113450000Y-96750000D03*
D19*
X117000000Y-143000000D03*
D20*
X117000000Y-130300000D03*
D19*
X97000000Y-134000000D03*
D20*
X84300000Y-134000000D03*
D19*
X97000000Y-103000000D03*
D20*
X84300000Y-103000000D03*
D19*
X122000000Y-136000000D03*
D20*
X122000000Y-123300000D03*
D19*
X97000000Y-108000000D03*
D20*
X84300000Y-108000000D03*
D19*
X97000000Y-139000000D03*
D20*
X84300000Y-139000000D03*
D19*
X127000000Y-129000000D03*
D20*
X127000000Y-116300000D03*
D19*
X97000000Y-144000000D03*
D20*
X84300000Y-144000000D03*
D19*
X97000000Y-113000000D03*
D20*
X84300000Y-113000000D03*
D21*
X104250000Y-106000000D03*
X104250000Y-101500000D03*
X110750000Y-106000000D03*
X110750000Y-101500000D03*
D22*
X91000000Y-125650000D03*
X91000000Y-120750000D03*
D12*
X136000000Y-98500000D03*
D18*
X136000000Y-101040000D03*
X136000000Y-103580000D03*
D12*
X135000000Y-63500000D03*
D18*
X135000000Y-66040000D03*
X135000000Y-68580000D03*
D23*
X104000000Y-110000000D03*
D24*
X111620000Y-143020000D03*
X104000000Y-112540000D03*
X111620000Y-140480000D03*
X104000000Y-115080000D03*
X111620000Y-137940000D03*
X104000000Y-117620000D03*
X111620000Y-135400000D03*
X104000000Y-120160000D03*
X111620000Y-132860000D03*
X104000000Y-122700000D03*
X111620000Y-130320000D03*
X104000000Y-125240000D03*
X111620000Y-127780000D03*
X104000000Y-127780000D03*
X111620000Y-125240000D03*
X104000000Y-130320000D03*
X111620000Y-122700000D03*
X104000000Y-132860000D03*
X111620000Y-120160000D03*
X104000000Y-135400000D03*
X111620000Y-117620000D03*
X104000000Y-137940000D03*
X111620000Y-115080000D03*
X104000000Y-140480000D03*
X111620000Y-112540000D03*
X104000000Y-143020000D03*
X111620000Y-110000000D03*
D19*
X83500000Y-120750000D03*
X86000000Y-120750000D03*
X86000000Y-125750000D03*
X83500000Y-125750000D03*
D14*
X144000000Y-51000000D03*
D15*
X144000000Y-45920000D03*
D25*
X127000000Y-60000000D03*
X127000000Y-79000000D03*
X86000000Y-79000000D03*
X86000000Y-60000000D03*
D26*
X81000000Y-119000000D03*
X81000000Y-114000000D03*
X81000000Y-135000000D03*
X81000000Y-129000000D03*
D27*
X81000000Y-119000000D02*
X81000000Y-114000000D01*
X81000000Y-135000000D02*
X81000000Y-129000000D01*
M02*
